<svg width="70" height="70" viewBox="0 0 70 70" fill="none" xmlns="http://www.w3.org/2000/svg">
<path d="M19.9422 59.736L15.7897 57.6599C15.7656 57.6479 15.7506 57.6237 15.7506 57.5968L15.7509 55.5098C17.4555 54.336 18.662 52.4805 18.9639 50.3028C19.7306 48.9779 20.1346 47.4814 20.1346 45.9597C20.1346 43.1221 18.7682 40.598 16.6594 39.0096C16.7829 38.5979 16.8468 38.1731 16.8468 37.74C16.8468 35.0595 14.4202 32.8788 11.4377 32.8788C8.45514 32.8788 6.02852 35.0595 6.02852 37.74C6.02852 38.1738 6.09168 38.5987 6.21527 39.0101C4.1068 40.5987 2.7407 43.1225 2.7407 45.9597C2.7407 47.4814 3.14498 48.9782 3.91143 50.3028C4.2133 52.4805 5.41984 54.336 7.12445 55.5098V57.5966C7.12445 57.6236 7.10955 57.6478 7.08549 57.6598L2.93307 59.736C1.46238 60.4713 0.548828 61.9496 0.548828 63.5939V68.9746C0.548828 69.5409 1.00793 70 1.57422 70C2.14051 70 2.59961 69.5409 2.59961 68.9746V63.5939C2.59961 62.7314 3.07881 61.9561 3.85018 61.5704L7.27525 59.8578L10.4124 62.8391V68.9746C10.4124 69.5409 10.8715 70 11.4378 70C12.0041 70 12.4632 69.5409 12.4632 68.9746V62.839L15.6002 59.8578L19.0253 61.5702C19.7968 61.9559 20.276 62.7314 20.276 63.5939V68.9746C20.276 69.5409 20.7351 70 21.3014 70C21.8677 70 22.3268 69.5409 22.3268 68.9746V63.5939C22.3266 61.9496 21.4131 60.4713 19.9422 59.736ZM11.4377 34.9295C13.2894 34.9295 14.796 36.1903 14.796 37.7399C14.796 37.8048 14.7908 37.8692 14.7856 37.9336C13.7545 37.5019 12.6236 37.2626 11.4377 37.2626C10.2519 37.2626 9.12109 37.5019 8.09023 37.9335C8.08504 37.8691 8.0793 37.805 8.0793 37.7399C8.0793 36.1902 9.58594 34.9295 11.4377 34.9295ZM11.4377 60.9843L8.926 58.5974C9.08678 58.2961 9.1751 57.9544 9.1751 57.5965V56.5053C9.89137 56.7277 10.651 56.8485 11.4377 56.8485C12.2242 56.8485 12.9839 56.7277 13.6999 56.5055L13.6998 57.5964C13.6998 57.9544 13.7881 58.2962 13.949 58.5977L11.4377 60.9843ZM11.4377 54.7976C8.59869 54.7977 6.22744 52.6718 5.92201 49.8525C5.90561 49.7014 5.85598 49.5559 5.77641 49.4265C5.13205 48.377 4.79135 47.1781 4.79135 45.9595C4.79135 42.2948 7.77291 39.3132 11.4377 39.3132C15.1024 39.3132 18.084 42.2948 18.084 45.9595C18.084 46.6661 17.9687 47.3657 17.7468 48.0338C14.8353 45.0758 9.71336 43.9167 9.46644 43.8623C9.15541 43.7937 8.8292 43.8507 8.58502 44.0559C8.34385 44.2589 8.20904 44.5388 8.21998 44.8529C8.21219 44.9525 8.13467 45.6205 7.42482 46.3305C7.02437 46.7309 7.02437 47.3801 7.42482 47.7805C7.82527 48.181 8.47455 48.181 8.87486 47.7805C9.45154 47.2038 9.79019 46.6185 9.98912 46.1243C11.7145 46.6369 15.2956 47.9313 16.9027 50.2033C16.4466 52.8459 14.1574 54.7976 11.4377 54.7976Z" fill="black"/>
<path d="M5.95703 64.9203C5.39074 64.9203 4.93164 65.3795 4.93164 65.9457V68.9746C4.93164 69.5409 5.39074 70 5.95703 70C6.52332 70 6.98242 69.5409 6.98242 68.9746V65.9457C6.98242 65.3795 6.52332 64.9203 5.95703 64.9203Z" fill="black"/>
<path d="M16.918 64.9203C16.3517 64.9203 15.8926 65.3795 15.8926 65.9457V68.9746C15.8926 69.5409 16.3517 70 16.918 70C17.4843 70 17.9434 69.5409 17.9434 68.9746V65.9457C17.9434 65.3795 17.4843 64.9203 16.918 64.9203Z" fill="black"/>
<path d="M47.0582 54.9581L35.4775 47.5887V36.0959C35.4775 35.5297 35.0184 35.0706 34.4522 35.0706C33.8859 35.0706 33.4268 35.5297 33.4268 36.0959V47.5887L21.8461 54.9581C21.3683 55.2621 21.2275 55.8958 21.5316 56.3737C21.7271 56.6807 22.0587 56.8486 22.3977 56.8486C22.5859 56.8486 22.7765 56.7968 22.9471 56.6881L34.4522 49.3668L45.9572 56.6881C46.435 56.9923 47.0687 56.8514 47.3728 56.3737C47.6768 55.8958 47.5359 55.2621 47.0582 54.9581Z" fill="#FF5555"/>
<path d="M42.9579 22.4736L40.3099 21.1497C41.8626 20.793 43.0268 20.3487 43.8029 19.9912C44.8205 19.5226 45.2907 18.3691 44.8967 17.3083C43.9956 14.882 43.2905 10.6334 43.1478 8.62449C42.7984 3.70768 39.0606 0 34.4534 0C29.8463 0 26.1084 3.70768 25.7589 8.62436C25.6162 10.6334 24.9111 14.8818 24.01 17.3082C23.616 18.369 24.0862 19.5225 25.1038 19.991C25.8806 20.3488 27.0445 20.793 28.5965 21.1496L25.9487 22.4736C24.478 23.209 23.5645 24.6872 23.5645 26.3315V31.7122C23.5645 32.2785 24.0236 32.7376 24.5898 32.7376C25.1561 32.7376 25.6152 32.2785 25.6152 31.7122V26.3315C25.6152 25.4691 26.0944 24.6936 26.8658 24.3079L30.2909 22.5954L31.4821 23.7274C32.3151 24.519 33.3843 24.9149 34.4533 24.9149C35.5224 24.9149 36.5916 24.5191 37.4246 23.7274L38.6157 22.5954L42.0408 24.3078C42.8123 24.6935 43.2915 25.4689 43.2915 26.3315V31.7122C43.2915 32.2785 43.7506 32.7376 44.3168 32.7376C44.8831 32.7376 45.3422 32.2785 45.3422 31.7122V26.3315C45.3422 24.6872 44.4285 23.2088 42.9579 22.4736ZM30.1401 19.3699C28.1958 19.0311 26.8126 18.5201 25.9615 18.1281C25.9059 18.1027 25.9275 18.0355 25.9324 18.0223C26.3695 16.8454 26.7581 15.3121 27.0684 13.7806C27.5151 15.6168 28.6296 17.1939 30.1401 18.2388V19.3699ZM36.0119 22.2407C35.1381 23.0713 33.7689 23.0713 32.8948 22.2407L31.9418 21.335C32.1025 21.0336 32.1909 20.692 32.1909 20.334V19.2421C32.9058 19.4655 33.6658 19.5859 34.4533 19.5859C35.24 19.5859 35.9996 19.4649 36.7157 19.2428L36.7156 20.3339C36.7156 20.692 36.8039 21.0338 36.9647 21.3352L36.0119 22.2407ZM34.4533 17.5351C31.3928 17.5351 28.9029 15.0452 28.9029 11.9848C28.9029 11.4185 28.4438 10.9594 27.8775 10.9594C27.7624 10.9594 27.6521 10.9792 27.5488 11.0142C27.6738 10.1511 27.7614 9.37412 27.8044 8.76955C27.9353 6.92822 28.6713 5.231 29.8766 3.99109C31.0929 2.73984 32.7182 2.05078 34.4534 2.05078C36.1886 2.05078 37.814 2.73984 39.0302 3.99109C40.2355 5.23113 40.9715 6.92822 41.1023 8.76982C41.1484 9.41801 41.246 10.2648 41.3857 11.2031C40.2813 9.32695 38.4888 7.95115 36.1319 7.19387C34.0758 6.53324 32.3071 6.57385 32.233 6.57617C31.9644 6.58356 31.7096 6.69607 31.5233 6.8894L29.6739 8.80729C29.2808 9.21498 29.2926 9.86412 29.7003 10.2572C30.1079 10.6503 30.7571 10.6384 31.1502 10.2308L32.6882 8.6357C33.2558 8.66401 34.3595 8.77065 35.5611 9.16453C37.6712 9.85633 39.1415 11.0943 39.9353 12.8464C39.5183 15.537 37.2056 17.5351 34.4533 17.5351ZM38.7666 18.2484C40.2749 17.21 41.3915 15.6369 41.8381 13.78C42.1485 15.3117 42.537 16.8454 42.9743 18.0225C42.9793 18.0355 43.0009 18.1027 42.9451 18.1284C42.095 18.5199 40.7116 19.031 38.7665 19.37L38.7666 18.2484Z" fill="black"/>
<path d="M28.9727 27.6578C28.4064 27.6578 27.9473 28.1169 27.9473 28.6832V31.7122C27.9473 32.2785 28.4064 32.7376 28.9727 32.7376C29.5389 32.7376 29.998 32.2785 29.998 31.7122V28.6832C29.998 28.1169 29.5389 27.6578 28.9727 27.6578Z" fill="black"/>
<path d="M39.9316 27.6578C39.3654 27.6578 38.9062 28.1169 38.9062 28.6832V31.7122C38.9062 32.2785 39.3654 32.7376 39.9316 32.7376C40.4979 32.7376 40.957 32.2785 40.957 31.7122V28.6832C40.957 28.1169 40.4979 27.6578 39.9316 27.6578Z" fill="black"/>
<path d="M61.2139 43.9464C58.8328 42.7559 54.3685 42.7422 54.1796 42.7422C53.6134 42.7422 53.1544 43.201 53.1543 43.7673C53.1542 44.3335 53.613 44.7927 54.1793 44.793C55.3328 44.7937 58.6805 44.9725 60.2968 45.7808C60.444 45.8543 60.6004 45.8892 60.7545 45.8892C61.1306 45.8892 61.4928 45.6814 61.6724 45.3221C61.9258 44.8155 61.7204 44.1996 61.2139 43.9464Z" fill="black"/>
<path d="M66.3241 58.5399L62.6265 57.4834C62.1283 57.3411 61.7805 56.8798 61.7805 56.3616L61.7807 55.5063C62.1251 55.2678 62.4535 55.0007 62.7605 54.7027C64.2488 53.2584 65.0685 51.321 65.0685 49.2475V47.2976L65.4777 46.4792C65.9271 45.5807 66.1644 44.5747 66.1644 43.57V38.2878C66.1644 37.7216 65.7053 37.2625 65.139 37.2625H55.2754C51.6885 37.2625 48.7702 40.1807 48.7702 43.7677V43.8288C48.7702 44.6641 48.9677 45.5006 49.3413 46.2479L49.8662 47.2976V48.9717C49.8662 51.6249 51.1736 54.0056 53.154 55.4382V56.3618C53.154 56.8798 52.8062 57.3411 52.308 57.4834L48.6107 58.5399C46.7688 59.0661 45.4824 60.7716 45.4824 62.6872V68.9746C45.4824 69.5409 45.9415 70 46.5078 70C47.0741 70 47.5332 69.5409 47.5332 68.9746V62.6871C47.5332 61.6822 48.208 60.7876 49.1741 60.5116L52.8713 59.4552C53.1921 59.3634 53.4892 59.2222 53.758 59.0438L54.4173 59.7032C55.2581 60.544 56.3626 60.9644 57.4672 60.9644C58.5717 60.9644 59.6763 60.544 60.5171 59.7032L61.1762 59.0441C61.4449 59.2225 61.742 59.3637 62.0628 59.4555L65.7604 60.5119C66.7265 60.7879 67.4013 61.6825 67.4013 62.6873V68.9746C67.4013 69.5409 67.8604 70 68.4267 70C68.993 70 69.4521 69.5409 69.4521 68.9746V62.6871C69.4525 60.7714 68.1661 59.0659 66.3241 58.5399ZM59.0675 58.253C58.1852 59.1351 56.75 59.1351 55.8677 58.253L55.0263 57.4116C55.1289 57.1174 55.1875 56.8056 55.2 56.4848C55.8467 56.6976 56.5287 56.8238 57.2346 56.8449C57.3135 56.8473 57.392 56.8485 57.4706 56.8485C58.2504 56.8485 59.0117 56.7304 59.7359 56.5051C59.7501 56.8187 59.8082 57.1237 59.9087 57.4118L59.0675 58.253ZM57.2962 54.7951C54.3302 54.7061 51.9172 52.0938 51.9172 48.9717V47.0555C51.9172 46.8963 51.8802 46.7392 51.8089 46.5969L51.1759 45.3306C50.9439 44.8666 50.8213 44.3474 50.8213 43.8286V43.7675C50.8213 41.3114 52.8196 39.3131 55.2757 39.3131H64.1139V43.5698C64.1139 44.2577 63.9513 44.9466 63.6437 45.562L63.1263 46.5969C63.055 46.7394 63.018 46.8963 63.018 47.0555V49.2474C63.018 50.7615 62.4194 52.1761 61.3325 53.2309C60.2463 54.2852 58.8111 54.8405 57.2962 54.7951Z" fill="black"/>
<path d="M50.8926 63.5654C50.3263 63.5654 49.8672 64.0245 49.8672 64.5908V68.9746C49.8672 69.5409 50.3263 70 50.8926 70C51.4589 70 51.918 69.5409 51.918 68.9746V64.5908C51.918 64.0244 51.4589 63.5654 50.8926 63.5654Z" fill="black"/>
<path d="M64.043 63.5654C63.4767 63.5654 63.0176 64.0245 63.0176 64.5908V68.9746C63.0176 69.5409 63.4767 70 64.043 70C64.6093 70 65.0684 69.5409 65.0684 68.9746V64.5908C65.0684 64.0244 64.6093 63.5654 64.043 63.5654Z" fill="black"/>
</svg>
