<?xml version="1.0" encoding="utf-8"?>
<!-- Generator: Adobe Illustrator 23.0.1, SVG Export Plug-In . SVG Version: 6.00 Build 0)  -->
<svg version="1.1" id="Слой_1" xmlns="http://www.w3.org/2000/svg" xmlns:xlink="http://www.w3.org/1999/xlink" x="0px" y="0px"
	 width="90px" height="90px" viewBox="0 0 90 90" style="enable-background:new 0 0 90 90;" xml:space="preserve">
<style type="text/css">
	.st0{fill:none;}
	.st1{fill:#FF5555;}
</style>
<rect class="st0" width="90" height="90"/>
<g>
	<g>
		<polygon class="st1" points="52.6,2 37.5,2 37.5,7.9 52.6,7.9 52.6,2 		"/>
	</g>
	<g>
		<polygon class="st1" points="58.2,8.6 32.1,8.6 32.1,16.4 58.2,16.4 58.2,8.6 		"/>
	</g>
	<g>
		<polygon class="st1" points="79.9,27 64.7,27 64.7,34.3 79.9,34.3 79.9,27 		"/>
	</g>
	<g>
		<polygon class="st1" points="76.4,20.3 68.2,20.3 68.2,27.6 76.4,27.6 76.4,20.3 		"/>
	</g>
	<g>
		<polygon class="st1" points="15.4,65.8 10.7,65.8 10.7,70.7 15.4,70.7 15.4,65.8 		"/>
	</g>
	<g>
		<polygon class="st1" points="25.9,43 21.5,43 21.5,47.6 25.9,47.6 25.9,43 		"/>
	</g>
</g>
<path d="M37.6,28.2h15.2c0.7,0,1-0.5,1-1s-0.3-1-1-1H37.6c-0.7,0-1,0.5-1,1S36.9,28.2,37.6,28.2z"/>
<path d="M37.6,41h15.2c0.7,0,1-0.5,1-1s-0.3-1-1-1H37.6c-0.7,0-1,0.5-1,1S36.9,41,37.6,41z"/>
<path d="M37.6,53.7h15.2c0.7,0,1-0.5,1-1s-0.3-1-1-1H37.6c-0.7,0-1,0.5-1,1S36.9,53.7,37.6,53.7z"/>
<path d="M37.6,66.5h15.2c0.7,0,1-0.5,1-1c0-0.5-0.3-1-1-1H37.6c-0.7,0-1,0.5-1,1C36.6,66,36.9,66.5,37.6,66.5z"/>
<path d="M37.6,79.2h15.2c0.7,0,1-0.5,1-1s-0.3-1-1-1H37.6c-0.7,0-1,0.5-1,1S36.9,79.2,37.6,79.2z"/>
<path d="M65.5,40.4c-0.5,0-1,0.3-1,1v4.4c0,1.3,2,1.3,2,0v-4.4c0-0.3-0.1-0.5-0.3-0.7C66,40.5,65.7,40.4,65.5,40.4z"/>
<path d="M73.3,41.4c0-0.3-0.1-0.5-0.3-0.7c-0.2-0.2-0.4-0.2-0.7-0.2c-0.5,0-1,0.3-1,1v4.4c0,1.3,2,1.3,2,0V41.4z"/>
<path d="M65.5,50.9c-0.5,0-1,0.3-1,1v4.4c0,1.3,2,1.3,2,0v-4.4c0-0.3-0.1-0.5-0.3-0.7C66,51,65.7,50.9,65.5,50.9z"/>
<path d="M73.3,51.9c0-0.3-0.1-0.5-0.3-0.7c-0.2-0.2-0.4-0.2-0.7-0.2c-0.5,0-1,0.3-1,1v4.4c0,1.3,2,1.3,2,0V51.9z"/>
<path d="M65.5,61.4c-0.6,0-1,0.5-1,1v4.4c0,1.3,2,1.3,2,0v-4.4C66.5,61.8,66,61.4,65.5,61.4z"/>
<path d="M73.3,62.4c0-0.6-0.5-1-1-1c-0.6,0-1,0.5-1,1v4.4c0,1.3,2,1.3,2,0V62.4z"/>
<path d="M80.1,41.4c0-0.3-0.1-0.5-0.3-0.7c-0.2-0.2-0.4-0.2-0.7-0.2c-0.5,0-1,0.3-1,1v4.4c0,1.3,2,1.3,2,0V41.4z"/>
<path d="M80.1,51.9c0-0.3-0.1-0.5-0.3-0.7c-0.2-0.2-0.4-0.2-0.7-0.2c-0.5,0-1,0.3-1,1v4.4c0,1.3,2,1.3,2,0V51.9z"/>
<path d="M80.1,62.4c0-0.6-0.5-1-1-1s-1,0.5-1,1v4.4c0,1.3,2,1.3,2,0V62.4z"/>
<path d="M89.5,88.6c0-0.5-0.3-1-1-1h-1.7V34.8c0-1-0.8-1.9-1.9-1.9h-3.8V28c0-1-0.8-1.9-1.9-1.9h-2v-5c0-1-0.8-1.9-1.9-1.9h-2v-10
	c0-1.3-2-1.3-2,0v10h-2c-1,0-1.9,0.8-1.9,1.9v5h-2.1c-1,0-1.9,0.8-1.9,1.9v4.9h-3.8V9.1c0-1-0.8-1.9-1.9-1.9H54V2.4
	c0-1-0.8-1.9-1.9-1.9H38.2c-1,0-1.9,0.8-1.9,1.9v4.8h-3.8c-1,0-1.9,0.8-1.9,1.9l0,14.5H5.5c-1,0-1.9,0.8-1.9,1.9v62.1H1.5
	c-0.7,0-1,0.5-1,1c0,0.5,0.3,1,1,1h87C89.2,89.6,89.5,89.1,89.5,88.6z M30.6,87.6h-25V25.6h25V87.6z M38.3,2.6H52v4.7H38.3V2.6z
	 M32.7,9.2h25v6.3h-25V9.2z M32.7,87.6l0-70h25l0,70H32.7z M69.4,21.3h5.8v4.9h-5.8V21.3z M65.5,28.1h13.6v4.7H65.5V28.1z
	 M75.8,87.6h-7V74.9h7V87.6z M84.8,87.6h-7V74.7c0-1-0.8-1.9-1.9-1.9h-7.2c-1,0-1.9,0.8-1.9,1.9v12.8h-7.1l0-52.7h25.1V87.6z"/>
<path d="M14.8,30.5h-3.6c-1,0-1.9,0.8-1.9,1.9v25.3c0,1,0.8,1.9,1.9,1.9h3.6c1,0,1.9-0.8,1.9-1.9V32.4
	C16.7,31.4,15.9,30.5,14.8,30.5z M14.7,57.6h-3.4V32.5h3.4V57.6z"/>
<path d="M25.5,53.5h-3.7c-1,0-1.9,0.8-1.9,1.9v25.3c0,1,0.8,1.9,1.9,1.9h3.7c1,0,1.9-0.8,1.9-1.9V55.4
	C27.3,54.4,26.5,53.5,25.5,53.5z M25.3,80.6h-3.4V55.6h3.4V80.6z"/>
<path d="M25.5,41.4h-3.7c-1,0-1.9,0.8-1.9,1.9v3.5c0,1,0.8,1.9,1.9,1.9h3.7c1,0,1.9-0.8,1.9-1.9v-3.5C27.3,42.3,26.5,41.4,25.5,41.4
	z M25.3,46.7h-3.4v-3.3h3.4V46.7z"/>
<path d="M14.8,64.5h-3.6c-1,0-1.9,0.8-1.9,1.9v3.5c0,1,0.8,1.9,1.9,1.9h3.6c1,0,1.9-0.8,1.9-1.9v-3.5C16.7,65.3,15.9,64.5,14.8,64.5
	z M14.7,69.7h-3.4v-3.2h3.4V69.7z"/>
</svg>
