<svg width="70" height="70" viewBox="0 0 70 70" fill="none" xmlns="http://www.w3.org/2000/svg">
<path d="M3.5 49.0998H3.6V48.9998V15.1665C3.6 13.2889 5.12237 11.7665 7 11.7665H45.4V13.8998H7C6.30048 13.8998 5.73333 14.467 5.73333 15.1665V48.9998V49.0998H5.83333H23.2333V51.2332H2.33333H2.23333V51.3332V53.6665V53.7665H2.33333H23.2333V55.8998H2.33333C1.09999 55.8998 0.1 54.8998 0.1 53.6665V50.1665C0.1 49.5774 0.577608 49.0998 1.16667 49.0998H3.5Z" fill="black" stroke="white" stroke-width="0.2"/>
<path d="M52.6 35.1H54.7333V37.2333H52.6V35.1Z" fill="black" stroke="white" stroke-width="0.2"/>
<path d="M50.1666 25.5667H50.0666V25.6667V29.1667C50.0666 29.8662 50.6337 30.4333 51.3333 30.4333H65.3333C66.0328 30.4333 66.5999 29.8662 66.5999 29.1667V25.6667V25.5667H66.4999H50.1666ZM66.4999 23.4333H66.5999V23.3333V3.5C66.5999 2.80048 66.0328 2.23333 65.3333 2.23333H51.3333C50.6337 2.23333 50.0666 2.80048 50.0666 3.5V23.3333V23.4333H50.1666H66.4999ZM65.3333 32.5667H51.3333C49.4556 32.5667 47.9333 31.0443 47.9333 29.1667V3.5C47.9333 1.62237 49.4556 0.1 51.3333 0.1H65.3333C67.2109 0.1 68.7333 1.62237 68.7333 3.5V29.1667C68.7333 31.0443 67.2109 32.5667 65.3333 32.5667Z" fill="#FF5555" stroke="white" stroke-width="0.2"/>
<path d="M57.2667 26.9335H59.4001V29.0668H57.2667V26.9335Z" fill="#FF5555" stroke="white" stroke-width="0.2"/>
<path d="M23.2333 25.6667V25.7667H23.3333H29.0698H29.1884L29.1684 25.6498C28.6594 22.6725 26.3275 20.3406 23.3502 19.8316L23.2333 19.8116V19.9302V25.6667ZM22.1666 17.6C27.2635 17.6057 31.3944 21.7366 31.4 26.8334C31.3999 27.4225 30.9224 27.9 30.3333 27.9H22.1667C21.5776 27.9 21.1 27.4224 21.1 26.8333V18.6667C21.1 18.0776 21.5776 17.6 22.1666 17.6Z" fill="black" stroke="white" stroke-width="0.2"/>
<path d="M19.7333 29.1667V29.2667H19.8333H26.8333C27.4223 29.2667 27.8999 29.7443 27.8999 30.3333C27.8999 35.433 23.7662 39.5667 18.6666 39.5667C13.5669 39.5667 9.43325 35.433 9.43325 30.3333C9.43325 25.2337 13.5669 21.1 18.6666 21.1C19.2556 21.1 19.7333 21.5776 19.7333 22.1667V29.1667ZM18.6667 37.4333H18.6667C22.1299 37.4287 25.0865 34.9309 25.6683 31.5168L25.6882 31.4H25.5697H18.6666C18.0775 31.4 17.5999 30.9224 17.5999 30.3333V23.4302V23.312L17.4833 23.3316C13.8409 23.944 11.276 27.2461 11.5852 30.9273C11.8937 34.6079 14.9734 37.4368 18.6667 37.4333Z" fill="black" stroke="white" stroke-width="0.2"/>
<path d="M34.3163 19.7333H34.2749L34.2456 19.7626L32.3248 21.6834L30.8165 20.1751L33.0791 17.9125C33.2791 17.7125 33.5505 17.6 33.8333 17.6H36.0666V19.7333H34.3163Z" fill="black" stroke="white" stroke-width="0.2"/>
<path d="M8.26675 43.2665H22.0667V45.3998H8.26675V43.2665Z" fill="black" stroke="white" stroke-width="0.2"/>
<path d="M29.2667 32.7665H36.0667V34.8998H29.2667V32.7665Z" fill="black" stroke="white" stroke-width="0.2"/>
<path d="M40.8333 37.2335C38.9556 37.2335 37.4333 35.7111 37.4333 33.8335C37.4333 31.9559 38.9556 30.4335 40.8333 30.4335C42.7109 30.4335 44.2333 31.9559 44.2333 33.8335C44.2333 35.7111 42.7109 37.2335 40.8333 37.2335ZM42.0999 33.8335C42.0999 33.134 41.5328 32.5668 40.8333 32.5668C40.1337 32.5668 39.5666 33.134 39.5666 33.8335C39.5666 34.533 40.1337 35.1002 40.8333 35.1002C41.5328 35.1002 42.0999 34.533 42.0999 33.8335Z" fill="black" stroke="white" stroke-width="0.2"/>
<path d="M57.2667 5.9335H64.0667V8.06683H57.2667V5.9335Z" fill="#FF5555" stroke="white" stroke-width="0.2"/>
<path d="M57.2667 10.6H64.0667V12.7333H57.2667V10.6Z" fill="#FF5555" stroke="white" stroke-width="0.2"/>
<path d="M57.2667 15.2665H59.4001V17.3998H57.2667V15.2665Z" fill="#FF5555" stroke="white" stroke-width="0.2"/>
<path d="M61.9333 15.2665H64.0666V17.3998H61.9333V15.2665Z" fill="#FF5555" stroke="white" stroke-width="0.2"/>
<path d="M60.7667 41.9998V41.8998H60.6667H29.1667C28.4672 41.8998 27.9001 42.467 27.9001 43.1665V66.4998C27.9001 67.1994 28.4672 67.7665 29.1667 67.7665H60.6667H60.7667V67.6665V41.9998ZM62.9001 67.6665V67.7665H63.0001H66.5001C67.1996 67.7665 67.7667 67.1994 67.7667 66.4998V43.1665C67.7667 42.467 67.1996 41.8998 66.5001 41.8998H63.0001H62.9001V41.9998V67.6665ZM29.1667 39.7665H66.5001C68.3777 39.7665 69.9001 41.2889 69.9001 43.1665V66.4998C69.9001 68.3775 68.3777 69.8998 66.5001 69.8998H29.1667C27.2891 69.8998 25.7667 68.3775 25.7667 66.4998V43.1665C25.7667 41.2889 27.2891 39.7665 29.1667 39.7665Z" fill="black" stroke="white" stroke-width="0.2"/>
<path d="M64.2667 53.7665H66.4001V55.8998H64.2667V53.7665Z" fill="black" stroke="white" stroke-width="0.2"/>
<path d="M55.8999 61.8332V61.9332H55.9999H58.2333V64.0665H31.4999C30.9109 64.0665 30.4333 63.5889 30.4333 62.9998V46.7665H32.5666V61.8332V61.9332H32.6666H34.9999H35.0999V61.8332V57.2665H37.2333V61.8332V61.9332H37.3333H39.6666H39.7666V61.8332V51.4332H41.8999V61.8332V61.9332H41.9999H44.3333H44.4333V61.8332V54.9332H46.5666V61.8332V61.9332H46.6666H48.9999H49.0999V61.8332V52.5998H51.2333V61.8332V61.9332H51.3333H53.6666H53.7666V61.8332V49.0998H55.8999V61.8332Z" fill="black" stroke="white" stroke-width="0.2"/>
</svg>
