<svg width="8" height="16" viewBox="0 0 8 16" fill="none" xmlns="http://www.w3.org/2000/svg">
<path d="M5.55786 5.21658V3.92458C5.55496 3.7741 5.564 3.62363 5.58487 3.47458C5.60512 3.36293 5.6469 3.25628 5.70787 3.16058C5.77912 3.05177 5.88995 2.97501 6.01686 2.94658C6.20315 2.90223 6.39443 2.8824 6.58586 2.88758H7.87787V0.302579H5.81186C5.34708 0.257839 4.87809 0.310402 4.43475 0.45692C3.99141 0.603437 3.58345 0.840696 3.23686 1.15358C2.66804 1.86006 2.38823 2.75594 2.45387 3.66058V5.21658H0.90686V7.80258H2.45387V15.3026H5.55386V7.80258H7.61986L7.89287 5.21858L5.55786 5.21658Z" fill="white"/>
</svg>
