<svg width="14" height="13" viewBox="0 0 14 13" fill="none" xmlns="http://www.w3.org/2000/svg">
<path d="M13.2058 7.43705V12.0761H10.5158V7.74805C10.5158 6.66105 10.1268 5.91905 9.15384 5.91905C8.85045 5.92086 8.55503 6.01637 8.308 6.19251C8.06098 6.36865 7.87441 6.61682 7.77383 6.90305C7.70475 7.11454 7.6746 7.3368 7.68483 7.55905V12.0771H4.99383C4.99383 12.0771 5.02983 4.74605 4.99383 3.98705H7.68383V5.12805L7.66583 5.15405H7.68383V5.12805C7.92717 4.70501 8.28177 4.35673 8.70911 4.12102C9.13645 3.88531 9.6202 3.77119 10.1078 3.79105C11.8788 3.79605 13.2058 4.95205 13.2058 7.43705ZM2.17983 0.0860534C1.80853 0.0812795 1.45054 0.224201 1.18461 0.483376C0.918686 0.742551 0.766609 1.09675 0.761835 1.46805C0.757061 1.83936 0.899982 2.19735 1.15916 2.46328C1.41833 2.7292 1.77253 2.88128 2.14383 2.88605H2.15783C2.34169 2.88724 2.52397 2.85219 2.69428 2.78293C2.86458 2.71366 3.01958 2.61153 3.15042 2.48237C3.28126 2.3532 3.38537 2.19953 3.45682 2.03013C3.52827 1.86072 3.56565 1.6789 3.56683 1.49505C3.56802 1.3112 3.53297 1.12892 3.46371 0.958612C3.39445 0.788304 3.29231 0.633306 3.16315 0.502469C3.03398 0.371631 2.88031 0.267515 2.71091 0.196066C2.5415 0.124618 2.35969 0.0872353 2.17583 0.0860534H2.17983ZM0.817835 12.0761H3.50683V3.98605H0.817835V12.0761Z" fill="white"/>
</svg>
