<svg width="12" height="17" viewBox="0 0 12 17" fill="none" xmlns="http://www.w3.org/2000/svg">
<path fill-rule="evenodd" clip-rule="evenodd" d="M10.9099 9.70361L5.99994 16.2236L1.09003 9.70361L0.209905 7.57373C-0.0319224 6.68388 -0.065238 5.7501 0.112249 4.84521C0.289736 3.94033 0.673288 3.08853 1.23334 2.35596C1.7934 1.62339 2.51483 1.02967 3.3415 0.621094C4.16816 0.212513 5.07782 0 5.99994 0C6.92207 0 7.83172 0.212513 8.65839 0.621094C9.48506 1.02967 10.2065 1.62339 10.7665 2.35596C11.3266 3.08853 11.7102 3.94033 11.8876 4.84521C12.0651 5.7501 12.0318 6.68388 11.79 7.57373L10.9099 9.70361ZM5.99994 3.16357C5.42088 3.17519 4.85811 3.3578 4.38227 3.68799C3.90643 4.01818 3.53869 4.48116 3.32514 5.01953C3.11159 5.55791 3.06169 6.14728 3.18183 6.71387C3.30196 7.28045 3.58677 7.79921 4.00043 8.20459C4.41409 8.60997 4.93837 8.88401 5.50727 8.99268C6.07616 9.10134 6.66448 9.03981 7.19843 8.81543C7.73238 8.59105 8.18798 8.21386 8.50849 7.73145C8.829 7.24903 9.00002 6.6827 8.99994 6.10352C8.99176 5.31589 8.67115 4.564 8.10859 4.0127C7.54603 3.46139 6.78757 3.15584 5.99994 3.16357Z" fill="white"/>
</svg>
