<svg id="Слой_1" data-name="Слой 1" xmlns="http://www.w3.org/2000/svg" xmlns:xlink="http://www.w3.org/1999/xlink" viewBox="0 0 262.02 188.4"><defs><style>.cls-1,.cls-4{opacity:0.4;isolation:isolate;}.cls-1{fill:url(#Безымянный_градиент);}.cls-2,.cls-5,.cls-6{fill:none;stroke:#fff;stroke-miterlimit:10;}.cls-2{stroke-width:4px;}.cls-3{fill:#fff;}.cls-4{fill:url(#Безымянный_градиент_2);}.cls-5{stroke-linecap:square;}.cls-5,.cls-6{stroke-width:3px;}</style><linearGradient id="Безымянный_градиент" x1="51.5" y1="694.66" x2="195.52" y2="838.69" gradientTransform="translate(0 -684)" gradientUnits="userSpaceOnUse"><stop offset="0" stop-color="#fff"/><stop offset="1" stop-color="#fff" stop-opacity="0.3"/></linearGradient><linearGradient id="Безымянный_градиент_2" x1="195.17" y1="760.9" x2="270.71" y2="836.44" xlink:href="#Безымянный_градиент"/></defs><title>1</title><path class="cls-1" d="M226.71,27.2H36.31A3.33,3.33,0,0,0,33,30.5h0V152.2H198V63.9a11.71,11.71,0,0,1,11.7-11.7H230V30.5a3.33,3.33,0,0,0-3.3-3.3Z"/><path class="cls-2" d="M199,169.2H11a9,9,0,0,1-9-9H199"/><path class="cls-2" d="M183.31,160.2H25V27.2a8,8,0,0,1,8-8H230a8,8,0,0,1,8,8v26"/><path class="cls-2" d="M211,60.2h44a5,5,0,0,1,5,5v99a5,5,0,0,1-5,5H211a5,5,0,0,1-5-5v-99A5,5,0,0,1,211,60.2Z"/><circle class="cls-3" cx="233.01" cy="156.2" r="3"/><path class="cls-4" d="M254.51,62.2h-8.4a4.58,4.58,0,0,1-4.8,4.3h-16.7a4.64,4.64,0,0,1-4.8-4.3h-8.4a3.35,3.35,0,0,0-3.5,3.2V164a3.42,3.42,0,0,0,3.5,3.2h43a3.35,3.35,0,0,0,3.5-3.2V65.4A3.21,3.21,0,0,0,254.51,62.2Z"/><path class="cls-3" d="M220,62.2h26a4,4,0,0,1-4,4H224a4,4,0,0,1-4-4Z"/><line class="cls-5" x1="40.51" y1="59.7" x2="91.51" y2="59.7"/><line class="cls-6" x1="39.01" y1="66.7" x2="63.01" y2="66.7"/><line class="cls-6" x1="67.01" y1="66.7" x2="73.01" y2="66.7"/><line class="cls-6" x1="39.01" y1="73.8" x2="55.01" y2="73.8"/><line class="cls-6" x1="59.01" y1="73.7" x2="75.01" y2="73.7"/><rect class="cls-3" x="79.01" y="72.2" width="9" height="3"/><line class="cls-5" x1="72.51" y1="86.8" x2="100.01" y2="86.8"/><line class="cls-6" x1="39.01" y1="93.7" x2="63.01" y2="93.7"/><line class="cls-6" x1="67.01" y1="93.7" x2="73.01" y2="93.7"/><line class="cls-6" x1="39.01" y1="100.7" x2="81.01" y2="100.7"/><rect class="cls-3" x="85.01" y="99.2" width="19" height="3"/><rect class="cls-3" x="39.01" y="112.2" width="19" height="3"/><rect class="cls-3" x="39.01" y="119.2" width="38" height="3"/><rect class="cls-3" x="39.01" y="126.2" width="34" height="3"/><rect class="cls-3" x="77.01" y="126.2" width="19" height="3"/><rect class="cls-3" x="62.01" y="112.2" width="11" height="3"/><rect class="cls-3" x="77.01" y="112.2" width="11" height="3"/><rect class="cls-3" x="41.01" y="85.2" width="19" height="3"/><rect class="cls-3" x="39.01" y="85.2" width="28" height="3"/><rect class="cls-3" x="209.01" y="32.2" width="4" height="3"/><rect class="cls-3" x="215.01" y="32.2" width="4" height="3"/><rect class="cls-3" x="221.01" y="32.2" width="4" height="3"/></svg>