<svg id="Layer_1" data-name="Layer 1" xmlns="http://www.w3.org/2000/svg" xmlns:xlink="http://www.w3.org/1999/xlink" viewBox="0 0 1920 480"><defs><style>.cls-1,.cls-5{fill:none;}.cls-2{fill:url(#linear-gradient);}.cls-3{clip-path:url(#clip-path);}.cls-4{opacity:0.2;}.cls-5{stroke:#fff;stroke-miterlimit:10;}</style><linearGradient id="linear-gradient" x1="960" y1="482" x2="960" y2="2" gradientTransform="matrix(1, 0, 0, -1, 0, 482)" gradientUnits="userSpaceOnUse"><stop offset="0" stop-color="#0063a0"/><stop offset="1" stop-color="#18386b"/></linearGradient><clipPath id="clip-path"><rect class="cls-1" width="1920" height="480"/></clipPath></defs><rect class="cls-2" width="1920" height="480"/><g class="cls-3"><g class="cls-4"><path class="cls-5" d="M2317.7,272.8c-264.1,0-432,243.4-504.9,138.3-81.1-117-76.5-281.9-446.2-281.9-137.9,0-176.4-147.2-244.6-34.3-62.3,103-249.2,118-372.4,131.4-99.2,10.8-152.6-98.5-332-154.2-77.4-24-258,58.1-376.7-65C-26.2-62.5-153.6-14.1-234.7,50c-94.4,74.6-201.8,222.8-253.4,338.1"/><path class="cls-5" d="M2329.2,281.7c-52.3-.5-100.6,7.9-144.7,21.1C2005,356.3,1886.1,491.2,1826,409c-27.1-37.1-45.1-79.4-70.2-119.4-52-82.1-132.7-157.5-377-160.3-41.3-.5-73.8-14-100.8-29.2-62.1-35-95.4-80.8-143.4-2.8-62.8,101.9-247.2,119-371.3,132.8-40.2,4.5-73-10.6-110-33.4-54-33.6-116.4-83.7-222.2-114.3C377.7,66.9,277.7,100,182,84.1,136.9,76.7,93,58.8,54.7,21.2S-39.9-16.9-95.5-2c-44.2,11.9-88.4,35.2-124.4,62.3-18.7,14.1-37.9,31.1-57.4,50-53.2,51.4-105.4,119.3-147.5,184a915.5,915.5,0,0,0-52.6,92.9"/><path class="cls-5" d="M2340.7,290.3a502.2,502.2,0,0,0-143.8,18.1c-177.4,48.3-295.6,178.3-357.4,98.1-27.6-35.9-46.1-77.2-72.1-115.9-53.8-80-136.1-156-376.1-161.7-41-1-73.5-14.6-100.5-29.5-61.4-33.9-95-77.3-143.2-.2C1084.4,200,902.4,219.1,777.5,233.5c-40,4.5-72.9-10-110-32.1-54.7-32.6-117.6-80.9-222.6-109.1-54.1-14.5-153.5,18.6-248.5,3.2-45.2-7.3-89-24.6-127.6-60.5S-26.9.1-81.4,13c-43.7,10.4-87.4,31.7-123.5,57.7-18.7,13.4-37.9,29.8-57.8,47.8-54.3,49.2-106.7,116.1-149.7,178-20.9,30.1-38.5,61.2-54.1,89.7"/><path class="cls-5" d="M2352.2,299.9A529.2,529.2,0,0,0,2209.3,315c-175.6,43-293,168.1-356.4,90-28.1-34.7-47.1-74.9-74-112.4-55.7-77.8-139.5-154.6-375.1-163-40.8-1.5-73.3-15.2-100.3-29.7-60.8-32.8-94.5-73.7-143.1,2.4C1096.8,202,917.2,223.1,791.4,238c-39.8,4.6-72.8-9.4-110-30.7-55.3-31.7-118.5-78.1-222.9-104-54.8-13.6-153.6,19.6-247.9,4.6-45.3-7.1-88.9-24-127.9-58.1S-13.8,17.1-67.3,28c-43.3,8.9-86.3,28.3-122.6,53-18.7,12.7-38,28.6-58.2,45.7-55.4,47-107.9,112.9-152,172.1-21.3,28.6-39,58.9-55.6,86.5"/><path class="cls-5" d="M2363.4,308.5a554.8,554.8,0,0,0-142,12.1c-173.7,37.8-290.3,158-355.4,81.9-28.6-33.5-48.2-72.6-75.9-108.9-57.6-75.6-142.9-153.2-374.2-164.3-40.6-2-73-15.8-100-30-60.1-31.7-94.1-70.2-142.9,5-64.1,98.6-241.2,121.8-367.9,137.2-39.6,4.7-72.7-8.8-110-29.3C639.3,181.5,575.6,137,472,113.4c-55.5-12.6-153.6,20.5-247.3,6-45.4-7-88.9-23.3-128.1-55.8C55.8,30-.8,34.1-53.2,43c-43,7.4-85.2,24.9-121.7,48.4-18.7,12.1-38,27.3-58.6,43.6C-290,179.8-342.6,244.6-387.8,301.2c-21.6,27.1-39.5,56.7-57.1,83.3"/><path class="cls-5" d="M2375.2,317.3a597.7,597.7,0,0,0-141.2,9.1c-171.9,32.6-287.6,147.9-354.5,73.9-29.1-32.2-49.3-70.3-77.8-105.4-59.5-73.4-146.3-151.9-373.3-165.7-40.3-2.5-72.7-16.4-99.7-30.3-59.4-30.6-93.6-66.7-142.8,7.7-64.5,97.5-239.1,123-366.8,138.6-39.5,4.8-72.6-8.2-110-28-56.5-29.8-120.6-72.3-223.5-93.7C429.4,111.8,331.9,145,238.8,131c-45.5-6.8-88.9-22.6-128.4-53.4C68.9,45.4,12.1,51-39.1,58c-42.7,5.8-84.1,21.5-120.8,43.8-18.7,11.4-38.1,26-58.9,41.4C-276.4,185.7-329,249.5-375.4,303.4c-22,25.6-40,54.4-58.5,80.1"/><path class="cls-5" d="M2386.8,326.2c-52.4-3.3-99.4-.4-140.3,6.2-170.2,27.3-284.9,137.8-353.5,65.8-29.6-31-50.3-67.9-79.7-101.9-61.5-71.2-149.8-150.6-372.4-167-40.1-3-72.4-17-99.4-30.6-58.7-29.5-93.2-63.2-142.6,10.3-65,96.4-237.1,124-365.7,140.1-39.3,4.9-72.6-7.6-110-26.6-57.1-28.8-121.7-69.4-223.8-88.6-56.9-10.7-153.8,22.5-246.2,8.9-45.6-6.7-88.9-21.9-128.7-51C82,60.9,25,67.9-25,73c-42.4,4.3-83,18.1-120,39.2-18.7,10.7-38.1,24.7-59.3,39.3C-263,191.8-315.6,254.4-363.1,305.8c-22.3,24-40.6,52.2-60,76.9"/><path class="cls-5" d="M2397.8,335.5c-52.5-3.8-99.1-2.1-139.4,3.2-168.5,22-282.1,127.7-352.5,57.7-30-29.8-51.4-65.6-81.6-98.4-63.4-69-153.2-149.4-371.5-168.3-39.9-3.5-72.2-17.7-99.2-30.9-58.1-28.4-92.8-59.7-142.5,12.9-65.4,95.2-235.1,125-364.6,141.5-39.1,5-72.5-7.1-110.1-25.2-57.7-27.9-122.8-66.4-224-83.5-57.7-9.7-153.8,23.5-245.6,10.4-45.6-6.5-89-21.2-128.9-48.6C95,76.3,37.9,84.8-10.9,88c-42.2,2.8-81.9,14.6-119.1,34.6-18.7,10-38.2,23.4-59.7,37.1-59.8,38.1-112.3,99.6-161.1,148.4-22.5,22.5-41.1,50-61.5,73.7"/><path class="cls-5" d="M2409.7,344.3c-52.5-4.4-98.9-3.7-138.5.2-166.8,16.7-279.3,117.5-351.5,49.6-30.4-28.6-52.5-63.3-83.5-94.9-65.4-66.8-156.7-148.2-370.6-169.7-39.6-4-71.9-18.3-98.9-31.1-57.4-27.3-92.3-56.2-142.3,15.5-65.9,94.1-233.1,125.9-363.5,143C822,262,788.5,250.4,750.8,233c-58.3-26.9-123.9-63.4-224.3-78.3-58.4-8.7-153.9,24.5-245,11.8-45.7-6.4-89.1-20.4-129.2-46.3C107.9,91.8,50.7,101.6,3.2,103A278.7,278.7,0,0,0-115,132.9c-18.7,9.4-38.3,22.2-60.1,35-61,35.9-113.3,96.2-163.4,142.4-22.8,21-41.7,47.7-63,70.5"/><path class="cls-5" d="M2421.2,353.1c-52.5-5-98.7-5.4-137.6-2.8-165.2,11.4-276.5,107.4-350.6,41.6-30.8-27.4-53.6-61-85.4-91.4-67.4-64.6-160.2-147.1-369.7-171-39.4-4.5-71.6-18.9-98.6-31.4-56.7-26.2-91.9-52.7-142.2,18.1-66.3,93-231.1,126.9-362.4,144.4-38.7,5.2-72.3-5.8-110.1-22.5-58.9-25.9-125-60.3-224.6-73.2-59.2-7.7-154,25.5-244.5,13.3-45.8-6.2-89.2-19.7-129.5-43.9-45.1-27.1-102.5-16-148.8-16.3-41.9-.3-79.7,7.8-117.3,25.3-18.7,8.7-38.3,20.9-60.5,32.8-62.2,33.7-114.1,92.7-165.6,136.5-23,19.5-42.3,45.5-64.4,67.3"/><path class="cls-5" d="M2432.6,362.1c-52.6-5.6-98.6-7.1-136.7-5.7-163.6,6-273.6,97.3-349.6,33.5-31.2-26.2-54.8-58.7-87.3-87.9-69.4-62.4-163.7-146-368.8-172.4-39.2-5-71.3-19.5-98.3-31.7-56-25.2-91.4-49.2-142,20.8-66.7,91.9-229.1,127.9-361.3,145.9-38.6,5.2-72.3-5.2-110.1-21.1-59.5-25-126.2-57.2-224.9-68.1-60-6.6-154.1,26.5-243.9,14.7-45.9-6-89.3-18.9-129.7-41.5C133.8,122.7,76.2,135,31.3,133c-41.8-1.9-78.5,4.4-116.4,20.7-18.7,8-38.4,19.6-60.8,30.7-63.3,31.4-114.9,89.3-167.9,130.6-23.1,18-42.9,43.2-65.9,64.1"/><path class="cls-5" d="M2444.1,371.1c-52.6-6.2-98.4-8.9-135.8-8.7-162,.6-270.7,87.1-348.6,25.4-31.6-25.1-55.9-56.4-89.2-84.4-71.5-60.1-167.2-145-367.8-173.7-39-5.6-71-20.2-98.1-32-55.3-24.1-91-45.7-141.9,23.4-67.2,90.8-227.1,128.8-360.2,147.3-38.4,5.3-72.2-4.6-110.1-19.7-60.2-24-127.4-54-225.2-62.9C506.4,180.2,413,213.4,323.9,202c-46-5.9-89.5-18.1-130-39.1-47.2-24.5-105-11.1-148.5-14.7-41.8-3.5-77.4,1-115.5,16.1-18.7,7.4-38.5,18.3-61.2,28.6-64.5,29.2-115.6,85.9-170.2,124.6-23.2,16.5-43.6,40.9-67.4,60.9"/><path class="cls-5" d="M2455.8,380c-52.6-6.8-98.2-10.6-134.9-11.7-160.5-4.9-267.8,76.9-347.6,17.3-32-23.9-57-54.1-91.1-80.9-73.5-57.9-170.7-144-366.9-175-38.8-6.1-70.7-20.8-97.8-32.2-54.5-23.1-90.5-42.2-141.7,26-67.6,89.7-225.1,129.8-359.1,148.8-38.2,5.4-72.1-4-110.1-18.4-60.8-23-128.6-50.8-225.5-57.8-61.6-4.5-154.2,28.6-242.8,17.6-46.1-5.7-89.7-17.3-130.3-36.8-48.3-23.2-106.3-8.7-148.4-13.9s-76.2-2.4-114.7,11.5c-18.7,6.7-38.6,17-61.6,26.4-65.7,26.9-116.2,82.4-172.5,118.7-23.3,15-44.2,38.6-68.9,57.7"/><path class="cls-5" d="M2467.2,388.9c-52.7-7.4-98-12.3-134-14.7-159-10.4-264.8,66.7-346.7,9.2-32.3-22.7-58.1-51.7-93-77.4-75.5-55.7-174.2-143.1-366-176.4-38.6-6.7-70.4-21.4-97.5-32.5-53.8-22-90.1-38.6-141.5,28.6-68.1,88.6-223.1,130.7-358,150.2-38,5.5-72.1-3.4-110.2-17-61.4-22-129.8-47.5-225.7-52.7-62.4-3.4-154.3,29.6-242.2,19.1-46.1-5.5-89.9-16.5-130.5-34.4-49.4-21.8-107.5-6.3-148.2-13.1S-1.4,172-40.1,184.7c-18.6,6.1-38.7,15.7-62,24.3-66.9,24.7-116.8,79-174.7,112.8-23.4,13.6-44.9,36.3-70.3,54.5"/><path class="cls-5" d="M2478.7,398.1c-52.7-8-97.9-14.1-133.2-17.6-157.6-16-261.8,56.5-345.7,1.2-32.7-21.6-59.3-49.4-94.9-73.9-77.6-53.4-177.7-142.3-365.1-177.7-38.3-7.2-70.1-22.1-97.2-32.8-53.1-21-89.7-35.1-141.4,31.2-68.5,87.5-221.1,131.7-356.8,151.7-37.8,5.6-72-2.7-110.2-15.6-62.1-21-131-44.2-226-47.6-63.2-2.2-154.4,30.6-241.6,20.5-46.2-5.3-90.1-15.6-130.8-32-50.4-20.4-108.8-4-148-12.2-41.8-8.7-73.9-9.2-112.9,2.2-18.6,5.4-38.8,14.4-62.4,22.1-68.1,22.4-117.2,75.7-177,106.8-23.4,12.2-45.5,34-71.8,51.3"/><path class="cls-5" d="M2489.8,406.7c-52.8-8.6-97.7-15.8-132.3-20.6-156.1-21.6-258.8,46.3-344.7-6.9-33-20.4-60.4-47.1-96.8-70.4-79.7-51.2-181.2-141.5-364.2-179.1-38.1-7.8-69.8-22.7-97-33.1-52.4-20-89.2-31.6-141.2,33.8-69,86.4-219.1,132.6-355.7,153.1-37.7,5.6-72-2.1-110.2-14.3-62.7-20-132.2-40.9-226.3-42.4-64-1.1-154.5,31.7-241,22-46.3-5.2-90.4-14.7-131.1-29.7-51.6-19-110-1.9-147.9-11.4-41.9-10.5-72.7-12.5-112-2.4-18.6,4.8-38.9,13.1-62.7,20-69.3,20.1-117.6,72.4-179.3,100.9-23.3,10.8-46.2,31.7-73.3,48.1"/><path class="cls-5" d="M2501.4,415.7c-52.8-9.3-97.6-17.6-131.4-23.6-154.7-27.3-255.7,36-343.8-15-33.3-19.3-61.6-44.7-98.7-66.9-81.8-48.9-184.7-140.8-363.3-180.4-37.9-8.4-69.5-23.4-96.7-33.3-51.6-19-88.8-28.1-141.1,36.5-69.4,85.3-217.1,133.6-354.6,154.5-37.5,5.7-71.9-1.5-110.2-12.9-63.4-18.9-133.4-37.5-226.6-37.3-64.8.1-154.6,32.7-240.5,23.4-46.4-5-90.6-13.8-131.3-27.3-52.7-17.5-111.3.3-147.7-10.5-41.9-12.4-71.6-15.9-111.1-7-18.5,4.2-38.9,11.7-63.1,17.9-70.5,17.8-117.9,69.2-181.6,95-23.3,9.4-46.9,29.4-74.7,44.8"/><path class="cls-5" d="M2513.1,424.9c-52.8-9.9-97.4-19.4-130.5-26.6-153.3-33.1-252.7,25.7-342.8-23.1-33.7-18.2-62.7-42.4-100.6-63.4-83.9-46.6-188.2-140.2-362.4-181.7-37.7-9-69.2-24-96.4-33.6-50.9-18-88.3-24.6-140.9,39.1-69.8,84.1-215,134.5-353.5,156-37.3,5.8-71.9-.8-110.2-11.5-64-17.9-134.6-34-226.9-32.2-65.6,1.3-154.6,33.7-239.9,24.9-46.5-4.8-90.9-12.8-131.6-24.9-53.8-16-111-4-147.5-9.7C91.1,216.7,59.5,219,19.7,226.6c-18.5,3.5-39,10.4-63.5,15.7-71.7,15.5-118.2,66.1-183.8,89-23.2,8.1-47.6,27.1-76.2,41.6"/><path class="cls-5" d="M2524.6,433.4c-52.9-10.6-97.3-21.3-129.6-29.6-151.8-38.9-249.6,15.3-341.8-31.1-34-17.1-63.9-40-102.5-59.9-86-44.3-191.6-139.6-361.5-183.1-37.5-9.6-68.9-24.7-96.1-33.9-50.1-17-87.9-21.1-140.8,41.7-70.3,83-213,135.5-352.4,157.4-37.1,5.9-71.8-.2-110.2-10.2-64.7-16.8-135.8-30.6-227.2-27-66.4,2.6-154.7,34.8-239.3,26.3-46.6-4.6-91.2-11.9-131.8-22.5-55-14.4-112-1.8-147.4-8.8-38.5-23.6-69.2-22.6-109.4-16.2-18.4,2.9-39.1,9.1-63.9,13.6-73,13.2-118.4,63.1-186.1,83.1-23.1,6.8-48.3,24.7-77.7,38.4"/><path class="cls-5" d="M2536.1,442.7c-52.9-11.2-97.1-23.1-128.7-32.5-150.4-44.9-246.5,4.9-340.8-39.2-34.3-16-65-37.6-104.4-56.4-88.1-42-195.1-139-360.5-184.4-37.3-10.2-68.6-25.3-95.9-34.2-49.4-16-87.5-17.6-140.6,44.3-70.7,81.9-211,136.4-351.3,158.9-36.9,5.9-71.8.5-110.3-8.8-65.4-15.8-137-27.1-227.4-21.9-67.3,3.8-154.8,35.8-238.7,27.8-46.6-4.5-91.5-10.9-132.1-20.2-56.1-12.9-113,.3-147.2-8-38.1-25.6-68-25.9-108.5-20.9-18.4,2.3-39.2,7.8-64.3,11.4-74.2,10.8-118.6,60.2-188.4,77.1-23,5.6-49,22.3-79.2,35.2"/><path class="cls-5" d="M2547.9,451.9a1273.6,1273.6,0,0,1-127.8-35.5c-148.9-50.9-243.3-5.5-339.9-47.3-34.5-15-66.2-35.3-106.3-52.9-90.2-39.7-198.6-138.6-359.6-185.7-37.1-10.9-68.3-26-95.6-34.5-48.6-15.1-87-14.1-140.5,46.9-71.2,80.8-209,137.3-350.2,160.3-36.8,6-71.7,1.2-110.3-7.4-66-14.7-138.2-23.5-227.7-16.8-68.1,5.1-154.9,36.9-238.2,29.2-46.7-4.3-91.7-9.8-132.4-17.8-57.3-11.2-116.2,8.1-147-7.1-42-20.7-66.8-29.2-107.6-25.5-18.4,1.7-39.3,6.4-64.7,9.3-75.4,8.5-118.8,57.4-190.7,71.2-22.9,4.4-49.6,20-80.6,32"/><path class="cls-5" d="M2559,460.5c-52.9-12.6-96.8-26.8-126.9-38.5-147.4-57-240.2-16-338.9-55.4-34.8-13.9-67.3-32.9-108.2-49.4-92.3-37.3-202-138.2-358.7-187.1-36.8-11.5-68-26.7-95.3-34.7-47.9-14.1-86.6-10.6-140.3,49.5-71.6,79.7-207,138.2-349.1,161.8-36.6,6.1-71.7,1.8-110.3-6.1-66.7-13.6-139.4-20-228-11.6-68.9,6.5-155,37.9-237.6,30.7-46.8-4.1-92-8.8-132.6-15.4-58.5-9.6-117.3,9.9-146.8-6.3-41.9-23-65.7-32.5-106.7-30.1-18.3,1.1-39.4,5.1-65,7.1-76.6,6.1-119,54.7-192.9,65.3-22.8,3.3-50.3,17.6-82.1,28.8"/><path class="cls-5" d="M2570.8,469.4c-53-13.3-96.6-28.7-126.1-41.5-145.8-63.1-237.1-26.5-337.9-63.5-35.1-12.9-68.5-30.5-110.1-45.9-94.4-35-205.5-137.8-357.8-188.4-36.6-12.2-67.7-27.4-95-35-47.1-13.2-86.1-7.1-140.2,52.2-72,78.6-205,139.2-348,163.2-36.4,6.1-71.6,2.5-110.3-4.7-67.3-12.6-140.6-16.4-228.3-6.5-69.7,7.8-155,39-237,32.1-46.9-3.9-92.3-7.7-132.9-13-59.6-7.9-118.4,11.7-146.7-5.5-41.8-25.3-64.5-35.8-105.8-34.7-18.3.5-39.5,3.8-65.4,5C-48.7,287-90,335.5-166,342.6c-22.8,2.1-51,15.2-83.6,25.6"/><path class="cls-5" d="M2582.2,478.5c-53-14-96.4-30.6-125.2-44.4-144.2-69.4-233.9-37.1-336.9-71.5-35.4-11.8-69.6-28.1-112-42.4-96.5-32.6-208.8-137.5-356.9-189.8-36.4-12.8-67.3-28.1-94.8-35.3-46.3-12.2-85.7-3.5-140,54.8-72.5,77.5-203,140.1-346.9,164.7-36.2,6.2-71.6,3.2-110.3-3.3-68-11.5-141.7-12.7-228.6-1.4-70.5,9.2-155.1,40-236.5,33.6-47-3.7-92.6-6.6-133.2-10.7-60.8-6.1-119.5,13.4-146.5-4.6-41.6-27.8-63.3-39-104.9-39.3-18.2-.1-39.6,2.4-65.8,2.9-79,1.3-119.4,49.9-197.5,53.4-22.7,1-51.7,12.8-85.1,22.4"/><path class="cls-5" d="M2593.6,487.6c-53-14.7-96.2-32.5-124.3-47.4-142.5-75.6-230.8-47.7-336-79.6-35.7-10.8-70.8-25.7-113.9-38.9-98.6-30.2-212.2-137.3-356-191.1-36.1-13.5-67-28.8-94.5-35.6-45.6-11.3-85.3,0-139.9,57.4-72.9,76.4-201,141-345.8,166.1-36,6.3-71.5,3.9-110.3-2-68.7-10.3-142.9-9.1-228.8,3.7-71.2,10.6-155.2,41.1-235.9,35-47.1-3.5-92.8-5.5-133.4-8.3-61.9-4.3-120.5,15.2-146.3-3.8-41.3-30.2-62.1-42.3-104.1-43.9-18.2-.7-39.7,1.1-66.2.7-80.2-1.1-119.7,47.6-199.7,47.5-22.6,0-52.4,10.4-86.5,19.2"/><path class="cls-5" d="M2481.6,445.5c-140.7-82-227.6-58.4-335-87.7-36-9.8-72-23.3-115.8-35.4-100.7-27.8-215.6-137.1-355.1-192.4-35.9-14.2-66.7-29.5-94.2-35.8-44.8-10.4-84.8,3.5-139.7,60-73.4,75.3-199,141.9-344.7,167.6-35.9,6.3-71.5,4.6-110.4-.6-69.3-9.2-144.1-5.4-229.1,8.9-72,12.1-155.3,42.2-235.3,36.5-47.2-3.4-93.1-4.3-133.7-5.9-63.1-2.5-121.5,16.9-146.2-2.9-40.9-32.8-61-45.5-103.2-48.6-18.2-1.3-39.8-.3-66.6-1.4-81.4-3.5-120.1,45.5-202,41.5-22.6-1.1-53,7.9-88,16"/><path class="cls-5" d="M2494.2,451.9c-138.9-88.4-224.5-69.1-334-95.8-36.3-8.8-73.1-20.9-117.7-31.9-102.8-25.4-218.9-137-354.2-193.8-35.6-15-66.4-30.2-94-36.1-44-9.5-84.4,7-139.6,62.6-73.8,74.2-197,142.8-343.5,169-35.7,6.4-71.5,5.3-110.4.8-70-8.1-145.2-1.7-229.4,14-72.8,13.5-155.4,43.2-234.7,37.9-47.2-3.2-93.3-3.1-134-3.6-64.2-.6-122.4,18.6-146-2.1-40.4-35.3-59.8-48.8-102.3-53.2-18.1-1.9-39.8-1.6-66.9-3.6C4.9,310.2-33,359.6-116.8,351.7c-22.6-2.1-53.7,5.5-89.5,12.8"/><path class="cls-5" d="M2506.5,457.6c-137-94.8-221.4-79.8-333.1-103.8-36.6-7.9-74.3-18.5-119.6-28.4-104.9-23-222.1-136.9-353.2-195.1-35.4-15.7-66.1-30.9-93.7-36.4-43.3-8.6-83.9,10.5-139.4,65.3-74.3,73-195.1,143.7-342.4,170.5-35.5,6.4-71.4,6-110.4,2.2-70.6-7-146.3,2-229.7,19.1-73.4,15-155.3,44.3-234,39.4-47.3-3-93.6-2-134.2-1.2-65.3,1.3-123.3,20.3-145.8-1.2-39.8-38-58.7-52-101.4-57.8-18.1-2.5-39.9-3-67.3-5.7-83.8-8.3-121,41.5-206.6,29.7-22.6-3.1-54.4,3.1-91,9.6"/><path class="cls-5" d="M2519,463.8c-135-101.3-218.3-90.6-332.1-111.9-36.9-6.9-75.4-16.1-121.5-24.9-107-20.5-225.4-136.8-352.3-196.5-35.1-16.5-65.8-31.6-93.4-36.7-42.5-7.7-83.5,14-139.2,67.9-74.7,71.9-193.1,144.6-341.3,171.9-35.3,6.5-71.4,6.7-110.4,3.5-71.3-5.8-147.4,5.8-230,24.3-74.2,16.6-155.5,45.4-233.6,40.8-47.4-2.8-93.8-.8-134.5,1.2-66.4,3.2-124.1,22-145.7-.4-39.1-40.6-57.5-55.2-100.5-62.4-18.1-3-40-4.3-67.7-7.8C31.8,322-4.8,372.5-92,356.5c-22.6-4.1-55,.6-92.4,6.4"/><path class="cls-5" d="M2531.6,469.8c-133-107.8-215.2-101.5-331.1-120-37.2-5.9-76.6-13.7-123.3-21.4-109.1-18.1-228.5-136.8-351.4-197.8-34.8-17.2-65.4-32.4-93.1-36.9-41.7-6.9-83,17.5-139.1,70.5-75.1,70.8-191.1,145.5-340.2,173.4-35.2,6.6-71.3,7.4-110.4,4.9-72-4.6-148.5,9.6-230.3,29.4-74.9,18.2-155.6,46.5-233,42.3-47.5-2.6-94,.4-134.8,3.6-67.4,5.2-124.9,23.8-145.5.4-38.3-43.3-56.4-58.4-99.6-67-18.1-3.6-40.1-5.7-68.1-10C45.2,327.7,9,378.8-79.8,358.7c-22.7-5.1-55.7-1.8-93.9,3.2"/><path class="cls-5" d="M2543.8,475.7C2413,361.4,2331.7,363.4,2213.7,347.6c-37.5-5-77.7-11.2-125.2-17.9-111.2-15.6-231.7-136.9-350.5-199.1-34.5-18-65.1-33.1-92.9-37.2-41-6-82.6,21-138.9,73.1-75.6,69.7-189.1,146.1-339.1,174.8-35,6.6-71.3,8.1-110.4,6.3C983.9,344,907,360.8,826,382c-75.6,19.7-155.7,47.5-232.5,43.7-47.6-2.4-94.2,1.7-135,5.9-68.4,7.2-125.6,25.5-145.3,1.3-37.4-45.9-55.2-61.6-98.8-71.7-18-4.2-40.2-7.1-68.5-12.1C58.6,333.5,22.9,385.3-67.5,361c-22.8-6.1-56.4-4.2-95.4,0"/><path class="cls-5" d="M2555.8,481.5c-128.6-120.8-209-123.2-329.2-136.2-37.8-4.1-78.9-8.8-127.1-14.4-113.3-13.1-234.7-137-349.6-200.5-34.1-18.9-64.8-33.9-92.6-37.5-40.2-5.2-82.2,24.5-138.8,75.7-76,68.6-187.1,147-338,176.2-34.8,6.6-71.2,8.9-110.5,7.6-73.3-2.3-150.6,17.1-230.8,39.6-76.3,21.4-155.8,48.8-231.9,45.2-47.7-2.1-94.3,2.9-135.3,8.3-69.5,9.2-126.3,27.3-145.2,2.1-36.4-48.6-54.1-64.8-97.9-76.3-18-4.7-40.2-8.4-68.9-14.3-88-17.7-123.4,34.9-215.2,6.3-22.9-7.1-57-6.7-96.9-3.2"/><path class="cls-5" d="M2568.6,487.6c-126.3-127.3-206-134.2-328.2-144.2-38.2-3.1-80-6.4-129-10.9-115.3-10.6-237.7-137.1-348.7-201.8-33.8-19.7-64.5-34.7-92.3-37.8-39.4-4.4-81.7,28-138.6,78.3-76.5,67.5-185.1,148-336.9,177.7-34.6,6.7-71.1,9.6-110.5,9-73.9-1.1-151.6,21-231.1,44.8-76.9,23-155.9,49.8-231.3,46.6-47.8-1.9-94.5,4.1-135.6,10.7-70.4,11.2-126.9,29.2-145,3-35.3-51.2-53-68-97-80.9-18-5.3-40.3-9.8-69.2-16.4-89.6-20.5-124.9,32.8-217.9,0-23.1-8.1-57.6-9.1-98.3-6.4"/><path class="cls-5" d="M2580.9,493.7C2457,359.8,2378,348.4,2253.7,341.2c-38.5-2.2-81.1-3.9-130.9-7.4-117.4-8-240.7-137.2-347.8-203.2-33.4-20.6-64.2-35.5-92-38.1-38.7-3.6-81.3,31.6-138.5,81-76.9,66.4-183.1,148.9-335.8,179.1-34.4,6.8-71.1,10.3-110.5,10.4-74.5.1-152.6,24.8-231.4,49.9s-156,50.9-230.7,48.1c-47.8-1.7-94.6,5.4-135.8,13.1-71.4,13.3-127.6,31-144.8,3.8-34.2-53.9-51.9-71.1-96.1-85.5-18-5.9-40.3-11.2-69.6-18.5-90.9-23.2-126,31.1-220.3-6-23.3-9.1-58.3-11.6-99.8-9.6"/><path class="cls-5" d="M2593.1,499.6C2434.2,316.2,2349,345.5,2134,335.3c-157.6-7.5-323.3-234.3-438.6-242.8-100.4-7.4-235.6,269.8-583.5,275.9C961.5,371,798.3,477.7,650.1,473c-131.7-4.2-254.8,64.5-280.8,20.1-46.4-79.4-62.8-82.5-165.2-110.8-91.9-25.4-127,29.4-222.5-11.9"/></g></g></svg>