<svg xmlns="http://www.w3.org/2000/svg" xmlns:xlink="http://www.w3.org/1999/xlink" viewBox="0 0 189 188.1"><defs><style>.cls-1,.cls-2,.cls-3,.cls-4{opacity:0.4;isolation:isolate;}.cls-1{fill:url(#linear-gradient);}.cls-2{fill:url(#linear-gradient-2);}.cls-3{fill:url(#linear-gradient-3);}.cls-4{fill:url(#linear-gradient-4);}.cls-5{fill:none;stroke:#fff;stroke-miterlimit:10;stroke-width:4px;}.cls-6{fill:#fff;}</style><linearGradient id="linear-gradient" x1="77" y1="163.6" x2="109" y2="163.6" gradientUnits="userSpaceOnUse"><stop offset="0" stop-color="#fff"/><stop offset="1" stop-color="#fff" stop-opacity="0.3"/></linearGradient><linearGradient id="linear-gradient-2" x1="2" y1="151.6" x2="56" y2="151.6" xlink:href="#linear-gradient"/><linearGradient id="linear-gradient-3" x1="130" y1="152.1" x2="184" y2="152.1" xlink:href="#linear-gradient"/><linearGradient id="linear-gradient-4" x1="5.27" y1="56.1" x2="180.79" y2="56.1" xlink:href="#linear-gradient"/></defs><g id="Layer_2" data-name="Layer 2"><g id="Layer_1-2" data-name="Layer 1"><rect class="cls-1" x="77" y="141.1" width="32" height="45" rx="3"/><rect class="cls-2" x="2" y="139.1" width="54" height="25" rx="2.54"/><path class="cls-3" d="M133,139.1h48a3,3,0,0,1,3,3v23a0,0,0,0,1,0,0H130a0,0,0,0,1,0,0v-23A3,3,0,0,1,133,139.1Z"/><path class="cls-4" d="M138.23,28.54A51.05,51.05,0,0,0,94.83,4.4H91.22a51.05,51.05,0,0,0-43.4,24.14A45.37,45.37,0,0,0,5.27,73.83V75A32.75,32.75,0,0,0,38,107.79H148A32.76,32.76,0,0,0,180.79,75V73.83A45.38,45.38,0,0,0,138.23,28.54Z"/><path class="cls-5" d="M38,57a55,55,0,0,1,110,0"/><path class="cls-5" d="M55.3,39.81a33.05,33.05,0,0,1,21-22"/><path class="cls-5" d="M44.94,29.82a40.19,40.19,0,0,0,0,80.38H64.17"/><path class="cls-5" d="M140.81,29.82a40.19,40.19,0,0,1,0,80.38H121.88"/><line class="cls-5" x1="92.89" y1="74.24" x2="92.89" y2="142.1"/><path class="cls-5" d="M21.89,174.1s.11,12-5,12"/><path class="cls-5" d="M35.89,174.1s-.1,12,5,12"/><path class="cls-5" d="M75,80.1v39.14a4.82,4.82,0,0,1-5.06,4.86H34.06S29,123.67,29,128.81v8.29"/><path class="cls-5" d="M111,80.1v39.14a4.82,4.82,0,0,0,5.06,4.86h35.88s5.06-.43,5.06,4.71v8.29"/><rect class="cls-5" x="2" y="139.1" width="54" height="35" rx="3"/><path class="cls-5" d="M133,139.1h48a3,3,0,0,1,3,3v23a0,0,0,0,1,0,0H130a0,0,0,0,1,0,0v-23A3,3,0,0,1,133,139.1Z"/><path class="cls-5" d="M187,175.1v8a3,3,0,0,1-3,3H130a3,3,0,0,1-3-3v-8"/><path class="cls-5" d="M184,177.1H130a3,3,0,0,1-3-3l3-9h54l3,9A3,3,0,0,1,184,177.1Z"/><rect class="cls-5" x="77" y="141.1" width="32" height="45" rx="3"/><line class="cls-5" x1="12" y1="186.1" x2="45" y2="186.1"/><path class="cls-5" d="M2,164.1H56a0,0,0,0,1,0,0v7a3,3,0,0,1-3,3H5a3,3,0,0,1-3-3v-7A0,0,0,0,1,2,164.1Z"/><circle class="cls-6" cx="93" cy="178.1" r="2"/></g></g></svg>