<svg id="Слой_1" data-name="Слой 1" xmlns="http://www.w3.org/2000/svg" xmlns:xlink="http://www.w3.org/1999/xlink" viewBox="0 0 262.02 188.4"><defs><style>.cls-1,.cls-2{fill:none;stroke:#fff;stroke-miterlimit:10;}.cls-1{stroke-width:4px;}.cls-2{stroke-width:3px;}.cls-3,.cls-4{opacity:0.4;}.cls-3,.cls-4,.cls-6{isolation:isolate;}.cls-3{fill:url(#Безымянный_градиент);}.cls-4{fill:url(#Безымянный_градиент-2);}.cls-5,.cls-6{fill:#fff;}.cls-6{opacity:0.2;}</style><linearGradient id="Безымянный_градиент" x1="124.26" y1="652.14" x2="124.26" y2="615.94" gradientTransform="translate(0 -614)" gradientUnits="userSpaceOnUse"><stop offset="0" stop-color="#fff"/><stop offset="1" stop-color="#fff" stop-opacity="0.3"/></linearGradient><linearGradient id="Безымянный_градиент-2" x1="124.21" y1="763.41" x2="124.21" y2="799.6" xlink:href="#Безымянный_градиент"/></defs><title>2</title><path class="cls-1" d="M172.81,61V56.2a18.12,18.12,0,0,0-17.9-18.1H93.81a18,18,0,0,0-18,17.8"/><path class="cls-1" d="M75.81,94.1v38.1a18,18,0,0,0,18,17.9h61a18,18,0,0,0,18-17.9h0V86.3"/><path class="cls-2" d="M82.81,94.1v38.1a10.93,10.93,0,0,0,10.9,10.9h61.2a10.93,10.93,0,0,0,10.9-10.9V56a10.93,10.93,0,0,0-10.9-10.9H93.71a10.9,10.9,0,0,0-10.9,10.8"/><path class="cls-1" d="M153.21,18c0-7.5-1.9-12.8-7.6-14.2-3.3-.8-11.3-1.6-21-1.7h-.8c-9.7,0-17.8.9-21,1.7-5.8,1.4-7.7,6.7-7.7,14.2,0,15.3-5.3,19-7,19.9-.1,0-.1.1-.1.2l.1.1h72a.1.1,0,0,0,0-.2C158.51,37,153.21,33.4,153.21,18Z"/><path class="cls-3" d="M153.21,17.9c0-7.6-1.9-12.9-7.6-14.3-3.3-.8-11.3-1.6-21-1.7h-.8c-9.7,0-17.8.9-21,1.7-5.8,1.5-7.6,6.8-7.6,14.3,0,16.4-6,19.6-7.3,20.1v.1h72.7V38h0C159.21,37.5,153.21,34.4,153.21,17.9Z"/><path class="cls-1" d="M95.21,170.5c0,7.6,1.9,12.9,7.6,14.3,3.3.8,11.3,1.6,21,1.7h.8c9.7,0,17.8-.9,21-1.7,5.7-1.4,7.6-6.7,7.6-14.3,0-15.4,5.3-19.1,7-20,.1,0,.1-.1.1-.2l-.1-.1h-72a.1.1,0,0,0,0,.2C89.91,151.3,95.21,155,95.21,170.5Z"/><path class="cls-4" d="M95.21,169.6c0,7.6,1.9,12.9,7.6,14.3,3.3.8,11.3,1.6,21,1.7h.8c9.7-.1,17.8-.9,21-1.7,5.7-1.4,7.6-6.7,7.6-14.3,0-16.4,6-19.6,7.3-20.1a.1.1,0,0,0,.1-.1c0-.1,0-.1-.1-.1H87.91a.1.1,0,0,0-.1.1c0,.1,0,.1.1.1C89.21,150.1,95.21,153.2,95.21,169.6Z"/><path class="cls-5" d="M116.61,63.1a1.24,1.24,0,0,1,1.2,1.3V86c0,.5-.8,1.1-1.6,1.1h-10.4v3.5l-2.3-2.5-.9-1H43.71a1,1,0,0,1-1-1.1V64.4a1.24,1.24,0,0,1,1.2-1.3h72.7m0-3H43.91a4.31,4.31,0,0,0-4.2,4.3h0V86a3.91,3.91,0,0,0,3.7,4.1h57.8l5.6,6.3a1.74,1.74,0,0,0,1.1.6c.4,0,.8-.3.8-1V90.1h7.4c2.3,0,4.6-1.7,4.6-4.1V64.4a4.16,4.16,0,0,0-4.1-4.3Z"/><path class="cls-6" d="M131.81,60.1h20a4,4,0,0,1,4,4v23a4,4,0,0,1-4,4h-20a4,4,0,0,1-4-4v-23A4,4,0,0,1,131.81,60.1Z"/><path class="cls-6" d="M96.81,97.1h20a4,4,0,0,1,4,4v23a4,4,0,0,1-4,4h-20a4,4,0,0,1-4-4v-23A4,4,0,0,1,96.81,97.1Z"/><path class="cls-6" d="M131.81,97.1h20a4,4,0,0,1,4,4v23a4,4,0,0,1-4,4h-20a4,4,0,0,1-4-4v-23A4,4,0,0,1,131.81,97.1Z"/><path class="cls-5" d="M170.91,64.1h2.3a4.48,4.48,0,0,1,4.5,4.5h0v9.9a4.48,4.48,0,0,1-4.5,4.5h-2.3V64.1Z"/><rect class="cls-5" x="46.81" y="67.1" width="31" height="3"/><rect class="cls-5" x="46.81" y="74.1" width="20" height="3"/><rect class="cls-5" x="69.81" y="74.1" width="15" height="3"/><path class="cls-5" d="M197.41,94.2a17.19,17.19,0,0,0-5-12.1l-2.1,2.5a14.51,14.51,0,0,1,0,19.3l2.1,2.5A17.42,17.42,0,0,0,197.41,94.2Z"/><path class="cls-5" d="M209.81,94.2a29.85,29.85,0,0,0-8.6-20.9L199,75.7a26.26,26.26,0,0,1,0,36.9l2.2,2.4A29.44,29.44,0,0,0,209.81,94.2Z"/><path class="cls-5" d="M222.31,94.2A41.78,41.78,0,0,0,210,64.6l-2.2,2.3a38.87,38.87,0,0,1,0,54.6l2.2,2.3A42.64,42.64,0,0,0,222.31,94.2Z"/></svg>