<svg id="Слой_1" data-name="Слой 1" xmlns="http://www.w3.org/2000/svg" xmlns:xlink="http://www.w3.org/1999/xlink" viewBox="0 0 262.02 188.4"><defs><style>.cls-1,.cls-5{fill:#fff;}.cls-2,.cls-3{fill:none;}.cls-2,.cls-3,.cls-5{stroke:#fff;stroke-miterlimit:10;}.cls-2{stroke-width:3px;}.cls-3,.cls-5{stroke-width:4px;}.cls-4{opacity:0.3;isolation:isolate;fill:url(#Безымянный_градиент_4);}</style><radialGradient id="Безымянный_градиент_4" cx="132.01" cy="782.55" r="69.38" gradientTransform="translate(0 -688)" gradientUnits="userSpaceOnUse"><stop offset="0" stop-color="#fff"/><stop offset="1" stop-color="#fff" stop-opacity="0.4"/></radialGradient></defs><title>3</title><path class="cls-1" d="M145,78.05a3,3,0,0,1,3,3v26a3,3,0,0,1-3,3H119a3,3,0,0,1-3-3h0v-26a3,3,0,0,1,3-3h26m0-4H119a7,7,0,0,0-7,7v26a7,7,0,0,0,7,7h26a7,7,0,0,0,7-7v-26A7,7,0,0,0,145,74.05Z"/><path class="cls-2" d="M123.51,84.55h17a.94.94,0,0,1,1,1v17a.94.94,0,0,1-1,1h-17a.94.94,0,0,1-1-1v-17A.94.94,0,0,1,123.51,84.55Z"/><rect class="cls-1" x="118.01" y="70.05" width="4" height="4"/><rect class="cls-1" x="126.01" y="70.05" width="4" height="4"/><rect class="cls-1" x="134.01" y="70.05" width="4" height="4"/><rect class="cls-1" x="142.01" y="70.05" width="4" height="4"/><rect class="cls-1" x="118.01" y="114.05" width="4" height="4"/><rect class="cls-1" x="126.01" y="114.05" width="4" height="4"/><rect class="cls-1" x="134.01" y="114.05" width="4" height="4"/><rect class="cls-1" x="142.01" y="114.05" width="4" height="4"/><polyline class="cls-3" points="151.01 100.05 206.51 100.05 218.51 113.05 238.51 113.05"/><polyline class="cls-3" points="231.51 73.05 208.01 73.05 195.01 86.05 152.01 86.05"/><line class="cls-3" x1="151.01" y1="93.05" x2="221.01" y2="93.05"/><polyline class="cls-3" points="113.01 87.05 56.51 87.05 44.51 74.05 24.51 74.05"/><polyline class="cls-3" points="32.51 114.05 56.01 114.05 69.01 101.05 113.01 101.05"/><line class="cls-3" x1="113.01" y1="94.05" x2="42.01" y2="94.05"/><path class="cls-4" d="M192.81,100.05H150v12H114v-36h36v9h44.6c.9-4.4,2.4-12.3,2.4-13,0-1-4-11-4-11l-10-10-9-3-1-5-4-12-11-8-13-2-12,5-11-4h-9l-11,3-9,12-4,12s-4,1-5,2-9,6-9,6l-6,9-1,13,1.8,8H112v14H70l-3,9,2,13,7,10,6,5,8,2,1,6,7,15,14,7,9-1,11-5,3,3,7,2h12l14-9,5-6,1-12,9-3,9-9c1-1,4-9,4-9l-1-15Z"/><path class="cls-1" d="M71.81,86.05A25.48,25.48,0,0,1,90.11,51a2.46,2.46,0,0,0,1.8-2.4,25,25,0,0,1,24.5-25.4,23.38,23.38,0,0,1,12.3,3.5l1.2.7v14.3a11.7,11.7,0,0,1-23.1,2.5h-4.3a15.89,15.89,0,0,0,15.7,13.3,15.67,15.67,0,0,0,7.9-2.2l3.8-2.2v5h4.2V27.35l1.2-.7a23,23,0,0,1,12.2-3.5,24.1,24.1,0,0,1,23.4,21.3l.2,2.1-2.1.6a15.72,15.72,0,0,0,1.8,30.7v-4.2a11.65,11.65,0,0,1,2.5-23c12.5,0,20.9,13.1,20.9,25.4a25,25,0,0,1-1.3,8.1h4.4a31.63,31.63,0,0,0,1.1-8.1c0-12.3-7.4-26.8-21.2-29.2l-1.9-.3-.2-1.9a27.94,27.94,0,0,0-30-25.5,28.64,28.64,0,0,0-12,3.8l-1.3.8-1.3-.8a27.35,27.35,0,0,0-14.2-3.9h0a29.06,29.06,0,0,0-28.6,26.5l-.1,1.7-1.6.5a29.64,29.64,0,0,0-18.8,38.4l4.6-.1Z"/><path class="cls-1" d="M192,102.05a27.17,27.17,0,0,1,2.3,10.5,25,25,0,0,1-20.4,25,2.46,2.46,0,0,0-1.8,2.4,25,25,0,0,1-24.5,25.4h0a23.38,23.38,0,0,1-12.3-3.5l-1.2-.7V146a11.7,11.7,0,0,1,23.1-2.5h4.3a15.89,15.89,0,0,0-15.7-13.3,15.67,15.67,0,0,0-7.9,2.2l-3.8,2.2v-4.5h-4.2v31.1l-1.2.7a24,24,0,0,1-12.2,3.5h0a24.19,24.19,0,0,1-23.4-21.3l-.2-2.1,2-.6a15.7,15.7,0,0,0,9.6-7.5A15.47,15.47,0,0,0,106,122a16,16,0,0,0-12.8-11.4v4.2a11.64,11.64,0,0,1-2.5,23c-12.5,0-20.9-13.1-20.9-25.4a25.47,25.47,0,0,1,2.3-10.5h-4.6a29.11,29.11,0,0,0-1.9,10.5c0,12.4,7.4,26.8,21.2,29.2l1.9.3.2,1.9a27.94,27.94,0,0,0,30,25.5,28.64,28.64,0,0,0,12-3.8l1.3-.8,1.3.8a27.35,27.35,0,0,0,14.2,3.9,29.06,29.06,0,0,0,28.6-26.5l.1-1.7,1.6-.5a29.1,29.1,0,0,0,20.6-28.3,29.65,29.65,0,0,0-1.9-10.6H192Z"/><circle class="cls-5" cx="24.01" cy="74.05" r="2"/><circle class="cls-5" cx="231.01" cy="73.05" r="2"/><circle class="cls-5" cx="221.01" cy="93.05" r="2"/><circle class="cls-5" cx="238.01" cy="113.05" r="2"/><circle class="cls-5" cx="41.01" cy="94.05" r="2"/><circle class="cls-5" cx="33.01" cy="114.05" r="2"/></svg>