<?xml version="1.0" encoding="utf-8"?>
<!-- Generator: Adobe Illustrator 23.0.1, SVG Export Plug-In . SVG Version: 6.00 Build 0)  -->
<svg version="1.1" id="Слой_1" xmlns="http://www.w3.org/2000/svg" xmlns:xlink="http://www.w3.org/1999/xlink" x="0px" y="0px"
	 width="90px" height="90px" viewBox="0 0 90 90" style="enable-background:new 0 0 90 90;" xml:space="preserve">
<style type="text/css">
	.st0{fill:#FF5555;}
	.st1{fill:none;}
</style>
<path class="st0" d="M2.2,74.6c0,0.1,1,4.8,1,4.8l8.9,1.1l-0.7,6.6l8.9,0.8l-2.1-7.6l7.4,0.1l3.4-1.8c0,0,0.3-4.6-0.2-4.4
	S2.2,74.6,2.2,74.6z"/>
<path class="st0" d="M37.7,81.9c0,0.4,0,3.9,0,3.9l2.5,1.7l6.3,0.5l4.8-1.1l1.3-5L37.7,81.9z"/>
<polygon class="st0" points="62.8,76 60.8,82.9 62.5,87.1 71.4,88.1 85.4,87.6 88,85.7 87.1,80.1 86,76 "/>
<path d="M38.7,53.8V41.1h-2v12.8c0,1.1-0.8,1.9-1.9,1.9H18.5c-2.3,0-3.9,1.7-3.9,3.9v1.9H5.3c-2.3,0-3.9,1.7-3.9,3.9v11.8
	c0,2.3,1.7,3.9,3.9,3.9h6.1l-1.1,5.3H7.3v2H24v-2h-3.1l-1.1-5.3h6.1c2.3,0,3.9-1.7,3.9-3.9V65.6c0-2.3-1.7-3.9-3.9-3.9h-9.3v-1.9
	c0-1.1,0.8-1.9,1.9-1.9h16.2C37,57.8,38.7,56.1,38.7,53.8z M12.4,86.6l1.1-5.3h4.3l1.1,5.3H12.4z M27.8,77.3c0,1.1-0.8,1.9-1.9,1.9
	H5.3c-1.1,0-1.9-0.8-1.9-1.9v-1.9h24.4V77.3z M25.9,63.7c1.1,0,1.9,0.8,1.9,1.9v7.8H3.4v-7.8c0-1.1,0.8-1.9,1.9-1.9H25.9z"/>
<path d="M64.1,88.6h20.6c2.3,0,3.9-1.7,3.9-3.9v-2.9l-1.5-6.1V65.6c0-2.3-1.7-3.9-3.9-3.9h-7.8v-1.9c0-2.3-1.7-3.9-3.9-3.9H55.3
	c-1.1,0-1.9-0.8-1.9-1.9V41.1h-2v12.8c0,2.3,1.7,3.9,3.9,3.9h16.2c1.1,0,1.9,0.8,1.9,1.9v1.9h-7.8c-2.3,0-3.9,1.7-3.9,3.9l0,10.3
	l-1.5,5.7v3.2C60.2,86.9,61.9,88.6,64.1,88.6z M63.6,65.6c0-1.1,0.8-1.9,1.9-1.9h17.6c1.1,0,1.9,0.8,1.9,1.9v9.3H63.6V65.6z
	 M63.5,76.9h21.9l1,3.9H62.5L63.5,76.9z M62.2,82.8h24.4v1.9c0,1.1-0.8,1.9-1.9,1.9H64.1c-1.1,0-1.9-0.8-1.9-1.9V82.8z"/>
<path d="M36.6,65.6v19.1c0,2.3,1.7,3.9,3.9,3.9h8.8c2.3,0,3.9-1.7,3.9-3.9V65.6c0-2.3-1.7-3.9-3.9-3.9H46V41.1h-2v20.6h-3.4
	C38.3,61.6,36.6,63.3,36.6,65.6z M51.3,84.7c0,1.1-0.8,1.9-1.9,1.9h-8.8c-1.1,0-1.9-0.8-1.9-1.9v-1.9h12.7V84.7z M49.4,63.7
	c1.1,0,1.9,0.8,1.9,1.9v15.2H38.7V65.6c0-1.1,0.8-1.9,1.9-1.9H49.4z"/>
<path d="M82.8,30.3c0-9.5-7.7-17.2-17.2-17.2H65l-0.1-0.2C58.5,2,44.4-1.9,33.5,4.4c-3.6,2.1-6.6,5.1-8.5,8.5l-0.1,0.2h-0.6
	c-9.5,0-17.2,7.7-17.2,17.2s7.7,17.2,17.2,17.2h8.4v-2h-8.4c-8.4,0-15.2-6.8-15.2-15.2c0-7.9,6-14.4,13.9-15.2l0.7-0.1l-0.3,0.7
	c-1,2.7-1.5,5.5-1.6,8.2h2c0.2-11.4,9.6-20.6,21-20.6c11.4,0,20.8,9.2,21,20.6h2c-0.1-2.8-0.7-5.6-1.7-8.2L66,15.1l0.8,0.1
	c8.4,0.8,14.5,8.1,13.8,16.4c-0.6,7.9-7.1,13.9-15,13.9h-8.4v2h8.4C75,47.5,82.8,39.8,82.8,30.3z"/>
<rect class="st1" width="90" height="90"/>
</svg>
