<svg version="1.1" xmlns="http://www.w3.org/2000/svg" width="576" height="448" viewBox="0 0 576 448">
<path fill="#ffffff" d="M573.091 144.455v252.636c0 28-22.909 50.909-50.909 50.909h-468.363c-28 0-50.909-22.909-50.909-50.909v-252.636c9.545 10.5 20.363 19.727 32.136 27.681 52.818 35.954 106.273 71.909 158.136 109.773 26.727 19.727 59.818 43.909 94.5 43.909h0.637c34.682 0 67.773-24.182 94.5-43.909 51.864-37.546 105.318-73.818 158.454-109.773 11.454-7.955 22.273-17.182 31.818-27.681zM573.091 50.909c0 35.636-26.409 67.773-54.409 87.181-49.637 34.363-99.591 68.727-148.909 103.409-20.682 14.318-55.682 43.591-81.455 43.591h-0.637c-25.773 0-60.773-29.273-81.455-43.591-49.318-34.682-99.273-69.045-148.591-103.409-22.591-15.273-54.727-51.227-54.727-80.182 0-31.182 16.864-57.909 50.909-57.909h468.363c27.682 0 50.909 22.909 50.909 50.909z"></path>
</svg>
