<svg width="71" height="70" viewBox="0 0 71 70" fill="none" xmlns="http://www.w3.org/2000/svg">
<path d="M9.3457 4.2793C7.56836 4.2793 6.10547 5.74219 6.10547 7.51953C6.10547 9.29688 7.55469 10.7598 9.3457 10.7598C11.1367 10.7598 12.5996 9.31055 12.5996 7.51953C12.5996 5.72852 11.1367 4.2793 9.3457 4.2793ZM9.3457 8.69531C8.70312 8.69531 8.16992 8.16211 8.16992 7.51953C8.16992 6.87695 8.70312 6.34375 9.3457 6.34375C9.98828 6.34375 10.5215 6.87695 10.5215 7.51953C10.5215 8.17578 10.002 8.69531 9.3457 8.69531Z" fill="#FF5555"/>
<path d="M18.0547 4.2793C16.2637 4.2793 14.8008 5.74219 14.8008 7.51953C14.8008 9.29688 16.25 10.7598 18.041 10.7598C19.832 10.7598 21.2812 9.31055 21.2812 7.51953C21.2812 5.72852 19.832 4.2793 18.0547 4.2793ZM18.0547 8.69531C17.4121 8.69531 16.8789 8.16211 16.8789 7.51953C16.8789 6.87695 17.4121 6.34375 18.0547 6.34375C18.6973 6.34375 19.2305 6.87695 19.2305 7.51953C19.2168 8.17578 18.6973 8.69531 18.0547 8.69531Z" fill="#FF5555"/>
<path d="M26.75 4.2793C24.959 4.2793 23.5098 5.72852 23.5098 7.51953C23.5098 9.31055 24.959 10.7598 26.75 10.7598C28.541 10.7598 29.9902 9.31055 29.9902 7.51953C29.9902 5.72852 28.541 4.2793 26.75 4.2793ZM26.75 8.69531C26.1074 8.69531 25.5742 8.16211 25.5742 7.51953C25.5742 6.87695 26.0937 6.34375 26.75 6.34375C27.4062 6.34375 27.9258 6.87695 27.9258 7.51953C27.9258 8.17578 27.3926 8.69531 26.75 8.69531Z" fill="#FF5555"/>
<path d="M66.6445 0H4.24609C2.1543 0 0.445312 1.70898 0.445312 3.80078V49.4922C0.445312 51.584 2.1543 53.293 4.24609 53.293H10.9316C10.6172 53.7031 10.6445 54.291 11.0137 54.6602L15.9902 59.6367C15.6211 60.4023 15.293 61.1953 15.0195 61.9883H7.96484C7.39062 61.9883 6.92578 62.4531 6.92578 63.0273V68.9609C6.92578 69.5352 7.39062 70 7.96484 70H28.4043C28.9785 70 29.4434 69.5352 29.4434 68.9609C29.4434 65.8027 32.0137 63.2324 35.1719 63.2324C38.3301 63.2324 40.9004 65.8027 40.9004 68.9609C40.9004 69.5352 41.3652 70 41.9395 70H62.3789C62.9531 70 63.418 69.5352 63.418 68.9609V63.0273C63.418 62.4531 62.9531 61.9883 62.3789 61.9883H55.3379C55.0645 61.1816 54.7363 60.4023 54.3672 59.6367L59.3438 54.6602C59.7129 54.291 59.7402 53.7031 59.4258 53.293H66.6582C68.75 53.293 70.459 51.584 70.459 49.4922V23.8848C70.459 23.3105 69.9941 22.8457 69.4199 22.8457C68.8457 22.8457 68.3809 23.3105 68.3809 23.8848V49.4922C68.3809 50.4492 67.6016 51.2148 66.6582 51.2148H57.3613L51.25 45.1172V38.0352C51.25 37.4609 50.7852 36.9961 50.2109 36.9961H48.3516V30.625L49.8145 29.2715C50.1016 28.998 50.2246 28.5879 50.1016 28.2051L47.6133 20.1934C47.4766 19.7559 47.0801 19.4688 46.6289 19.4688H43.8672C43.416 19.4688 43.0059 19.7695 42.8828 20.1934L40.3945 28.2051C40.2715 28.5879 40.3809 28.998 40.6816 29.2715L42.1445 30.625V37.0098H40.2852C39.7109 37.0098 39.2461 37.4746 39.2461 38.0488V40.7422H31.0977V39.1699L35.0762 35.1914C35.2676 35 35.377 34.7402 35.377 34.4531V25.9629C35.377 25.6895 35.2676 25.416 35.0625 25.2246L29.5391 19.7695C29.2383 19.4824 28.8008 19.3867 28.418 19.5508C28.0352 19.7148 27.7754 20.084 27.7754 20.5078V29.7363L25.082 31.4316L22.3887 29.7363V29.1484C22.3887 28.5742 21.9238 28.1094 21.3496 28.1094C20.7754 28.1094 20.3105 28.5742 20.3105 29.1484V30.3105C20.3105 30.666 20.4883 30.9941 20.7891 31.1855L24.5215 33.5371C24.8633 33.7559 25.2871 33.7559 25.6289 33.5371L29.3613 31.1855C29.6621 30.9941 29.8398 30.666 29.8398 30.3105V22.9824L33.2852 26.3867V34.0156L29.3066 37.9941C29.1152 38.1855 29.0059 38.4453 29.0059 38.7324V40.7559C28.5273 40.8516 28.1719 41.2754 28.1719 41.7676V48.8086C27.3652 49.082 26.5859 49.4102 25.8203 49.7793L21.1309 45.0898V38.7324C21.1309 38.459 21.0215 38.1992 20.8301 37.9941L16.8516 34.0156V26.3867L20.2969 22.9824V24.2949C20.2969 24.8691 20.7617 25.334 21.3359 25.334C21.9102 25.334 22.375 24.8691 22.375 24.2949V20.5078C22.375 20.084 22.1289 19.7148 21.7324 19.5508C21.3496 19.3867 20.8984 19.4824 20.6113 19.7695L15.0879 25.2246C14.8965 25.416 14.7734 25.6895 14.7734 25.9629V34.4531C14.7734 34.7266 14.8828 34.9863 15.0742 35.1914L19.0527 39.1699V45.1172L12.9551 51.2148H4.24609C3.28906 51.2148 2.52344 50.4355 2.52344 49.4922V15.0391H68.3809V19.0449C68.3809 19.6191 68.8457 20.084 69.4199 20.084C69.9941 20.084 70.459 19.6191 70.459 19.0449V3.80078C70.4453 1.70898 68.7363 0 66.6445 0ZM43.8809 29.4082L42.5684 28.1914L44.6328 21.5332H45.8633L47.9277 28.1914L46.6152 29.4082C46.3965 29.5996 46.2871 29.873 46.2871 30.1738V37.0098H44.2227V30.1738C44.209 29.873 44.0859 29.5996 43.8809 29.4082ZM49.1855 39.0742V45.0898L44.4961 49.7793C43.7305 49.4102 42.9375 49.082 42.1445 48.8086V41.7676C42.1445 41.2617 41.7891 40.8516 41.3105 40.7559V39.0742H49.1855ZM26.1348 51.9531C27.2148 51.3789 28.3633 50.9004 29.5391 50.5449C29.9766 50.4082 30.2773 50.0117 30.2773 49.5605V42.8066H40.0801V49.5605C40.0801 50.0117 40.3809 50.4219 40.8184 50.5449C41.9941 50.9004 43.1426 51.3789 44.2227 51.9531C44.6191 52.1719 45.125 52.0898 45.4395 51.7754L50.2109 47.0039L56.1992 52.9922L57.1426 53.9355L52.3711 58.707C52.043 59.0352 51.9746 59.5273 52.1934 59.9238C52.7676 61.0039 53.2461 62.1523 53.6016 63.3281C53.7383 63.7656 54.1348 64.0664 54.5859 64.0664H61.3398V67.9355H50.8125C50.2793 59.7734 43.4707 53.3066 35.1719 53.3066C32.957 53.3066 30.8105 53.7578 28.8008 54.6602C28.2812 54.8926 28.0488 55.5078 28.2812 56.0273C28.5137 56.5469 29.1289 56.7793 29.6484 56.5469C31.3984 55.7676 33.2578 55.3711 35.1719 55.3711C42.3223 55.3711 48.2012 60.9219 48.7344 67.9355H42.9102C42.4043 64.1211 39.123 61.168 35.1719 61.168C31.2207 61.168 27.9531 64.1211 27.4336 67.9355H21.6094C21.8555 64.5312 23.3457 61.4141 25.875 59.0488C26.2988 58.6523 26.3125 57.9961 25.916 57.5859C25.5195 57.1758 24.8633 57.1484 24.4531 57.5449C21.5547 60.2656 19.8047 63.998 19.5312 67.9492H9.00391V64.0801H15.7578C16.209 64.0801 16.6191 63.7793 16.7422 63.3418C17.0977 62.166 17.5762 61.0176 18.1504 59.9375C18.3691 59.541 18.2871 59.0352 17.9727 58.7207L13.2012 53.9492L14.1445 53.0059L20.1328 47.0176L24.9043 51.7891C25.2324 52.0898 25.7246 52.1719 26.1348 51.9531ZM2.50977 12.9746V3.80078C2.50977 2.84375 3.28906 2.07812 4.23242 2.07812H66.6445C67.6016 2.07812 68.3672 2.85742 68.3672 3.80078V12.9883H2.50977V12.9746Z" fill="black"/>
</svg>
