<svg width="18" height="15" viewBox="0 0 18 15" fill="none" xmlns="http://www.w3.org/2000/svg">
<path d="M17.8489 1.73295C17.1948 2.01827 16.503 2.20788 15.7949 2.29595C16.541 1.85334 17.0989 1.1524 17.3629 0.325949C16.6643 0.740374 15.8999 1.03225 15.1029 1.18895C14.6142 0.667262 13.9799 0.304593 13.2824 0.148043C12.5849 -0.00850698 11.8565 0.0482978 11.1917 0.311083C10.5269 0.573869 9.9565 1.03049 9.55458 1.62163C9.15266 2.21277 8.93778 2.91111 8.93787 3.62595C8.93518 3.89919 8.96302 4.17188 9.02087 4.43895C7.60287 4.36951 6.21549 4.00156 4.94945 3.35915C3.68341 2.71674 2.56722 1.81434 1.67387 0.710951C1.21547 1.49564 1.07405 2.42576 1.2785 3.31123C1.48296 4.1967 2.01785 4.97067 2.77387 5.47495C2.20969 5.45948 1.6575 5.30857 1.16387 5.03495V5.07395C1.16544 5.89664 1.45023 6.6937 1.97036 7.3311C2.49048 7.96851 3.21421 8.40739 4.01987 8.57395C3.71509 8.65414 3.40101 8.69349 3.08587 8.69095C2.85933 8.69494 2.63302 8.67449 2.41087 8.62995C2.64141 9.33713 3.08534 9.95554 3.68163 10.4002C4.27793 10.8448 4.9973 11.0938 5.74087 11.1129C4.47924 12.0994 2.92338 12.6346 1.32187 12.6329C1.03518 12.6361 0.748583 12.6207 0.463867 12.587C2.09366 13.6374 3.99289 14.1931 5.93187 14.1869C7.26651 14.1963 8.5897 13.9403 9.82456 13.4338C11.0594 12.9274 12.1813 12.1807 13.1251 11.2369C14.069 10.2932 14.8158 9.17138 15.3224 7.93657C15.8289 6.70175 16.085 5.37859 16.0759 4.04395C16.0759 3.88595 16.0709 3.73395 16.0629 3.58295C16.7657 3.07996 17.3709 2.45304 17.8489 1.73295Z" fill="white"/>
</svg>
