<svg width="70" height="71" viewBox="0 0 70 71" fill="none" xmlns="http://www.w3.org/2000/svg">
<path d="M8.11683 30.6455V30.6455C8.12065 33.8931 10.7525 36.525 14.0001 36.5288H15.1168V38.7621H14.0002C9.51964 38.7571 5.88857 35.126 5.8835 30.6454L5.8835 17.8121C5.8835 8.17479 13.6962 0.362134 23.3335 0.362134C32.9708 0.362134 40.7835 8.17479 40.7835 17.8121V30.6454C40.7784 35.126 37.1473 38.7571 32.6668 38.7621H31.5502V36.5288H32.6668C35.9145 36.525 38.5463 33.8931 38.5502 30.6455V17.8121C38.5502 9.40814 31.7375 2.59547 23.3335 2.59547C14.9295 2.59547 8.11683 9.40814 8.11683 17.8121V30.6455Z" fill="#0071B3" stroke="white" stroke-width="0.1"/>
<path d="M9.57231 55.2691L9.5723 55.2691C7.433 58.6396 7.67097 62.9967 10.1646 66.1141C10.3231 66.3122 10.4093 66.5584 10.4092 66.812V66.8121V70.2621H8.17585V67.2099V67.1934L8.166 67.1801C5.30863 63.3315 5.11797 58.1204 7.68624 54.0732L8.51228 52.7714L10.3983 53.9685L9.57231 55.2691Z" fill="#0071B3" stroke="white" stroke-width="0.1"/>
<path d="M51.3832 23.6455V23.5955H51.3332H48.9999C45.8075 23.5917 43.2203 21.0045 43.2165 17.8121L43.2165 6.1455C43.2203 2.95308 45.8075 0.365893 48.9999 0.362134L64.1665 0.362134C67.3589 0.365908 69.9461 2.9531 69.9498 6.14552V17.8121C69.9461 21.0045 67.3589 23.5917 64.1664 23.5955H58.8162H58.7955L58.7808 23.6101L53.2893 29.1016C53.0799 29.311 52.796 29.4288 52.4998 29.4288L52.4997 29.4288C52.3529 29.4292 52.2077 29.4005 52.0722 29.344L52.0721 29.3439C51.6549 29.171 51.383 28.7637 51.3832 28.3121V23.6455ZM53.6165 25.4958V25.6165L53.7019 25.5312L57.5437 21.6893C57.7531 21.4799 58.037 21.3621 58.3332 21.3621H64.1665C66.1271 21.3621 67.7165 19.7728 67.7165 17.8121V6.14547C67.7165 4.18483 66.1271 2.59547 64.1665 2.59547H48.9998C47.0392 2.59547 45.4498 4.18483 45.4498 6.14547V17.8121C45.4498 19.7728 47.0392 21.3621 48.9998 21.3621H52.4998C53.1165 21.3621 53.6165 21.8621 53.6165 22.4788V25.4958Z" fill="#0071B3" stroke="white" stroke-width="0.1"/>
<path d="M49.05 8.42884V6.19551H57.1167V8.42884H49.05Z" fill="#0071B3" stroke="white" stroke-width="0.1"/>
<path d="M59.55 8.42884V6.19551H64.1167V8.42884H59.55Z" fill="#0071B3" stroke="white" stroke-width="0.1"/>
<path d="M49.05 13.0955V10.8621H64.1167V13.0955H49.05Z" fill="#0071B3" stroke="white" stroke-width="0.1"/>
<path d="M49.05 17.7621V15.5288H57.1167V17.7621H49.05Z" fill="#0071B3" stroke="white" stroke-width="0.1"/>
<path d="M38.1543 52.7714L38.9803 54.0732C41.5486 58.1204 41.358 63.3315 38.5006 67.1801L38.4907 67.1934V67.2099V70.2621H36.2574L36.2574 66.8121L36.2574 66.812C36.2572 66.5584 36.3435 66.3122 36.5019 66.1141C38.9958 62.9972 39.2337 58.6403 37.0943 55.2703L36.2682 53.9685L38.1543 52.7714Z" fill="#0071B3" stroke="white" stroke-width="0.1"/>
<path d="M50.2267 47.8372L50.2325 47.8268L50.233 47.8149C50.4101 43.468 53.9829 40.0338 58.3333 40.0287H68.8333C69.45 40.0287 69.95 40.5287 69.95 41.1454C69.9449 45.6259 66.3139 49.257 61.8333 49.2621H61.3667H61.3369L61.3227 49.2882L49.9572 70.2621H47.4168L58.7518 49.3359L58.7918 49.2621H58.7078H52.0193H51.9899L51.9756 49.2878L46.476 59.187C46.2792 59.5411 45.9061 59.7606 45.501 59.7611C44.8843 59.7616 44.3839 59.262 44.3833 58.6454V49.3121C44.3795 46.0644 41.7476 43.4326 38.5001 43.4287H35.35H35.3251L35.3101 43.4486L24.2267 58.1486L24.2267 58.1487C24.0158 58.4299 23.6848 58.5954 23.3333 58.5954L23.3188 58.5954C23.3187 58.5954 23.3186 58.5954 23.3186 58.5954C22.9635 58.5906 22.632 58.4174 22.4255 58.1286L22.3848 58.1577L22.4255 58.1286L11.9197 43.4496L11.9047 43.4287H11.879H8.16667C4.91904 43.4326 2.28716 46.0644 2.28333 49.312V70.2621H0.05V49.3121C0.0550889 44.8315 3.68616 41.2005 8.16672 41.1954H15.1667C16.483 41.1954 17.55 40.1284 17.55 38.8121V36.0669V36.038L17.525 36.0236C13.9356 33.9512 11.7222 30.1234 11.7167 25.9787V20.9539V20.9539C11.7165 20.5213 11.9662 20.1276 12.3576 19.9433C12.3576 19.9433 12.3576 19.9433 12.3576 19.9433L32.1044 10.6521C32.1044 10.6521 32.1045 10.6521 32.1045 10.652C32.6392 10.4038 33.2747 10.6141 33.556 11.1321C34.4694 12.8264 34.9483 14.7207 34.95 16.6454V25.9787C34.9445 30.1234 32.7311 33.9512 29.1417 36.0236L29.1167 36.038V36.0669V38.8121C29.1167 40.1284 30.1837 41.1954 31.5 41.1954H34.1833H34.2063L34.2113 41.1896L34.2187 41.1954H34.2358H38.4999C42.9805 41.2005 46.6116 44.8316 46.6167 49.3121V54.1432V54.3362L46.7104 54.1675L50.2267 47.8372ZM13.9787 21.6495L13.95 21.663V21.6947V25.9787C13.95 31.161 18.1511 35.3621 23.3333 35.3621C28.5156 35.3621 32.7167 31.161 32.7167 25.9787V16.6454C32.7167 15.4658 32.4943 14.2966 32.061 13.1994L32.0414 13.1498L31.9932 13.1725L13.9787 21.6495ZM23.3172 55.5385L23.3568 55.5939L23.3978 55.5395L27.1894 50.5088L27.2498 50.4287H27.1495H19.7575H19.6602L19.7168 50.5078L23.3172 55.5385ZM28.9147 48.1954H28.9396L28.9546 48.1755L32.4733 43.5088L32.5336 43.4287H32.4333H31.5C28.9503 43.4287 26.8833 41.3618 26.8833 38.8121V37.1076V37.0394L26.8183 37.0599C24.5499 37.7739 22.1168 37.7739 19.8483 37.0599L19.7833 37.0394V37.1076V38.8121C19.7833 41.3618 17.7164 43.4287 15.1667 43.4287H14.7432H14.6459L14.7025 43.5078L18.0427 48.1745L18.0576 48.1954H18.0833H28.9147ZM52.5677 46.9687L52.5553 47.0287H52.6167H61.8333C64.6282 47.0257 67.0364 45.0598 67.599 42.3221L67.6113 42.2621H67.55H58.3333C55.5384 42.2652 53.1303 44.2311 52.5677 46.9687Z" fill="#0071B3" stroke="white" stroke-width="0.1"/>
</svg>
