<svg width="62" height="71" viewBox="0 0 62 71" fill="none" xmlns="http://www.w3.org/2000/svg">
<mask id="path-1-inside-1" fill="white">
<path fill-rule="evenodd" clip-rule="evenodd" d="M46.6666 13.4371H42.9888C42.8345 13.004 42.6583 12.5791 42.4609 12.164L45.0625 9.56239C45.6318 8.99295 45.6318 8.06983 45.0625 7.50026L40.9369 3.37463C40.3674 2.80534 39.4443 2.80534 38.8747 3.37463L36.2731 5.97625C35.858 5.7787 35.4331 5.6026 35 5.44838V1.77051C35 0.965103 34.347 0.312134 33.5416 0.312134H27.7082C26.903 0.312134 26.25 0.965103 26.25 1.77051V5.44838C25.817 5.60206 25.392 5.77788 24.9769 5.97489L22.3753 3.37463C21.8058 2.80534 20.8827 2.80534 20.3131 3.37463L16.1875 7.50026C15.6182 8.06969 15.6182 8.99282 16.1875 9.56239L18.7891 12.164C18.5916 12.5791 18.4155 13.004 18.2612 13.4371H14.5834C13.778 13.4371 13.125 14.0901 13.125 14.8955V20.7289C13.125 21.5343 13.778 22.1873 14.5834 22.1873H18.2612C18.4149 22.6203 18.5907 23.0453 18.7878 23.4604L16.1875 26.0619C15.6182 26.6313 15.6182 27.5544 16.1875 28.124L20.3131 32.2496C20.8826 32.8189 21.8057 32.8189 22.3753 32.2496L24.9769 29.648C25.392 29.8456 25.8169 30.0217 26.25 30.1759V33.8538C26.25 34.6592 26.903 35.3121 27.7084 35.3121H33.5418C34.3472 35.3121 35.0001 34.6592 35.0001 33.8538V30.1773C35.4333 30.023 35.8582 29.8468 36.2733 29.6494L38.8749 32.2496C39.4443 32.8189 40.3674 32.8189 40.937 32.2496L45.0626 28.124C45.6319 27.5546 45.6319 26.6315 45.0626 26.0619L42.461 23.4603C42.6586 23.0452 42.8347 22.6203 42.9889 22.1871H46.6668C47.4722 22.1871 48.1251 21.5342 48.1251 20.7288V14.8954C48.125 14.0901 47.472 13.4371 46.6666 13.4371ZM45.2084 19.269H41.9111C41.2463 19.2691 40.6656 19.719 40.4995 20.3628C40.2615 21.2841 39.8958 22.1677 39.413 22.9878C39.0744 23.5609 39.1668 24.2906 39.6376 24.7611L41.971 27.0945L39.9089 29.1566L37.5755 26.8233C37.1049 26.3524 36.3753 26.26 35.8021 26.5986C34.9821 27.0814 34.0985 27.4471 33.1771 27.6851C32.5333 27.8514 32.0835 28.4319 32.0834 29.0968V32.3955H29.1668L29.1683 29.1011C29.1681 28.4363 28.7183 27.8556 28.0745 27.6895C27.1532 27.4515 26.2696 27.0858 25.4495 26.603C24.8764 26.2644 24.1467 26.3568 23.6761 26.8276L21.3428 29.161L19.2806 27.0989L21.614 24.7655C22.0849 24.2949 22.1773 23.5653 21.8386 22.9921C21.3559 22.1721 20.9902 21.2885 20.7521 20.3671C20.5859 19.7233 20.0054 19.2735 19.3405 19.2734H16.0418V16.3568H19.342C20.0069 16.3566 20.5875 15.9068 20.7536 15.263C20.9917 14.3417 21.3574 13.4581 21.8401 12.638C22.1788 12.0649 22.0864 11.3352 21.6155 10.8646L19.2821 8.53125L21.3412 6.46776L23.6746 8.80114C24.1452 9.272 24.8749 9.36442 25.448 9.02577C26.268 8.54301 27.1517 8.17729 28.073 7.93926C28.7168 7.77301 29.1666 7.1925 29.1668 6.52764V3.22875H32.0834V6.5275C32.0826 7.19209 32.5311 7.77315 33.1743 7.94063C34.0956 8.17866 34.9792 8.54438 35.7993 9.02713C36.3724 9.36579 37.1021 9.27336 37.5726 8.80251L39.906 6.46913L41.9695 8.52825L39.6361 10.8616C39.1653 11.3322 39.0729 12.0619 39.4115 12.635C39.8943 13.455 40.26 14.3387 40.498 15.26C40.6643 15.9038 41.2448 16.3536 41.9096 16.3538H45.2084V19.269ZM30.625 11.9787C27.4033 11.9787 24.7916 14.5905 24.7916 17.8121C24.7916 21.0338 27.4033 23.6455 30.625 23.6455C33.8466 23.6455 36.4584 21.0338 36.4584 17.8121C36.4584 14.5905 33.8466 11.9787 30.625 11.9787ZM30.625 20.7287C29.0142 20.7287 27.7084 19.4229 27.7084 17.8121C27.7084 16.2013 29.0142 14.8955 30.625 14.8955C32.2358 14.8955 33.5416 16.2013 33.5416 17.8121C33.5416 19.4229 32.2358 20.7287 30.625 20.7287ZM20.4166 39.6449V36.7705H23.3334V39.6449C23.3334 43.9471 21.6828 47.6387 19.1645 49.6726C19.5547 50.6042 20.4461 51.2845 21.5224 51.3538C21.6399 51.3613 21.7576 51.3613 21.875 51.3538C25.9001 51.3587 29.1618 54.6204 29.1668 58.6455V70.3121H26.2501V58.6455C26.2501 56.2293 24.2914 54.2705 21.8751 54.2705C19.5639 54.3388 17.535 53.0136 16.595 51.0553C15.951 51.2509 15.2778 51.3539 14.5834 51.3539C13.8889 51.3539 13.2157 51.2508 12.5716 51.0552C11.6832 52.9046 9.81849 54.2058 7.62617 54.2705C7.51461 54.2738 7.40304 54.2738 7.29162 54.2705C4.87539 54.2705 2.91662 56.2293 2.91662 58.6455V70.3121H0V58.6455C0.00478515 54.6204 3.26662 51.3587 7.29175 51.3538C8.49259 51.4303 9.56231 50.7234 10.0019 49.6723C7.48378 47.6382 5.83339 43.9468 5.83339 39.6449V36.7705C5.83339 36.651 5.84815 36.5321 5.87714 36.4162C6.86821 32.3957 10.4431 29.5473 14.5834 29.4789V32.3955C11.8416 32.4692 9.47188 34.3301 8.75001 36.9762V39.6449C8.75001 44.4997 11.3663 48.4372 14.5832 48.4372C17.8004 48.4372 20.4166 44.4997 20.4166 39.6449ZM8.75042 60.1034H5.8338V70.3122H8.75042V60.1034ZM20.4162 60.1034H23.3328V70.3122H20.4162V60.1034ZM55.3729 36.4162C54.3818 32.3957 50.8069 29.5471 46.6666 29.4789V32.3955C49.4077 32.4695 51.7772 34.3296 52.5 36.9747V39.6449C52.5 44.4997 49.8838 48.4372 46.6666 48.4372C43.4495 48.4372 40.8332 44.4997 40.8332 39.6449V36.7705H37.9166V39.6449C37.9166 43.9468 39.5671 47.6383 42.0852 49.6723C41.6456 50.7234 40.5759 51.4303 39.3751 51.3538C35.35 51.3585 32.0883 54.6204 32.0835 58.6454V70.3121H35V58.6455C35 56.2293 36.9588 54.2705 39.375 54.2705C39.4864 54.2738 39.598 54.2738 39.7095 54.2705C41.9018 54.2058 43.7665 52.9046 44.6549 51.0552C45.2989 51.2508 45.9721 51.3539 46.6666 51.3539C47.3611 51.3539 48.0342 51.2509 48.6782 51.0553C49.6183 53.0136 51.6471 54.3388 53.9584 54.2705C56.3746 54.2705 58.3334 56.2293 58.3334 58.6455V70.3121H61.25V58.6455C61.2452 54.6204 57.9834 51.3587 53.9584 51.3538C53.8409 51.3613 53.7232 51.3613 53.6058 51.3538C52.5295 51.2845 51.638 50.6041 51.2478 49.6725C53.7661 47.6386 55.4166 43.947 55.4166 39.6449V36.7705C55.4166 36.651 55.402 36.532 55.3729 36.4162ZM37.9162 60.1034H40.8328V70.3122H37.9162V60.1034ZM55.4166 60.1034H52.5V70.3122H55.4166V60.1034ZM29.1662 38.2284H32.0828V41.145H29.1662V38.2284ZM32.0828 44.0621H29.1662V46.9788H32.0828V44.0621ZM29.1662 49.8959H32.0828V52.8125H29.1662V49.8959Z"/>
</mask>
<path fill-rule="evenodd" clip-rule="evenodd" d="M46.6666 13.4371H42.9888C42.8345 13.004 42.6583 12.5791 42.4609 12.164L45.0625 9.56239C45.6318 8.99295 45.6318 8.06983 45.0625 7.50026L40.9369 3.37463C40.3674 2.80534 39.4443 2.80534 38.8747 3.37463L36.2731 5.97625C35.858 5.7787 35.4331 5.6026 35 5.44838V1.77051C35 0.965103 34.347 0.312134 33.5416 0.312134H27.7082C26.903 0.312134 26.25 0.965103 26.25 1.77051V5.44838C25.817 5.60206 25.392 5.77788 24.9769 5.97489L22.3753 3.37463C21.8058 2.80534 20.8827 2.80534 20.3131 3.37463L16.1875 7.50026C15.6182 8.06969 15.6182 8.99282 16.1875 9.56239L18.7891 12.164C18.5916 12.5791 18.4155 13.004 18.2612 13.4371H14.5834C13.778 13.4371 13.125 14.0901 13.125 14.8955V20.7289C13.125 21.5343 13.778 22.1873 14.5834 22.1873H18.2612C18.4149 22.6203 18.5907 23.0453 18.7878 23.4604L16.1875 26.0619C15.6182 26.6313 15.6182 27.5544 16.1875 28.124L20.3131 32.2496C20.8826 32.8189 21.8057 32.8189 22.3753 32.2496L24.9769 29.648C25.392 29.8456 25.8169 30.0217 26.25 30.1759V33.8538C26.25 34.6592 26.903 35.3121 27.7084 35.3121H33.5418C34.3472 35.3121 35.0001 34.6592 35.0001 33.8538V30.1773C35.4333 30.023 35.8582 29.8468 36.2733 29.6494L38.8749 32.2496C39.4443 32.8189 40.3674 32.8189 40.937 32.2496L45.0626 28.124C45.6319 27.5546 45.6319 26.6315 45.0626 26.0619L42.461 23.4603C42.6586 23.0452 42.8347 22.6203 42.9889 22.1871H46.6668C47.4722 22.1871 48.1251 21.5342 48.1251 20.7288V14.8954C48.125 14.0901 47.472 13.4371 46.6666 13.4371ZM45.2084 19.269H41.9111C41.2463 19.2691 40.6656 19.719 40.4995 20.3628C40.2615 21.2841 39.8958 22.1677 39.413 22.9878C39.0744 23.5609 39.1668 24.2906 39.6376 24.7611L41.971 27.0945L39.9089 29.1566L37.5755 26.8233C37.1049 26.3524 36.3753 26.26 35.8021 26.5986C34.9821 27.0814 34.0985 27.4471 33.1771 27.6851C32.5333 27.8514 32.0835 28.4319 32.0834 29.0968V32.3955H29.1668L29.1683 29.1011C29.1681 28.4363 28.7183 27.8556 28.0745 27.6895C27.1532 27.4515 26.2696 27.0858 25.4495 26.603C24.8764 26.2644 24.1467 26.3568 23.6761 26.8276L21.3428 29.161L19.2806 27.0989L21.614 24.7655C22.0849 24.2949 22.1773 23.5653 21.8386 22.9921C21.3559 22.1721 20.9902 21.2885 20.7521 20.3671C20.5859 19.7233 20.0054 19.2735 19.3405 19.2734H16.0418V16.3568H19.342C20.0069 16.3566 20.5875 15.9068 20.7536 15.263C20.9917 14.3417 21.3574 13.4581 21.8401 12.638C22.1788 12.0649 22.0864 11.3352 21.6155 10.8646L19.2821 8.53125L21.3412 6.46776L23.6746 8.80114C24.1452 9.272 24.8749 9.36442 25.448 9.02577C26.268 8.54301 27.1517 8.17729 28.073 7.93926C28.7168 7.77301 29.1666 7.1925 29.1668 6.52764V3.22875H32.0834V6.5275C32.0826 7.19209 32.5311 7.77315 33.1743 7.94063C34.0956 8.17866 34.9792 8.54438 35.7993 9.02713C36.3724 9.36579 37.1021 9.27336 37.5726 8.80251L39.906 6.46913L41.9695 8.52825L39.6361 10.8616C39.1653 11.3322 39.0729 12.0619 39.4115 12.635C39.8943 13.455 40.26 14.3387 40.498 15.26C40.6643 15.9038 41.2448 16.3536 41.9096 16.3538H45.2084V19.269ZM30.625 11.9787C27.4033 11.9787 24.7916 14.5905 24.7916 17.8121C24.7916 21.0338 27.4033 23.6455 30.625 23.6455C33.8466 23.6455 36.4584 21.0338 36.4584 17.8121C36.4584 14.5905 33.8466 11.9787 30.625 11.9787ZM30.625 20.7287C29.0142 20.7287 27.7084 19.4229 27.7084 17.8121C27.7084 16.2013 29.0142 14.8955 30.625 14.8955C32.2358 14.8955 33.5416 16.2013 33.5416 17.8121C33.5416 19.4229 32.2358 20.7287 30.625 20.7287ZM20.4166 39.6449V36.7705H23.3334V39.6449C23.3334 43.9471 21.6828 47.6387 19.1645 49.6726C19.5547 50.6042 20.4461 51.2845 21.5224 51.3538C21.6399 51.3613 21.7576 51.3613 21.875 51.3538C25.9001 51.3587 29.1618 54.6204 29.1668 58.6455V70.3121H26.2501V58.6455C26.2501 56.2293 24.2914 54.2705 21.8751 54.2705C19.5639 54.3388 17.535 53.0136 16.595 51.0553C15.951 51.2509 15.2778 51.3539 14.5834 51.3539C13.8889 51.3539 13.2157 51.2508 12.5716 51.0552C11.6832 52.9046 9.81849 54.2058 7.62617 54.2705C7.51461 54.2738 7.40304 54.2738 7.29162 54.2705C4.87539 54.2705 2.91662 56.2293 2.91662 58.6455V70.3121H0V58.6455C0.00478515 54.6204 3.26662 51.3587 7.29175 51.3538C8.49259 51.4303 9.56231 50.7234 10.0019 49.6723C7.48378 47.6382 5.83339 43.9468 5.83339 39.6449V36.7705C5.83339 36.651 5.84815 36.5321 5.87714 36.4162C6.86821 32.3957 10.4431 29.5473 14.5834 29.4789V32.3955C11.8416 32.4692 9.47188 34.3301 8.75001 36.9762V39.6449C8.75001 44.4997 11.3663 48.4372 14.5832 48.4372C17.8004 48.4372 20.4166 44.4997 20.4166 39.6449ZM8.75042 60.1034H5.8338V70.3122H8.75042V60.1034ZM20.4162 60.1034H23.3328V70.3122H20.4162V60.1034ZM55.3729 36.4162C54.3818 32.3957 50.8069 29.5471 46.6666 29.4789V32.3955C49.4077 32.4695 51.7772 34.3296 52.5 36.9747V39.6449C52.5 44.4997 49.8838 48.4372 46.6666 48.4372C43.4495 48.4372 40.8332 44.4997 40.8332 39.6449V36.7705H37.9166V39.6449C37.9166 43.9468 39.5671 47.6383 42.0852 49.6723C41.6456 50.7234 40.5759 51.4303 39.3751 51.3538C35.35 51.3585 32.0883 54.6204 32.0835 58.6454V70.3121H35V58.6455C35 56.2293 36.9588 54.2705 39.375 54.2705C39.4864 54.2738 39.598 54.2738 39.7095 54.2705C41.9018 54.2058 43.7665 52.9046 44.6549 51.0552C45.2989 51.2508 45.9721 51.3539 46.6666 51.3539C47.3611 51.3539 48.0342 51.2509 48.6782 51.0553C49.6183 53.0136 51.6471 54.3388 53.9584 54.2705C56.3746 54.2705 58.3334 56.2293 58.3334 58.6455V70.3121H61.25V58.6455C61.2452 54.6204 57.9834 51.3587 53.9584 51.3538C53.8409 51.3613 53.7232 51.3613 53.6058 51.3538C52.5295 51.2845 51.638 50.6041 51.2478 49.6725C53.7661 47.6386 55.4166 43.947 55.4166 39.6449V36.7705C55.4166 36.651 55.402 36.532 55.3729 36.4162ZM37.9162 60.1034H40.8328V70.3122H37.9162V60.1034ZM55.4166 60.1034H52.5V70.3122H55.4166V60.1034ZM29.1662 38.2284H32.0828V41.145H29.1662V38.2284ZM32.0828 44.0621H29.1662V46.9788H32.0828V44.0621ZM29.1662 49.8959H32.0828V52.8125H29.1662V49.8959Z" fill="#0071B3"/>
<path d="M42.9888 13.4371L42.6119 13.5713L42.7066 13.8371H42.9888V13.4371ZM42.4609 12.164L42.178 11.8812L41.9784 12.0808L42.0997 12.3358L42.4609 12.164ZM45.0625 9.56239L45.3453 9.84523L45.3454 9.8452L45.0625 9.56239ZM45.0625 7.50026L45.3454 7.21748L45.3453 7.21742L45.0625 7.50026ZM40.9369 3.37463L41.2197 3.09179L41.2197 3.09176L40.9369 3.37463ZM38.8747 3.37463L38.592 3.09172L38.5919 3.09179L38.8747 3.37463ZM36.2731 5.97625L36.1012 6.33743L36.3563 6.45882L36.556 6.2591L36.2731 5.97625ZM35 5.44838H34.6V5.73056L34.8658 5.82521L35 5.44838ZM26.25 5.44838L26.3838 5.82535L26.65 5.73087V5.44838H26.25ZM24.9769 5.97489L24.6941 6.2578L24.8936 6.45719L25.1484 6.33625L24.9769 5.97489ZM22.3753 3.37463L22.0924 3.65751L22.0925 3.65755L22.3753 3.37463ZM20.3131 3.37463L20.0304 3.09172L20.0303 3.09179L20.3131 3.37463ZM16.1875 7.50026L15.9047 7.21742L15.9046 7.21745L16.1875 7.50026ZM16.1875 9.56239L15.9046 9.84516L15.9047 9.84523L16.1875 9.56239ZM18.7891 12.164L19.1503 12.3359L19.2717 12.0809L19.072 11.8812L18.7891 12.164ZM18.2612 13.4371V13.8371H18.5434L18.6381 13.5713L18.2612 13.4371ZM18.2612 22.1873L18.6382 22.0535L18.5437 21.7873H18.2612V22.1873ZM18.7878 23.4604L19.0707 23.7432L19.2701 23.5437L19.1491 23.2889L18.7878 23.4604ZM16.1875 26.0619L16.4704 26.3447L16.4704 26.3447L16.1875 26.0619ZM16.1875 28.124L15.9046 28.4068L15.9047 28.4069L16.1875 28.124ZM20.3131 32.2496L20.0303 32.5325L20.0303 32.5325L20.3131 32.2496ZM22.3753 32.2496L22.658 32.5325L22.6581 32.5325L22.3753 32.2496ZM24.9769 29.648L25.1488 29.2868L24.8937 29.1655L24.694 29.3652L24.9769 29.648ZM26.25 30.1759H26.65V29.8937L26.3842 29.7991L26.25 30.1759ZM35.0001 30.1773L34.866 29.8004L34.6001 29.8951V30.1773H35.0001ZM36.2733 29.6494L36.556 29.3665L36.3564 29.1669L36.1015 29.2882L36.2733 29.6494ZM38.8749 32.2496L39.1577 31.9668L39.1577 31.9667L38.8749 32.2496ZM40.937 32.2496L41.2198 32.5325L41.2199 32.5325L40.937 32.2496ZM45.0626 28.124L45.3455 28.4069L45.3455 28.4068L45.0626 28.124ZM45.0626 26.0619L45.3455 25.7791L45.3455 25.779L45.0626 26.0619ZM42.461 23.4603L42.0998 23.2884L41.9785 23.5434L42.1782 23.7431L42.461 23.4603ZM42.9889 22.1871V21.7871H42.7067L42.6121 22.053L42.9889 22.1871ZM48.1251 14.8954H48.5251V14.8953L48.1251 14.8954ZM41.9111 19.269V18.869H41.911L41.9111 19.269ZM45.2084 19.269V19.669H45.6084V19.269H45.2084ZM40.4995 20.3628L40.8868 20.4628L40.8868 20.4627L40.4995 20.3628ZM39.413 22.9878L39.7574 23.1912L39.7577 23.1907L39.413 22.9878ZM39.6376 24.7611L39.9205 24.4783L39.9204 24.4782L39.6376 24.7611ZM41.971 27.0945L42.2539 27.3774L42.5367 27.0945L42.2539 26.8117L41.971 27.0945ZM39.9089 29.1566L39.626 29.4395L39.9089 29.7223L40.1917 29.4395L39.9089 29.1566ZM37.5755 26.8233L37.2926 27.106L37.2927 27.1061L37.5755 26.8233ZM35.8021 26.5986L36.0051 26.9433L36.0056 26.943L35.8021 26.5986ZM33.1771 27.6851L33.2771 28.0724L33.2772 28.0724L33.1771 27.6851ZM32.0834 29.0968L31.6834 29.0967V29.0968H32.0834ZM32.0834 32.3955V32.7955H32.4834V32.3955H32.0834ZM29.1668 32.3955L28.7668 32.3953L28.7666 32.7955H29.1668V32.3955ZM29.1683 29.1011L29.5683 29.1013V29.1011L29.1683 29.1011ZM28.0745 27.6895L27.9745 28.0768L27.9746 28.0768L28.0745 27.6895ZM25.4495 26.603L25.246 26.9474L25.2466 26.9477L25.4495 26.603ZM23.6761 26.8276L23.959 27.1105L23.9591 27.1104L23.6761 26.8276ZM21.3428 29.161L21.0599 29.4439L21.3428 29.7267L21.6256 29.4439L21.3428 29.161ZM19.2806 27.0989L18.9978 26.816L18.7149 27.0989L18.9978 27.3817L19.2806 27.0989ZM21.614 24.7655L21.3312 24.4826L21.3312 24.4827L21.614 24.7655ZM21.8386 22.9921L21.4939 23.1951L21.4943 23.1956L21.8386 22.9921ZM20.7521 20.3671L20.3648 20.4671L20.3648 20.4672L20.7521 20.3671ZM19.3405 19.2734L19.3406 18.8734H19.3405V19.2734ZM16.0418 19.2734H15.6418V19.6734H16.0418V19.2734ZM16.0418 16.3568V15.9568H15.6418V16.3568H16.0418ZM19.342 16.3568V16.7568H19.3421L19.342 16.3568ZM20.7536 15.263L20.3663 15.163L20.3663 15.1631L20.7536 15.263ZM21.8401 12.638L21.4958 12.4345L21.4954 12.4351L21.8401 12.638ZM21.6155 10.8646L21.3327 11.1475L21.3327 11.1476L21.6155 10.8646ZM19.2821 8.53125L18.999 8.24871L18.7167 8.53156L18.9993 8.8141L19.2821 8.53125ZM21.3412 6.46776L21.6241 6.18492L21.341 5.90177L21.0581 6.18522L21.3412 6.46776ZM23.6746 8.80114L23.9576 8.51838L23.9575 8.5183L23.6746 8.80114ZM25.448 9.02577L25.2451 8.68106L25.2445 8.68139L25.448 9.02577ZM28.073 7.93926L27.973 7.55197L27.973 7.55198L28.073 7.93926ZM29.1668 6.52764L29.5668 6.52772V6.52764H29.1668ZM29.1668 3.22875V2.82875H28.7668V3.22875H29.1668ZM32.0834 3.22875H32.4834V2.82875H32.0834V3.22875ZM32.0834 6.5275L32.4834 6.528V6.5275H32.0834ZM33.1743 7.94063L33.0735 8.32772L33.0742 8.32791L33.1743 7.94063ZM35.7993 9.02713L36.0027 8.68276L36.0022 8.68243L35.7993 9.02713ZM37.5726 8.80251L37.2898 8.51966L37.2897 8.51974L37.5726 8.80251ZM39.906 6.46913L40.1886 6.18598L39.9057 5.90374L39.6232 6.18628L39.906 6.46913ZM41.9695 8.52825L42.2524 8.81109L42.5355 8.52795L42.2521 8.2451L41.9695 8.52825ZM39.6361 10.8616L39.9189 11.1446L39.919 11.1445L39.6361 10.8616ZM39.4115 12.635L39.7562 12.4321L39.7559 12.4315L39.4115 12.635ZM40.498 15.26L40.8853 15.16L40.8853 15.16L40.498 15.26ZM41.9096 16.3538L41.9095 16.7538H41.9096V16.3538ZM45.2084 16.3538H45.6084V15.9538H45.2084V16.3538ZM20.4166 36.7705V36.3705H20.0166V36.7705H20.4166ZM23.3334 36.7705H23.7334V36.3705H23.3334V36.7705ZM19.1645 49.6726L18.9132 49.3614L18.6795 49.5501L18.7956 49.8271L19.1645 49.6726ZM21.5224 51.3538L21.4967 51.7529L21.4969 51.7529L21.5224 51.3538ZM21.875 51.3538L21.8755 50.9538L21.8625 50.9537L21.8495 50.9546L21.875 51.3538ZM29.1668 58.6455H29.5668V58.645L29.1668 58.6455ZM29.1668 70.3121V70.7121H29.5668V70.3121H29.1668ZM26.2501 70.3121H25.8501V70.7121H26.2501V70.3121ZM21.8751 54.2705V53.8703L21.8633 53.8707L21.8751 54.2705ZM16.595 51.0553L16.9556 50.8822L16.8071 50.5728L16.4788 50.6726L16.595 51.0553ZM12.5716 51.0552L12.6879 50.6725L12.3596 50.5728L12.2111 50.882L12.5716 51.0552ZM7.62617 54.2705L7.63793 54.6703H7.63798L7.62617 54.2705ZM7.29162 54.2705L7.30339 53.8705H7.29162V54.2705ZM2.91662 70.3121V70.7121H3.31662V70.3121H2.91662ZM0 70.3121H-0.4V70.7121H0V70.3121ZM0 58.6455L-0.4 58.645V58.6455H0ZM7.29175 51.3538L7.3172 50.9546L7.30424 50.9537L7.29126 50.9538L7.29175 51.3538ZM10.0019 49.6723L10.3709 49.8266L10.4867 49.5497L10.2532 49.3611L10.0019 49.6723ZM5.87714 36.4162L6.26519 36.5132L6.26551 36.5119L5.87714 36.4162ZM14.5834 29.4789H14.9834V29.0722L14.5768 29.079L14.5834 29.4789ZM14.5834 32.3955L14.5941 32.7954L14.9834 32.7849V32.3955H14.5834ZM8.75001 36.9762L8.36411 36.8709L8.35001 36.9226V36.9762H8.75001ZM5.8338 60.1034V59.7034H5.4338V60.1034H5.8338ZM8.75042 60.1034H9.15042V59.7034H8.75042V60.1034ZM5.8338 70.3122H5.4338V70.7122H5.8338V70.3122ZM8.75042 70.3122V70.7122H9.15042V70.3122H8.75042ZM23.3328 60.1034H23.7328V59.7034H23.3328V60.1034ZM20.4162 60.1034V59.7034H20.0162V60.1034H20.4162ZM23.3328 70.3122V70.7122H23.7328V70.3122H23.3328ZM20.4162 70.3122H20.0162V70.7122H20.4162V70.3122ZM46.6666 29.4789L46.6732 29.079L46.2666 29.0723V29.4789H46.6666ZM55.3729 36.4162L54.9845 36.5119L54.985 36.5137L55.3729 36.4162ZM46.6666 32.3955H46.2666V32.7849L46.6558 32.7954L46.6666 32.3955ZM52.5 36.9747H52.9V36.921L52.8859 36.8692L52.5 36.9747ZM40.8332 36.7705H41.2332V36.3705H40.8332V36.7705ZM37.9166 36.7705V36.3705H37.5166V36.7705H37.9166ZM42.0852 49.6723L42.4542 49.8267L42.57 49.5498L42.3366 49.3612L42.0852 49.6723ZM39.3751 51.3538L39.4006 50.9546L39.3876 50.9537L39.3747 50.9538L39.3751 51.3538ZM32.0835 58.6454L31.6835 58.6449V58.6454H32.0835ZM32.0835 70.3121H31.6835V70.7121H32.0835V70.3121ZM35 70.3121V70.7121H35.4V70.3121H35ZM39.375 54.2705L39.3868 53.8705H39.375V54.2705ZM39.7095 54.2705L39.7213 54.6703H39.7214L39.7095 54.2705ZM44.6549 51.0552L44.7711 50.6725L44.4429 50.5728L44.2943 50.882L44.6549 51.0552ZM48.6782 51.0553L49.0388 50.8822L48.8903 50.5728L48.562 50.6726L48.6782 51.0553ZM53.9584 54.2705V53.8703L53.9466 53.8707L53.9584 54.2705ZM58.3334 70.3121H57.9334V70.7121H58.3334V70.3121ZM61.25 70.3121V70.7121H61.65V70.3121H61.25ZM61.25 58.6455H61.65V58.645L61.25 58.6455ZM53.9584 51.3538L53.9589 50.9538L53.9458 50.9537L53.9328 50.9546L53.9584 51.3538ZM53.6058 51.3538L53.5801 51.7529L53.5802 51.7529L53.6058 51.3538ZM51.2478 49.6725L50.9965 49.3614L50.7629 49.5501L50.8789 49.8271L51.2478 49.6725ZM40.8328 60.1034H41.2328V59.7034H40.8328V60.1034ZM37.9162 60.1034V59.7034H37.5162V60.1034H37.9162ZM40.8328 70.3122V70.7122H41.2328V70.3122H40.8328ZM37.9162 70.3122H37.5162V70.7122H37.9162V70.3122ZM52.5 60.1034V59.7034H52.1V60.1034H52.5ZM55.4166 60.1034H55.8166V59.7034H55.4166V60.1034ZM52.5 70.3122H52.1V70.7122H52.5V70.3122ZM55.4166 70.3122V70.7122H55.8166V70.3122H55.4166ZM32.0828 38.2284H32.4828V37.8284H32.0828V38.2284ZM29.1662 38.2284V37.8284H28.7662V38.2284H29.1662ZM32.0828 41.145V41.545H32.4828V41.145H32.0828ZM29.1662 41.145H28.7662V41.545H29.1662V41.145ZM29.1662 44.0621V43.6621H28.7662V44.0621H29.1662ZM32.0828 44.0621H32.4828V43.6621H32.0828V44.0621ZM29.1662 46.9788H28.7662V47.3788H29.1662V46.9788ZM32.0828 46.9788V47.3788H32.4828V46.9788H32.0828ZM32.0828 49.8959H32.4828V49.4959H32.0828V49.8959ZM29.1662 49.8959V49.4959H28.7662V49.8959H29.1662ZM32.0828 52.8125V53.2125H32.4828V52.8125H32.0828ZM29.1662 52.8125H28.7662V53.2125H29.1662V52.8125ZM42.9888 13.8371H46.6666V13.0371H42.9888V13.8371ZM42.0997 12.3358C42.2913 12.7387 42.4623 13.151 42.6119 13.5713L43.3656 13.303C43.2068 12.857 43.0253 12.4195 42.8221 11.9922L42.0997 12.3358ZM44.7797 9.27954L42.178 11.8812L42.7437 12.4469L45.3453 9.84523L44.7797 9.27954ZM44.7796 7.78303C45.1928 8.19643 45.1927 8.86637 44.7796 9.27958L45.3454 9.8452C46.0709 9.11954 46.0708 7.94323 45.3454 7.21748L44.7796 7.78303ZM40.654 3.65748L44.7797 7.7831L45.3453 7.21742L41.2197 3.09179L40.654 3.65748ZM39.1575 3.65754C39.5709 3.24435 40.2409 3.2444 40.6541 3.65751L41.2197 3.09176C40.494 2.36628 39.3177 2.36633 38.592 3.09172L39.1575 3.65754ZM36.556 6.2591L39.1576 3.65748L38.5919 3.09179L35.9903 5.69341L36.556 6.2591ZM34.8658 5.82521C35.2862 5.97488 35.6985 6.14576 36.1012 6.33743L36.445 5.61508C36.0176 5.41163 35.5801 5.23032 35.1342 5.07156L34.8658 5.82521ZM34.6 1.77051V5.44838H35.4V1.77051H34.6ZM33.5416 0.712134C34.1261 0.712134 34.6 1.18602 34.6 1.77051H35.4C35.4 0.744189 34.5679 -0.0878662 33.5416 -0.0878662V0.712134ZM27.7082 0.712134H33.5416V-0.0878662H27.7082V0.712134ZM26.65 1.77051C26.65 1.18599 27.1239 0.712134 27.7082 0.712134V-0.0878662C26.682 -0.0878662 25.85 0.744213 25.85 1.77051H26.65ZM26.65 5.44838V1.77051H25.85V5.44838H26.65ZM25.1484 6.33625C25.5512 6.14506 25.9637 5.97445 26.3838 5.82535L26.1162 5.07142C25.6704 5.22966 25.2327 5.41069 24.8054 5.61353L25.1484 6.33625ZM22.0925 3.65755L24.6941 6.2578L25.2596 5.69197L22.658 3.09172L22.0925 3.65755ZM20.5959 3.65754C21.0093 3.24435 21.6792 3.2444 22.0924 3.65751L22.6581 3.09176C21.9324 2.36628 20.7561 2.36633 20.0304 3.09172L20.5959 3.65754ZM16.4703 7.7831L20.596 3.65748L20.0303 3.09179L15.9047 7.21742L16.4703 7.7831ZM16.4704 9.27961C16.0572 8.86622 16.0573 8.19628 16.4704 7.78307L15.9046 7.21745C15.1791 7.9431 15.1792 9.11942 15.9046 9.84516L16.4704 9.27961ZM19.072 11.8812L16.4703 9.27954L15.9047 9.84523L18.5063 12.4469L19.072 11.8812ZM18.6381 13.5713C18.7877 13.1509 18.9586 12.7386 19.1503 12.3359L18.4279 11.9921C18.2245 12.4196 18.0432 12.8571 17.8844 13.303L18.6381 13.5713ZM14.5834 13.8371H18.2612V13.0371H14.5834V13.8371ZM13.525 14.8955C13.525 14.311 13.9989 13.8371 14.5834 13.8371V13.0371C13.5571 13.0371 12.725 13.8692 12.725 14.8955H13.525ZM13.525 20.7289V14.8955H12.725V20.7289H13.525ZM14.5834 21.7873C13.9989 21.7873 13.525 21.3134 13.525 20.7289H12.725C12.725 21.7552 13.5571 22.5873 14.5834 22.5873V21.7873ZM18.2612 21.7873H14.5834V22.5873H18.2612V21.7873ZM19.1491 23.2889C18.9579 22.8861 18.7873 22.4736 18.6382 22.0535L17.8843 22.3211C18.0425 22.7669 18.2236 23.2046 18.4264 23.6319L19.1491 23.2889ZM16.4704 26.3447L19.0707 23.7432L18.5048 23.1776L15.9046 25.7791L16.4704 26.3447ZM16.4704 27.8412C16.0572 27.4278 16.0573 26.7579 16.4704 26.3447L15.9046 25.7791C15.1791 26.5047 15.1792 27.681 15.9046 28.4068L16.4704 27.8412ZM20.596 31.9668L16.4703 27.8412L15.9047 28.4069L20.0303 32.5325L20.596 31.9668ZM22.0925 31.9667C21.6791 32.3799 21.0091 32.3799 20.5959 31.9668L20.0303 32.5325C20.756 33.258 21.9323 33.2579 22.658 32.5325L22.0925 31.9667ZM24.694 29.3652L22.0924 31.9668L22.6581 32.5325L25.2597 29.9309L24.694 29.3652ZM26.3842 29.7991C25.9638 29.6494 25.5515 29.4785 25.1488 29.2868L24.805 30.0092C25.2324 30.2126 25.6699 30.3939 26.1158 30.5527L26.3842 29.7991ZM26.65 33.8538V30.1759H25.85V33.8538H26.65ZM27.7084 34.9121C27.1239 34.9121 26.65 34.4383 26.65 33.8538H25.85C25.85 34.8801 26.6821 35.7121 27.7084 35.7121V34.9121ZM33.5418 34.9121H27.7084V35.7121H33.5418V34.9121ZM34.6001 33.8538C34.6001 34.4383 34.1263 34.9121 33.5418 34.9121V35.7121C34.5681 35.7121 35.4001 34.8801 35.4001 33.8538H34.6001ZM34.6001 30.1773V33.8538H35.4001V30.1773H34.6001ZM36.1015 29.2882C35.6986 29.4798 35.2863 29.6508 34.866 29.8004L35.1343 30.5541C35.5803 30.3953 36.0177 30.2138 36.4451 30.0106L36.1015 29.2882ZM39.1577 31.9667L36.556 29.3665L35.9905 29.9323L38.5921 32.5326L39.1577 31.9667ZM40.6542 31.9667C40.2408 32.3799 39.5709 32.3799 39.1577 31.9668L38.5921 32.5325C39.3177 33.258 40.494 33.2579 41.2198 32.5325L40.6542 31.9667ZM44.7798 27.8412L40.6542 31.9668L41.2199 32.5325L45.3455 28.4069L44.7798 27.8412ZM44.7797 26.3447C45.1929 26.7581 45.1929 27.428 44.7798 27.8412L45.3455 28.4068C46.071 27.6812 46.0709 26.5049 45.3455 25.7791L44.7797 26.3447ZM42.1782 23.7431L44.7798 26.3447L45.3455 25.779L42.7439 23.1774L42.1782 23.7431ZM42.6121 22.053C42.4624 22.4733 42.2915 22.8856 42.0998 23.2884L42.8222 23.6322C43.0256 23.2047 43.207 22.7672 43.3657 22.3213L42.6121 22.053ZM46.6668 21.7871H42.9889V22.5871H46.6668V21.7871ZM47.7251 20.7288C47.7251 21.3133 47.2513 21.7871 46.6668 21.7871V22.5871C47.6931 22.5871 48.5251 21.7551 48.5251 20.7288H47.7251ZM47.7251 14.8954V20.7288H48.5251V14.8954H47.7251ZM46.6666 13.8371C47.2511 13.8371 47.725 14.311 47.7251 14.8954L48.5251 14.8953C48.525 13.8692 47.6929 13.0371 46.6666 13.0371V13.8371ZM41.9111 19.669H45.2084V18.869H41.9111V19.669ZM40.8868 20.4627C41.0074 19.9955 41.4287 19.6691 41.9112 19.669L41.911 18.869C41.0638 18.8692 40.3239 19.4424 40.1122 20.2628L40.8868 20.4627ZM39.7577 23.1907C40.2594 22.3385 40.6394 21.4203 40.8868 20.4628L40.1122 20.2627C39.8835 21.1479 39.5321 21.9969 39.0683 22.7848L39.7577 23.1907ZM39.9204 24.4782C39.5787 24.1367 39.5116 23.6072 39.7574 23.1912L39.0686 22.7843C38.6371 23.5146 38.7549 24.4444 39.3549 25.0441L39.9204 24.4782ZM42.2539 26.8117L39.9205 24.4783L39.3548 25.044L41.6882 27.3774L42.2539 26.8117ZM40.1917 29.4395L42.2539 27.3774L41.6882 26.8117L39.626 28.8738L40.1917 29.4395ZM37.2927 27.1061L39.626 29.4395L40.1917 28.8738L37.8584 26.5404L37.2927 27.1061ZM36.0056 26.943C36.4215 26.6972 36.9511 26.7643 37.2926 27.106L37.8584 26.5405C37.2588 25.9405 36.329 25.8227 35.5986 26.2543L36.0056 26.943ZM33.2772 28.0724C34.2346 27.8251 35.1529 27.445 36.0051 26.9433L35.5992 26.2539C34.8113 26.7178 33.9623 27.0692 33.0771 27.2979L33.2772 28.0724ZM32.4834 29.0968C32.4835 28.6144 32.8099 28.1931 33.2771 28.0724L33.0771 27.2978C32.2568 27.5097 31.6836 28.2494 31.6834 29.0967L32.4834 29.0968ZM32.4834 32.3955V29.0968H31.6834V32.3955H32.4834ZM29.1668 32.7955H32.0834V31.9955H29.1668V32.7955ZM28.7683 29.101L28.7668 32.3953L29.5668 32.3957L29.5683 29.1013L28.7683 29.101ZM27.9746 28.0768C28.4417 28.1974 28.7682 28.6187 28.7683 29.1012L29.5683 29.1011C29.5681 28.2538 28.9949 27.5139 28.1744 27.3022L27.9746 28.0768ZM25.2466 26.9477C26.0988 27.4494 27.017 27.8294 27.9745 28.0768L28.1746 27.3022C27.2893 27.0735 26.4403 26.7221 25.6524 26.2583L25.2466 26.9477ZM23.9591 27.1104C24.3006 26.7687 24.8301 26.7016 25.246 26.9474L25.653 26.2586C24.9227 25.8271 23.9929 25.9449 23.3932 26.5449L23.9591 27.1104ZM21.6256 29.4439L23.959 27.1105L23.3933 26.5448L21.0599 28.8782L21.6256 29.4439ZM18.9978 27.3817L21.0599 29.4439L21.6256 28.8782L19.5635 26.816L18.9978 27.3817ZM21.3312 24.4827L18.9978 26.816L19.5635 27.3817L21.8968 25.0484L21.3312 24.4827ZM21.4943 23.1956C21.74 23.6115 21.673 24.1411 21.3312 24.4826L21.8968 25.0484C22.4968 24.4488 22.6145 23.519 22.183 22.7886L21.4943 23.1956ZM20.3648 20.4672C20.6122 21.4246 20.9923 22.3429 21.4939 23.1951L22.1833 22.7892C21.7195 22.0013 21.3681 21.1523 21.1394 20.2671L20.3648 20.4672ZM19.3404 19.6734C19.8229 19.6735 20.2442 19.9999 20.3648 20.4671L21.1394 20.2671C20.9276 19.4468 20.1879 18.8736 19.3406 18.8734L19.3404 19.6734ZM16.0418 19.6734H19.3405V18.8734H16.0418V19.6734ZM15.6418 16.3568V19.2734H16.4418V16.3568H15.6418ZM19.342 15.9568H16.0418V16.7568H19.342V15.9568ZM20.3663 15.1631C20.2458 15.6302 19.8245 15.9567 19.3419 15.9568L19.3421 16.7568C20.1893 16.7566 20.9293 16.1834 21.1409 15.3629L20.3663 15.1631ZM21.4954 12.4351C20.9938 13.2873 20.6137 14.2055 20.3663 15.163L21.1409 15.3631C21.3696 14.4778 21.721 13.6288 22.1848 12.8409L21.4954 12.4351ZM21.3327 11.1476C21.6745 11.4891 21.7415 12.0186 21.4958 12.4345L22.1845 12.8415C22.616 12.1112 22.4983 11.1814 21.8983 10.5817L21.3327 11.1476ZM18.9993 8.8141L21.3327 11.1475L21.8984 10.5818L19.565 8.24841L18.9993 8.8141ZM21.0581 6.18522L18.999 8.24871L19.5653 8.8138L21.6244 6.7503L21.0581 6.18522ZM23.9575 8.5183L21.6241 6.18492L21.0584 6.7506L23.3918 9.08398L23.9575 8.5183ZM25.2445 8.68139C24.8286 8.92716 24.2991 8.86009 23.9576 8.51838L23.3917 9.0839C23.9914 9.68391 24.9212 9.80168 25.6515 9.37014L25.2445 8.68139ZM27.973 7.55198C27.0155 7.79933 26.0973 8.17939 25.2451 8.68106L25.6509 9.37047C26.4388 8.90664 27.2878 8.55525 28.1731 8.32655L27.973 7.55198ZM28.7668 6.52756C28.7667 7.01002 28.4403 7.4313 27.973 7.55197L28.173 8.32656C28.9934 8.11472 29.5666 7.37499 29.5668 6.52772L28.7668 6.52756ZM28.7668 3.22875V6.52764H29.5668V3.22875H28.7668ZM32.0834 2.82875H29.1668V3.62876H32.0834V2.82875ZM32.4834 6.5275V3.22875H31.6834V6.5275H32.4834ZM33.2751 7.55354C32.8083 7.43199 32.4828 7.0103 32.4834 6.528L31.6834 6.52701C31.6823 7.37388 32.2539 8.11431 33.0735 8.32772L33.2751 7.55354ZM36.0022 8.68243C35.15 8.18075 34.2318 7.8007 33.2743 7.55335L33.0742 8.32791C33.9594 8.55661 34.8084 8.90801 35.5963 9.37184L36.0022 8.68243ZM37.2897 8.51974C36.9482 8.86145 36.4187 8.92853 36.0027 8.68276L35.5958 9.37151C36.3261 9.80304 37.2559 9.68527 37.8556 9.08527L37.2897 8.51974ZM39.6232 6.18628L37.2898 8.51966L37.8555 9.08535L40.1889 6.75197L39.6232 6.18628ZM42.2521 8.2451L40.1886 6.18598L39.6235 6.75227L41.687 8.81139L42.2521 8.2451ZM39.919 11.1445L42.2524 8.81109L41.6867 8.2454L39.3533 10.5788L39.919 11.1445ZM39.7559 12.4315C39.5101 12.0156 39.5772 11.4861 39.9189 11.1446L39.3534 10.5787C38.7534 11.1784 38.6356 12.1082 39.0671 12.8385L39.7559 12.4315ZM40.8853 15.16C40.6379 14.2025 40.2579 13.2843 39.7562 12.4321L39.0668 12.8379C39.5306 13.6258 39.882 14.4748 40.1107 15.3601L40.8853 15.16ZM41.9097 15.9538C41.4272 15.9537 41.006 15.6273 40.8853 15.16L40.1107 15.36C40.3225 16.1804 41.0623 16.7536 41.9095 16.7538L41.9097 15.9538ZM45.2084 15.9538H41.9096V16.7538H45.2084V15.9538ZM45.6084 19.269V16.3538H44.8084V19.269H45.6084ZM25.1916 17.8121C25.1916 14.8114 27.6243 12.3787 30.625 12.3787V11.5787C27.1824 11.5787 24.3916 14.3696 24.3916 17.8121H25.1916ZM30.625 23.2455C27.6243 23.2455 25.1916 20.8128 25.1916 17.8121H24.3916C24.3916 21.2547 27.1824 24.0455 30.625 24.0455V23.2455ZM36.0584 17.8121C36.0584 20.8128 33.6257 23.2455 30.625 23.2455V24.0455C34.0676 24.0455 36.8584 21.2547 36.8584 17.8121H36.0584ZM30.625 12.3787C33.6257 12.3787 36.0584 14.8114 36.0584 17.8121H36.8584C36.8584 14.3696 34.0676 11.5787 30.625 11.5787V12.3787ZM27.3084 17.8121C27.3084 19.6439 28.7933 21.1287 30.625 21.1287V20.3287C29.2351 20.3287 28.1084 19.202 28.1084 17.8121H27.3084ZM30.625 14.4955C28.7933 14.4955 27.3084 15.9804 27.3084 17.8121H28.1084C28.1084 16.4222 29.2351 15.2955 30.625 15.2955V14.4955ZM33.9416 17.8121C33.9416 15.9804 32.4567 14.4955 30.625 14.4955V15.2955C32.0149 15.2955 33.1416 16.4222 33.1416 17.8121H33.9416ZM30.625 21.1287C32.4567 21.1287 33.9416 19.6439 33.9416 17.8121H33.1416C33.1416 19.202 32.0149 20.3287 30.625 20.3287V21.1287ZM20.0166 36.7705V39.6449H20.8166V36.7705H20.0166ZM23.3334 36.3705H20.4166V37.1705H23.3334V36.3705ZM23.7334 39.6449V36.7705H22.9334V39.6449H23.7334ZM19.4158 49.9838C22.0477 47.8582 23.7334 44.0404 23.7334 39.6449H22.9334C22.9334 43.8538 21.3179 47.4192 18.9132 49.3614L19.4158 49.9838ZM21.5481 50.9546C20.6292 50.8955 19.8672 50.3149 19.5334 49.5181L18.7956 49.8271C19.2421 50.8934 20.2631 51.6736 21.4967 51.7529L21.5481 50.9546ZM21.8495 50.9546C21.749 50.961 21.6484 50.961 21.548 50.9546L21.4969 51.7529C21.6313 51.7615 21.7661 51.7615 21.9006 51.7529L21.8495 50.9546ZM29.5668 58.645C29.5616 54.3994 26.1212 50.9589 21.8755 50.9538L21.8745 51.7538C25.6791 51.7584 28.7621 54.8414 28.7668 58.646L29.5668 58.645ZM29.5668 70.3121V58.6455H28.7668V70.3121H29.5668ZM26.2501 70.7121H29.1668V69.9121H26.2501V70.7121ZM25.8501 58.6455V70.3121H26.6501V58.6455H25.8501ZM21.8751 54.6705C24.0705 54.6705 25.8501 56.4502 25.8501 58.6455H26.6501C26.6501 56.0084 24.5123 53.8705 21.8751 53.8705V54.6705ZM16.2344 51.2284C17.2403 53.324 19.412 54.7434 21.887 54.6703L21.8633 53.8707C19.7158 53.9341 17.8297 52.7031 16.9556 50.8822L16.2344 51.2284ZM14.5834 51.7539C15.3178 51.7539 16.0301 51.6449 16.7112 51.438L16.4788 50.6726C15.8719 50.8568 15.2378 50.9539 14.5834 50.9539V51.7539ZM12.4554 51.438C13.1365 51.6448 13.8489 51.7539 14.5834 51.7539V50.9539C13.9289 50.9539 13.2948 50.8568 12.6879 50.6725L12.4554 51.438ZM7.63798 54.6703C9.98555 54.601 11.9816 53.2073 12.9322 51.2284L12.2111 50.882C11.3849 52.6019 9.65143 53.8105 7.61436 53.8707L7.63798 54.6703ZM7.27985 54.6703C7.39912 54.6739 7.51853 54.6739 7.63793 54.6703L7.61441 53.8707C7.51068 53.8737 7.40696 53.8737 7.30339 53.8707L7.27985 54.6703ZM3.31662 58.6455C3.31662 56.4502 5.0963 54.6705 7.29162 54.6705V53.8705C4.65447 53.8705 2.51662 56.0084 2.51662 58.6455H3.31662ZM3.31662 70.3121V58.6455H2.51662V70.3121H3.31662ZM0 70.7121H2.91662V69.9121H0V70.7121ZM-0.4 58.6455V70.3121H0.4V58.6455H-0.4ZM7.29126 50.9538C3.04561 50.9589 -0.394952 54.3993 -0.4 58.645L0.4 58.646C0.404523 54.8414 3.48763 51.7584 7.29224 51.7538L7.29126 50.9538ZM9.63282 49.5179C9.25706 50.4165 8.34257 51.0199 7.3172 50.9546L7.26631 51.7529C8.64261 51.8407 9.86756 51.0302 10.3709 49.8266L9.63282 49.5179ZM5.43339 39.6449C5.43339 44.0401 7.11891 47.8577 9.75051 49.9834L10.2532 49.3611C7.84865 47.4187 6.23339 43.8534 6.23339 39.6449H5.43339ZM5.43339 36.7705V39.6449H6.23339V36.7705H5.43339ZM5.48908 36.3191C5.45223 36.4665 5.43339 36.6181 5.43339 36.7705H6.23339C6.23339 36.684 6.24407 36.5976 6.26519 36.5132L5.48908 36.3191ZM14.5768 29.079C10.255 29.1503 6.5233 32.1236 5.48876 36.3204L6.26551 36.5119C7.21312 32.6677 10.6313 29.9442 14.59 29.8789L14.5768 29.079ZM14.9834 32.3955V29.4789H14.1834V32.3955H14.9834ZM9.1359 37.0814C9.81136 34.6055 12.0287 32.8643 14.5941 32.7954L14.5726 31.9957C11.6546 32.0741 9.13241 34.0547 8.36411 36.8709L9.1359 37.0814ZM9.15001 39.6449V36.9762H8.35001V39.6449H9.15001ZM14.5832 48.0372C13.1512 48.0372 11.8026 47.1605 10.7935 45.6404C9.78655 44.1233 9.15001 42.0046 9.15001 39.6449H8.35001C8.35001 42.14 9.02159 44.4174 10.127 46.0828C11.2303 47.745 12.7984 48.8372 14.5832 48.8372V48.0372ZM20.0166 39.6449C20.0166 42.0046 19.3801 44.1233 18.3731 45.6404C17.364 47.1605 16.0154 48.0372 14.5832 48.0372V48.8372C16.3682 48.8372 17.9363 47.745 19.0396 46.0828C20.145 44.4174 20.8166 42.14 20.8166 39.6449H20.0166ZM5.8338 60.5034H8.75042V59.7034H5.8338V60.5034ZM6.2338 70.3122V60.1034H5.4338V70.3122H6.2338ZM8.75042 69.9122H5.8338V70.7122H8.75042V69.9122ZM8.35042 60.1034V70.3122H9.15042V60.1034H8.35042ZM23.3328 59.7034H20.4162V60.5034H23.3328V59.7034ZM23.7328 70.3122V60.1034H22.9328V70.3122H23.7328ZM20.4162 70.7122H23.3328V69.9122H20.4162V70.7122ZM20.0162 60.1034V70.3122H20.8162V60.1034H20.0162ZM46.66 29.8789C50.6187 29.9441 54.0369 32.6677 54.9845 36.5119L55.7612 36.3204C54.7267 32.1236 50.995 29.1502 46.6732 29.079L46.66 29.8789ZM47.0666 32.3955V29.4789H46.2666V32.3955H47.0666ZM52.8859 36.8692C52.1165 34.0541 49.5947 32.0744 46.6774 31.9957L46.6558 32.7954C49.2207 32.8646 51.4378 34.6051 52.1141 37.0801L52.8859 36.8692ZM52.9 39.6449V36.9747H52.1V39.6449H52.9ZM46.6666 48.8372C48.4516 48.8372 50.0196 47.745 51.123 46.0828C52.2284 44.4174 52.9 42.14 52.9 39.6449H52.1C52.1 42.0046 51.4635 44.1233 50.4565 45.6404C49.4474 47.1605 48.0988 48.0372 46.6666 48.0372V48.8372ZM40.4332 39.6449C40.4332 42.14 41.1048 44.4174 42.2102 46.0828C43.3136 47.745 44.8817 48.8372 46.6666 48.8372V48.0372C45.2345 48.0372 43.8858 47.1605 42.8768 45.6404C41.8698 44.1233 41.2332 42.0046 41.2332 39.6449H40.4332ZM40.4332 36.7705V39.6449H41.2332V36.7705H40.4332ZM37.9166 37.1705H40.8332V36.3705H37.9166V37.1705ZM38.3166 39.6449V36.7705H37.5166V39.6449H38.3166ZM42.3366 49.3612C39.9319 47.4188 38.3166 43.8535 38.3166 39.6449H37.5166C37.5166 44.0401 39.2022 47.8578 41.8339 49.9835L42.3366 49.3612ZM39.3497 51.7529C40.726 51.8407 41.9509 51.0302 42.4542 49.8267L41.7162 49.518C41.3404 50.4165 40.4259 51.0199 39.4006 50.9546L39.3497 51.7529ZM32.4835 58.6459C32.488 54.8414 35.571 51.7583 39.3756 51.7538L39.3747 50.9538C35.129 50.9588 31.6886 54.3994 31.6835 58.6449L32.4835 58.6459ZM32.4835 70.3121V58.6454H31.6835V70.3121H32.4835ZM35 69.9121H32.0835V70.7121H35V69.9121ZM34.6 58.6455V70.3121H35.4V58.6455H34.6ZM39.375 53.8705C36.7379 53.8705 34.6 56.0084 34.6 58.6455H35.4C35.4 56.4502 37.1797 54.6705 39.375 54.6705V53.8705ZM39.6978 53.8707C39.5941 53.8737 39.4903 53.8737 39.3868 53.8707L39.3632 54.6703C39.4825 54.6739 39.6019 54.6739 39.7213 54.6703L39.6978 53.8707ZM44.2943 50.882C43.4681 52.6019 41.7347 53.8105 39.6977 53.8707L39.7214 54.6703C42.0688 54.601 44.0648 53.2073 45.0155 51.2285L44.2943 50.882ZM46.6666 50.9539C46.0121 50.9539 45.3781 50.8568 44.7711 50.6725L44.5387 51.438C45.2198 51.6449 45.9322 51.7539 46.6666 51.7539V50.9539ZM48.562 50.6726C47.9551 50.8568 47.3211 50.9539 46.6666 50.9539V51.7539C47.401 51.7539 48.1133 51.6449 48.7944 51.438L48.562 50.6726ZM53.9466 53.8707C51.799 53.9341 49.9129 52.7031 49.0388 50.8822L48.3176 51.2284C49.3236 53.324 51.4952 54.7434 53.9702 54.6703L53.9466 53.8707ZM58.7334 58.6455C58.7334 56.0084 56.5955 53.8705 53.9584 53.8705V54.6705C56.1537 54.6705 57.9334 56.4502 57.9334 58.6455H58.7334ZM58.7334 70.3121V58.6455H57.9334V70.3121H58.7334ZM61.25 69.9121H58.3334V70.7121H61.25V69.9121ZM60.85 58.6455V70.3121H61.65V58.6455H60.85ZM53.9579 51.7538C57.7624 51.7584 60.8455 54.8414 60.85 58.646L61.65 58.645C61.6449 54.3994 58.2044 50.9589 53.9589 50.9538L53.9579 51.7538ZM53.5802 51.7529C53.7147 51.7615 53.8495 51.7615 53.9839 51.7529L53.9328 50.9546C53.8324 50.961 53.7318 50.961 53.6313 50.9546L53.5802 51.7529ZM50.8789 49.8271C51.3255 50.8934 52.3464 51.6736 53.5801 51.7529L53.6315 50.9546C52.7125 50.8955 51.9505 50.3149 51.6168 49.518L50.8789 49.8271ZM55.0166 39.6449C55.0166 43.8537 53.4012 47.4191 50.9965 49.3614L51.4992 49.9837C54.131 47.8581 55.8166 44.0404 55.8166 39.6449H55.0166ZM55.0166 36.7705V39.6449H55.8166V36.7705H55.0166ZM54.985 36.5137C55.006 36.5974 55.0166 36.6837 55.0166 36.7705H55.8166C55.8166 36.6184 55.798 36.4666 55.7608 36.3186L54.985 36.5137ZM40.8328 59.7034H37.9162V60.5034H40.8328V59.7034ZM41.2328 70.3122V60.1034H40.4328V70.3122H41.2328ZM37.9162 70.7122H40.8328V69.9122H37.9162V70.7122ZM37.5162 60.1034V70.3122H38.3162V60.1034H37.5162ZM52.5 60.5034H55.4166V59.7034H52.5V60.5034ZM52.9 70.3122V60.1034H52.1V70.3122H52.9ZM55.4166 69.9122H52.5V70.7122H55.4166V69.9122ZM55.0166 60.1034V70.3122H55.8166V60.1034H55.0166ZM32.0828 37.8284H29.1662V38.6284H32.0828V37.8284ZM32.4828 41.145V38.2284H31.6828V41.145H32.4828ZM29.1662 41.545H32.0828V40.745H29.1662V41.545ZM28.7662 38.2284V41.145H29.5662V38.2284H28.7662ZM29.1662 44.4621H32.0828V43.6621H29.1662V44.4621ZM29.5662 46.9788V44.0621H28.7662V46.9788H29.5662ZM32.0828 46.5788H29.1662V47.3788H32.0828V46.5788ZM31.6828 44.0621V46.9788H32.4828V44.0621H31.6828ZM32.0828 49.4959H29.1662V50.2959H32.0828V49.4959ZM32.4828 52.8125V49.8959H31.6828V52.8125H32.4828ZM29.1662 53.2125H32.0828V52.4125H29.1662V53.2125ZM28.7662 49.8959V52.8125H29.5662V49.8959H28.7662Z" fill="white" mask="url(#path-1-inside-1)"/>
</svg>
