<svg width="70" height="70" viewBox="0 0 70 70" fill="none" xmlns="http://www.w3.org/2000/svg">
<path d="M69.101 47.0528L58.5812 36.5314C61.1228 33.1823 62.7095 29.1678 63.1164 24.9589C63.6147 19.7935 62.3281 14.5747 59.4934 10.2633C59.182 9.7901 58.546 9.65872 58.0733 9.97008C57.6001 10.2814 57.4688 10.9175 57.7801 11.3907C63.1447 19.5489 62.0195 30.4901 55.1045 37.4056C47.028 45.4827 33.8875 45.4827 25.8115 37.4056C17.735 29.3286 17.735 16.186 25.8115 8.10889C33.8875 0.0318183 47.0285 0.0318183 55.1018 8.10622L55.1579 8.16283C55.5574 8.56444 56.2062 8.56711 56.6079 8.16764C57.01 7.7687 57.0121 7.11928 56.6132 6.71767L56.5545 6.65839C47.6784 -2.21816 33.237 -2.21816 24.361 6.65839C24.0822 6.93717 23.8125 7.22129 23.5514 7.51075H1.02539C0.459289 7.51075 0 7.97004 0 8.53613V13.0713C0 13.638 0.459289 14.0973 1.02539 14.0973C1.59202 14.0973 2.05078 13.638 2.05078 13.0713V9.56206H21.9065C21.123 10.6627 20.449 11.8174 19.8845 13.0121H7.10936C6.54326 13.0121 6.08397 13.4708 6.08397 14.0375C6.08397 14.6041 6.54326 15.0628 7.10936 15.0628H19.0359C18.7416 15.8864 18.4965 16.7232 18.3 17.5697H7.10936C6.54326 17.5697 6.08397 18.0285 6.08397 18.5951C6.08397 19.1612 6.54326 19.6205 7.10936 19.6205H17.9208C17.806 20.452 17.7371 21.2889 17.7141 22.1268H7.10936C6.54326 22.1268 6.08397 22.5861 6.08397 23.1527C6.08397 23.7188 6.54326 24.1781 7.10936 24.1781H17.7499C17.9347 27.1571 18.6989 30.1061 20.0453 32.8389H18.3208C17.7542 32.8389 17.2954 33.2982 17.2954 33.8648V64.2206C17.2954 64.7872 17.7542 65.2465 18.3208 65.2465H26.5239C27.0906 65.2465 27.5493 64.7872 27.5493 64.2206V41.512C28.4727 42.1481 29.4324 42.7088 30.4204 43.1932V64.2206C30.4204 64.7872 30.8797 65.2465 31.4458 65.2465H39.6489C40.2155 65.2465 40.6743 64.7872 40.6743 64.2206V45.5115C41.4738 45.5035 42.2722 45.4549 43.0674 45.3641V61.2037C43.0674 61.7704 43.5261 62.2296 44.0928 62.2296C44.6589 62.2296 45.1182 61.7704 45.1182 61.2037V45.0341C48.3594 44.3612 51.4809 42.978 54.2313 40.8839L64.749 51.4033C65.3306 51.9843 66.1034 52.3047 66.9248 52.3047C67.7467 52.3047 68.5195 51.9843 69.1005 51.4033C70.2995 50.2048 70.3 48.2534 69.101 47.0528ZM25.4985 63.1952H19.3462V34.8902H21.1935C22.0806 36.2985 23.1359 37.6305 24.361 38.8561C24.7306 39.2257 25.1108 39.5787 25.4985 39.9173V63.1952ZM32.4717 63.1952V44.0755C34.4605 44.8173 36.5327 45.2712 38.624 45.4389V63.1952H32.4717ZM67.6511 49.9528C67.4572 50.1466 67.1993 50.2534 66.9253 50.2534C66.6513 50.2534 66.3934 50.1466 66.2001 49.9528L55.8121 39.5643C56.0637 39.3341 56.3115 39.0991 56.5545 38.8561C56.7969 38.6137 57.033 38.3664 57.2631 38.1138L67.65 48.5028C68.05 48.9028 68.0506 49.5538 67.6511 49.9528Z" fill="#0071B3"/>
<path d="M44.0929 64.5991C43.5268 64.5991 43.0675 65.0578 43.0675 65.6245V67.9492H2.05078V17.515C2.05078 16.9483 1.59203 16.4896 1.02539 16.4896C0.45929 16.4896 0 16.9483 0 17.515V68.9746C0 69.5412 0.45929 70 1.02539 70H44.0929C44.6595 70 45.1183 69.5412 45.1183 68.9746V65.6245C45.1183 65.0578 44.6595 64.5991 44.0929 64.5991Z" fill="#0071B3"/>
<path d="M4.44336 42.0677V64.2199C4.44336 64.786 4.90265 65.2453 5.46875 65.2453H13.6724C14.2385 65.2453 14.6978 64.786 14.6978 64.2199V42.0677C14.6978 41.5016 14.2385 41.0424 13.6724 41.0424H5.46875C4.90265 41.0424 4.44336 41.5016 4.44336 42.0677ZM6.49414 43.0937H12.647V63.194H6.49414V43.0937Z" fill="#0071B3"/>
<path d="M14.7768 28.736C15.3435 28.736 15.8022 28.2767 15.8022 27.7101C15.8022 27.144 15.3435 26.6847 14.7768 26.6847H7.10938C6.54327 26.6847 6.08398 27.144 6.08398 27.7101C6.08398 28.2767 6.54327 28.736 7.10938 28.736H14.7768Z" fill="#0071B3"/>
<path d="M40.4581 4.09998C35.4679 4.09998 30.781 6.0386 27.2615 9.55858C23.7421 13.0786 21.8035 17.766 21.8035 22.7567C21.8035 27.7475 23.7421 32.4349 27.2615 35.9549C30.7815 39.4749 35.4679 41.4135 40.4581 41.4135C45.4483 41.4135 50.1347 39.4749 53.6547 35.9549C57.1741 32.4349 59.1122 27.7475 59.1122 22.7567C59.1122 17.766 57.1741 13.0786 53.6547 9.55858C50.1347 6.0386 45.4483 4.09998 40.4581 4.09998ZM52.2042 34.5044C49.0719 37.6372 44.9004 39.3622 40.4581 39.3622C36.0153 39.3622 31.8443 37.6372 28.712 34.5044C25.5793 31.3716 23.8542 27.1996 23.8542 22.7567C23.8542 18.3134 25.5793 14.1413 28.712 11.0085C31.95 7.77002 36.2043 6.15022 40.4581 6.15022C44.7119 6.15022 48.9662 7.77002 52.2042 11.0085C55.3364 14.1413 57.0614 18.3134 57.0614 22.7567C57.0614 27.1996 55.3364 31.3716 52.2042 34.5044Z" fill="#0071B3"/>
</svg>
