<svg width="70" height="71" viewBox="0 0 70 71" fill="none" xmlns="http://www.w3.org/2000/svg">
<g clip-path="url(#clip0)">
<path d="M64.6077 24.5034C66.1568 23.038 67.1311 20.969 67.1311 18.6727C67.1311 14.2432 63.5278 10.64 59.0983 10.64C54.6688 10.64 51.0655 14.2432 51.0655 18.6727C51.0655 21.4911 52.5275 23.9709 54.7296 25.4042C53.2126 26.4382 52.2131 28.1778 52.2131 30.1482V38.1809H47.6229V32.4432C47.6229 28.3373 44.5246 24.9452 40.5426 24.4724C42.0734 23.0093 43.0327 20.9529 43.0327 18.6727C43.0327 14.2432 39.4295 10.64 35 10.64C30.5705 10.64 26.9672 14.2432 26.9672 18.6727C26.9672 20.9529 27.9265 23.0093 29.4573 24.4724C25.4754 24.9452 22.377 28.3373 22.377 32.4432V38.1809H17.7868V30.1482C17.7868 28.1778 16.7873 26.4382 15.2703 25.4042C17.4724 23.9709 18.9344 21.4911 18.9344 18.6727C18.9344 14.2432 15.3311 10.64 10.9016 10.64C6.47209 10.64 2.86881 14.2432 2.86881 18.6727C2.86881 20.969 3.84307 23.038 5.39226 24.5034C2.66685 24.9463 0.57373 27.2988 0.57373 30.1482V47.3613C0.57373 50.1314 2.54865 52.4495 5.16389 52.9831V70.3121H7.45898V53.099H17.7868V69.1645C17.7868 69.798 18.3009 70.3121 18.9344 70.3121H25.8196C26.4531 70.3121 26.9672 69.798 26.9672 69.1645V50.8039H33.8524V68.017H29.2623V70.3121H40.7377V68.017H36.1475V50.8039H43.0327V69.1645C43.0327 69.798 43.5468 70.3121 44.1803 70.3121H51.0655C51.699 70.3121 52.2131 69.798 52.2131 69.1645V53.099H62.5409V70.3121H64.836V52.9831C67.4513 52.4495 69.4262 50.1326 69.4262 47.3613V30.1482C69.4262 27.2988 67.3331 24.9463 64.6077 24.5034ZM53.3606 18.6727C53.3606 15.509 55.9346 12.935 59.0983 12.935C62.2621 12.935 64.836 15.509 64.836 18.6727C64.836 21.8365 62.2621 24.4104 59.0983 24.4104C55.9346 24.4104 53.3606 21.8365 53.3606 18.6727ZM29.2623 18.6727C29.2623 15.509 31.8362 12.935 35 12.935C38.1637 12.935 40.7377 15.509 40.7377 18.6727C40.7377 21.8365 38.1637 24.4104 35 24.4104C31.8362 24.4104 29.2623 21.8365 29.2623 18.6727ZM36.7867 26.7055L35 31.4701L33.2132 26.7055H36.7867ZM24.6721 32.4432C24.6721 29.2795 27.246 26.7055 30.4098 26.7055H30.7621L33.9259 35.1411C34.0934 35.5886 34.5214 35.8859 35 35.8859C35.4785 35.8859 35.9065 35.5886 36.0752 35.1411L39.2378 26.7055H39.5901C42.7539 26.7055 45.3278 29.2795 45.3278 32.4432V38.1809H40.7377C40.1042 38.1809 39.5901 38.695 39.5901 39.3285V43.9186H30.4098V39.3285C30.4098 38.695 29.8957 38.1809 29.2623 38.1809H24.6721V32.4432ZM5.16389 18.6727C5.16389 15.509 7.73783 12.935 10.9016 12.935C14.0654 12.935 16.6393 15.509 16.6393 18.6727C16.6393 21.8365 14.0654 24.4104 10.9016 24.4104C7.73783 24.4104 5.16389 21.8365 5.16389 18.6727ZM24.6721 68.017H20.0819V51.9514C20.0819 51.318 19.5678 50.8039 18.9344 50.8039H6.31144C4.4134 50.8039 2.86881 49.2593 2.86881 47.3613V30.1482C2.86881 28.2501 4.4134 26.7055 6.31144 26.7055H12.0491C13.9472 26.7055 15.4918 28.2501 15.4918 30.1482V39.3285C15.4918 39.9619 16.0059 40.476 16.6393 40.476H28.1147V43.9186H12.0491V33.5908H9.75406V45.0662C9.75406 45.6996 10.2682 46.2137 10.9016 46.2137H21.2295C23.1275 46.2137 24.6721 47.7583 24.6721 49.6563V68.017ZM43.1613 48.5088H26.8386C26.6654 47.6631 26.3177 46.8804 25.8173 46.2137H29.2623H40.7377H44.1826C43.6823 46.8804 43.3346 47.6631 43.1613 48.5088ZM67.1311 47.3613C67.1311 49.2593 65.5865 50.8039 63.6885 50.8039H51.0655C50.4321 50.8039 49.918 51.318 49.918 51.9514V68.017H45.3278V49.6563C45.3278 47.7583 46.8724 46.2137 48.7705 46.2137H59.0983C59.7318 46.2137 60.2459 45.6996 60.2459 45.0662V33.5908H57.9508V43.9186H41.8852V40.476H53.3606C53.9941 40.476 54.5082 39.9619 54.5082 39.3285V30.1482C54.5082 28.2501 56.0527 26.7055 57.9508 26.7055H63.6885C65.5865 26.7055 67.1311 28.2501 67.1311 30.1482V47.3613Z" fill="#0071B3"/>
<path d="M36.1476 38.181H33.8525V40.476H36.1476V38.181Z" fill="#0071B3"/>
</g>
<defs>
<clipPath id="clip0">
<rect width="70" height="70" fill="white" transform="translate(0 0.312134)"/>
</clipPath>
</defs>
</svg>
