<svg width="69" height="70" viewBox="0 0 69 70" fill="none" xmlns="http://www.w3.org/2000/svg">
<path fill-rule="evenodd" clip-rule="evenodd" d="M36.172 0.498848L28.4486 10.4327C28.0341 10.9001 28.1593 11.5122 28.9954 12.17L38.3702 20.9006C38.5677 21.2428 38.9363 21.4862 39.2785 21.2886C39.3997 21.2186 39.5119 21.1825 39.617 21.1487C39.8086 21.087 39.9768 21.0328 40.1339 20.7947C40.4761 20.5972 40.7195 20.2286 40.522 19.8864C40.452 19.7652 40.4159 19.653 40.382 19.5479C40.3203 19.3563 40.2661 19.1881 40.0281 19.031L32.3519 12.0571L33.4049 11.9054C43.8888 11.0991 54.1313 16.5913 59.3665 25.6589C66.9723 38.8325 62.4168 55.8338 49.2432 63.4396C48.7299 63.7359 48.513 64.5455 48.8093 65.0588C49.1056 65.572 49.7441 65.8877 50.4285 65.4926C64.7997 57.1954 69.789 38.5749 61.4918 24.2037C55.7628 14.2807 45.1517 8.54508 33.687 9.23322L32.5353 9.21384L38.0417 2.15677C38.6272 1.59058 38.4032 0.807462 37.9358 0.392981C37.7382 0.050809 37.4684 -0.0215012 37.0274 0.00496588C36.5865 0.0314329 36.4154 0.130209 36.172 0.498848ZM23.203 67.0133C17.4013 64.5085 12.4535 60.1695 9.13943 54.4293C0.842212 40.0581 5.83156 21.4376 20.2028 13.1404C20.8871 12.7453 21.5256 13.061 21.822 13.5742C21.9666 13.8247 21.9666 14.0365 21.9666 14.3049C21.9666 14.4032 21.9666 14.5091 21.9737 14.6272C21.9014 14.8971 21.658 15.2657 21.4869 15.3645C8.31326 22.9703 3.75776 39.9716 11.3636 53.1452C16.5987 62.2128 26.8412 67.705 37.3252 66.8987L37.3077 67.0133H37.8313L68.6937 67.0133V70L37.8313 70L35.8402 70L0 70V67.0133H23.203Z" fill="#0071B3"/>
<rect x="2" y="60.3121" width="9" height="2" fill="#0071B3"/>
<rect x="59" y="60.3121" width="9" height="2" fill="#0071B3"/>
<path fill-rule="evenodd" clip-rule="evenodd" d="M47.7467 22.6902C47.5198 23.2111 47.687 23.8168 48.1289 24.1741C52.686 27.8589 55.6 33.4952 55.6 39.8121C55.6 50.5101 47.2423 59.2561 36.7001 59.8769C36.0386 59.9159 35.5 60.4494 35.5 61.1121C35.5 61.7749 36.038 62.3155 36.6998 62.2807C48.5684 61.6571 58 51.8361 58 39.8121C58 32.6897 54.6906 26.3402 49.5256 22.2175C48.9266 21.7394 48.0527 21.9875 47.7467 22.6902Z" fill="#0071B3"/>
</svg>
