<svg width="70" height="64" viewBox="0 0 70 64" fill="none" xmlns="http://www.w3.org/2000/svg">
<path d="M62.6183 0.713013H17.3539C13.4256 0.713013 10.2295 3.87913 10.2295 7.75818L9.93784 47.6159H1.10427C0.478239 47.6159 0 48.1694 0 48.7954V54.2808C0 59.4157 4.10931 63.6153 9.06882 63.8455V63.9114H47.1862V63.8372C47.4696 63.8489 47.6412 63.9114 47.836 63.9114H47.8632C53.1526 63.8804 57.4163 59.5691 57.3886 54.2796V19.4175H68.8957C69.5217 19.4175 70 18.8507 70 18.2252V8.16059C70.0072 4.07009 66.7088 0.742349 62.6183 0.713013V0.713013ZM9.56477 61.6442H9.55702C5.52465 61.6442 2.26721 58.3115 2.26721 54.2796V49.8831H38.2591V54.2608C38.2502 56.8125 39.2582 59.2624 41.0599 61.0691C41.2514 61.2617 41.4518 61.3608 41.6566 61.6442H9.56477ZM55.1214 54.2785C55.1214 58.3115 51.8955 61.6442 47.8615 61.6442H47.8383C43.7843 61.6149 40.5169 58.3153 40.5263 54.2614V48.7954C40.5296 48.1605 40.0276 47.638 39.3927 47.6159H12.2051L12.4968 7.76593C12.4968 5.12953 14.6754 2.98022 17.3539 2.98022H57.2663C55.9744 4.39722 55.1214 6.19007 55.1214 8.19103V54.2785ZM67.7328 8.18051V17.1503H57.3886V8.18882C57.3886 5.35149 59.7488 2.98022 62.5851 2.98022H62.6166C65.46 3.00845 67.7461 5.32824 67.7328 8.17221V8.18051Z" fill="#0071B3"/>
<path d="M26.6192 28.6158L32.4638 32.6117C32.8452 32.8746 33.3494 32.8746 33.7308 32.6117L39.5577 28.6169C41.5819 27.2359 43.0769 24.3488 43.0769 21.9005V13.8159C43.0891 13.3886 42.8533 12.9922 42.4725 12.798L33.5736 8.42074C33.2614 8.26576 32.895 8.26576 32.5828 8.42074L23.7005 12.7858C23.3197 12.9801 23.0844 13.3764 23.0972 13.8037V21.9005C23.0972 24.3488 24.5955 27.2359 26.6192 28.6158ZM25.3644 14.5111L33.087 10.7007L40.8097 14.5216V21.9005C40.8097 23.6081 39.6905 25.7802 38.2785 26.7427L33.0738 30.3024L27.8895 26.7433C26.4775 25.7796 25.3644 23.6081 25.3644 21.9005V14.5111Z" fill="#0071B3"/>
<path d="M31.1696 23.612C31.381 23.8279 31.67 23.9502 31.9722 23.9519H31.9749C32.2761 23.9508 32.5644 23.8301 32.7764 23.6164L37.2859 19.1053C37.7293 18.6625 37.7293 17.944 37.2865 17.5012C36.8442 17.0578 36.1258 17.0578 35.683 17.5006L31.9788 21.2042L30.4982 19.7092C30.057 19.2641 29.3391 19.2608 28.8941 19.702C28.449 20.1431 28.4463 20.861 28.8869 21.3061L31.1696 23.612Z" fill="#0071B3"/>
<path d="M47.1863 35.8547H19.9798C19.3538 35.8547 18.8462 36.3623 18.8462 36.9883C18.8462 37.6143 19.3538 38.1219 19.9798 38.1219H47.1863C47.8123 38.1219 48.3199 37.6143 48.3199 36.9883C48.3199 36.3623 47.8123 35.8547 47.1863 35.8547Z" fill="#0071B3"/>
<path d="M47.1863 41.0976H19.9798C19.3538 41.0976 18.8462 41.6052 18.8462 42.2312C18.8462 42.8572 19.3538 43.3648 19.9798 43.3648H47.1863C47.8123 43.3648 48.3199 42.8572 48.3199 42.2312C48.3199 41.6052 47.8123 41.0976 47.1863 41.0976Z" fill="#0071B3"/>
</svg>
