<svg id="Layer_1" data-name="Layer 1" xmlns="http://www.w3.org/2000/svg" xmlns:xlink="http://www.w3.org/1999/xlink" viewBox="0 0 1920 480"><defs><style>.cls-1,.cls-5{fill:none;}.cls-2{fill:url(#linear-gradient);}.cls-3{clip-path:url(#clip-path);}.cls-4{opacity:0.2;}.cls-5{stroke:#fff;stroke-miterlimit:10;}</style><linearGradient id="linear-gradient" x1="960" y1="482" x2="960" y2="2" gradientTransform="matrix(1, 0, 0, -1, 0, 482)" gradientUnits="userSpaceOnUse"><stop offset="0" stop-color="#0063a0"/><stop offset="1" stop-color="#18386b"/></linearGradient><clipPath id="clip-path"><rect class="cls-1" width="1920" height="480"/></clipPath></defs><rect class="cls-2" width="1920" height="480"/><g class="cls-3"><g class="cls-4"><path class="cls-5" d="M2103.7,170.1c-199.1-18.4-307.3,180.2-507.9,186.3-160.8,4.9-355.4-110.3-585.2-110.3-264.1,0-432,243.4-504.9,138.3-81.1-117-76.5-281.9-446.2-281.9-137.9,0-176.4-147.2-244.6-34.3-62.3,103-249.2,118-372.4,131.4"/><path class="cls-5" d="M2337.2,391.6c-100-86.6-175.9-212.1-226.7-218.7-35.5-4.6-68.4-1.1-99.9,7.2-139.5,37.4-242.7,171.1-405.4,178.8-29.7,1.5-60.5-1.3-92.4-6.3-141.8-22.3-305.9-95.6-490.9-97.5-52.3-.5-100.6,7.9-144.7,21.1C697.9,329.7,578.9,464.6,518.8,382.4,491.7,345.3,473.7,303,448.6,263c-52-82.1-132.7-157.5-377-160.3-41.3-.5-73.8-14-100.8-29.2-62.1-35-95.4-80.8-143.4-2.8-62.8,101.9-247.2,119-371.3,132.8-40.2,4.5-73-10.6-110-33.4"/><path class="cls-5" d="M2340.8,394.8c-100.7-82.9-172.8-211-223.2-219.5-34.7-5.9-67.4-2.8-99.1,5.4-138.3,35.7-242.4,169.5-403.7,180.4-29.5,2-60.1-.3-91.7-4.5-142.4-18.9-306.9-89.1-489.7-92.9a520.3,520.3,0,0,0-143.9,18.5c-177.4,48.3-295.6,178.3-357.4,98.1C504.5,344.4,486,303.1,460,264.4c-53.8-80-136.1-156-376.1-161.7-41-1-73.5-14.6-100.5-29.5C-77.9,39.3-111.5-4-159.8,73-223,173.8-404.9,193-529.9,207.3c-40,4.5-72.9-10-110-32.1"/><path class="cls-5" d="M2344.3,398.8c-101.4-79.2-169.6-209.8-219.8-220.3-33.9-7.1-66.3-4.4-98.2,3.6-137.1,34.3-242.2,168.2-401.9,182-29.4,2.5-59.6.8-91-2.6-143-15.4-307.8-82.7-488.4-88.2a529.2,529.2,0,0,0-142.9,15.1c-175.6,43-293,168.1-356.4,90-28.1-34.7-47.1-74.9-74-112.4C416,188.2,332.2,111.4,96.6,103c-41-1.7-73.5-15.4-100.5-30C-64.7,40.2-98.4-.7-147,75.4c-63.6,99.7-243.2,120.8-369,135.7-39.8,4.6-72.8-9.4-110-30.7"/><path class="cls-5" d="M2347.5,402.1c-102-75.6-166.3-208.6-216.3-221.1-33.1-8.3-65.3-6.1-97.4,1.8-135.8,33-241.9,166.8-400.2,183.5-29.2,3.1-59.2,1.8-90.3-.7-143.8-11.9-308.8-76.2-487.2-83.6a554.8,554.8,0,0,0-142,12.1C740.6,331.9,624,452.1,558.9,376c-28.6-33.5-48.2-72.6-75.9-108.9-57.6-75.6-142.9-153.2-374.2-164.3-40.6-2-73-15.8-100-30-60.1-31.7-94.1-70.2-142.9,5C-198.2,176.4-375.3,199.6-502,215c-39.6,4.7-72.7-8.8-110-29.3"/><path class="cls-5" d="M2351.3,405.5c-102.7-71.9-163-207.4-212.8-221.9-32.2-9.4-64.2-7.7-96.5-.1-134.6,31.7-241.6,165.5-398.5,185.1-29,3.6-58.8,2.9-89.6,1.1-144.5-8.3-309.7-69.8-486-79a597.7,597.7,0,0,0-141.2,9.1C754.8,332.6,639.1,448,572.3,373.9c-29.1-32.2-49.3-70.3-77.8-105.4C435,195.1,348.2,116.6,121.2,102.8c-40.3-2.5-72.7-16.4-99.7-30.3C-38,42-72.2,5.8-121.3,80.2c-64.5,97.5-239.1,123-366.8,138.6-39.5,4.8-72.6-8.2-110-28"/><path class="cls-5" d="M2355,409.1c-103.2-68.3-159.7-206.1-209.3-222.7-31.4-10.5-63.1-9.3-95.7-1.9-133.5,30.5-241.6,164.3-397,186.7-28.9,4.2-58.5,4-88.9,3-145.3-4.8-310.7-63.5-484.8-74.4-52.4-3.3-99.4-.4-140.3,6.2-170.2,27.3-284.9,137.8-353.5,65.8-29.6-31-50.3-67.9-79.7-101.9-61.5-71.2-149.8-150.6-372.4-167C93.3,99.9,61,85.9,34,72.3-24.6,42.8-59.1,9.1-108.5,82.6c-65,96.4-237.1,124-365.7,140.1-39.3,4.9-72.6-7.6-110-26.6"/><path class="cls-5" d="M2358.1,412.7c-103.8-64.6-156.4-204.8-205.9-223.5-30.5-11.6-62.1-10.9-94.8-3.7-132.1,29.1-241.1,162.9-395,188.2-28.7,4.7-58.1,5.1-88.2,4.9-146.2-1.1-311.7-57.1-483.6-69.7-52.5-3.8-99.1-2.1-139.4,3.2C783,334,669.4,439.7,599,369.7c-30-29.8-51.4-65.6-81.6-98.4C454,202.3,364.2,121.9,145.9,103,106,99.5,73.7,85.3,46.7,72.1-11.3,43.7-46,12.4-95.7,85c-65.4,95.2-235.1,125-364.6,141.5-39.1,5-72.5-7.1-110.1-25.2-57.7-27.9-122.8-66.4-224-83.5"/><path class="cls-5" d="M2362,416.2c-104.3-61-153-203.4-202.4-224.3-29.6-12.6-61-12.6-94-5.5-130.8,27.8-240.9,161.6-393.3,189.7-28.6,5.3-57.7,6.2-87.5,6.8-147.1,2.6-312.7-50.8-482.4-65.1-52.5-4.4-98.9-3.7-138.5.2-166.8,16.7-279.3,117.5-351.5,49.6-30.4-28.6-52.5-63.3-83.5-94.9C463.4,205.9,372.2,124.5,158.3,103c-39.6-4-71.9-18.3-98.9-31.1C2,44.5-32.9,15.6-82.9,87.4c-65.9,94.1-233.1,125.9-363.5,143-38.9,5.1-72.4-6.5-110.1-23.9-58.3-26.9-123.9-63.4-224.3-78.3"/><path class="cls-5" d="M2365.3,419.7c-104.7-57.5-149.6-202-198.9-225.2-28.8-13.5-60-14.2-93.1-7.4-129.5,26.6-240.6,160.4-391.5,191.3-28.4,5.8-57.3,7.4-86.7,8.6-148,6.3-313.6-44.5-481.2-60.5-52.5-5-98.7-5.4-137.6-2.8-165.2,11.4-276.5,107.4-350.6,41.6-30.8-27.4-53.6-61-85.4-91.4C472.9,209.5,380.2,127,170.7,103c-39.4-4.5-71.6-18.9-98.6-31.4C15.4,45.4-19.8,18.9-70.1,89.7c-66.3,93-231.1,126.9-362.4,144.4-38.7,5.2-72.3-5.8-110.1-22.5-58.9-25.9-125-60.3-224.6-73.2"/><path class="cls-5" d="M2368.8,423.5c-105.1-53.9-146.2-200.5-195.4-226-27.9-14.4-58.9-15.8-92.3-9.2C1953,213.5,1840.8,347.2,1691.4,381c-28.2,6.4-57,8.5-86,10.5-148.9,10.1-314.6-38.3-480-55.9-52.6-5.6-98.6-7.1-136.7-5.7-163.6,6-273.6,97.3-349.6,33.5-31.2-26.2-54.8-58.7-87.3-87.9-69.4-62.4-163.7-146-368.8-172.4-39.2-5-71.3-19.5-98.3-31.7-56-25.2-91.4-49.2-142,20.8C-124,184.1-286.4,220-418.6,238c-38.6,5.2-72.3-5.2-110.1-21.1-59.5-25-126.2-57.2-224.9-68.1"/><path class="cls-5" d="M2372.7,426.8c-105.5-50.4-142.8-198.9-192-226.8-27.1-15.3-57.8-17.4-91.4-11-126.9,24.1-240.1,157.9-388.1,194.4-28.1,6.9-56.6,9.7-85.3,12.4-149.9,14-315.6-32.1-478.8-51.2-52.6-6.2-98.4-8.9-135.8-8.7-162,.6-270.7,87.1-348.6,25.4-31.6-25.1-55.9-56.4-89.2-84.4-71.5-60.1-167.2-145-367.8-173.7-39-5.6-71-20.2-98.1-32C42.1,47,6.4,25.5-44.5,94.5c-67.2,90.8-227.1,128.8-360.2,147.3-38.4,5.3-72.2-4.6-110.1-19.7-60.2-24-127.4-54-225.2-62.9"/><path class="cls-5" d="M2376.1,430.2c-105.9-46.9-139.4-197.3-188.5-227.6-26.2-16.2-56.8-19-90.6-12.8-125.6,22.9-239.9,156.6-386.3,196-27.9,7.5-56.3,10.9-84.6,14.2-150.8,17.9-316.6-25.9-477.5-46.6-52.6-6.8-98.2-10.6-134.9-11.7-160.5-4.9-267.8,76.9-347.6,17.3-32-23.9-57-54.1-91.1-80.9-73.5-57.9-170.7-144-366.9-175C169,97,137.1,82.4,110,70.9,55.5,47.8,19.5,28.7-31.7,96.9c-67.6,89.7-225.1,129.8-359.1,148.8-38.2,5.4-72.1-4-110.1-18.4-60.8-23-128.6-50.8-225.5-57.8"/><path class="cls-5" d="M2379.5,433.9c-106.2-43.5-136.1-195.7-185-228.4-25.4-17-55.7-20.6-89.7-14.7-124.3,21.8-239.7,155.4-384.6,197.5-27.8,8.1-55.9,12.1-83.9,16.1-151.8,21.9-317.6-19.7-476.3-42-52.7-7.4-98-12.3-134-14.7-159-10.4-264.8,66.7-346.7,9.2-32.3-22.7-58.1-51.7-93-77.4-75.5-55.7-174.2-143.1-366-176.4-38.6-6.7-70.4-21.4-97.5-32.5C68.9,48.7,32.6,32-18.9,99.3-87,187.9-241.9,230-376.8,249.5c-38,5.5-72.1-3.4-110.2-17-61.4-22-129.8-47.5-225.7-52.7"/><path class="cls-5" d="M2383,437.5c-106.5-40.1-132.7-194-181.5-229.2-24.6-17.8-54.6-22.2-88.9-16.5-123,20.6-239.4,154.2-382.9,199.1-27.6,8.6-55.5,13.3-83.2,18-152.8,26-318.6-13.6-475.1-37.4-52.7-8-97.9-14.1-133.2-17.6-157.6-16-261.8,56.5-345.7,1.2-32.7-21.6-59.3-49.4-94.9-73.9-77.5-53.7-177.6-142.5-365-178-38.3-7.2-70.1-22.1-97.2-32.8C82.3,49.4,45.7,35.3-6,101.6c-68.5,87.5-221.1,131.7-356.8,151.7-37.8,5.6-72-2.7-110.2-15.6-62.1-21-131-44.2-226-47.6"/><path class="cls-5" d="M2386.3,440.7c-106.8-36.7-129.5-192.2-178.1-230-23.8-18.5-53.6-23.8-88.1-18.3-121.7,19.4-239.2,153-381.1,200.6-27.4,9.2-55.2,14.5-82.5,19.8-153.8,30.1-319.5-7.4-473.9-32.7-52.8-8.6-97.7-15.8-132.3-20.6-156.1-21.6-258.8,46.3-344.7-6.9-33-20.4-60.4-47.1-96.8-70.4-79.3-51-180.8-141.4-363.9-178.9-38.1-7.8-69.8-22.7-97-33.1C95.5,50.2,58.7,38.6,6.7,104c-69,86.4-219.1,132.6-355.7,153.1-37.7,5.6-72-2.1-110.2-14.3-62.7-20-132.2-40.9-226.3-42.4"/><path class="cls-5" d="M2389.9,444.3C2283,411,2263.9,254,2215.5,213.6c-23-19.2-52.5-25.4-87.2-20.1-120.4,18.3-238.9,151.9-379.4,202.2-27.3,9.8-54.8,15.7-81.8,21.7-154.8,34.3-320.5-1.4-472.7-28.1-52.8-9.3-97.6-17.6-131.4-23.6-154.7-27.3-255.7,36-343.8-15-33.3-19.3-61.6-44.7-98.7-66.9C538.7,234.9,435.8,143,257.2,103.4,219.4,94.9,187.8,80,160.6,70,109,51,71.8,41.9,19.5,106.5-49.9,191.7-197.5,240-335.1,261c-37.5,5.7-71.9-1.5-110.2-12.9-63.4-18.9-133.4-37.5-226.6-37.3"/><path class="cls-5" d="M2393.7,448c-107.3-30.1-123-188.5-171.1-231.6-22.3-20-51.4-27-86.4-22-119.1,17.2-238.7,150.7-377.7,203.8-27.1,10.4-54.5,17-81.1,23.6-155.7,38.6-321.5,4.7-471.5-23.5-52.8-9.9-97.4-19.4-130.5-26.6-153.3-33.1-252.7,25.7-342.8-23.1-33.7-18.2-62.7-42.4-100.6-63.4C548.2,238.5,443.9,145,269.7,103.4c-37.7-9-69.2-24-96.4-33.6C122.4,51.8,85,45.2,32.4,108.9c-69.8,84.1-215,134.5-353.5,156-37.3,5.8-71.9-.8-110.2-11.5-64-17.9-134.6-34-226.9-32.2"/><path class="cls-5" d="M2397,451.3c-107.6-26.8-119.8-186.6-167.6-232.4-21.6-20.6-50.4-28.6-85.5-23.8-117.8,16.1-238.4,149.6-375.9,205.3-27,10.9-54.1,18.2-80.4,25.4-156.7,42.9-322.5,10.7-470.3-18.9-52.9-10.6-97.3-21.3-129.6-29.6C936,338.6,838.2,392.9,746,346.4c-34-17.1-63.9-40-102.5-59.9-86-44.3-191.6-139.6-361.5-183.1-37.5-9.6-68.9-24.7-96.1-33.9C135.8,52.5,98,48.4,45.1,111.2c-70.3,83-213,135.5-352.4,157.4-37.1,5.9-71.8-.2-110.2-10.2-64.7-16.8-135.8-30.6-227.2-27"/><path class="cls-5" d="M2400.7,454.9c-107.8-23.6-116.7-184.7-164.2-233.2-20.8-21.3-49.3-30.2-84.7-25.6-116.5,15-238.1,148.4-374.2,206.9-26.8,11.5-53.7,19.5-79.7,27.3-157.6,47.4-323.4,16.7-469.1-14.2-52.9-11.2-97.1-23.1-128.7-32.5-150.4-44.9-246.5,4.9-340.8-39.2-34.3-16-65-37.6-104.4-56.4-88.1-42-195.1-139-360.5-184.4-37.3-10.2-68.6-25.3-95.9-34.2-49.4-16-87.5-17.6-140.6,44.3-70.7,81.9-211,136.4-351.3,158.9-36.9,5.9-71.8.5-110.3-8.8-65.4-15.8-137-27.1-227.4-21.9"/><path class="cls-5" d="M2404.5,458.8c-108-20.5-113.7-182.7-160.7-234-20.2-22-48.2-31.7-83.8-27.4-115.2,13.9-237.8,147.3-372.5,208.4-26.6,12.1-53.3,20.8-78.9,29.2-158.4,51.9-324.4,22.7-467.9-9.6a1273.6,1273.6,0,0,1-127.8-35.5C964,339,869.6,384.4,773,342.6c-34.5-15-66.2-35.3-106.3-52.9C576.5,250,468.1,151.1,307.1,104,270,93.1,238.8,78,211.5,69.5,162.6,54,124.2,55,70.8,116c-71.2,80.8-209,137.3-350.2,160.3-36.8,6-71.7,1.2-110.3-7.4-66-14.7-138.2-23.5-227.7-16.8"/><path class="cls-5" d="M2407.5,462c-108.3-17.3-110.7-180.7-157.2-234.8-19.5-22.7-47.1-33.3-83-29.3-113.8,12.9-237.6,146.2-370.7,210-26.5,12.7-53,22.1-78.2,31-159.3,56.4-325.4,28.6-466.6-5-52.9-12.6-96.8-26.8-126.9-38.5-147.4-57-240.2-16-338.9-55.4-34.8-13.9-67.3-32.9-108.2-49.4-92.3-37.3-202-138.2-358.7-187.1-36.8-11.5-68-26.7-95.3-34.7C176,54.7,137.3,58.3,83.6,118.4,12,198.1-123.4,256.6-265.5,280.2c-36.6,6.1-71.7,1.8-110.3-6.1-66.7-13.6-139.4-20-228-11.6"/><path class="cls-5" d="M2411.3,465.4c-108.5-14.3-107.7-178.7-153.7-235.6-18.8-23.3-46.1-34.9-82.1-31.1-112.5,11.8-237.3,145.1-369,211.6-26.3,13.3-52.6,23.4-77.5,32.9-160.1,61.1-326.3,34.5-465.4-.4-53-13.3-96.6-28.7-126.1-41.5-145.8-63.1-237.1-26.5-337.9-63.5-35.1-12.9-68.5-30.5-110.1-45.9C595,257.1,484,154.2,331.6,103.6c-36.6-12.2-67.7-27.4-95-35-47.1-13.2-86.1-7.1-140.2,52.2-72,78.6-205,139.2-348,163.2-36.4,6.1-71.6,2.5-110.3-4.7-67.3-12.6-140.6-16.4-228.3-6.5"/><path class="cls-5" d="M2414.7,469.1c-108.7-11.2-104.9-176.7-150.3-236.4-18.2-24-45-36.4-81.3-32.9-111.2,10.8-237,144-367.2,213.1-26.1,13.9-52.2,24.7-76.8,34.8-160.8,65.8-327.2,40.4-464.2,4.3-53-14-96.4-30.6-125.2-44.4-144.2-69.4-233.9-37.1-336.9-71.5-35.4-11.8-69.6-28.1-112-42.4C604.4,260.8,492,155.9,344,103.7c-36.4-12.8-67.3-28.1-94.8-35.3-46.3-12.2-85.7-3.5-140,54.8-72.5,77.5-203,140.1-346.9,164.7-36.2,6.2-71.6,3.2-110.3-3.3-68-11.5-141.7-12.7-228.6-1.4"/><path class="cls-5" d="M2418.1,472.7c-109-8.2-102.1-174.6-146.8-237.2-17.6-24.6-43.9-38-80.4-34.7-109.9,9.8-236.7,142.9-365.5,214.7-26,14.5-51.8,26-76.1,36.6-161.5,70.6-328.2,46.3-463,8.9-53-14.7-96.2-32.5-124.3-47.4C1019.5,338,931.2,365.9,826,334c-35.7-10.8-70.8-25.7-113.9-38.9-98.6-30.2-212.2-137.3-356-191.1-36.1-13.5-67-28.8-94.5-35.6-45.6-11.3-85.2,0-139.9,57.4-72.9,76.4-201,141-345.8,166.1-36,6.3-71.5,3.9-110.3-2-68.7-10.3-142.9-9.1-228.8,3.7-71.2,10.6-155.2,41.1-235.9,35"/><path class="cls-5" d="M2421.7,475.9c-109.3-5.2-99.3-172.6-143.3-238.1-17-25.3-42.9-39.5-79.6-36.6C2090.3,210,1962.4,343.1,1835,417.4c-25.8,15-51.4,27.3-75.4,38.5-162.2,75.4-329.1,52.2-461.8,13.5-53-15.4-96-34.4-123.4-50.4-140.7-82-227.6-58.4-335-87.7-36-9.8-72-23.3-115.8-35.4C622.9,268.1,508,158.8,368.5,103.5,332.6,89.3,301.8,74,274.3,67.7c-44.8-10.4-84.8,3.5-139.7,60C61.2,203-64.4,269.6-210.1,295.3c-35.9,6.3-71.5,4.6-110.4-.6-69.3-9.2-144.1-5.4-229.1,8.9-72,12.1-155.3,42.2-235.3,36.5"/><path class="cls-5" d="M2425.3,479.7c-109.5-2.2-96.6-170.5-139.8-238.9-16.4-26-41.8-41.1-78.7-38.4-107.2,7.8-236,140.8-362,217.8-25.6,15.6-50.9,28.7-74.7,40.4-162.8,80.3-330,58-460.6,18.1-53-16.2-95.7-36.4-122.5-53.4-138.9-88.4-224.5-69.1-334-95.8-36.3-8.8-73.1-20.9-117.7-31.9-102.8-25.4-218.9-137-354.2-193.8-35.6-15-66.4-30.2-94-36.1-44-9.5-84.4,7-139.6,62.6-73.8,74.2-197,142.8-343.5,169-35.7,6.4-71.5,5.3-110.4.8-70-8.1-145.2-1.7-229.4,14-72.8,13.5-155.4,43.2-234.7,37.9"/><path class="cls-5" d="M2428.8,483c-109.8.7-93.9-168.4-136.4-239.7-15.9-26.7-40.7-42.6-77.9-40.2-105.9,6.9-235.7,139.8-360.3,219.3-25.4,16.2-50.5,30-74,42.2-163.3,85.3-330.9,63.8-459.4,22.8-53-16.9-95.5-38.3-121.6-56.4-137-94.8-221.4-79.8-333.1-103.8-36.6-7.9-74.3-18.5-119.6-28.4-104.9-23-222.1-136.9-353.2-195.1C357.9,88,327.2,72.8,299.6,67.3c-43.3-8.6-83.9,10.5-139.4,65.3-74.3,73-195,143.7-342.4,170.5-35.5,6.4-71.4,6-110.4,2.2-70.6-7-146.3,2-229.7,19.1-73.5,15.1-155.5,44.3-234.2,39.4"/><path class="cls-5" d="M2432.4,486.7c-110.2,3.6-91.3-166.4-132.9-240.5-15.3-27.3-39.6-44.1-77-42-104.6,5.9-235.3,138.7-358.6,220.9-25.3,16.8-50.1,31.3-73.3,44.1-163.8,90.3-331.8,69.6-458.2,27.4-53-17.7-95.2-40.2-120.7-59.3-135-101.3-218.3-90.6-332.1-111.9-36.9-6.9-75.4-16.1-121.5-24.9C651.1,280,532.7,163.7,405.8,104,370.7,87.5,340,72.4,312.4,67.3c-42.5-7.7-83.5,14-139.2,67.9C98.5,207-19.8,279.7-168.1,307c-35.3,6.5-71.4,6.7-110.4,3.5-71.3-5.8-147.4,5.8-230,24.3-74.2,16.6-155.5,45.4-233.6,40.8"/><path class="cls-5" d="M2436.1,490.2c-110.5,6.5-88.8-164.3-129.4-241.3-14.8-28-38.6-45.7-76.2-43.9-103.3,5-235,137.7-356.8,222.5-25.1,17.4-49.6,32.7-72.6,46-164.2,95.3-332.6,75.3-457,32-53-18.5-95-42.1-119.8-62.3-133-107.8-215.2-101.5-331.1-120-37.2-5.9-76.6-13.7-123.3-21.4C660.8,283.7,541.4,165,418.5,104c-34.8-17.2-65.4-32.4-93.1-36.9-41.7-6.9-83,17.5-139.1,70.5C110.9,208.3-5,282.9-154.2,310.8c-35.2,6.6-71.3,7.4-110.4,4.9-72-4.6-148.5,9.6-230.3,29.4-74.9,18.2-155.6,46.5-233,42.3"/><path class="cls-5" d="M2439.5,493.7c-110.9,9.3-86.3-162.3-125.9-242.1-14.3-28.7-37.5-47.2-75.3-45.7-102,4.1-234.6,136.7-355.1,224-24.9,18-49.2,34-71.9,47.9-164.5,100.4-333.5,81.1-455.8,36.6-53-19.3-94.7-44.1-118.9-65.3C1105.7,334.8,1024.5,336.8,906.4,321c-37.5-5-77.7-11.2-125.2-17.9C669.9,287.5,549.5,166.2,430.6,104c-34.5-18-65.1-33.1-92.9-37.2-41-6-82.6,21-138.9,73.1-75.6,69.7-189.1,146-339.1,174.8-35,6.6-71.3,8.1-110.4,6.3-72.6-3.5-149.5,13.3-230.5,34.5-75.6,19.7-155.7,47.5-232.5,43.7"/><path class="cls-5" d="M2442.7,497.1c-111.3,12.1-83.8-160.2-122.5-242.9-13.8-29.4-36.4-48.7-74.5-47.5-100.6,3.1-234.2,135.6-353.4,225.6-24.7,18.6-48.7,35.4-71.1,49.7-164.8,105.5-334.3,86.8-454.5,41.2-53-20.1-94.4-46-118.1-68.3-128.6-120.8-209-123.2-329.2-136.2-37.8-4.1-78.9-8.8-127.1-14.4C679.3,291.4,557.9,167.5,443,104c-34.1-18.9-64.8-33.9-92.6-37.5-40.2-5.2-82.2,24.5-138.8,75.7-76,68.6-187.1,147-338,176.2-34.8,6.6-71.2,8.9-110.5,7.6-73.3-2.3-150.6,17.1-230.8,39.6C-544,387-623.5,414.4-699.6,410.8"/><path class="cls-5" d="M2446.4,500.9c-111.7,15-81.4-158.2-119-243.7-13.3-30.2-35.4-50.2-73.6-49.3-99.3,2.2-233.8,134.6-351.6,227.1-24.5,19.3-48.3,36.7-70.4,51.6-165,110.7-335.1,92.5-453.3,45.9-52.9-20.9-94-47.9-117.2-71.2C1135,334,1055.3,327.1,933.1,317.1c-38.2-3.1-80-6.4-129-10.9C688.8,295.6,566.4,169.1,455.4,104.4c-33.8-19.7-64.5-34.7-92.3-37.8-39.4-4.4-81.7,28-138.6,78.3C148,212.4,39.4,292.9-112.4,322.6c-34.6,6.7-71.1,9.6-110.5,9-73.9-1.1-151.6,21-231.1,44.8-76.9,23-155.9,49.8-231.3,46.6"/><path class="cls-5" d="M2450,504.2C2337.9,522,2371,348,2334.5,259.7c-12.8-30.9-34.3-51.7-72.8-51.2-98,1.3-233.3,133.7-349.9,228.7-24.3,19.9-47.8,38.1-69.7,53.5C1677,606.6,1506.2,588.9,1390,541.2c-52.9-21.7-93.7-49.9-116.3-74.2-123.9-133.8-202.9-145.1-327.2-152.3-38.5-2.2-81.1-3.9-130.9-7.4-117.4-8-240.7-137.2-347.8-203.2-33.4-20.6-64.2-35.5-92-38.1-38.7-3.6-81.3,31.6-138.5,81-77,66.4-183.2,148.9-335.8,179.2-34.4,6.8-71.1,10.3-110.5,10.4-74.5.1-152.6,24.8-231.4,49.9s-156,50.9-230.7,48.1"/><path class="cls-5" d="M2453.5,507.7c-151.6,27.7-33.7-299-184-298.3-117,.6-291.9,193.7-417.2,285.6-241.5,177.1-496.6,58.3-566.3-22.1-158.8-183.4-244.1-154.1-459-164.3C669.4,301.2,503.7,74.3,388.4,65.8,288,58.4,152.8,335.6-195.1,341.7-345.5,344.3-508.7,451-657,446.3"/></g></g></svg>