<svg id="Layer_1" data-name="Layer 1" xmlns="http://www.w3.org/2000/svg" xmlns:xlink="http://www.w3.org/1999/xlink" viewBox="0 0 1920 690"><defs><style>.cls-1,.cls-5{fill:none;}.cls-2{fill:url(#linear-gradient);}.cls-3{clip-path:url(#clip-path);}.cls-4{opacity:0.2;}.cls-5{stroke:#fff;stroke-miterlimit:10;}</style><linearGradient id="linear-gradient" x1="960" y1="692" x2="960" y2="2" gradientTransform="matrix(1, 0, 0, -1, 0, 692)" gradientUnits="userSpaceOnUse"><stop offset="0" stop-color="#1c2963"/><stop offset="1" stop-color="#00000d"/></linearGradient><clipPath id="clip-path"><rect class="cls-1" width="1920" height="690"/></clipPath></defs><rect class="cls-2" width="1920" height="690"/><g class="cls-3"><g class="cls-4"><path class="cls-5" d="M2251.3,336.4C2029.7,299.3,2015.4-25.1,1881.4-22c-122.7,2.8-26.4,313.5-154.7,425.9-108.7,95.1-540-213.5-709.9-127.7-84.7,42.8-89.8,69-186.5,88.7-81.2,16.5-161.4-64.3-186.9-137.7-22.3-64.5-113-238-194.3-249.2C360.5-34.3,287.2,160,265.5,230.7,240.4,312.5,75.8,367,4.3,387.7c-106.4,30.7-236.8,234.8-269.2,306.2"/><path class="cls-5" d="M2250.2,349.7C2028.4,312.9,2016.5-8.8,1886.6-10.2c-50.1-.6-62.9,52.5-72.1,124.4-12.3,98.5-13.2,228.3-86.6,293.6-45.4,40.5-143.9,13.7-257.1-28-160-59-346.2-149.9-446.4-101.5-85,41.1-89.9,68.6-183.9,89.9C761.6,386,684.2,309.1,656.8,239.1,632.9,177.3,542.7,5.6,461.1-7.2c-41.5-6.5-80,31.9-111.7,81.8-35.8,56-62.2,126.9-74.4,164.5C248.7,319.8,87.8,374.5,15.4,394.2-92.5,423.4-221,626.7-256.1,695.7"/><path class="cls-5" d="M2249.5,362.6C2027.4,326.3,2017.9,7.3,1892.2,1.3c-48.5-2.3-61.5,47.8-72.6,119-15.1,97.2-17.5,225.5-90.1,291.1-46,41.6-142.9,17.7-255.3-23.4-158.4-58-341.1-154.4-441.9-108-85.4,39.5-89.9,68.1-181.2,91-76.6,19-151.2-53.9-180.6-120.6C644.7,191.9,555,21.9,473.1,7.5,431.8.2,393.3,37,360.9,85.4c-36.5,54.4-63.6,124.2-76.5,162C257.1,327.2,99.8,382,26.5,400.7-82.9,428.5-209.4,630.9-247.2,697.5"/><path class="cls-5" d="M2248.7,375.8c-222.3-36-229.5-352.4-350.9-362.8-46.9-4-60,43.2-73,113.7-17.7,95.9-21.9,222.6-93.6,288.6-46.5,42.8-141.9,21.7-253.6-18.8-156.8-57-336-158.9-437.3-114.4-85.7,37.9-89.9,67.7-178.5,92.2-74.3,20.3-146.1-48.8-177.5-112.1-27.7-55.8-116.9-223.9-199-239.9-41.1-8-79.6,27.1-112.7,74-37.3,52.7-65,121.6-78.6,159.5C265.7,334.5,112,389.5,37.7,407.2c-110.8,26.3-235.3,227.9-275.9,292"/><path class="cls-5" d="M2247.7,388.8c-222.6-35.7-227.5-349.3-344.6-364.3-45.4-5.8-58.5,38.5-73.5,108.4-20.3,94.6-26.2,219.9-97.1,286.1-47.1,44-140.8,25.7-251.8-14.2-155.2-56-330.9-163.5-432.8-120.9-86,36.3-89.9,67.5-175.8,93.4C800.2,399,731,333.6,697.7,273.8,668.1,220.8,579.5,54.6,497.1,37c-40.9-8.7-79.4,24.8-113.2,70-37.9,51.2-66.2,119-80.6,157.2C274,341.9,123.8,397,48.6,413.7-63.7,438.5-185.9,639.1-229.5,701"/><path class="cls-5" d="M2246.6,401.9c-222.9-35.3-225.5-346.3-338.3-365.8-43.8-7.6-57,33.9-73.9,103-22.9,93.3-30.5,217.1-100.6,283.6-47.6,45.2-139.8,29.7-250.1-9.6-153.5-55-325.8-168-428.2-127.3-86.4,34.6-90,67.2-173.1,94.6-69.6,23-136.1-38.7-171.3-95C679.8,235.2,591.9,71,509.2,51.9,468.5,42.5,430,74.2,395.6,118c-38.8,49.4-67.7,116.2-82.8,154.6-30.3,76.8-177,131.9-253,147.6C-54.1,443.5-174,643.1-220.7,702.8"/><path class="cls-5" d="M2245.8,415.1c-223.2-34.9-223.6-343.4-332-367.2-42.3-9.3-55.4,29.2-74.4,97.7-25.5,92-34.8,214.3-104.1,281-48.1,46.4-138.8,33.7-248.3-5-151.9-54-320.8-172.7-423.7-133.8-86.8,32.8-90,66.8-170.4,95.8-67.3,24.3-131.2-33.8-168.2-86.5C691.5,249.5,604.2,87.4,521.3,66.7c-40.5-10.1-79.1,20-114.1,62.2-39.6,47.8-69,113.5-84.9,152.1C291.1,356.8,147.9,412,70.9,426.8-44.5,448.5-162.1,647-211.8,704.5"/><path class="cls-5" d="M2245.1,428c-223.4-34.5-221.7-340.4-325.7-368.7-40.8-11.1-53.9,24.6-74.8,92.3-28,90.7-39.1,211.6-107.6,278.5-48.7,47.6-137.8,37.7-246.6-.4-150.3-53-315.7-177.3-419.1-140.2-87.1,31.2-90,66.4-167.7,97-65,25.6-126.4-28.8-165.1-77.9C703,263.5,616.5,103.5,533.3,81.2c-40.3-10.8-79,17.6-114.6,58.2-40.4,46.1-70.4,110.8-87,149.6C299.6,363.8,159.8,419.2,81.9,432.9-34.9,453.5-150,650.9-203,706.3"/><path class="cls-5" d="M2244.2,441.4c-223.7-34.1-219.9-337.5-319.4-370.2-39.4-12.9-52.3,19.9-75.3,87-30.6,89.4-43.4,208.9-111.1,276-49.2,48.8-136.8,41.7-244.8,4.2C1345,386.4,1183,256.6,1079,291.7c-87.4,29.5-90,66-165,98.2-62.7,26.9-121.7-23.9-162-69.4C714.4,278,628.8,120.2,545.3,96.2c-40.1-11.5-78.8,15.2-115.1,54.3C389,195,358.6,258.6,341.1,297.6c-33,73.8-169.4,129.3-248.2,142.1C-25.3,458.6-137.9,654.9-194.2,708.1"/><path class="cls-5" d="M2243.3,454.5c-224-33.8-218.1-334.7-313.1-371.6-37.9-14.7-50.8,15.3-75.7,81.6-33.2,88.1-47.6,206.1-114.6,273.5-49.7,50-135.7,45.7-243.1,8.8-147-51-305.5-186.4-410-153.1-87.8,27.9-90.1,65.7-162.4,99.4-60.3,28.2-117.1-18.9-158.8-60.8-39.9-40-124.5-195.6-208.3-221.2-39.9-12.2-78.7,12.8-115.5,50.4-42,42.9-73,105.5-91.2,144.6C316.7,379,183.7,434.5,104.1,446.3-15.6,463.7-125.4,658.9-185.3,710"/><path class="cls-5" d="M2242.3,467.6c-224.3-33.4-216.4-332-306.7-373.1-36.5-16.6-49.2,10.6-76.2,76.3-35.7,86.8-51.9,203.4-118.1,271-50.2,51.2-134.7,49.7-241.3,13.4-145.4-50.1-300.4-190.9-405.5-159.6-88.1,26.3-90.1,65.3-159.7,100.6-58,29.4-112.6-14-155.7-52.3S653.4,153.1,569.4,125.8c-39.7-12.9-78.6,10.4-116,46.4-42.9,41.2-74.3,102.8-93.3,142.2-34.8,71.9-164.3,127.5-244.9,138.3C-6,468.6-113,662.8-176.4,711.7"/><path class="cls-5" d="M2241.4,480.6c-224.5-33-214.6-329.4-300.4-374.5-35.1-18.5-47.6,6-76.6,70.9-38.2,85.5-56.1,200.8-121.6,268.4-50.7,52.4-133.7,53.7-239.6,18-143.7-49.1-295.3-195.5-400.9-166.1-88.4,24.6-90.1,64.9-157,101.8-55.7,30.7-108.3-9-152.6-43.8s-127.1-186-211.4-215C542,127,503,148.6,465,183c-43.7,39.6-75.6,100.1-95.4,139.7-35.6,71-161.8,126.7-243.3,136.5C3.5,473.6-100.5,666.8-167.6,713.4"/><path class="cls-5" d="M2240.5,493.9c-224.8-32.6-212.9-326.8-294.1-376-33.7-20.4-46,1.3-77.1,65.6-40.7,84.2-60.4,198.1-125.1,265.9-51.2,53.7-132.7,57.8-237.8,22.7-142.1-48.1-290.2-200-396.4-172.5-88.8,23-90.1,64.5-154.3,103-53.4,32-104-4-149.5-35.2S678.1,186,593.5,155.3c-39.2-14.2-78.3,5.6-117,38.6C432,231.8,399.6,291.3,379,331.1c-36.4,70-159.3,125.8-241.7,134.6C13.1,478.6-87.9,670.9-158.8,715.2"/><path class="cls-5" d="M2239.6,507c-225.1-32.2-211.2-324.4-287.8-377.5-32.3-22.4-44.4-3.3-77.5,60.3-43.2,82.9-64.6,195.4-128.6,263.4-51.7,54.9-131.7,62-236,27.3-140.6-46.8-285.1-204.5-391.8-179-89.1,21.3-90.1,64.1-151.6,104.2-51,33.2-99.9,1.2-146.4-26.7-49.8-29.8-129.6-176.5-214.5-208.8-39-14.9-78.2,3.2-117.4,34.6-45.3,36.3-78.2,94.8-99.7,134.7-37.2,69.1-156.7,124.9-240.1,132.7C22.7,483.6-75.3,675.1-149.9,716.9"/><path class="cls-5" d="M2239.1,520.1c-225.4-31.8-209.5-322.1-281.5-378.9-30.9-24.4-42.8-8-78,54.9-45.7,81.6-68.8,192.8-132.1,260.9-52.2,56.2-130.7,66-234.3,31.9C1374,443,1233,279.7,1125.7,303.3c-89.4,19.7-90.1,63.7-148.9,105.4-48.7,34.5-95.8,6.4-143.3-18.1C781,363.5,702.6,219,617.5,184.9c-38.8-15.5-78.1.8-117.9,30.7-46.2,34.6-79.4,92.1-101.8,132.2-37.9,68.2-154.2,124-238.4,130.9-127.1,9.9-222,200.7-300.6,240.1"/><path class="cls-5" d="M2237.9,533.2c-225.6-31.5-207.7-319.8-275.2-380.4-29.4-26.4-41.2-12.6-78.4,49.6-48.1,80.3-73,190.1-135.6,258.4-52.6,57.4-129.7,70-232.5,36.5-137.3-44.8-274.9-213.6-382.7-191.9-89.8,18.1-90.1,63.3-146.2,106.6-46.4,35.8-91.8,11.7-140.2-9.6-55.3-24.5-132.1-167-217.5-202.8-38.6-16.2-77.9-1.6-118.4,26.8-47,32.9-80.7,89.4-103.9,129.7-38.7,67.2-151.7,123.2-236.8,129C41.9,493.6-49.7,683.7-132.3,720.5"/><path class="cls-5" d="M2237.2,546.4c-225.9-31.1-205.8-317.7-268.9-381.8-28-28.5-39.5-17.3-78.9,44.2-50.6,79-77.2,187.5-139.1,255.8-53.1,58.7-128.7,74-230.8,41.1-135.7-43.8-269.7-218.1-378.1-198.3-90.1,16.4-90.2,62.9-143.5,107.8-44.1,37-87.8,17.1-137-1.1-58.1-21.4-133.5-162-219.1-199.5-38.4-16.8-77.8-4-118.9,22.8-47.8,31.3-81.9,86.8-106,127.3C377.5,431,267.8,487,181.7,491.9c-130.1,7-218.5,196.5-305,230.6"/><path class="cls-5" d="M2235.9,559.2c-226.2-30.7-203.9-315.6-262.5-383.3-26.5-30.6-37.9-21.9-79.3,38.9-53,77.7-81.4,184.8-142.6,253.3-53.6,60-127.6,78-229,45.7C1388.4,471,1257.9,291.1,1148.9,309c-90.4,14.8-90.2,62.5-140.9,108.9-41.8,38.3-83.9,22.6-133.9,7.5C813.1,407,739.3,268.3,653.5,229c-38.2-17.5-77.7-6.4-119.3,18.9-48.7,29.6-83.1,84.1-108.1,124.8C386,438.1,279.5,494.1,192.5,498,61.1,503.6-24,692.8-114.6,724"/><path class="cls-5" d="M2235,572.4c-226.5-30.3-201.9-313.6-256.2-384.8-25-32.7-36.2-26.5-79.8,33.5-55.5,76.5-85.6,182.2-146.1,250.8-54,61.2-126.6,82-227.3,50.3-132.4-41.8-259.5-227.2-369-211.3-90.7,13.2-90.2,62.1-138.2,110.1-39.4,39.5-80,28.1-130.8,16C824,422,751.8,285,665.7,244c-38-18.1-77.6-8.8-119.8,15-49.5,27.9-84.4,81.5-110.2,122.3-40.8,64.5-144.1,120.5-232,123.4-133.1,4-214.9,192.9-309.5,221.1-119.6,35.7-284.5-93.4-363.7-173.5"/><path class="cls-5" d="M2234.5,585.6c-226.7-29.9-199.8-311.6-249.9-386.2-23.4-34.9-34.6-31.1-80.2,28.2-57.9,75.2-89.7,179.6-149.6,248.3-54.5,62.5-125.6,86.1-225.5,54.9-131-40.9-254.6-231.8-364.7-217.8-91.1,11.6-90.2,61.6-135.5,111.3-37.1,40.8-76,33.8-127.7,24.6-66.7-12-137.4-147.4-223.7-190.2-37.8-18.7-77.5-11.2-120.3,11C507,296,471.8,348.6,445.1,389.5c-41.5,63.7-141.5,119.7-230.3,121.6C80.3,513.7,1.7,702.4-96.9,727.6-218.7,758.7-378.8,625-457,542.9"/><path class="cls-5" d="M2233.3,598.7c-227-29.6-197.7-309.6-243.6-387.7-21.8-37.1-32.9-35.7-80.7,22.9-60.3,74-93.9,177-153.1,245.8-54.9,63.8-124.6,90.1-223.8,59.5C1402.9,499.4,1282.8,303,1172.2,315c-91.4,10-90.3,61.2-132.8,112.5-34.8,42-72.1,39.6-124.6,33.1C845.2,452,776.1,318.1,689.5,273.5c-37.6-19.4-77.4-13.7-120.8,7.1-51.2,24.6-86.8,76.2-114.4,117.3-42.1,62.8-139,118.8-228.7,119.7-136,1-211.4,189.7-314,211.7C-212.1,756-367.3,617.6-444.5,533.5"/><path class="cls-5" d="M2232.6,611.8c-227.3-29.2-195.4-307.6-237.3-389.1-20.2-39.2-31.2-40.4-81.1,17.5-62.7,72.7-98,174.4-156.6,243.2-55.3,65.1-123.6,94.1-222,64.1-127.5-38.8-244.2-240.7-355.4-230.6-91.7,8.3-90.3,60.8-130.1,113.7-32.5,43.2-68,45.4-121.5,41.6-72.4-5.1-140-137.6-226.8-183.9-37.5-20-77.3-16.1-121.2,3.2-52.1,22.9-88,73.6-116.5,114.8C421.3,468.2,327.6,524.2,237,524.2c-137.5-.5-209.7,188.2-316.2,207-126.4,22.2-276.7-120.9-352.9-207"/><path class="cls-5" d="M2231.5,624.9c-227.6-28.8-193.1-305.7-231-390.6-18.5-41.4-29.5-45-81.6,12.2C1854,318,1817,418.2,1759.1,487.2c-55.7,66.4-122.5,98.1-220.3,68.7-125.9-37.8-239.1-245.2-350.8-237.1-92.1,6.7-90.3,60.3-127.4,114.9-30.2,44.5-64,51.2-118.4,50.2-75.1-1.5-141.3-132.7-228.4-180.8-37.3-20.6-77.2-18.5-121.7-.8-53,21.2-89.2,71-118.6,112.3-43.4,61.1-133.9,117.1-225.5,116-139-2-208,186.9-318.5,202.2-128.7,17.9-274.1-130.1-349.2-218.2"/><path class="cls-5" d="M2230.7,638.1C2003,609.6,2040.2,334.4,2006.2,246c-16.8-43.6-27.9-49.5-82,6.8C1856.7,323.1,1817.9,422,1760.6,491s-121.5,102.1-218.5,73.3c-124.3-36.8-234-249.8-346.3-243.5-92.4,5.1-90.4,59.9-124.7,116.1-27.9,45.7-59.9,57.1-115.3,58.7C878,497.8,813.1,367.8,725.9,317.9c-37.1-21.2-77.2-21-122.2-4.7C549.9,332.7,513.4,381.6,483,423c-44,60.3-131.4,116.2-223.8,114.2C118.7,533.7,52.9,722.8-61.5,734.7c-131.2,13.6-271.6-139.3-345.6-229.4"/><path class="cls-5" d="M2229.9,651.1c-228.1-28-188.2-301.6-218.3-393.5-15-45.7-26.2-54.1-82.5,1.5-69.9,69-110.5,166.6-167.1,235.7s-120.5,106.1-216.8,77.9c-122.6-35.9-228.9-254.3-341.7-250-92.7,3.5-90.4,59.5-122,117.3-25.6,46.9-55.7,63.1-112.1,67.2C889,513.1,825.4,384.3,738,332.6c-36.9-21.8-77.1-23.4-122.7-8.6-54.7,17.8-91.5,65.8-122.8,107.4-44.7,59.4-128.9,115.3-222.2,112.3-142-4.9-204.7,184.4-322.9,192.8-133.7,9.4-269-148.5-342-240.6"/><path class="cls-5" d="M2228.9,664.1c-228.4-27.7-185.7-299.5-212-395-13.2-47.9-24.5-58.7-82.9-3.9-72.3,67.8-114.6,164-170.6,233.2s-119.5,110.1-215,82.5c-121-34.9-223.8-258.8-337.2-256.4-93,1.9-90.5,59-119.4,118.5-23.3,48.1-51.5,69-109,75.8-82.9,9.7-145.4-118-233-171.5-36.7-22.4-77-25.9-123.1-12.5-55.5,16-92.6,63.2-124.9,104.9-45.3,58.6-126.3,114.4-220.6,110.4-143.3-6.4-202.9,183.4-325,188.1C-180,743.5-310.3,580.6-382.1,486.5"/><path class="cls-5" d="M2228.1,677.2c-228.7-27.3-183.1-297.4-205.7-396.4-11.4-50-22.8-63.3-83.4-9.2-74.7,66.6-118.7,161.4-174.1,230.7-57.3,71.7-118.4,114.1-213.3,87.1C1432.2,555.5,1333,326.1,1219,326.5c-93.4.3-90.6,58.6-116.7,119.7-21.1,49.4-47.2,75-105.9,84.3-85.4,13.6-146.7-113-234.5-168.4C725.3,339,685,333.8,638.3,345.6c-56.4,14.3-93.8,60.6-127,102.4-45.9,57.8-123.8,113.6-219,108.5C147.5,548.7,90.9,738.9-35,740c-138.8,1.2-263.9-166.8-334.7-262.9"/><path class="cls-5" d="M2227.1,690.3c-228.9-26.9-180.6-295.2-199.4-397.9-9.6-52.1-21.1-67.8-83.8-14.6-77.1,65.5-122.8,158.8-177.6,228.1-57.7,73.1-117.4,117.9-211.5,91.7-117.7-33.2-213.5-267.8-328.1-269.4-93.7-1.3-90.7,58.1-114,120.9-18.8,50.6-42.8,81-102.8,92.9C922.3,559.7,862,434.2,774,377c-36.4-23.7-76.8-30.8-124.1-20.4-57.3,12.6-94.9,58.1-129.1,99.9-46.5,57-121.3,112.7-217.4,106.7C157,553.8,103.4,744.5-26.2,741.8c-141.5-2.9-261.4-175.9-331.1-274.1"/><path class="cls-5" d="M2226.4,703.6c-229.2-26.5-177.9-293-193.1-399.4-7.7-54.1-19.4-72.4-84.3-19.9-79.5,64.3-126.9,156.2-181.1,225.6-58.1,74.4-116.3,121.9-209.8,96.3-116-32.2-208.4-272-323.5-275.8-94-2.7-90.8,57.7-111.3,122.1-16.5,51.8-38.5,86.9-99.7,101.4C933.4,575.2,874.1,450.8,786,391.7c-36.2-24.3-76.7-33.3-124.6-24.3-58.1,10.8-96.1,55.5-131.2,97.4C483.1,521,411.5,576.6,314.5,569.6,166.7,558.8,116,749.9-17.3,743.5c-144.3-6.9-258.9-185.1-327.5-285.3"/><path class="cls-5" d="M2225.8,716.7c-229.5-26.1-175.3-290.8-186.8-400.8-5.9-56.2-17.7-76.9-84.7-25.2-81.9,63.1-131,153.6-184.6,223.1-58.4,75.7-115.3,125.9-208,100.9-114.4-31.2-203.3-276.5-319-282.3-94.4-4.4-90.8,57.2-108.6,123.3-14.3,53-34,92.9-96.6,109.9C945,590.8,886.7,467.4,798.3,406.5c-36.1-24.9-76.6-35.8-125-28.3-59,9.1-97.2,53-133.3,95-47.7,55.5-116.2,110.9-214.1,102.9C176.3,563.8,128.5,755.5-8.4,745.3-155.5,734.4-264.8,551-332.2,448.9"/><path class="cls-5" d="M2224.7,729.7C1995,704,2052,441.2,2044.2,327.4c-4-58.2-16-81.4-85.2-30.6-84.2,62-135.1,151.1-188.1,220.6-58.7,77.1-114.3,129.9-206.3,105.5-112.8-30.2-198.2-281.1-314.4-288.7-94.7-6-90.9,56.8-105.9,124.5-12,54.3-29.6,98.9-93.5,118.5C956,606.3,898.6,484,810.1,421.2,774.2,395.7,733.6,383,684.6,389c-59.8,7.4-98.3,50.5-135.4,92.5C501,536.3,435.6,591.6,336.8,582.6,185.9,568.8,140.9,761.1.4,747.1c-150-15-253.9-203.4-320.2-307.6"/><path class="cls-5" d="M2224,742.9c-230-25.4-170-286.1-174.1-403.7-2.1-60.3-14.3-86-85.6-35.9-86.6,60.8-139.2,148.5-191.6,218.1-59.1,78.5-113.3,133.9-204.5,110.1-111.1-29.2-193.1-285.6-309.9-295.2-95-7.6-91.1,56.4-103.2,125.7-9.8,55.5-25.1,104.9-90.4,127-97,33-153.6-88.3-242.3-152.9C786.7,410,746,395.4,696.4,400c-60.7,5.6-99.4,47.9-137.5,90C510,544,447.7,599.2,348,589.2,195.5,573.8,153.3,766.7,9.2,748.8-143.7,729.9-242.2,536.3-307.4,430"/><path class="cls-5" d="M2222.8,755.9c-230.3-25-167.4-283.7-167.8-405.2-.2-62.3-12.6-90.5-86.1-41.3-89,59.7-143.3,145.9-195.1,215.5-59.4,79.8-112.3,137.9-202.8,114.8-109.5-28.2-188-290.1-305.3-301.6-95.4-9.2-91.3,55.9-100.5,126.8-7.6,56.8-20.6,110.8-87.2,135.6-99.2,36.8-155-83.3-243.8-149.8-35.6-26.7-76.3-43.2-126.5-40.1-61.5,3.8-100.5,45.4-139.6,87.5-49.4,53.2-108.6,108.3-209.2,97.4-153.8-16.8-193.3,176.7-340.8,155-155.9-22.9-249-221.7-313-330"/><path class="cls-5" d="M2221.8,769.3c-230.6-24.6-164.7-281.3-161.5-406.7,1.6-64.2-10.9-94.9-86.5-46.6-91.3,58.6-147.2,143.5-198.6,213-59.6,81.3-111.2,141.9-201,119.4-107.9-27.2-182.9-294.6-300.8-308.1-95.7-10.9-91.3,55.5-97.8,128-5.3,58-16,116.8-84.1,144.1C990.2,653,935,534.1,846.2,465.6c-35.5-27.2-76.1-45.8-126.9-44-62.3,2-101.6,42.9-141.7,85C527.6,559.1,471.5,614,370,602.1,214.7,583.8,178,778,26.9,752.4-132,725.5-219.7,521.6-282.4,411.2"/><path class="cls-5" d="M2221.2,782.4C1872.1,745.8,2208.4,182,1979,322.3c-205,125.4-237.1,375-401.3,334.5-106.2-26.2-177.8-299.2-296.2-314.5-172.9-22.5-19.5,214.5-176.2,281.9C960.8,686.4,912,431.8,731,432.7c-140.9.7-164.1,199.6-349.8,176.2-156.8-19.8-190.8,175-345.3,145.5-162-30.9-244.1-240-305.7-352.3"/></g></g></svg>