<?xml version="1.0" encoding="utf-8"?>
<!-- Generator: Adobe Illustrator 24.1.3, SVG Export Plug-In . SVG Version: 6.00 Build 0)  -->
<svg version="1.1" id="Layer_1" xmlns="http://www.w3.org/2000/svg" xmlns:xlink="http://www.w3.org/1999/xlink" x="0px" y="0px"
	 viewBox="0 0 1920 690" style="enable-background:new 0 0 1920 690;" xml:space="preserve">
<style type="text/css">
	.st0{fill:url(#SVGID_1_);}
	.st1{opacity:0.2;clip-path:url(#SVGID_3_);}
	.st2{fill:none;stroke:#FFFFFF;stroke-miterlimit:10;}
</style>
<linearGradient id="SVGID_1_" gradientUnits="userSpaceOnUse" x1="960" y1="28" x2="960" y2="718" gradientTransform="matrix(1 0 0 1 0 -28)">
	<stop  offset="0" style="stop-color:#951847"/>
	<stop  offset="1" style="stop-color:#36002B"/>
</linearGradient>
<rect class="st0" width="1920" height="690"/>
<g>
	<g>
		<g>
			<defs>
				<rect id="SVGID_2_" width="1920" height="690"/>
			</defs>
			<clipPath id="SVGID_3_">
				<use xlink:href="#SVGID_2_"  style="overflow:visible;"/>
			</clipPath>
			<g class="st1">
				<path class="st2" d="M2023.8,277.6c-119.4,13-183.8-118.6-399.9-185.7c-93.3-28.9-310.7,70-453.7-78.3
					c-80.9-83.8-234.3-25.6-332,51.6C724.5,155.1,595.1,333.6,533,472.4c-49.3,110.3-555.5-136.5-716.5-89.9
					C-368.4,436.1-470.8,92.1-485.4,4.1"/>
				<path class="st2" d="M2100.9,275.9c-23.2,2.8-45.6,5.2-66.5,7.6c-119.6,13.9-185.9-113.3-399.7-177.3c-28.8-8.6-69-5.4-115-1.2
					c-106.1,9.4-241.6,27.6-338.5-74c-62.2-65.3-164.9-46.5-255.6-1.2c-26.9,13.6-52.4,29.8-74.9,47.1c-48.4,37-99.5,89.4-147.4,147
					C638.1,302.2,579.9,393.9,541,472c-42.4,85.3-359.4-42.3-568.9-76.4c-58-9.4-108.8-12.8-144-3.3
					c-127.6,34.6-217-117.7-265.8-242.1C-459,95.5-472.6,45.8-477.9,19"/>
				<path class="st2" d="M2111.9,281.1c-23.1,2.9-45.3,5.5-66.2,8c-119.7,14.8-188-108-399.5-168.8c-29-8.3-69.1-4.9-114.7-1
					c-107.7,9.3-243.9,29.4-338.5-71c-62.2-66.1-162.3-48.4-253.9-5.2c-27.1,12.8-52.4,28.7-75,45.5
					c-48.6,36.1-100.2,87.1-148.6,142.3C650,305.5,591.7,395.6,549.9,471.6c-46.3,84.3-361.1-38.2-566.1-67.2
					c-57.1-8.1-107.6-11.1-143.2-2.2c-126.7,32-217.3-118-267.5-239.5c-22-53.3-36.5-102-42.5-128.6"/>
				<path class="st2" d="M2123.1,286.4c-22.9,3.1-45.1,5.8-65.9,8.4c-119.8,15.7-190.2-102.6-399.3-160.4
					c-29.2-8.1-69.1-4.6-114.4-0.9c-109.2,9-246.1,31.1-338.5-68c-62.2-66.8-159.7-50.2-252.2-9.2c-27.3,12.1-52.6,27.5-75.2,43.8
					c-48.9,35.2-100.8,84.8-149.9,137.7C661.9,308.7,603.5,397.1,558.8,471c-50.2,83.3-362.7-34-563.4-58.1
					c-56.1-6.7-106.4-9.5-142.4-1.1c-125.9,29.4-217.5-118.3-269.1-236.9c-22.6-51.9-38-99.6-44.8-126.1"/>
				<path class="st2" d="M2133.5,291.4c-22.8,3.2-44.9,6-65.6,8.9c-119.9,16.7-192.4-97.2-399.1-152c-29.4-7.8-69.2-4.2-114.1-0.7
					c-110.8,8.6-248.3,32.9-338.4-65c-62.2-67.6-157-52-250.5-13.2c-27.4,11.4-52.7,26.3-75.3,42.1c-49.2,34.3-101.4,82.4-151.1,133
					c-66,67.2-124.8,153.9-172.1,225.8C513,552.6,202.8,440.5,6.6,421.4c-55.1-5.4-105.2-7.8-141.5,0
					c-124.9,26.9-217.6-118.6-270.8-234.3C-429,136.6-445.3,90-452.8,63.6"/>
				<path class="st2" d="M2144.4,296.6c-22.7,3.4-44.6,6.3-65.4,9.3c-120.1,17.6-194.6-91.7-399-143.6c-29.6-7.5-69.3-3.8-113.8-0.5
					c-112.4,8.3-250.5,34.6-338.4-62.1c-62.2-68.3-154.4-53.7-248.7-17.2c-27.5,10.7-52.8,25.2-75.5,40.5
					c-49.6,33.4-102,80.1-152.3,128.4C685.2,314.9,625.9,400,575.9,469.7C517.5,551,209.7,444.1,18,429.9c-54.2-4-104-6.2-140.7,1.1
					c-124,24.5-217.7-119-272.5-231.7c-23.9-49.1-41.1-94.7-49.5-121"/>
				<path class="st2" d="M2155.5,301.8c-22.5,3.5-44.4,6.6-65.1,9.7c-120.2,18.5-196.8-86.2-398.8-135.2
					c-29.8-7.2-69.3-3.5-113.5-0.4c-114,8-252.7,36.3-338.4-59.1c-62.2-69.1-151.7-55.5-247-21.2c-27.7,9.9-52.9,24-75.7,38.8
					c-49.9,32.5-102.5,77.7-153.5,123.7C697.3,317.8,637.4,401.3,584.8,469c-62.5,80.4-368-21.4-555.2-30.6
					c-53.3-2.6-102.7-4.5-139.8,2.2c-123,22-217.8-119.3-274.2-229.1c-24.5-47.7-42.6-92.2-51.8-118.4"/>
				<path class="st2" d="M2166.3,307.2c-22.4,3.6-44.2,6.8-64.8,10.1c-120.4,19.2-199-80.6-398.6-126.8c-30-6.9-69.4-3.1-113.2-0.2
					c-115.6,7.7-254.8,37.9-338.4-56.1c-62.1-69.9-149-57.2-245.3-25.2c-27.8,9.2-53,22.8-75.8,37.2
					c-50.2,31.6-102.9,75.2-154.8,119.1c-66.3,56-126.8,137.8-182,203.4c-66.8,79.4-369.8-17.1-552.5-21.4
					c-52.4-1.3-101.5-2.8-139,3.2C-220.1,470.2-316,330.9-374,223.9c-25.1-46.4-44.1-89.7-54.1-115.9"/>
				<path class="st2" d="M2177.3,312.5c-22.2,3.8-43.9,7.1-64.5,10.5c-120.5,20.1-201.3-75-398.4-118.3c-30.2-6.6-69.5-2.7-112.9,0
					c-117.2,7.3-257,39.6-338.4-53.1c-62.1-70.8-146.4-59-243.6-29.3c-27.9,8.5-53.2,21.7-76,35.5c-50.5,30.6-103.3,72.8-156,114.4
					c-66.2,52.3-127.6,132.4-185.3,196c-71.1,78.4-371.7-12.8-549.7-12.3C1,456-47.7,454.8-85.7,460.2
					c-121,17.4-218-119.9-277.6-224c-25.7-45-45.6-87.2-56.4-113.3"/>
				<path class="st2" d="M2188.4,317.8c-22.1,3.9-43.7,7.3-64.3,10.9c-120.6,21-203.6-69.3-398.2-109.9
					c-30.4-6.3-69.5-2.4-112.7,0.1c-118.8,7-259.1,41.2-338.4-50.2c-62.1-71.5-143.6-60.6-241.9-33.2c-28.1,7.8-53.3,20.5-76.2,33.8
					C905.8,199,853,239.7,799.5,279C733.4,327.7,671,406,611,467.5c-75.5,77.4-373.6-8.4-547-3.1c-50.6,1.5-99,0.6-137.3,5.4
					c-120,15.1-218.1-120.2-279.3-221.4c-26.3-43.6-47-84.8-58.7-110.7"/>
				<path class="st2" d="M2199.2,323c-22,4.1-43.5,7.6-64,11.3c-120.8,21.9-205.9-63.6-398-101.5c-30.6-6-69.6-2-112.4,0.3
					c-120.4,6.6-261.2,42.8-338.4-47.2c-62-72.3-140.9-62.3-240.2-37.2c-28.2,7.1-53.4,19.3-76.3,32.2
					c-51.2,28.8-104,67.9-158.4,105.1C745.6,331,682,407.5,619.7,467c-80,76.3-375.6-4-544.3,6c-49.7,2.9-97.7,2.3-136.5,6.5
					C-180,492.3-279.3,359-342.1,260.7c-26.9-42.2-48.5-82.3-61.1-108.2"/>
				<path class="st2" d="M2209.8,328.3c-21.8,4.2-43.2,7.9-63.7,11.7c-120.9,22.8-208.2-57.9-397.8-93.1
					c-30.8-5.7-69.7-1.7-112.1,0.5c-122,6.3-263.3,44.4-338.4-44.2c-62-73.1-138.2-64-238.5-41.3c-28.3,6.4-53.6,18.1-76.5,30.5
					c-51.6,27.9-104.2,65.5-159.6,100.4c-65.7,41.4-130.5,116-195.1,173.6c-84.5,75.3-377.6,0.5-541.5,15.2
					c-48.9,4.4-96.5,4-135.7,7.6C-167,499.9-267.4,368.3-331.8,273c-27.5-40.8-49.9-79.8-63.4-105.6"/>
				<path class="st2" d="M2221.1,333.4c-21.7,4.3-43,8.1-63.4,12.1c-121,23.7-210.5-52.1-397.6-84.7c-31-5.4-69.7-1.4-111.8,0.6
					c-123.6,5.9-265.4,46-338.4-41.2c-61.9-74-135.4-65.7-236.7-45.3c-28.4,5.7-53.7,17-76.6,28.9c-51.9,26.9-104.3,63-160.9,95.8
					C770.4,337.4,704.2,410,637.3,465.7c-89,74.1-379.6,5.1-538.8,24.3c-48,5.8-95.2,5.8-134.8,8.7
					c-116.8,8.5-218.3-121.2-284.3-213.6c-28.1-39.4-51.3-77.3-65.7-103.1"/>
				<path class="st2" d="M2231.6,338.7c-21.5,4.5-42.8,8.4-63.2,12.5c-121.2,24.7-212.9-46.2-397.5-76.2c-31.3-5.1-69.8-1-111.5,0.8
					c-125.1,5.5-267.4,47.6-338.4-38.3c-61.8-74.8-132.7-67.4-235-49.3c-28.5,5-53.8,15.8-76.8,27.2c-52.3,26-104.4,60.6-162.1,91.1
					c-64.9,34.3-132.6,104.9-201.7,158.7c-93.6,72.9-381.7,9.7-536,33.5c-47.2,7.3-93.9,7.5-134,9.8c-115.7,6.4-218.4-121.5-286-211
					c-28.7-38-52.7-74.8-68-100.5"/>
				<path class="st2" d="M2243,343.9c-21.4,4.6-42.5,8.7-62.9,12.9c-121.3,25.6-215.2-40.3-397.3-67.8c-31.5-4.8-69.9-0.7-111.2,1
					c-126.7,5.1-269.5,49.1-338.4-35.3c-61.7-75.7-130-69-233.3-53.3c-28.6,4.4-54,14.6-77,25.5c-52.6,25-104.5,58.2-163.3,86.5
					c-64.4,30.9-133.7,99.2-205,151.2c-98.3,71.7-383.8,14.5-533.3,42.6c-46.4,8.7-92.6,9.3-133.2,10.8
					c-114.6,4.4-218.4-121.8-287.7-208.4c-29.3-36.6-54.1-72.4-70.3-98"/>
				<path class="st2" d="M2253.5,349.1c-21.3,4.7-42.3,8.9-62.6,13.4c-121.4,26.5-217.6-34.3-397.1-59.4
					c-31.7-4.4-69.9-0.4-110.9,1.1c-128.3,4.7-271.5,50.7-338.3-32.3c-61.6-76.5-127.2-70.7-231.6-57.3
					c-28.8,3.7-54.1,13.4-77.1,23.9c-53,24.1-104.5,55.9-164.5,81.8c-63.8,27.5-134.8,93.6-208.2,143.8
					c-103,70.4-385.9,19.3-530.6,51.8C87,526.1,41.2,527,0.3,527.8c-113.5,2.4-218.4-122.1-289.4-205.9
					c-29.9-35.2-55.4-69.9-72.7-95.4"/>
				<path class="st2" d="M2264.4,354.5c-21.1,4.9-42.1,9.2-62.3,13.8c-121.6,27.4-220-28.3-396.9-51c-31.9-4.1-70,0-110.6,1.3
					c-129.9,4.3-273.5,52.2-338.3-29.3c-61.5-77.4-124.5-72.3-229.9-61.3c-28.9,3-54.2,12.2-77.3,22.2
					c-53.3,23.2-104.4,53.6-165.8,77.2c-63.1,24.2-136,87.9-211.5,136.3c-107.7,69.1-388,24.2-527.8,60.9
					c-44.8,11.8-90.1,12.9-131.5,13C-99.9,538-205.9,415.1-278.6,334.3c-30.5-33.9-56.7-67.5-75-92.9"/>
				<path class="st2" d="M2275.1,359.4c-21,5-41.8,9.5-62,14.2c-121.7,28.3-222.4-22.3-396.7-42.6c-32.2-3.7-70.1,0.3-110.3,1.5
					c-131.5,3.9-275.5,53.7-338.3-26.4c-61.4-78.3-121.7-73.9-228.2-65.3c-29,2.3-54.4,11-77.5,20.6c-53.7,22.2-104.3,51.4-167,72.5
					c-62.4,21-137.1,82.1-214.8,128.8c-112.4,67.6-390.1,29.2-525.1,70.1c-44,13.3-88.8,14.7-130.7,14.1
					c-111.3-1.5-218.4-122.8-292.8-200.7c-31-32.5-58.1-65-77.3-90.3"/>
				<path class="st2" d="M2285.8,364.9c-20.8,5.1-41.6,9.7-61.8,14.6c-121.8,29.3-224.8-16.2-396.5-34.2
					c-32.4-3.4-70.1,0.6-110.1,1.6c-133.1,3.4-277.5,55.2-338.3-23.4c-61.3-79.2-119-75.5-226.4-69.3c-29.1,1.7-54.5,9.8-77.6,18.9
					c-54,21.2-104.1,49.3-168.2,67.8c-61.7,17.9-138.3,76.3-218.1,121.4c-117.2,66.2-392.3,34.3-522.4,79.2
					c-43.2,14.9-87.5,16.5-129.8,15.2c-110.2-3.4-218.4-123.1-294.5-198.1c-31.6-31.1-59.4-62.6-79.6-87.8"/>
				<path class="st2" d="M2297.1,370.2c-20.7,5.2-41.4,10-61.5,15c-121.9,30.2-227.2-10.1-396.3-25.7c-32.6-3-70.2,0.9-109.8,1.8
					c-134.7,3-279.4,56.7-338.3-20.4c-61.2-80.1-116.3-77.1-224.7-73.3c-29.2,1-54.7,8.6-77.8,17.2
					c-54.4,20.3-103.9,47.2-169.4,63.2c-60.9,14.8-139.5,70.5-221.4,113.9c-122,64.7-394.4,39.6-519.6,88.4
					c-42.4,16.5-86.2,18.3-129,16.3C-59.8,561.3-169,443.1-246.9,371.1c-32.1-29.7-60.7-60.2-81.9-85.2
					c-140.3-165-442.6-187.3-523.5-147"/>
				<path class="st2" d="M2307.7,375.6c-20.6,5.4-41.1,10.3-61.2,15.4c-122.1,31.1-229.6-3.9-396.1-17.3c-32.8-2.6-70.3,1.2-109.5,2
					c-136.3,2.5-281.4,58.1-338.3-17.4c-61-81-113.5-78.6-223-77.3c-29.3,0.3-54.8,7.4-77.9,15.6c-54.8,19.3-103.7,45.3-170.6,58.5
					C871,367,790.4,419.8,706.4,461.6c-126.8,63.1-396.5,44.9-516.9,97.6c-41.5,18.2-85,20.2-128.2,17.4
					c-108-7.1-218.3-123.9-297.8-192.9c-32.7-28.4-61.9-57.8-84.3-82.7c-144-160.4-436.8-196.7-522-163.4"/>
				<path class="st2" d="M2318.9,380.6c-20.4,5.5-40.9,10.5-60.9,15.8c-122.2,32.1-232,2.3-395.9-8.9c-33.1-2.3-70.3,1.5-109.2,2.1
					c-137.9,2.1-283.3,59.6-338.3-14.5c-60.8-81.9-110.8-80.2-221.3-81.4c-29.5-0.3-54.9,6.2-78.1,13.9
					c-55.2,18.3-103.4,43.4-171.9,53.9c-59.3,9-141.8,58.8-227.9,99c-131.6,61.4-398.5,50.3-514.1,106.7
					c-40.7,19.9-83.7,22-127.3,18.4c-107-8.8-218.2-124.3-299.5-190.3c-33.2-27-63.2-55.4-86.6-80.1
					c-147.7-156-431.1-206.3-520.6-179.9"/>
				<path class="st2" d="M2329.8,386.1c-20.3,5.6-40.7,10.8-60.7,16.2c-122.3,33-234.4,8.6-395.8-0.5c-33.3-1.9-70.4,1.8-108.9,2.3
					c-139.5,1.6-285.2,61-338.3-11.5c-60.6-82.9-108-81.7-219.6-85.4c-29.6-1-55.1,5-78.3,12.3c-55.5,17.3-103.2,41.7-173.1,49.2
					c-58.5,6.3-143,52.9-231.2,91.6c-136.3,59.8-400.5,55.8-511.4,115.9c-39.9,21.6-82.4,23.9-126.5,19.5
					c-105.9-10.6-218.1-124.6-301.2-187.8c-33.8-25.7-64.5-53.1-88.9-77.6c-151.4-151.6-425.4-215.8-519.2-196.4"/>
				<path class="st2" d="M2340.5,391.6c-20.2,5.7-40.4,11.1-60.4,16.6c-122.4,34-236.8,14.9-395.6,7.9c-33.5-1.5-70.5,2.2-108.6,2.5
					c-141.1,1.1-287.1,62.5-338.3-8.5c-60.4-83.8-105.3-83.2-217.9-89.4c-29.7-1.6-55.2,3.8-78.4,10.6
					c-55.9,16.3-103,40.1-174.3,44.6c-57.7,3.6-144.2,47-234.5,84.1c-141.1,58-402.4,61.4-508.7,125c-39,23.3-81.2,25.8-125.7,20.6
					C-6.7,593.3-120,480.5-204.8,420.4c-34.3-24.3-65.7-50.7-91.2-75C-451,198-715,136.8-813.8,132.5"/>
				<path class="st2" d="M2351.6,396.7c-20,5.9-40.2,11.4-60.1,17c-122.7,34.7-239.4,21.1-395.5,16.1c-33.8-1.1-70.5,2.5-108.3,2.6
					c-142.7,0.6-289,63.9-338.3-5.5c-60.2-84.8-102.6-84.8-216.2-93.4c-29.8-2.3-55.4,2.6-78.6,8.9
					c-56.3,15.3-102.8,38.6-175.5,39.9c-57,1-145.4,41-237.8,76.7c-145.9,56.2-404.2,67.1-505.9,134.2
					c-38.1,25.1-79.9,27.7-124.8,21.7c-103.7-14-218-125.5-304.6-182.6c-34.8-23-66.9-48.4-93.5-72.4
					C-446.2,216.6-701.9,140.1-804,130.5"/>
				<path class="st2" d="M2362.3,401.7c-19.9,6-40,11.6-59.8,17.4c-122.7,35.8-241.6,27.7-395.2,24.8c-34-0.6-70.6,2.8-108,2.8
					c-144.3,0.1-290.8,65.3-338.3-2.6c-59.9-85.8-99.9-86.3-214.4-97.4c-29.9-2.9-55.5,1.4-78.7,7.3
					c-56.6,14.3-102.7,37.3-176.8,35.2c-56.3-1.5-146.5,35.1-241.1,69.2c-150.7,54.4-406,72.9-503.2,143.3
					c-37.1,26.9-78.6,29.7-124,22.8c-102.7-15.6-217.9-125.9-306.3-180c-35.4-21.6-68.2-46.1-95.9-69.9
					c-162.1-139.3-409.3-231-514.9-245.9"/>
				<path class="st2" d="M2373.3,407c-19.7,6.1-39.7,11.9-59.6,17.8c-122.8,36.8-244,34.1-395,33.2c-34.2-0.2-70.7,3.1-107.7,3
					c-145.9-0.4-292.7,66.7-338.3,0.4c-59.6-86.8-97.1-87.7-212.7-101.4c-30.1-3.5-55.7,0.2-78.9,5.6c-57,13.3-102.6,36-178,30.6
					c-55.6-4-147.7,29.1-244.4,61.7c-155.5,52.6-407.6,78.7-500.5,152.5C222,639.2,180.8,642,135,634.3
					C33.3,617-82.8,507.9-173,456.9c-35.9-20.3-69.4-43.8-98.2-67.3c-165.7-135.3-404.1-242.2-513.5-262.3"/>
				<path class="st2" d="M2384.4,412.2c-19.6,6.2-39.5,12.2-59.3,18.3c-122.9,38-246.4,40.6-394.8,41.6
					c-34.4,0.2-70.8,3.4-107.5,3.1c-147.5-0.9-294.5,68.1-338.2,3.4c-59.3-87.8-94.4-89.2-211-105.4c-30.2-4.2-55.8-1-79.1,4
					c-57.4,12.3-102.6,34.9-179.2,25.9c-55-6.4-148.8,23-247.6,54.3C607.5,508.1,358.5,541.9,270,619
					c-35.1,30.6-76.1,33.6-122.3,24.9C47,625-70,517-162,469.1c-36.4-19-70.6-41.6-100.5-64.8c-169.6-131.5-399-253.3-512.4-278.8"
					/>
				<path class="st2" d="M2395,417.4c-19.5,6.3-39.2,12.5-59,18.7c-123,38.9-248.8,47.1-394.6,50c-34.7,0.7-70.8,3.7-107.2,3.3
					c-149.1-1.5-296.3,69.5-338.2,6.4c-59-88.8-91.7-90.7-209.3-109.4c-30.3-4.8-55.9-2.2-79.2,2.3
					c-57.8,11.3-102.7,33.9-180.4,21.3c-54.5-8.8-149.9,17-250.9,46.8c-165,48.7-410.6,90.3-495,170.8
					c-34.1,32.5-74.9,35.6-121.5,26C60,633.2-57.9,526.2-151.7,481.4c-37-17.7-71.8-39.3-102.8-62.2
					c-172.8-127.7-393-264.5-510.7-295.3"/>
				<path class="st2" d="M2405.6,422.7c-19.3,6.5-39,12.7-58.7,19.1c-123.1,39.8-251.1,53.6-394.4,58.5
					c-34.9,1.2-70.9,3.9-106.9,3.5c-150.7-2-298.1,70.9-338.2,9.3c-58.6-89.9-89-92.2-207.6-113.4c-30.4-5.5-56.1-3.5-79.4,0.7
					c-58.1,10.2-102.8,32.9-181.6,16.6c-54.1-11.2-151,11-254.2,39.4c-169.7,46.7-412,96.2-492.2,179.9
					c-33,34.4-73.7,37.6-120.7,27.1c-98.7-22-217.5-127.9-313-169.6c-37.5-16.4-73-37.1-105.1-59.7
					c-176.4-124-387.3-275.5-509.3-311.8"/>
				<path class="st2" d="M2416.8,428c-19.2,6.6-38.8,13-58.5,19.5c-123.2,40.8-253.5,60.2-394.3,66.9c-35.1,1.7-71,4.2-106.6,3.6
					c-152.3-2.6-299.9,72.3-338.2,12.3c-58.1-91-86.3-93.6-205.9-117.4c-30.6-6.1-56.2-4.7-79.6-1c-58.5,9.2-103.1,32.1-182.9,12
					c-53.7-13.5-152.1,4.9-257.5,31.9c-174.5,44.7-413.2,102-489.5,189.1c-31.8,36.3-72.5,39.6-119.8,28.2
					C86.3,649.6-33.4,544.6-130.7,506c-38-15.1-74.2-34.9-107.5-57.1c-180-120.5-381.4-286.5-507.8-328.3"/>
				<path class="st2" d="M2427.5,433.3c-19.1,6.7-38.5,13.3-58.2,19.9c-123.4,41.7-255.8,66.8-394.1,75.3
					c-35.3,2.2-71,4.5-106.3,3.8c-153.9-3.2-301.7,73.6-338.2,15.3c-57.6-92.1-83.7-95-204.2-121.4c-30.7-6.7-56.4-5.9-79.7-2.7
					c-58.9,8.1-103.4,31.3-184.1,7.3c-53.4-15.9-153.2-1.2-260.8,24.5c-178.9,42.5-414.1,107.6-486.5,198
					c-30.6,38.2-71.3,41.6-119,29.3C99.6,657.6-20.9,553.5-120,518.1c-38.6-13.8-75.5-32.7-109.8-54.6
					C-413.4,346.6-605.2,166-736.2,118.7"/>
				<path class="st2" d="M2438.6,438.2c-19,6.8-38.3,13.6-57.9,20.3c-123.5,42.6-258.1,73.4-393.9,83.7c-35.5,2.7-71.1,4.8-106,4
					c-155.4-3.8-303.4,75-338.2,18.3c-57.1-93.2-81-96.5-202.4-125.5c-30.8-7.4-56.5-7.1-79.9-4.3c-59.2,7.1-103.9,30.5-185.3,2.7
					c-53.2-18.2-154.3-7.3-264,17C627.1,495.1,395.6,568,327,661.8c-29.3,40.1-70.1,43.7-118.2,30.4
					C112.9,665.7-8.4,562.6-109.3,530.3c-39.1-12.5-76.7-30.5-112.1-52c-187.3-113.5-369.3-308.4-505-361.3"/>
				<path class="st2" d="M2449.4,443.6c-18.8,6.9-38.1,13.8-57.6,20.7c-123.6,43.6-260.4,80.1-393.7,92.1
					c-35.7,3.2-71.1,5.1-105.7,4.1c-157-4.6-305.2,76.4-338.2,21.2c-56.5-94.4-78.4-97.7-200.7-129.5c-31-7.9-56.7-8.4-80-6
					c-59.6,5.9-104.4,29.8-186.5-2c-53-20.5-155.4-13.4-267.3,9.5C631.1,492.3,403.4,573,338.4,670.3c-28,42-68.9,45.7-117.3,31.5
					c-95-28-217.2-130.3-319.8-159.3c-39.7-11.2-77.9-28.4-114.4-49.5c-191-110.1-363.1-319.3-503.6-377.8"/>
				<path class="st2" d="M2460.4,449.1c-169.7,63.5-377.9,131.4-556.4,125.7c-158.6-5.1-306.9,77.7-338.2,24.2
					c-55.9-95.6-75.7-99.3-199-133.5c-110.7-30.7-152.9,35.4-268-14.3C956.2,389.6,447.3,518.6,349.6,679
					c-78.2,128.4-279.5-84.9-438-124.2c-248.2-61.4-445.5-364.7-618.9-441.2"/>
			</g>
		</g>
	</g>
</g>
</svg>
