<svg id="Layer_1" data-name="Layer 1" xmlns="http://www.w3.org/2000/svg" xmlns:xlink="http://www.w3.org/1999/xlink" viewBox="0 0 1920 690"><defs><style>.cls-1,.cls-5{fill:none;}.cls-2{fill:url(#linear-gradient);}.cls-3{clip-path:url(#clip-path);}.cls-4{opacity:0.2;}.cls-5{stroke:#fff;stroke-miterlimit:10;}</style><linearGradient id="linear-gradient" x1="960" y1="692" x2="960" y2="2" gradientTransform="matrix(1, 0, 0, -1, 0, 692)" gradientUnits="userSpaceOnUse"><stop offset="0" stop-color="#951847"/><stop offset="1" stop-color="#5b034c"/></linearGradient><clipPath id="clip-path"><rect class="cls-1" width="1920" height="690"/></clipPath></defs><rect class="cls-2" width="1920" height="690"/><g class="cls-3"><g class="cls-4"><path class="cls-5" d="M2550.8,228.2C2371,171,1556.1,52.6,1227.2,293.6c-137,100.4-111.5,106.5-337,51.4-251-61.3-310.5-263.9-529-255.7C234.7,94-119,102.8-103.5,224.1c24.1,188.7-338.4,234.2-589.3,177.7-107.7-24.3,132.9,186.8,124.5,146.9"/><path class="cls-5" d="M2553,239.4c-108-32-428.4-93.4-739.4-86.7-135.3,2.9-269.4,25.1-384.9,60.9-72.9,22.5-139,50.5-192.6,87.7-137.3,95.4-115.7,98.5-337.1,47.1C681.5,297.9,604.7,142.5,447.9,104.6a301,301,0,0,0-78.2-7.9c-125.7,3.6-476.1,12.6-465,134.2q3.3,36.3-10.4,65.7c-61.1,131.5-363.5,149.9-580.5,108.1-108.4-20.9,109.3,179.6,98,137.7"/><path class="cls-5" d="M2555.3,250.6c-111.1-30.2-429.8-99-736.6-94.2-133.5,2.1-265.9,30.7-380.6,67.8-72.2,23-138.7,49.5-192.9,85.1-137.4,90.4-119.9,90.6-337.1,42.8S611,153.4,456.2,113.4c-23.4-6.1-49.2-9.3-77.8-8.9C253.2,106.7-93.9,115.8-87.2,237.9c1.3,23.9-2.3,45.5-11.7,65-62.9,130.7-365.1,139.4-580.9,105C-789,390.5-594,580.5-608.2,536.4"/><path class="cls-5" d="M2557.9,261.6C2443.7,233,2126.6,157.2,1824,159.9c-131.7,1.2-262.2,36.7-376.4,74.6-71.4,23.7-138.4,48.5-193.2,82.5-137.5,85.5-124.2,82.8-337.2,38.5C700.7,310.4,617.3,163.9,464.6,121.8a284.9,284.9,0,0,0-77.5-10C262.6,112.4-81.2,121.9-79,244.5c.4,23.5-3.4,44.9-13,64.3-64.7,129.9-366.9,129.1-581.2,101.8-110-14,62.4,165.9,45.2,119.3"/><path class="cls-5" d="M2560,272.9c-117.1-27.2-432.6-110.1-731-109.4-129.8.3-258.6,42.4-372.2,81.4-70.7,24.3-138.1,47.5-193.4,79.9-137.6,80.5-128.5,75-337.3,34.1C710,316.6,623.5,174.5,472.7,130.2c-22.8-6.8-48.4-10.8-77.1-11C271.7,118.4-68.6,127.9-71,251.1c-.4,23.2-4.4,44.3-14.3,63.5-66.6,129.1-368.8,118.8-581.6,98.7-110.9-10.5,39.2,159.3,18.7,110.1"/><path class="cls-5" d="M2562.4,283.8c-120.1-25.6-433.9-115.7-728.3-117-128-.5-255,48-367.9,88.2-70,24.9-137.7,46.5-193.7,77.3-137.5,75.6-132.9,67.3-337.3,29.8C719.5,322.6,629.8,184.9,481.1,138.5c-22.5-7.1-48-11.5-76.7-12-123.2-2.2-460.1,7.2-467,131.2-1.3,22.8-5.4,43.7-15.5,62.8C-146.5,448.8-448.9,429.2-660,416c-111.9-7,16,152.8-7.7,100.9"/><path class="cls-5" d="M2564.8,295c-123.1-24.1-435.3-121.3-725.5-124.6-126.2-1.4-251.4,53.7-363.7,95-69.2,25.5-137.4,45.5-194,74.6-137.4,70.7-137.3,59.7-337.4,25.5C728.9,328.8,636,195.5,489.3,146.9c-22.2-7.4-47.5-12.2-76.3-13.1-122.6-3.5-455.9,5.6-467.5,130.5-2.1,22.4-6.4,43.1-16.8,62.1-70.3,127.5-372.8,98.7-582.3,92.3-112.9-3.4,2.6,140.4-34.2,91.8"/><path class="cls-5" d="M2567.1,306.6C2441,284,2130.4,179.7,1844.4,174.4c-124.3-2.2-247.8,59.4-359.5,101.9-68.5,26-137,44.5-194.3,72-137.3,65.9-141.7,52.1-337.4,21.2-215-33.9-311-162.8-455.6-213.6-21.9-7.8-47.1-13-75.9-14.1-121.9-4.9-451.6,3.9-468,129.8-2.9,22-7.5,42.6-18.1,61.4-72.1,126.7-374.9,88.8-582.7,89.2-113.9.2-19.1,132.6-60.6,82.6"/><path class="cls-5" d="M2569.7,317.7c-129.1-21.2-438.1-132.5-719.9-139.8-122.5-3.1-244.2,65.1-355.2,108.7-67.8,26.6-136.5,43.6-194.6,69.4-137,61.1-146.1,44.5-337.5,16.8C747.8,341.7,648.8,217.2,506.1,164.3a248.9,248.9,0,0,0-75.5-15.1c-121.4-6.3-447.3,2-468.6,129-3.6,21.6-8.5,42-19.4,60.7-74,126-377.1,79.1-583,86-115,3.9-40.8,124.9-87,73.4"/><path class="cls-5" d="M2571.8,328.6c-132-19.7-439.4-138.1-717.1-147.4-120.7-4-240.6,70.8-351,115.5-67.1,27.2-136.1,42.6-194.9,66.8C1172,419.8,1158.2,400.6,971.2,376,756.7,347.8,654.7,227.5,514.1,172.5A246.3,246.3,0,0,0,439,156.3C318.5,149-3.5,156.9-29.8,285c-4.3,21.1-9.5,41.4-20.7,59.9-75.8,125.2-379.3,69.5-583.4,82.9C-750,435.4-696.4,544.9-747.4,492"/><path class="cls-5" d="M2574.1,339.7c-135-18.2-440.8-143.7-714.3-154.9-118.8-4.8-237,76.4-346.8,122.3-66.3,27.7-135.6,41.7-195.2,64.2-136.4,51.6-155.1,29.7-337.6,8.2-214.1-25-319.2-141-457.8-198.2-21.1-8.8-45.9-15.1-74.7-17.2-119.9-8.9-438-1.6-469.4,127.6-5,20.7-10.6,40.8-22,59.2-77.7,124.4-381.6,60.1-583.7,79.7-117.3,11.4-84.2,109.4-139.9,55"/><path class="cls-5" d="M2576.6,351.3c-138-16.8-442.2-149.2-711.5-162.5-117-5.7-233.4,82.1-342.5,129.1-65.6,28.3-135.1,40.7-195.5,61.6-136,47-159.6,22.4-337.7,3.9C775.3,361.1,667.2,249.6,530.8,190c-20.8-9.1-45.5-15.8-74.3-18.2C337.2,161.6,23.3,168.3-13.3,298.7-19,319-24.8,338.9-36.5,357.2c-79.3,123.7-383.9,50.8-584.1,76.6C-739,449.1-726.5,535.5-787,479.6"/><path class="cls-5" d="M2578.7,362.4c-140.9-15.4-443.6-154.8-708.8-170.1-115.2-6.6-229.8,87.7-338.3,135.9-64.9,28.8-134.6,39.9-195.8,59-135.6,42.4-164.2,15.2-337.8-.4C784.1,367.5,673,260.2,538.6,198.4c-20.5-9.4-45.1-16.5-73.9-19.3C346.4,167.5,36.8,173.6-5.2,305.2-11.5,325-17.8,344.9-29.7,363c-81.1,122.9-386.2,41.6-584.4,73.4-119.6,19.2-127.6,93.9-192.8,36.7"/><path class="cls-5" d="M2580.8,373.4c-143.9-14-445-160.4-706-177.7-113.3-7.4-226.2,93.4-334.1,142.8-64.2,29.4-134.1,39-196.1,56.4-135.1,37.9-168.7,8-337.8-4.8C793.5,374,679.6,270.7,547.2,206.8c-20.2-9.8-44.7-17.2-73.5-20.3C355.8,173.7,50.5,179.2,2.9,312c-7,19.4-13.6,39.1-25.8,57-83,122.1-388.5,32.6-584.8,70.3-120.8,23.2-149.4,86.2-219.3,27.5"/><path class="cls-5" d="M2583.9,384.5c-146.9-12.5-446.3-166-703.2-185.3-111.5-8.3-222.6,99-329.8,149.6-63.4,29.9-133.5,38.1-196.4,53.8-134.6,33.5-173.3,1-337.9-9.1C802.9,380.4,686.1,281.3,555.7,215.2c-19.9-10.1-44.3-17.9-73.1-21.3-117.3-14.1-418-9.1-471.2,124.8-7.6,19-14.6,38.5-27.1,56.3-84.8,121.4-390.8,23.6-585.2,67.1"/><path class="cls-5" d="M2586,395.8c-149.8-11.1-447.7-171.6-700.4-192.9-109.7-9.1-219,104.6-325.6,156.4-62.7,30.5-132.9,37.3-196.6,51.2-134,29.1-178-6-337.9-13.4-213.8-9.9-333.5-105-461.8-173.3-19.6-10.4-43.9-18.6-72.7-22.4C374.4,186,78.4,190.5,19.3,325.5,11.2,344.1,3.7,363.4-9,381.1c-86.6,120.6-393,14.8-585.5,64"/><path class="cls-5" d="M2588.5,407c-152.8-9.7-449.1-177.2-697.6-200.5-107.8-10-215.4,110.3-321.3,163.2-62,31-132.4,36.5-196.9,48.5-133.5,24.8-182.6-12.9-338-17.7C820.7,394,698.3,302.7,572,232.3c-19.3-10.8-43.5-19.3-72.3-23.4-116-16.7-407.2-12.7-472.2,123.4-8.7,18.2-16.7,37.3-29.6,54.9C-90.6,506.9-397.4,393.3-588,448"/><path class="cls-5" d="M2590.3,418.3c-155.8-8.4-450.5-182.8-694.8-208-106-10.9-211.8,115.9-317.1,170-61.3,31.5-131.8,35.8-197.2,45.9-132.9,20.6-187.2-19.7-338.1-22.1C829.5,400.8,704.2,313.4,580,240.9c-19-11.1-43.1-20-71.9-24.4C393,198.4,106.8,202,35.7,339,26.5,356.8,18,375.7,4.8,393.1c-90.3,119-397.5-2.4-586.2,57.7"/><path class="cls-5" d="M2592.9,429.2c-158.7-7-451.8-188.4-692.1-215.6-104.1-11.6-208.1,121.6-312.8,177-60.6,32.1-131.2,35.1-197.5,43.3-132.3,16.5-191.9-26.5-338.1-26.4-213.6.2-341.7-83.5-463.9-158.2-18.8-11.5-42.7-20.7-71.5-25.5-114.7-19.2-395.9-16-473.1,121.9-9.8,17.4-18.7,36.2-32.2,53.4C-80.5,517.3-388,388.2-574.9,453.6"/><path class="cls-5" d="M2595.2,440.5c-161.7-5.6-453.2-194-689.3-223.2-102.3-12.6-204.6,127.1-308.6,183.7-59.9,32.6-130.6,34.4-197.8,40.7-131.6,12.4-196.6-33.1-338.2-30.7-213.6,3.7-344.4-76.3-464.6-153.1-18.5-11.8-42.3-21.3-71.1-26.5C411.6,210.9,135.6,214,52,352.6c-10.3,17-19.8,35.6-33.5,52.7-94,117.4-401.8-19.3-587,51.4"/><path class="cls-5" d="M2597.8,452.2c-164.7-4.2-454.6-199.5-686.5-230.8-100.5-13.5-201.1,132.7-304.4,190.5-59.2,33.1-130,33.8-198.1,38.1-131,8.4-201.2-39.7-338.2-35-213.7,7.3-347.2-69.2-465.4-148.1-18.2-12.1-41.9-22-70.7-27.5C421,217.1,150.3,220,60.3,359.3c-10.8,16.7-20.8,35-34.8,52-95.9,116.6-403.8-27.7-587.3,48.2"/><path class="cls-5" d="M2600.5,462.3c-167.7-2.9-456-205.1-683.7-238.4-98.7-14.3-197.5,138.3-300.2,197.3-58.5,33.6-129.4,33.2-198.4,35.5-130.4,4.4-205.9-46.2-338.3-39.3-213.7,11.1-350-62-466.2-143.1-17.9-12.5-41.5-22.7-70.3-28.6-112.7-23-378-20.1-474.5,119.8-11.3,16.3-21.8,34.4-36.1,51.2C-65,532.5-373,380.7-554.9,461.8"/><path class="cls-5" d="M2602.2,473.7c-170.6-1.5-457.3-210.7-680.9-246-96.8-15.2-193.9,143.9-295.9,204.1-57.8,34.1-128.8,32.6-198.7,32.9-129.9.6-210.6-52.6-338.4-43.7-213.7,15-352.8-54.8-466.9-138-17.6-12.8-41.1-23.4-69.9-29.6-112.1-24.2-371.8-21.2-475,119.1-11.8,16-22.9,33.8-37.3,50.5-99.6,115-407.8-44.2-588,41.9"/><path class="cls-5" d="M2604.4,485.5c-173.6-.2-458.7-216.3-678.1-253.6-95-16-190.3,149.4-291.7,211-57.1,34.6-128.3,32.1-199,30.3-129.3-3.3-215.3-58.9-338.4-48-213.8,19-355.5-47.7-467.7-133-17.3-13.2-40.7-24.1-69.5-30.6C448.9,235.8,194.7,239,84.8,379.6c-12.2,15.7-23.9,33.2-38.6,49.8-101.7,114-409.7-52.4-588.4,38.8"/><path class="cls-5" d="M2607,496.3c-176.6,1.2-460.1-221.9-675.3-261.2-93.2-16.9-186.8,155-287.5,217.8-56.4,35.1-127.7,31.6-199.3,27.7-128.8-7-219.9-65.2-338.5-52.3-213.7,23.2-358.3-40.5-468.4-128-17-13.5-40.3-24.8-69.1-31.7C458.2,242.1,209.7,245.6,93,386.4,80.3,401.8,68.1,419,53.1,435.5-50.4,548.6-358.4,374.9-535.6,471"/><path class="cls-5" d="M2609.3,507.4c-179.5,2.5-461.5-227.5-672.6-268.7-91.3-17.8-183.2,160.6-283.2,224.6-55.7,35.6-127.2,31.1-199.6,25.1-128.2-10.7-224.5-71.3-338.5-56.6-213.7,27.6-361.1-33.3-469.2-122.9-16.7-13.8-39.9-25.4-68.7-32.7-110.1-27.8-352.9-23.9-476.4,116.9-13.2,15.1-26,32-41.2,48.3-105.4,112.4-413.2-68.6-589.1,32.5"/><path class="cls-5" d="M2611.5,518.7c-182.5,3.9-462.9-233.1-669.8-276.3-89.5-18.6-179.7,166.1-279,231.4-55,36.1-126.6,30.7-199.9,22.4-127.8-14.4-229.2-77.4-338.6-61-213.6,32.1-363.7-26.4-469.9-117.9-16.4-14.2-39.5-26.1-68.3-33.7-109.5-29-346.4-24.5-476.9,116.2-13.7,14.8-27,31.4-42.5,47.6C-40.3,559.1-348,370.9-522.5,476.8"/><path class="cls-5" d="M2614,529.9c-185.5,5.2-464.2-238.7-667-283.9-87.7-19.5-176.1,171.7-274.8,238.2-54.3,36.6-126.1,30.3-200.1,19.8-127.3-18-233.7-83.4-338.7-65.3-213.4,37-366.3-19.1-470.6-112.8-16.1-14.6-39.1-26.8-67.9-34.8-108.9-30.2-340-25-477.3,115.5-14.2,14.5-28,30.9-43.7,46.9C-35.3,564.3-342.7,368.8-516,479.7"/><path class="cls-5" d="M2616.4,541c-188.5,6.5-465.6-244.3-664.2-291.5-85.8-20.4-172.6,177.2-270.5,245-53.6,37.1-125.7,30-200.4,17.2-126.9-21.6-238.3-89.3-338.7-69.6-213.2,41.9-369.2-12-471.4-107.8-15.8-14.9-38.7-27.4-67.5-35.8-108.2-31.4-333.5-25.4-477.8,114.8-14.7,14.2-29.1,30.3-45,46.2-110.9,110-418.1-92.7-590.2,23"/><path class="cls-5" d="M2618.5,552.3c-191.5,7.9-467-249.8-661.4-299.1C1873.1,232,1788,436,1690.8,505.1c-52.9,37.6-125.2,29.6-200.7,14.6-126.6-25.2-242.8-95.2-338.8-73.9C938.4,493,779.3,441,679.1,343c-15.5-15.2-38.3-28.1-67.1-36.8-107.6-32.6-326.9-25.6-478.3,114-15.1,14-30.1,29.7-46.3,45.5C-25.4,574.9-332.2,364.9-503.1,485.5"/><path class="cls-5" d="M2621.1,563.6c-194.5,8.8-468.4-255.4-658.6-306.7-82.2-22.1-165.6,188.3-262,258.7-52.2,38.1-124.8,29.3-201,12-126.3-28.7-247.2-101-338.8-78.2-212.4,52.7-374.7,2.3-472.9-97.8-15.2-15.6-37.9-28.8-66.7-37.9C514.1,279.9,300.7,288,142.4,427c-15.6,13.7-31.1,29.1-47.6,44.7-114.6,108.4-421-108.8-590.9,16.7"/><path class="cls-5" d="M2623.4,574.5c-197.4,10.2-469.7-261-655.8-314.3-80.3-22.9-162,193.8-257.8,265.5-51.6,38.6-124.4,29.1-201.3,9.4-126-32.2-251.6-106.7-338.9-82.6C957.8,511.3,792,462.2,695.9,360c-14.9-15.9-37.5-29.4-66.3-38.9-106.4-35-313.8-25.8-479.2,112.6-16.1,13.5-32.1,28.5-48.9,44C-15,585.3-320.9,360.9-489.8,491.2"/><path class="cls-5" d="M2625.8,585.6c-200.4,11.7-471.1-266.6-653.1-321.8-78.5-23.8-158.5,199.3-253.6,272.3-50.9,39.1-124,28.8-201.6,6.8-125.8-35.7-255.9-112.4-339-86.9-210.9,64.8-380.3,16.7-474.4-87.7-14.6-16.3-37.1-30.1-65.9-39.9-105.7-36.1-307.3-25.7-479.7,111.9-16.6,13.3-33.2,27.9-50.2,43.3C-10,590.5-315.3,358.9-483.2,494.1"/><path class="cls-5" d="M2628.1,596.7c-203.4,13.1-472.5-272.2-650.3-329.4-76.7-24.7-155.1,204.8-249.3,279.1-50.3,39.5-123.6,28.6-201.9,4.2-125.7-39.2-260.1-118.1-339-91.2C977.7,531,804.5,483.5,712.4,377c-14.3-16.6-36.8-30.7-65.5-41-105.2-37.2-300.7-25.5-480.2,111.2-17.1,13-34.2,27.3-51.4,42.6-120.2,106-425-132.9-592,7.2"/><path class="cls-5" d="M2630.5,608.2c-206.4,14.5-473.9-277.8-647.5-337-74.8-25.5-151.5,210.4-245.1,286-128.5,103.8-419.3-139.8-541.3-94-208.5,78.3-385.8,31.1-475.9-77.6-69.8-84.3-345-108.2-598.5,110.3C.2,601-304,354.9-470.1,499.9"/></g></g></svg>