<?xml version="1.0" encoding="utf-8"?>
<!-- Generator: Adobe Illustrator 24.1.3, SVG Export Plug-In . SVG Version: 6.00 Build 0)  -->
<svg version="1.1" id="Layer_1" xmlns="http://www.w3.org/2000/svg" xmlns:xlink="http://www.w3.org/1999/xlink" x="0px" y="0px"
	 viewBox="0 0 1920 690" style="enable-background:new 0 0 1920 690;" xml:space="preserve">
<style type="text/css">
	.st0{fill:url(#SVGID_1_);}
	.st1{opacity:0.2;clip-path:url(#SVGID_3_);}
	.st2{fill:none;stroke:#FFFFFF;stroke-miterlimit:10;}
</style>
<linearGradient id="SVGID_1_" gradientUnits="userSpaceOnUse" x1="960" y1="692" x2="960" y2="2" gradientTransform="matrix(1 0 0 -1 0 692)">
	<stop  offset="0" style="stop-color:#951847"/>
	<stop  offset="1" style="stop-color:#36002B"/>
</linearGradient>
<rect class="st0" width="1920" height="690"/>
<g>
	<g>
		<defs>
			<rect id="SVGID_2_" width="1920" height="690"/>
		</defs>
		<clipPath id="SVGID_3_">
			<use xlink:href="#SVGID_2_"  style="overflow:visible;"/>
		</clipPath>
		<g class="st1">
			<path class="st2" d="M-195.1,28.5C-37,94.1,313,505.5,549.4,472.8c255.8-35.4,419.1-60.5,667.9-91.5
				c225.5-28.1,580.6,384.1,776.4,168.1"/>
			<path class="st2" d="M-192.4,46.7c166,59.5,511.8,445.5,747.9,416c254.9-32.1,416.7-43.1,667-79.7
				c228.4-34.3,577.1,375.7,771.1,161.8"/>
			<path class="st2" d="M-189.7,64.9c173.9,53.4,515.5,414,751.2,387.8c254-28.8,414.3-24.8,666.1-67.9
				c231.5-39.7,573.6,367.3,765.8,155.5"/>
			<path class="st2" d="M-187,83.1c181.7,47.3,519.2,382.5,754.5,359.6c253.1-25.4,412-7,665.1-56.2
				c234.6-45.5,570.1,359,760.5,149.3"/>
			<path class="st2" d="M-184.4,101.3C5.2,142.5,338.5,452.4,573.5,432.7c252.1-22.1,409.6,10.7,664.2-44.4
				c237.7-51.4,566.6,350.6,755.1,143"/>
			<path class="st2" d="M-181.7,119.5c197.4,35,526.6,320.1,761.2,303.1c251.3-18.2,407.2,28.4,663.3-32.6
				c240.7-57.3,563.1,342.2,749.8,136.8"/>
			<path class="st2" d="M-179,137.8c205.3,28.9,530.2,288.8,764.6,274.9c250.3-14.8,404.9,46,662.3-20.8
				c243.8-63.3,559.6,333.8,744.5,130.5"/>
			<path class="st2" d="M-176.3,156c213.1,22.8,533.9,257.4,767.9,246.6c249.4-11.4,402.5,63.6,661.4-9.1
				c246.9-69.3,556.1,325.4,739.1,124.3"/>
			<path class="st2" d="M-173.6,174.2c221,16.7,537.6,226,771.3,218.4c248.5-8.1,400.1,81.2,660.5,2.7
				c249.9-75.3,552.6,317.1,733.8,118"/>
			<path class="st2" d="M-170.9,192.4c228.8,10.5,541.2,194.6,774.6,190.2c247.6-4.7,397.8,98.7,659.6,14.5
				c253-81.4,549.1,308.7,728.5,111.8"/>
			<path class="st2" d="M-168.2,210.6C68.5,215,376.7,373.7,609.7,372.5c246.6-1.3,395.4,116.2,658.6,26.3
				c256-87.5,545.6,300.3,723.1,105.5"/>
			<path class="st2" d="M-165.5,228.8C79,227.1,383,360.5,615.8,362.5c245.7,2.1,393,133.7,657.7,38.1
				c259.1-93.6,542.1,291.9,717.8,99.3"/>
			<path class="st2" d="M-162.8,247c252.4-7.8,552.2,100.3,784.6,105.5c244.8,5.4,390.6,151.1,656.8,49.8
				c262.1-99.7,538.6,283.5,712.5,93"/>
			<path class="st2" d="M-160.1,265.2c260.2-13.9,555.9,68.9,788,77.3c243.8,8.8,388.2,168.5,655.8,61.6
				c265.2-105.9,535.1,275.2,707.1,86.8"/>
			<path class="st2" d="M-157.4,283.4c268.1-20.1,559.5,37.5,791.3,49c242.9,12.1,385.8,185.9,654.9,73.4
				c268.2-112.1,531.6,266.8,701.8,80.5"/>
			<path class="st2" d="M-154.8,301.6c275.9-26.2,563.2,6,794.7,20.8c242,15.4,383.3,203.2,654,85.2
				c271.2-118.3,528.1,258.4,696.5,74.3"/>
			<path class="st2" d="M-152.1,319.8c283.8-32.3,566.9-25.4,798-7.4c241,18.8,380.9,220.6,653.1,97c274.2-124.5,524.6,250,691.1,68
				"/>
			<path class="st2" d="M-149.4,338c291.6-38.4,570.5-56.9,801.4-35.7c240.1,22.1,378.5,237.9,652.1,108.7
				c277.2-130.8,521.1,241.6,685.8,61.8"/>
			<path class="st2" d="M-146.7,356.2c299.5-44.5,574.2-88.4,804.7-63.9c239.2,25.4,376,255.2,651.2,120.5
				c280.2-137.1,517.6,233.3,680.5,55.5"/>
			<path class="st2" d="M-144,374.4c307.4-50.7,577.8-119.9,808-92.1c238.2,28.7,373.5,272.5,650.3,132.3
				c283.1-143.4,514.1,224.9,675.2,49.2"/>
			<path class="st2" d="M-141.3,392.6c315.2-56.8,581.5-151.3,811.4-120.4c237.3,32,371,289.7,649.3,144.1
				c286.1-149.7,510.6,216.5,669.8,43"/>
			<path class="st2" d="M-138.6,410.8C184.4,347.9,446.5,228,676.1,262.2c236.4,35.3,368.5,307,648.4,155.8
				c289-156.1,507.1,208.1,664.5,36.7"/>
			<path class="st2" d="M-135.9,429C195,360,452.9,214.7,682.2,252.2c235.4,38.5,366,324.2,647.5,167.6
				c291.9-162.4,503.6,199.7,659.2,30.5"/>
			<path class="st2" d="M-133.2,447.2c338.8-75.1,592.5-245.9,821.4-205.1c234.5,41.8,363.5,341.4,646.6,179.4
				c294.8-168.8,500.1,191.4,653.8,24.2"/>
			<path class="st2" d="M-130.5,465.4C216.1,384.2,465.6,188,694.2,232.1c233.6,45.1,361,358.6,645.6,191.2
				c297.7-175.1,496.6,183,648.5,18"/>
			<path class="st2" d="M-127.8,483.6C226.6,396.3,472,174.7,700.3,222.1c232.7,48.3,358.4,375.8,644.7,203
				c300.6-181.5,493.1,174.6,643.2,11.7"/>
			<path class="st2" d="M-125.2,501.8c362.3-93.5,603.5-340.4,831.5-289.8c231.7,51.5,355.8,393,643.8,214.7
				c303.5-187.9,489.6,166.2,637.8,5.5"/>
			<path class="st2" d="M-122.5,520c370.2-99.6,607.2-372,834.8-318c230.8,54.8,353.3,410.2,642.8,226.5
				c306.4-194.3,486.1,157.8,632.5-0.8"/>
			<path class="st2" d="M-119.8,538.2c378-105.7,610.9-403.5,838.1-346.2c229.9,58,350.7,427.4,641.9,238.3
				c309.2-200.8,482.6,149.5,627.2-7"/>
			<path class="st2" d="M-117.1,556.4C268.8,444.6,497.6,120.9,724.4,182c229.1,60.8,348.1,444.6,641,250.1
				c312-207.2,479,141.1,621.8-13.3"/>
			<path class="st2" d="M-114.4,574.7c393.7-118,618.4-467,844.8-402.7c228.2,64.1,345.5,461.7,640.1,261.9
				c314.8-213.6,475.5,132.7,616.5-19.5"/>
			<path class="st2" d="M-111.7,592.9c401.6-124.1,622-498.5,848.2-430.9c227.3,67.4,342.6,478.4,639.1,273.6
				c317.3-220.6,472,124.3,611.2-25.8"/>
			<path class="st2" d="M-109,611.1C300.4,480.9,516.7,81.1,742.5,151.9c226.4,70.7,340.1,495.8,638.2,285.4
				c320.3-226.8,468.5,115.9,605.8-32"/>
			<path class="st2" d="M-106.3,629.3C311,492.9,523.1,67.9,748.5,141.9s337.6,513.2,637.3,297.2c323.2-233,465,107.6,600.5-38.3"/>
		</g>
	</g>
</g>
</svg>
