<svg id="Layer_1" data-name="Layer 1" xmlns="http://www.w3.org/2000/svg" xmlns:xlink="http://www.w3.org/1999/xlink" viewBox="0 0 1920 480"><defs><style>.cls-1,.cls-5{fill:none;}.cls-2{fill:url(#linear-gradient);}.cls-3{clip-path:url(#clip-path);}.cls-4{opacity:0.2;}.cls-5{stroke:#fff;stroke-miterlimit:10;}</style><linearGradient id="linear-gradient" x1="960" y1="482" x2="960" y2="2" gradientTransform="matrix(1, 0, 0, -1, 0, 482)" gradientUnits="userSpaceOnUse"><stop offset="0" stop-color="#0063a0"/><stop offset="1" stop-color="#18386b"/></linearGradient><clipPath id="clip-path"><rect class="cls-1" width="1920" height="480"/></clipPath></defs><rect class="cls-2" width="1920" height="480"/><g class="cls-3"><g class="cls-4"><path class="cls-5" d="M2093.9,432.5c-58-82.7-217.2-239.8-276.2-223.4-245.6,68.4-395.3,221.4-525.6,228.4-56.5,3-213.9-110.9-261.1-83.1-42.4,24.9-137.2,91.1-165.3,63.6-60.8-59.3-122.7-217.4-309-90.5C332.6,480,212.1,276.4,129.8,93.8c-34-75.5-247.6-30.5-322.2,3.4-45.3,20.6-228.9,73-295.1,81.4"/><path class="cls-5" d="M2281.4,456.2c-81.6,1.9-155.8-8.1-178.9-37.8-6.5-8.3-13.9-17.6-22.2-27.3-51.2-59.9-118.7-131.4-181.4-164-25-13-46.9-20-62.8-15.8-105.9,28-197.3,68-273.1,107.3-100.6,52.2-186.5,99.5-261.7,106.3-55.7,5-210.1-105.1-257.7-77.3-42.2,24.7-135.3,89.4-163.8,63C818.3,354,756,201.2,572.7,324c-52.7,35.3-99.8,50.7-141.9,51.5-134,2.7-218.9-144.8-283.3-279.8C112.3,22-97.4,66.2-172,98.6c-26.7,11.6-97.3,33-164.7,50.9-50.5,13.3-99.4,24.6-127.7,28.2"/><path class="cls-5" d="M2293.9,442.3c-82.7.6-157.4-8.4-182.4-37.4-6.9-8-14.6-17.1-23.3-26.7-53.2-58.8-106.1-120.8-169.6-150-25-11.5-47.2-18.5-63.8-14.3C1748,240.7,1652.7,276,1577,312.5c-99.4,47.9-190.3,90.7-266.2,100.3-55,7-206.2-99.3-254.2-71.5-42,24.5-133.5,87.6-162.3,62.4C832.2,349.3,769.4,201.8,589,320.3c-52.2,34.3-99,49-140.7,49.5C316.2,372,231.1,228.4,165,97.5,128.7,25.7-77.2,69.1-151.6,100c-27.3,11.3-97.2,31.9-163.2,49.3-49.9,12.9-98.2,24-126.4,27.6"/><path class="cls-5" d="M2306.3,428.2c-83.9-.8-159-8.6-185.9-37-7.3-7.7-15.3-16.6-24.3-26-55.1-57.6-93.4-110.1-157.8-136-25-10.1-47.4-16.9-64.9-12.8-107.7,25.6-206.7,56.2-282.5,89.9-98.2,43.7-193.9,81.8-270.6,94.3-54.2,8.9-202.4-93.6-250.7-65.6-41.8,24.3-131.6,85.9-160.8,61.8-62.7-52-126.1-194.2-303.5-79.9-51.6,33.3-98.1,47.2-139.5,47.6C335.7,365.7,250.5,226.2,182.6,99.4c-37.4-69.8-239.5-27.4-313.8,2-28.1,11.1-97,31.1-161.7,47.7-49.2,12.7-97,23.3-125.2,27"/><path class="cls-5" d="M2318.4,414.1c-85.1-2.1-160.6-8.9-189.4-36.7-7.7-7.4-16-16.1-25.3-25.4-57.1-56.5-80.7-99.5-145.9-122.1-25-8.6-47.7-15.3-65.9-11.2-108.6,24.6-211.3,50.2-287.2,81.2-96.8,39.5-197.6,72.8-275.1,88.3-53.3,10.7-198.6-87.8-247.2-59.8-41.6,24.1-129.8,84.2-159.3,61.2-63.5-49.4-127.3-186.5-301.6-76.3-51.1,32.3-97.3,45.4-138.3,45.6-128.2.5-213.6-135.1-283.1-257.7-38.5-68-236.9-26.4-310.9,1.6-28.8,10.9-96.9,30.1-160.3,46.1-48.6,12.3-95.8,22.7-124,26.3"/><path class="cls-5" d="M2330.5,399.7c-86.2-3.5-162.1-9.1-192.9-36.3-8.1-7.1-16.7-15.7-26.4-24.7-59.1-55.4-67.8-88.8-134.1-108.1-24.9-7.2-48-13.8-67-9.7-109.4,23.5-215.8,44.2-291.9,72.5-95.4,35.3-201.2,63.8-279.5,82.3-52.5,12.4-194.8-82-243.8-54-41.4,23.9-128,82.5-157.8,60.6-64.1-47-128.5-178.8-299.8-72.8-50.6,31.3-96.4,43.7-137,43.6-126.2-.2-211.9-131.9-283-250.4C178,36.9-16.5,77.5-90.4,104.1c-29.5,10.6-96.7,29-158.8,44.5-48,12-94.6,22-122.8,25.7"/><path class="cls-5" d="M2343.4,385.6c-87.4-4.9-163.6-9.4-196.4-35.9-8.5-6.8-17.4-15.2-27.4-24-61.1-54.2-54.8-78.2-122.3-94.1-24.8-5.8-48.2-12.2-68-8.2-110.3,22.6-220.2,38.3-296.7,63.7-93.8,31.2-204.7,54.7-284,76.3-51.6,14.1-191-76.3-240.3-48.2-41.2,23.6-126.2,80.8-156.3,60C887.2,330.7,822.4,204.1,654.1,306c-50,30.3-95.6,41.9-135.8,41.7-124.3-.9-210.2-128.7-283-243-40.9-64.1-231.7-24.5-305.4.8-30.2,10.4-96.6,28-157.3,42.9-47.4,11.6-93.3,21.3-121.6,25"/><path class="cls-5" d="M2355.7,371.4c-88.6-6.4-165-9.7-199.9-35.5-8.8-6.6-18.1-14.7-28.5-23.4-63.1-53.1-41.6-67.6-110.4-80.1-24.6-4.5-48.5-10.6-69.1-6.6-111.1,21.6-224.5,32.3-301.4,55-92.1,27.2-208.3,45.6-288.4,70.3-50.8,15.7-187.2-70.6-236.8-42.4-41,23.3-124.3,79.1-154.8,59.4C901,326.3,835.5,205,670.3,302.6c-49.5,29.3-94.7,40.2-134.6,39.7-122.4-1.5-208.5-125.5-282.9-235.7-42.1-62.4-229.1-23.8-302.5.2-31,10.1-96.5,27-155.8,41.3-46.8,11.3-92.1,20.7-120.3,24.4"/><path class="cls-5" d="M2368.1,357.5c-89.8-7.8-166.5-10-203.4-35.1-9.2-6.3-18.8-14.2-29.5-22.7-65.1-51.9-28.4-57.1-98.6-66.1-24.4-3.1-48.8-9-70.1-5.1-111.9,20.7-228.6,26.3-306.1,46.3-90.3,23.3-211.8,36.4-292.9,64.3-49.9,17.2-183.4-64.8-233.3-36.6-40.8,23.1-122.5,77.3-153.3,58.8-66.1-39.6-132.1-155.7-294.2-62.2-49,28.3-93.8,38.5-133.4,37.7-120.4-2.2-206.9-122.3-282.8-228.3-43.4-60.5-226.6-23-299.8-.2-31.7,9.8-96.3,26-154.3,39.7-46.1,10.9-90.9,20-119.1,23.7"/><path class="cls-5" d="M2380.6,343.2c-91-9.3-167.9-10.3-206.9-34.8-9.6-6-19.5-13.8-30.5-22.1-67.1-50.8-15.2-46.7-86.8-52.1-24.2-1.8-49-7.4-71.2-3.5-112.7,19.8-232.7,20.3-310.8,37.6-88.4,19.5-215.3,27-297.3,58.3-49.1,18.7-179.6-59.1-229.9-30.7-40.7,22.9-120.6,75.6-151.8,58.3C928.7,317.1,862.1,206.1,703,295.6c-48.5,27.2-93,36.7-132.2,35.8-118.5-2.9-205.4-119.1-282.7-221C243.4,51.6,64,88.2-8.9,109.6c-32.4,9.6-96.2,25-152.8,38.1-45.5,10.6-89.7,19.4-117.9,23.1"/><path class="cls-5" d="M2392.7,329c-92.2-10.8-169.3-10.6-210.4-34.4-9.9-5.7-20.2-13.3-31.6-21.4-69.1-49.7-1.8-36.3-74.9-38.1-24-.6-49.3-5.8-72.2-2-113.5,19-236.6,14.4-315.6,28.9-86.4,15.8-218.8,17.7-301.8,52.3-48.2,20.1-175.7-53.3-226.4-24.9-40.5,22.7-118.8,73.9-150.3,57.7C942.2,312.4,874.9,206.7,719,292c-47.9,26.2-92.1,35-131,33.8-116.6-3.5-203.9-115.9-282.6-213.6C259.7,55.3,84.1,90.8,11.5,111c-33.2,9.3-96.1,23.9-151.4,36.5-44.9,10.2-88.5,18.7-116.7,22.5"/><path class="cls-5" d="M2405.4,315c-93.3-12.3-170.7-11-213.9-34-10.3-5.5-20.9-12.8-32.6-20.8-71.1-48.5,11.6-26-63.1-24.1-23.8.6-49.6-4.2-73.3-.5-114.3,18.2-240.5,8.5-320.3,20.1-84.4,12.2-222.3,8.2-306.2,46.3-47.4,21.5-171.9-47.5-222.9-19.1-40.3,22.4-116.9,72.2-148.8,57.1-67.9-32.2-135.9-132.8-288.7-51.6-47.4,25.2-91.3,33.2-129.7,31.8C491.1,316.1,403.3,207.6,323.1,114c-47.1-55-219-20.7-291.3-1.6-34,9-95.9,22.9-149.9,34.9-44.3,9.8-87.3,18.1-115.5,21.8"/><path class="cls-5" d="M2200.3,267.1c-10.6-5.2-21.6-12.4-33.7-20.1-73.1-47.4,25-15.9-51.3-10.1-23.5,1.8-49.8-2.6-74.3,1.1-115.1,17.4-244.3,2.7-325,11.4s-225.8-1.3-310.7,40.3c-46.5,22.8-168.1-41.8-219.4-13.3-40.1,22.2-115.1,70.5-147.3,56.5-68.6-29.8-137.2-125.2-286.9-48-46.9,24.2-90.4,31.5-128.5,29.9-112.7-4.8-201-109.4-282.5-198.9-48.4-53.1-216.5-20-288.4-2-34.7,8.7-95.8,21.9-148.4,33.3-43.7,9.5-86,17.4-114.2,21.2"/><path class="cls-5" d="M2209.1,253.5c-11-5-22.3-11.9-34.7-19.4-75.1-46.2,38.4-5.8-39.4,3.8-23.3,2.9-50.1-1-75.3,2.6-115.9,16.6-248.3,11.8-329.7,2.7-77.7,19.8-229.4-10.9-315.1,34.3-45.7,24.1-164.3-36-216-7.5-39.9,22-113.2,68.7-145.8,55.9-69.2-27.3-138.5-117.6-285-44.5-46.4,23.2-89.6,29.8-127.3,27.9C529.9,303.7,441.1,203,358.2,117.7c-49.7-51.3-214-19.3-285.6-2.5C37.1,123.5-23.1,136-74.3,146.9c-43.1,9.1-84.8,16.8-113,20.5-64.6,8.7-186.5,10.8-295.5,7.9"/><path class="cls-5" d="M2217.6,239.5c-11.3-4.7-23-11.4-35.7-18.8-77.1-45.1,51.9,4.1-27.6,17.8-23,4-50.3.6-76.4,4.2-116.6,15.9-252.6,7-334.5-6-75.8,17-233-20.6-319.6,28.2-44.9,25.3-160.5-30.2-212.5-1.6-39.7,21.8-111.4,67-144.3,55.3-69.8-24.9-139.9-110-283.2-41-46,22.1-88.7,28-126.1,25.9-108.8-6.1-198.3-102.9-282.3-184.2-51.1-49.4-211.5-18.7-282.8-2.9-36.3,8-95.5,19.8-145.4,30.1-42.5,8.8-83.6,16.1-111.8,19.9-65,8.8-184.4,11.8-292,9.8"/><path class="cls-5" d="M2226.8,225.5c-11.7-4.5-23.7-10.9-36.8-18.1-79.1-43.9,65.3,13.9-15.8,31.8-22.8,5-50.6,2.2-77.4,5.7-117.4,15.1-256.9,2.2-339.2-14.7-74,14.2-236.6-30.3-324,22.2-44.2,26.5-156.7-24.4-209,4.2-39.5,21.6-109.5,65.3-142.8,54.7-70.4-22.5-141.2-102.5-281.3-37.4-45.5,21.1-87.8,26.3-124.9,24-106.9-6.8-197-99.7-282.3-176.9-52.5-47.5-209-18.1-280-3.4-37,7.6-95.4,18.8-143.9,28.5-41.9,8.4-82.4,15.4-110.6,19.3-65.5,8.9-182.3,12.7-288.5,11.7"/><path class="cls-5" d="M2235.6,212.4c-12-4.3-24.4-10.5-37.8-17.5-81.1-42.8,78.7,23.6-3.9,45.8-22.5,6.1-50.9,3.9-78.5,7.2-118.2,14.4-261.2-2.6-343.9-23.5-72.1,11.4-240.3-40.1-328.5,16.2-43.4,27.7-152.8-18.7-205.5,10-39.3,21.4-107.7,63.5-141.3,54.1-71-20-142.6-95-279.5-33.9a254.4,254.4,0,0,1-123.7,22c-104.9-7.4-195.7-96.3-282.2-169.5-53.9-45.6-206.5-17.5-277.2-3.9C95.9,126.6,38.5,137-8.7,146.2c-41.3,8-81.2,14.8-109.4,18.6-65.9,9-180.1,13.7-285,13.6"/><path class="cls-5" d="M2244.3,198.5c-12.4-4-25.1-10-38.9-16.8-83.1-41.7,92,33.2,7.9,59.8-22.3,7.1-51.1,5.5-79.5,8.8-119,13.7-265.4-7.4-348.6-32.2-70.3,8.5-244-49.9-332.9,10.2-42.7,28.9-149-12.9-202.1,15.8-39.1,21.1-105.8,61.8-139.8,53.5-71.6-17.6-144-87.5-277.6-30.4a255.3,255.3,0,0,1-122.4,20c-103-8-194.5-93-282.1-162.2-55.4-43.7-204.1-16.9-274.4-4.3-38.6,6.9-95.2,16.7-141,25.3-40.6,7.7-80,14.1-108.1,18-66.3,9.1-178,14.7-281.5,15.5"/><path class="cls-5" d="M2253,184.5c-12.7-3.8-25.8-9.5-39.9-16.1-85-40.5,105.2,42.7,19.7,73.8-22.1,8.1-51.4,7.1-80.6,10.3-119.7,13-269.7-12.1-353.4-40.9-68.4,5.7-247.8-59.8-337.4,4.2-42,30-145.2-7.1-198.6,21.6-38.9,20.9-104,60.1-138.3,52.9-72.3-15.2-145.4-80-275.8-26.8-44,18-85.3,21.1-121.2,18.1-101-8.6-193.4-89.6-282-154.8C388.7,85,243.9,110.4,173.9,122c-39.4,6.5-95,15.6-139.5,23.7C-5.6,153-44.3,159.2-72.5,163c-66.7,9.2-175.9,15.7-278,17.4-58.6,1-105.7,3.5-133,10.5"/><path class="cls-5" d="M2262.5,170.9c-13.1-3.6-26.6-9-40.9-15.5-87-39.4,118.4,52.1,31.6,87.8-21.9,9-51.6,8.8-81.6,11.9-120.5,12.4-274-16.9-358.1-49.6-66.6,2.9-251.6-69.8-341.8-1.8-41.3,31.1-141.4-1.4-195.1,27.4-38.7,20.7-102.1,58.3-136.8,52.3-72.9-12.7-146.9-72.6-273.9-23.3-43.6,16.9-84.4,19.4-120,16.1C646.8,267,553.7,190,464,128.7c-58.3-39.8-199.2-15.8-268.8-5.2-40.2,6.1-94.9,14.5-138,22.1-39.4,6.9-77.5,12.8-105.7,16.7-67.1,9.3-173.8,16.7-274.5,19.3-57.9,1.5-104,4.8-131.1,12.7"/><path class="cls-5" d="M2271.5,157.3c-13.4-3.3-27.3-8.6-42-14.8-89-38.2,131.5,61.4,43.4,101.8-21.8,10-51.9,10.4-82.7,13.4-121.3,11.7-278.3-21.7-362.8-58.4-64.7.1-255.5-79.8-346.2-7.8-40.6,32.2-137.5,4.4-191.6,33.3-38.5,20.5-100.2,56.6-135.3,51.7-73.5-10.3-148.4-65.2-272.1-19.8-43.1,15.8-83.5,17.7-118.8,14.1-97.2-9.8-191.1-82.7-281.9-140.1-59.8-37.8-196.7-15.3-265.9-5.7-41,5.7-94.8,13.5-136.5,20.5-38.8,6.5-76.3,12.2-104.5,16-67.5,9.4-171.6,17.7-271,21.2-57.1,2.1-102.3,6.2-129.2,14.9"/><path class="cls-5" d="M2280.1,143.6c-13.8-3.1-28-8.1-43-14.2-91-37.1,144.5,70.6,55.2,115.8-21.6,10.9-52.2,12.1-83.7,14.9-122.1,11.1-282.6-26.5-367.5-67.1-62.9-2.7-259.4-89.9-350.7-13.8-40,33.3-133.7,10.2-188.2,39.1-38.3,20.3-98.4,54.8-133.8,51.1-74.1-7.9-149.9-57.8-270.3-16.2-42.7,14.8-82.7,16-117.6,12.2C685.3,255,590.4,186.2,498.7,132.6c-61.3-35.8-194.2-14.9-263.1-6.1-41.7,5.3-94.7,12.4-135.1,18.9-38.2,6.1-75.1,11.5-103.3,15.4-67.9,9.5-169.5,18.6-267.5,23.1-56.3,2.6-100.6,7.6-127.3,17.1"/><path class="cls-5" d="M2289,129.9c-14.1-2.9-28.7-7.6-44.1-13.5-93-35.9,157.5,79.8,67.1,129.7-21.5,11.9-52.4,13.7-84.8,16.5-122.9,10.4-286.9-31.3-372.3-75.8-61-5.6-263.4-99.9-355.1-19.8-39.4,34.4-129.9,16-184.7,44.9-38.1,20.1-96.5,53.1-132.3,50.5-74.7-5.5-151.4-50.5-268.4-12.7C872.1,263.4,832.6,264,798,259.9c-93.3-11-189-75.6-281.7-125.4-62.9-33.8-191.8-14.4-260.3-6.6-42.5,4.9-94.6,11.3-133.6,17.3S48.5,156,20.4,160c-68.3,9.6-167.4,19.6-264,25.1-55.5,3.1-98.9,8.9-125.3,19.3"/><path class="cls-5" d="M2297.9,115.8a276.9,276.9,0,0,1-45.1-12.9c-95-34.8,170.4,89,78.9,143.7-21.4,12.8-52.7,15.4-85.8,18-123.6,9.8-291.2-36-377-84.5-59.2-8.4-267.5-110.1-359.6-25.8-38.8,35.5-126.1,21.8-181.2,50.7-37.9,19.9-94.7,51.4-130.8,49.9-75.3-3.1-152.9-43.3-266.6-9.1-41.8,12.6-81,12.6-115.2,8.2-91.3-11.6-187.9-72-281.6-118.1-64.4-31.7-189.3-13.9-257.5-7-43.3,4.4-94.4,10.2-132.1,15.7S71.6,154.8,43.5,158.7c-68.8,9.7-165.2,20.6-260.4,27-54.7,3.7-97.2,10.3-123.4,21.5"/><path class="cls-5" d="M2306.9,102.1a296.5,296.5,0,0,1-46.2-12.2c-97-33.7,183.1,98.1,90.7,157.7-21.3,13.7-52.9,17-86.9,19.6-124.4,9.2-295.5-40.8-381.7-93.2-57.3-11.2-271.6-120.2-364-31.8-38.2,36.5-122.2,27.5-177.7,56.5-37.7,19.7-92.8,49.6-129.3,49.3-75.9-.7-154.4-36-264.7-5.6-41.4,11.4-80.1,10.9-113.9,6.3C743.8,236.6,646.3,180.4,551.6,138c-65.9-29.5-186.8-13.5-254.7-7.5-44.1,3.9-94.3,9.1-130.6,14.1s-71.4,9.5-99.6,13.5C-2.5,167.9-96.4,179.7-190.2,187c-53.9,4.2-95.5,11.7-121.5,23.7"/><path class="cls-5" d="M2315.7,88.4c-15.2-2.2-30.8-6.2-47.2-11.5-99-32.5,195.9,107.2,102.6,171.7-21.2,14.6-53.2,18.7-87.9,21.1-125.2,8.6-291.7-60.6-386.4-102-52.4-22.9-275.8-130.4-368.5-37.8-37.6,37.6-118.4,33.3-174.2,62.3-37.5,19.5-91,47.9-127.8,48.7-76.5,1.7-156-28.9-262.9-2.1-41,10.3-79.3,9.2-112.7,4.3-87.5-12.7-185.9-64.6-281.5-103.4-67.5-27.3-184.4-13.1-251.9-7.9-44.9,3.4-94.2,8-129.1,12.5s-70.2,8.9-98.4,12.8c-69.6,9.9-161,22.6-253.4,30.8-53.1,4.7-93.7,13.1-119.6,25.9"/><path class="cls-5" d="M2390.6,249.3c-21.1,15.6-53.4,20.4-89,22.6-126,8-296-64.1-391.1-110.7-50.5-24.7-280.1-140.6-372.9-43.9-37.1,38.7-114.6,39.1-170.8,68.2-37.3,19.3-89.1,46.1-126.3,48.1-77.1,4.1-157.6-21.8-261,1.5-40.5,9.1-78.4,7.5-111.5,2.3-85.5-13.2-184.8-60.8-281.4-96-69-25.1-181.9-12.7-249.1-8.4-45.7,2.9-94.1,6.9-127.6,10.9-35.2,4.1-69,8.2-97.2,12.2-70,9.9-158.9,23.6-249.9,32.7-52.3,5.3-92,14.5-117.6,28.1"/><path class="cls-5" d="M2320,274.7c-126.8,7.4-300.5-67.5-395.9-119.4-48.6-26.5-284.4-150.8-377.4-49.9-36.6,39.7-110.8,44.9-167.3,74-37,19-87.3,44.3-124.8,47.5-77.8,6.5-159.1-14.7-259.2,5-40.1,7.9-77.6,5.8-110.3.4-83.6-13.8-183.7-57-281.3-88.6-70.6-22.9-179.4-12.3-246.3-8.8-46.4,2.4-94,5.8-126.2,9.3-34.6,3.7-67.8,7.6-95.9,11.6C65,165.8-21.3,180.3-111,190.4q-77.4,8.7-115.7,30.2c-74.3,41.8-114.5,113-263.3,142"/><path class="cls-5" d="M2338.9,276.8c-127.6,6.8-305.3-70.8-400.6-128.1-46.9-28.2-288.8-161.1-381.8-55.9-36.1,40.8-106.9,50.7-163.8,79.8-36.8,18.8-85.4,42.6-123.3,46.9-78.4,8.8-160.7-7.7-257.3,8.5-39.7,6.7-76.7,4.1-109.1-1.6-81.7-14.3-182.7-53.2-281.2-81.3-72.1-20.6-177-11.9-243.4-9.3-47.2,1.9-93.9,4.7-124.7,7.7-34,3.3-66.6,6.9-94.7,10.9C88.1,164.6,4.3,180-84,191c-50.8,6.3-88.5,17.3-113.8,32.4-74.5,44.5-109.7,119-256.6,149.6"/><path class="cls-5" d="M2357.8,279.1c-128.3,6.2-310.2-73.9-405.3-136.8-45.3-30-293.2-171.3-386.3-61.9-35.6,41.9-103,56.6-160.3,85.6-36.6,18.7-83.6,40.8-121.8,46.3-79,11.2-162.3-.8-255.5,12.1-39.3,5.4-75.9,2.4-107.9-3.6-79.8-14.8-181.6-49.2-281.2-73.9-73.7-18.3-174.5-11.6-240.6-9.7-48,1.3-93.8,3.6-123.2,6.1-33.4,2.8-65.3,6.2-93.5,10.3C110.8,163.8,29.5,180.1-57.4,192c-50,6.9-86.7,18.7-111.9,34.6-74.5,47.1-104.9,125-249.9,157.2"/><path class="cls-5" d="M2376.2,281.7c-129.1,5.7-315.4-76.9-410-145.6-43.8-31.8-297.7-181.6-390.7-67.9-35.2,43-99.2,62.4-156.9,91.4-36.4,18.5-81.7,39.1-120.3,45.7-79.6,13.6-163.8,6.1-253.6,15.6-38.9,4.1-75,.7-106.6-5.5-77.9-15.3-180.4-45.3-281.1-66.6-75.2-15.9-172-11.2-237.8-10.2-48.8.8-93.6,2.4-121.7,4.5-32.8,2.4-64.1,5.6-92.3,9.6C133.6,163,54.8,180.2-30.7,193c-49.2,7.4-85,20.1-110,36.8-74.6,49.8-100.1,131-243.2,164.8"/><path class="cls-5" d="M2394.7,283.7c-129.9,5.1-320.9-79.9-414.8-154.3-42.2-33.1-302-191.4-395-73.4-34.7,44-95.4,68.1-153.4,97.3-36.2,18.3-79.9,37.2-118.8,45.1-80.3,15.8-165.3,12.9-251.8,19.1A381,381,0,0,1,955.5,210c-75.9-15.8-179.3-41.3-281-59.2-76.7-13.5-169.5-10.9-235-10.6-49.5.2-93.5,1.3-120.2,2.9-32.2,1.9-62.9,4.9-91.1,9C156.2,162.5,80,180.6-4.2,194.3c-48.4,7.9-83.2,21.5-108,39-74.7,52.5-95.3,137-236.6,172.4"/><path class="cls-5" d="M1993.9,123.6c-41.1-35.5-306.8-202.2-399.6-79.9-34.3,45.1-91.6,73.9-149.9,103.1-36,18.1-78,35.5-117.3,44.5-80.9,18.3-166.8,19.6-250,22.7a410.4,410.4,0,0,1-104.2-9.5c-74-16.3-178.1-37.3-280.9-51.9-78.1-11.1-167-10.6-232.2-11.1-50.3-.4-93.4.1-118.7,1.3-31.6,1.4-61.7,4.3-89.8,8.3-72.5,10.5-146.1,29.5-228.9,44.1-47.6,8.5-81.4,22.9-106.1,41.2-74.7,55.2-90.5,142.9-229.9,180"/><path class="cls-5" d="M2007.9,117.2C1968,79.8,1696.5-95.2,1603.8,31.3c-33.9,46.2-87.8,79.7-146.4,108.9-35.8,17.8-76.2,33.8-115.8,43.9-81.6,20.7-168.3,26.2-248.1,26.2a457.2,457.2,0,0,1-103-11.4c-72.1-16.7-176.9-33.3-280.8-44.5-79.6-8.6-164.4-10.2-229.4-11.5-51.1-1-93.3-1-117.3-.3a766.9,766.9,0,0,0-88.6,7.7c-72.9,10.6-144,30.4-225.4,46.1-46.8,9-79.6,24.3-104.2,43.4-74.7,57.9-85.8,148.7-223.2,187.6"/><path class="cls-5" d="M2021.7,111c-38.8-39.4-316.1-222.7-408.5-91.9C1498,182.1,1180.8,236,1007.9,193.4c-167.6-41.2-535.6-52.1-623.1-51.1-109.7,1.2-198.5,32.1-309.3,55C-111.2,235.9-63.4,384.4-243.3,438.1"/></g></g></svg>