<svg id="Layer_1" data-name="Layer 1" xmlns="http://www.w3.org/2000/svg" xmlns:xlink="http://www.w3.org/1999/xlink" viewBox="0 0 1920 480"><defs><style>.cls-1,.cls-5{fill:none;}.cls-2{fill:url(#linear-gradient);}.cls-3{clip-path:url(#clip-path);}.cls-4{opacity:0.2;}.cls-5{stroke:#fff;stroke-miterlimit:10;}</style><linearGradient id="linear-gradient" x1="960" y1="482" x2="960" y2="2" gradientTransform="matrix(1, 0, 0, -1, 0, 482)" gradientUnits="userSpaceOnUse"><stop offset="0" stop-color="#0063a0"/><stop offset="1" stop-color="#18386b"/></linearGradient><clipPath id="clip-path"><rect class="cls-1" width="1920" height="480"/></clipPath></defs><rect class="cls-2" width="1920" height="480"/><g class="cls-3"><g class="cls-4"><path class="cls-5" d="M2074,29c-77.4-24-123.5,184.6-242.2,61.5-67.1-69.6-177.7,83.7-337,40.9-111.3-30-275.3,60.4-326.8,175.7-40.9,91.6-336.2-132.7-469.8-94C544.7,257.6,335,29.3,322.8-43.8c-36-216.2-457.5-5.1-457,138.2.2,63.2,125.8,263.4,106,346.4"/><path class="cls-5" d="M2084.5,40.3c-38.4-11.4-68.8,33.4-105.1,65.4-38.5,33.9-79.1,56.4-138.1-5.2-66.5-69.9-178.1,79.4-335.7,36.9-68.2-18.4-153.9,8-223.8,55-44.9,30.2-82.7,70.8-104.4,114.9-43.9,89.4-336.6-126.4-468.9-86.5a152.6,152.6,0,0,1-51.2,6.3C514.6,222,345.8,34,332.5-30.3,288.8-240.8-120.5-42.4-124.6,94c-.4,13.8,5.7,34.7,14.8,59.8,29.9,82.6,95.5,212.8,78.2,274.7-4.8,17.3-24.7,32.6-53.5,45.1"/><path class="cls-5" d="M2094.8,51.7c-38.5-10.8-68.7,33.6-105.6,63.9-40.8,33.5-80.7,56.3-138.5-5-66.1-70-178.5,75-334.5,33-68.9-18.6-153.4,8.1-223.7,52.9-44.7,28.5-82.7,68.2-105.7,111.1-46.9,87.3-337.1-120.4-468-79a161.5,161.5,0,0,1-50.6,7.3C527.9,234,358.1,46.7,342.2-17,291.1-221.5-106.3-35.9-115,93.5c-.9,13,4.6,32.8,12.7,57.1C-76.1,229-15.7,356.1-35,416.2c-5.4,16.7-25.3,31.5-54,43.6"/><path class="cls-5" d="M2105.4,62.8c-38.5-10.3-68.7,33.7-106.1,62.4-43.1,33.1-82.2,56-138.9-4.8-65.5-70.2-178.9,70.7-333.2,29.1-69.7-18.8-152.9,8.2-223.7,50.9-44.5,26.8-82.7,65.6-107.1,107.4-49.9,85.2-337.6-114.3-467.2-71.5a162.6,162.6,0,0,1-50,8.2C541.2,246,370.5,59.5,352-3.7,293.6-202-92-29.4-105.4,93c-1.3,12.2,3.6,31,10.6,54.3,22.5,74.2,77.7,198.2,56.4,256.6-5.9,16.2-25.9,30.6-54.5,42.1"/><path class="cls-5" d="M2115.8,74.3c-38.6-9.7-68.8,33.7-106.6,60.9-45.5,32.7-83.7,55.8-139.4-4.6-65-70.5-179.3,66.3-331.9,25.2-70.4-19-152.3,8.3-223.6,48.9-44.3,25.2-82.7,63.1-108.5,103.6-52.9,83.2-338.1-108.2-466.3-64a170.9,170.9,0,0,1-49.4,9.2C554.3,258.4,382.8,72.7,361.6,10,296.5-182.4-77.7-22.8-95.7,92.5c-1.8,11.4,2.6,29.2,8.6,51.6C-68.2,214.2-18.3,335-41.6,391.6c-6.5,15.7-26.5,29.6-55,40.5"/><path class="cls-5" d="M2126.4,85.4c-38.7-9.2-68.9,33.7-107.2,59.4-48,32.3-85.2,55.5-139.8-4.3-64.5-70.7-179.7,62-330.7,21.2-71.1-19.2-151.7,8.4-223.6,46.9-44,23.5-82.7,60.5-109.8,99.8-55.9,81.1-338.6-102-465.4-56.5A177.6,177.6,0,0,1,701,262C567.6,270.6,395.3,85.7,371.3,23.5,299.7-162.7-63.4-16.1-86.1,92c-2.2,10.7,1.6,27.4,6.5,48.8,15.3,66,59.9,183.7,34.6,238.4-7,15.2-27.1,28.6-55.4,39"/><path class="cls-5" d="M2136.8,96.8c-38.7-8.6-69.2,33.6-107.7,57.9-50.6,31.9-86.7,55.3-140.2-4.1-63.9-70.9-180.1,57.6-329.4,17.3-71.8-19.5-151.1,8.5-223.6,44.8-43.7,21.9-82.8,58-111.2,96.1-59,79-339.1-95.8-464.6-49a186.2,186.2,0,0,1-48.3,11.1c-131,11.8-304-172.1-330.8-234C303.3-142.9-49.1-9.2-76.5,91.5c-2.7,9.9.6,25.6,4.4,46,11.7,62,51.1,176.4,23.7,229.3-7.6,14.6-27.7,27.6-55.9,37.4"/><path class="cls-5" d="M2147.1,108.3c-38.8-8.1-69.4,33.5-108.2,56.5-53.2,31.5-88.1,55-140.6-3.9-63.4-71.1-180.5,53.3-328.1,13.4-72.5-19.7-150.4,8.6-223.5,42.8-43.4,20.3-82.8,55.4-112.6,92.3-62,76.9-339.6-89.7-463.7-41.5a195.2,195.2,0,0,1-47.7,12c-128.6,15-302.3-167.9-332-229.6C307.2-123.1-34.8-2.3-66.9,91c-3.2,9.2-.4,23.9,2.4,43.3,8.2,58.1,42.2,169.1,12.8,220.2-8.1,14.1-28.4,26.6-56.4,35.9"/><path class="cls-5" d="M2157.5,119.5c-38.9-7.5-69.8,33.3-108.7,55-55.9,31-89.6,54.7-141.1-3.7-62.9-71.4-180.9,48.9-326.8,9.5-73.3-19.9-149.6,8.7-223.5,40.8-43.1,18.7-82.9,52.8-113.9,88.5-65.1,74.8-340-83.5-462.8-34a206.6,206.6,0,0,1-47.1,13C607.3,307,433.1,125.2,400.4,63.8,311.4-103.3-20.5,4.9-57.3,90.5c-3.6,8.5-1.3,22.2.3,40.5,4.8,54.4,33.4,161.8,1.8,211.1-8.7,13.6-29,25.6-56.9,34.4"/><path class="cls-5" d="M2167.8,131.1c-39-7-70.1,33.1-109.2,53.5-58.6,30.5-91.1,54.5-141.5-3.5-62.3-71.6-181.3,44.6-325.6,5.5-74-20.1-148.9,8.9-223.5,38.8-42.7,17.1-82.9,50.3-115.3,84.8-68.3,72.8-340.5-77.3-462-26.5a213.5,213.5,0,0,1-46.6,13.9c-123.6,21.6-298.2-159.2-334-220.4C316-83.6-6.4,12.1-47.7,90.1c-4.1,7.8-2.3,20.5-1.8,37.8,1.4,50.8,24.6,154.5-9.1,202-9.2,13-29.6,24.6-57.3,32.8"/><path class="cls-5" d="M2178.3,142.4c-39.1-6.4-70.6,32.8-109.8,52-61.4,30-92.6,54.2-141.9-3.3-61.8-71.9-181.7,40.2-324.3,1.6-74.7-20.3-148,9-223.4,36.7-42.3,15.6-83,47.7-116.7,81-71.4,70.7-341-71.1-461.1-19a236,236,0,0,1-46,14.9c-121.3,25-296.3-154.7-335.3-215.6C320.9-63.9,7.5,19.5-38.1,89.6c-4.6,7.1-3.2,18.8-3.9,35-2,47.5,15.8,147.2-20,192.9-9.8,12.5-30.2,23.6-57.8,31.3-104.3,29.1-179.9,84.4-200.1,73.9"/><path class="cls-5" d="M2188.9,153.4c-39.2-5.8-71,32.5-110.3,50.5-64.2,29.4-94,53.9-142.4-3.1-61.2-72.1-182.1,35.9-323-2.3-75.4-20.5-147.2,9.2-223.4,34.7-41.9,14-83.1,45.1-118,77.2-74.6,68.6-341.5-64.8-460.2-11.5a248.7,248.7,0,0,1-45.4,15.8C647,343.5,471.8,164.8,429.5,104.1,326.1-44.3,21.2,27-28.5,89.1c-5.1,6.4-7.1,17.2-5.9,32.3-14.1,42.5,7,139.9-30.9,183.8-10.3,12-30.8,22.6-58.3,29.7C-227.7,362-286.5,418.7-306.1,416c-4.8-2.7-9.5-9.7-13.3-21"/><path class="cls-5" d="M2199.3,164.5c-39.3-5.2-71.5,32.1-110.8,49-67.1,28.8-95.5,53.6-142.8-2.8-60.6-72.4-182.5,31.5-321.7-6.2-76.1-20.7-146.3,9.4-223.3,32.7-41.5,12.5-83.2,42.5-119.4,73.5-77.8,66.4-341.9-58.6-459.4-4A274,274,0,0,1,777,323.4c-116.8,32-292.1-145.7-337.8-206.1C331.6-24.8,34.5,34.5-18.9,88.6c-5.7,5.8-8.3,15.4-8,29.5-18.4,38.5-1.8,132.6-41.8,174.7-10.8,11.4-31.5,21.6-58.7,28.2-103.9,25.2-147.2,85.9-164.9,88.3-4.4-1.8-9.2-7.6-13.3-17.9"/><path class="cls-5" d="M2209.7,176c-39.4-4.6-72,31.7-111.3,47.5-69.9,28-96.9,53.3-143.2-2.6-60.1-72.6-182.9,27.2-320.5-10.2-76.8-21-145.4,9.7-223.3,30.7-41.1,11.1-83.3,40-120.8,69.7-81,64.3-342.4-52.4-458.5,3.5a323.9,323.9,0,0,1-44.3,17.7C673.4,367.5,498,191.1,448.9,131,337.4-5.5,47.5,41.9-9.3,88.1c-6.3,5.1-9.6,13.7-10.1,26.8C-42.1,149.4-30,240.2-72.1,280.6c-11.4,10.9-32.1,20.6-59.2,26.7-103.8,23.3-131.5,88.1-147.3,95.5-4.1-.9-8.9-5.5-13.3-14.7"/><path class="cls-5" d="M2220.2,187.5c-39.5-4-72.5,31.3-111.8,46-72.9,27.3-98.4,53-143.7-2.4-59.5-72.9-183.3,22.8-319.2-14.1-77.6-21.2-144.4,10-223.3,28.6-40.6,9.6-83.4,37.4-122.1,65.9-84.2,62.1-342.9-46.1-457.6,11a356.3,356.3,0,0,1-43.7,18.6c-112.1,38.5-287.5-137-340.1-196.7C343.4,13.7,60.2,49.2.3,87.6c-6.9,4.4-10.9,11.9-12.2,24C-39,142-31.3,229.6-75.5,268.2c-11.9,10.4-32.7,19.6-59.7,25.1C-238.8,314.7-251,383.7-264.8,396c-3.7.1-8.5-3.3-13.3-11.6"/><path class="cls-5" d="M2230.7,198.7c-39.6-3.4-73,30.8-112.4,44.5-75.8,26.4-99.8,52.7-144.1-2.2-58.9-73.1-183.7,18.5-317.9-18-78.3-21.4-143.4,10.3-223.2,26.6-40.1,8.2-83.5,34.8-123.5,62.2-87.5,60-343.3-39.9-456.7,18.5a444.2,444.2,0,0,1-43.1,19.6c-109.8,41.9-285-132.7-341.3-192C349.6,32.8,72.7,56.2,10,87.1,2.4,90.9-2.2,97.3-4.3,108.4c-31.4,26.4-28.2,110.7-74.6,147.5-12.4,9.8-33.4,18.5-60.2,23.6C-242.6,298.9-239.2,372-251.2,389.3c-3.3,1-8.2-1.1-13.3-8.5"/><path class="cls-5" d="M2241.2,209.9c-39.7-2.8-73.6,30.3-112.9,43-78.7,25.5-101.3,52.4-144.5-2-58.4-73.4-184.1,14.1-316.7-21.9-79-21.6-142.4,10.7-223.2,24.6-39.6,6.8-83.7,32.1-124.9,58.4-90.7,57.8-343.8-33.6-455.9,26-15.3,8.1-29.6,15-42.6,20.5C713.1,404,538.1,230.1,478,171.3,355.9,51.7,85,62.8,19.6,86.7c-8.2,3-13.4,8.4-16.3,18.5-35.7,22.4-36.9,103.5-85.5,138.4-12.9,9.3-34,17.5-60.6,22-103.3,17.5-84.4,94.7-94.5,117-2.9,1.9-6.6-.1-13.3-5.3"/><path class="cls-5" d="M2251.5,221.3c-39.9-2.1-74.1,29.7-113.4,41.5-81.7,24.5-102.7,52.1-144.9-1.8-57.8-73.7-184.5,9.8-315.4-25.9-79.7-21.8-141.4,11.1-223.1,22.6-39.1,5.5-83.8,29.5-126.2,54.6-94,55.6-344.2-27.3-455,33.5-15.2,8.4-29.3,15.6-42,21.5C726.4,416,551.6,242.8,487.8,184.6,362.4,70.4,97.4,69.2,29.2,86.2c-8.9,2.2-14.6,6.6-18.4,15.8-40,18.3-45.7,96.2-96.4,129.3-13.5,8.8-34.6,16.5-61.1,20.5-103.2,15.5-68.7,96.8-76.8,124.2-2.5,2.8-6.2,1.9-13.3-2.2"/><path class="cls-5" d="M2261.9,232.6c-40-1.5-74.6,29.1-113.9,40-84.7,23.5-104.1,51.8-145.4-1.6-57.2-74-184.9,5.4-314.1-29.8-80.4-22-140.3,11.7-223.1,20.5-38.6,4.1-83.9,26.9-127.6,50.9-97.2,53.4-344.7-21-454.1,41-15.1,8.6-29,16.1-41.4,22.4C739.5,428.1,565.1,255.5,497.5,198,368.9,89,109.7,75.4,38.8,85.7c-9.5,1.4-15.9,4.9-20.5,13C-26.1,113-36.1,187.7-89,218.9c-14,8.3-35.2,15.5-61.6,19-103,13.6-47.8,100.5-59.2,131.4-1.5,4-5.8,3.9-13.4,1"/><path class="cls-5" d="M2158.2,282.4c-87.7,22.3-105.6,51.5-145.8-1.4-56.6-74.3-185.3,1.1-312.8-33.7-81.1-22.2-139.3,12.2-223.1,18.5-38.1,2.9-84.1,24.3-129,47.1C1247,364,1002.4,298.2,894.2,361.4c-15,8.8-28.7,16.7-40.9,23.4-100.4,55.5-274.4-116.6-346-173.3C375.5,107.4,122.3,81.3,48.4,85.2c-10.2.5-17.2,3.1-22.5,10.3-48.7,10.3-63.2,81.7-118.2,111.1-14.5,7.8-35.9,14.5-62.1,17.4-102.9,11.6-32.7,102-41.6,138.6-1.2,4.8-5.4,5.9-13.4,4.1"/><path class="cls-5" d="M2167.8,292.2c-90.7,21.1-107,51.1-146.2-1.1-56-74.6-185.7-3.3-311.6-37.6-81.9-22.5-138.2,12.9-223,16.5-37.6,1.6-84.2,21.6-130.3,43.3-103.8,48.9-345.6-8.4-452.4,56L864,393.6c-98,59-271.6-112.8-347.1-168.5C382.2,125.6,135,87.1,58,84.7c-10.8-.3-18.4,1.4-24.6,7.5-53,6.2-71.9,74.5-129.1,102-15,7.2-36.5,13.4-62.5,15.9-102.7,9.6-17.7,103.8-24,145.8-.9,5.7-5,7.9-13.4,7.3"/><path class="cls-5" d="M2177.5,302.2c-93.7,19.8-108.4,50.8-146.7-.9-55.4-74.9-186.1-7.6-310.3-41.6-82.6-22.7-137.2,13.6-223,14.5-37.1.4-84.4,19-131.7,39.5-107.1,46.6-346-2.1-451.5,63.5-14.8,9.2-28.2,17.7-39.7,25.3-95.7,62.3-268.8-109.2-348.3-163.9C388.9,143.7,147.8,92.9,67.6,84.2,56.2,83,47.9,83.8,40.9,89c-57.4,2.2-80.7,67.3-140,92.9-15.6,6.7-37.1,12.4-63,14.3-102.6,7.6-2.5,105.7-6.4,152.9-.5,6.6-4.6,9.9-13.4,10.4"/><path class="cls-5" d="M2187.7,312c-96.7,18.4-109.8,50.5-147.1-.7-54.7-75.2-186.5-12-309-45.5-83.3-22.9-136.2,14.4-222.9,12.4-36.6-.8-84.5,16.3-133.1,35.8-110.4,44.3-346.4,4.2-450.7,71-14.7,9.5-27.9,18.3-39.1,26.2-93.3,65.7-266-105.6-349.5-159.3C395.6,161.7,160.9,98.6,77.2,83.7c-12-2.1-20.9-2.1-28.8,2C-13.2,84-41,145.9-102.5,169.6c-16.1,6.2-37.8,11.4-63.5,12.8-102.4,5.6,12.7,107.8,11.2,160.1-.2,7.5-4.2,11.9-13.4,13.5"/><path class="cls-5" d="M2197.6,321.7c-99.7,17-111.2,50.2-147.5-.5-54.1-75.5-186.9-16.3-307.7-49.4-84-23.1-135.1,15.3-222.9,10.4-36.1-2-84.6,13.6-134.4,32-113.6,41.9-346.8,10.5-449.8,78.5-14.6,9.7-27.6,18.8-38.6,27.1-91,69.1-263.1-102.2-350.7-154.6C402.3,179.5,174,104.3,86.8,83.3c-12.5-3-22.2-3.9-30.8-.7-66-5.8-98.2,52.9-161.9,74.8-16.6,5.7-38.4,10.3-64,11.3-102.3,3.6,28,109.9,28.8,167.3.1,8.4-3.8,13.9-13.4,16.7"/><path class="cls-5" d="M2207.5,331.9c-102.7,15.4-112.6,49.8-148-.3-53.5-75.8-187.3-20.7-306.5-53.3-84.7-23.3-134.2,16.2-222.9,8.4-35.6-3.2-84.8,10.9-135.8,28.2-116.9,39.6-347.3,16.9-448.9,86-14.6,9.9-27.3,19.4-38,28.1-88.5,72.7-260.2-98.9-351.9-149.9C409,197.1,187.3,110,96.4,82.8c-13.1-3.9-23.5-5.7-32.9-3.5C-6.8,69.4-43.4,125-109.2,145a235.7,235.7,0,0,1-64.4,9.7c-102.1,1.6,43.4,112,46.4,174.5.5,9.3-3.4,15.9-13.4,19.8"/><path class="cls-5" d="M2217.5,341.2c-105.7,13.8-114,49.5-148.4-.1-52.8-76.1-187.7-25.1-305.2-57.3-85.5-23.5-133.2,17.3-222.8,6.4-35.2-4.3-84.9,8.3-137.2,24.5-120.2,37.3-347.7,23.2-448.1,93.5a432.2,432.2,0,0,0-37.4,29C832.3,513.3,661,341.6,565.4,292,415.6,214.4,200.8,115.5,106.1,82a109.2,109.2,0,0,0-35-6.2c-75.9-2.6-115.7,38.5-183.7,56.6a249.1,249.1,0,0,1-64.9,8.2c-102-.4,58.8,114.1,64,181.7.8,10.2-2.4,19.5-13.4,23"/><path class="cls-5" d="M2227.5,351.2c-108.7,12.1-115.4,49.1-148.8.1-52.2-76.5-188.1-29.4-303.9-61.2-86.2-23.7-132.3,18.4-222.8,4.3-34.7-5.4-85,5.6-138.5,20.7-123.4,34.9-348.1,29.5-447.2,101a370.7,370.7,0,0,0-36.9,30c-83.8,79.5-254.5-92.5-354.2-140.5-153-73.5-361-184.1-459.5-223.8a132.4,132.4,0,0,0-37.1-9C-2,64.6-45.8,104.1-116,120.3a263,263,0,0,1-65.4,6.6c-101.8-2.5,74.2,116.3,81.7,188.9,1.1,11.1-2,21.2-13.4,26.1"/><path class="cls-5" d="M2237.4,361.1c-111.6,10.3-116.8,48.8-149.2.4-51.5-76.8-188.5-33.8-302.7-65.1-86.9-24-131.4,19.5-222.7,2.3-34.3-6.5-85.2,2.9-139.9,16.9-126.7,32.5-348.4,35.9-446.3,108.5A325.9,325.9,0,0,0,940.3,455c-81.4,82.9-251.6-89.5-355.4-135.9-156.1-69.7-357-191.8-459.5-237.8A152.2,152.2,0,0,0,86.3,69.6C1.1,55.7-47.1,93.7-119.4,108a276,276,0,0,1-65.9,5.1C-286.9,108.6-95.6,231.6-86,309.2c1.5,12-1.6,23-13.4,29.3"/><path class="cls-5" d="M2247.1,371c-114.6,8.4-118.2,48.4-149.7.6-50.8-77.1-188.9-38.1-301.4-69-87.6-24.2-130.6,20.8-222.7.3-33.9-7.5-85.3.2-141.3,13.2-129.9,30.1-348.8,42.3-445.4,116-14.2,10.8-26.2,21.5-35.7,31.9C872,550,702.3,377.2,594.5,332.6c-159.4-66-353.2-199.4-459.6-251.8A179.6,179.6,0,0,0,93.7,66.3c-89.4-19.4-142,17-216.4,29.3A283.1,283.1,0,0,1-189,99.1C-290.6,92.7-83.9,219.9-72.2,302.5c1.8,13-1.3,24.7-13.4,32.4"/><path class="cls-5" d="M2257.3,380.4c-117.5,6.5-119.5,48.1-150.1.8C2057,304,1917.7,339,1807,308.5c-88.3-24.4-129.8,22.1-222.7-1.7-33.5-8.6-85.4-2.5-142.6,9.4-133.2,27.7-349.2,48.6-444.6,123.5A245.8,245.8,0,0,0,962,472.5C885.3,562.1,716.1,388.8,604.3,346,441.4,283.8,255,139.1,144.5,80.3a200.2,200.2,0,0,0-43.3-17.2C7.7,38.3-49.5,72.9-126.1,83.3a301.4,301.4,0,0,1-66.8,2c-101.3-8.6,120.7,123,134.5,210.5,2.2,13.9-1,26.6-13.4,35.5"/><path class="cls-5" d="M2116.6,391.5c-49.4-77.9-189.7-46.8-298.8-76.9-89-24.6-129.1,23.5-222.6-3.8-33.1-9.6-85.5-5.2-144,5.6-136.4,25.3-349.6,55-443.7,131-14,11.3-25.6,22.6-34.6,33.8-74.3,93-243.1-80.9-358.9-121.8C447.7,300.8,268.6,145,154.1,79.9a230.6,230.6,0,0,0-45.3-20C11.1,29.8-50.8,62.5-129.5,71a312.8,312.8,0,0,1-67.3.5C-297.9,60.8-60.6,196.6-44.7,289.1c2.5,14.8-.7,28.4-13.4,38.7"/><path class="cls-5" d="M2126.1,401.5c-48.7-78.2-190.1-51.2-297.6-80.8-89.8-24.8-128.5,24.9-222.6-5.8-32.8-10.7-85.6-7.9-145.4,1.9-139.7,22.9-349.9,61.4-442.8,138.5-13.9,11.5-25.3,23.1-34,34.7-72,96.4-240.3-78.2-360.1-117.1C453.8,317.8,282.3,151,163.7,79.4a249.9,249.9,0,0,0-47.4-22.7C14.6,21.4-52,52.1-132.9,58.7a323.6,323.6,0,0,1-67.8-1.1C-301.7,44.8-48.9,184.9-31,282.4c2.9,15.7-.4,30.2-13.4,41.8"/><path class="cls-5" d="M2135.6,411.4c-47.9-78.6-190.5-55.5-296.3-84.7-90.5-25-127.9,26.4-222.6-7.8-32.5-11.7-85.8-10.6-146.7-1.9-142.9,20.5-350.3,67.8-442,146-13.7,11.7-25,23.7-33.4,35.7C925,598.5,757.1,423.1,633.3,386.2,459.9,334.8,296,156.9,173.3,78.9a285.1,285.1,0,0,0-49.5-25.5C18.1,13.1-53.3,41.9-136.3,46.4c-21.4,1.2-44,1-68.2-2.6C-305.3,28.9-37.2,173.3-17.2,275.8c3.3,16.7-.1,32.1-13.4,45"/><path class="cls-5" d="M2145.1,421.5c-47.2-79-190.9-59.9-295-88.6-91.2-25.2-127.4,27.9-222.5-9.8-32.2-12.8-85.9-13.4-148.1-5.7-146.1,17.8-350.5,74.3-441.1,153.5-13.6,12-24.8,24.2-32.8,36.6-67.3,103.2-234.8-73-362.4-107.8C465.9,351.6,309.7,162.9,182.9,78.4,165.2,66.6,148,57.1,131.3,50.2,21.6,4.9-54.5,31.4-139.6,34c-21.9.7-44.6-.1-68.7-4.2C-308.9,12.8-25.6,161.6-3.4,269.1c3.6,17.6.2,34-13.4,48.1"/><path class="cls-5" d="M2154.3,431.7c-46.4-79.4-191.3-64.2-293.7-92.6-91.9-25.4-127,29.4-222.5-11.9-118.4-51.1-540.9,56-622,189.1C951.2,622.9,784,445.8,652.5,413.2c-206-51-369.9-302.7-513.8-366.3S-95.2,38.3-212.2,16,95.5,205-3.1,313.6"/></g></g></svg>