<svg id="Layer_1" data-name="Layer 1" xmlns="http://www.w3.org/2000/svg" xmlns:xlink="http://www.w3.org/1999/xlink" viewBox="0 0 1920 690"><defs><style>.cls-1,.cls-5{fill:none;}.cls-2{fill:url(#linear-gradient);}.cls-3{clip-path:url(#clip-path);}.cls-4{opacity:0.2;}.cls-5{stroke:#fff;stroke-miterlimit:10;}</style><linearGradient id="linear-gradient" x1="960" y1="692" x2="960" y2="2" gradientTransform="matrix(1, 0, 0, -1, 0, 692)" gradientUnits="userSpaceOnUse"><stop offset="0" stop-color="#1c2963"/><stop offset="1" stop-color="#00000d"/></linearGradient><clipPath id="clip-path"><rect class="cls-1" width="1920" height="690"/></clipPath></defs><rect class="cls-2" width="1920" height="690"/><g class="cls-3"><g class="cls-4"><path class="cls-5" d="M2141,503.3c-59.8-77.2-101.1-303.9-211.2-321.9C1847,167.9,1678.9,411,1546.8,411c-359.9,0-373.4,95-502.4,95-160.9,0-122.7-225.9-209.9-298.7C621.6,29.6,433.2,273.1,266.2,345,133.6,402.1-171.2,118.7-341.1,204.5"/><path class="cls-5" d="M2249.5,677.2c-30.8-41.8-59.1-89.1-83.9-127-12.1-18.4-22.8-34.8-32.9-47-61.4-73.9-102.1-290.2-213.6-308.3-57-9.2-149.7,90.5-245.3,159-46.1,33-93,59.5-136.7,60.2-352.9,4.9-371.2,97.2-500.9,96.2-159.6-.8-122.7-224.6-208-299.1C723,119.4,623.4,134.5,527.3,181.9,434,227.9,348,304.7,267.7,342.4c-68.4,32.1-181.4-26.1-300.5-78.3C-145,214.9-251.3,167-333.3,206.5"/><path class="cls-5" d="M2243,671.1c-30.8-40.7-59.7-86.5-85.3-123.1-12.4-17.6-23.1-33.6-33.4-45.1-63.1-70.7-103.1-276.5-215.9-294.6-58.3-9.3-149.3,83-244.6,149.1-45.6,31.6-92.3,58.6-136.5,59.9-345.7,9.6-368.9,98.9-499.5,97.3-158.4-2-122.8-223.3-206.2-299.4C719.5,122,622.3,133.6,526.3,178.8c-93.7,44.1-178.6,120.9-257.2,161.1C201.7,374.2,92,321.1-26.5,271.5c-115.3-48.3-216-101.1-299-63.1"/><path class="cls-5" d="M2379.3,760.9c-51.8,2.7-100.1-41.1-142.7-95.6-31-39.5-60.2-83.9-86.7-119.2-12.7-16.9-23.3-32.4-33.8-43.3-64.8-67.5-104.1-262.9-218.3-281-59.5-9.4-148.8,75.5-243.9,139.1-45,30.1-91.5,57.7-136.4,59.6-338.6,14-366.6,100.9-498,98.4-157.2-3-122.8-221.9-204.3-299.7-99-94.5-193.8-86.6-289.8-43.6-94.2,42.2-178,119.1-254.9,161.7C204.1,374,97.7,326-20.2,278.9s-213.5-105.1-297.6-68.5"/><path class="cls-5" d="M2373.2,752.2c-51.8,2.6-100.2-39.9-143.1-93-31-38.4-60.7-81.3-88.1-115.3-13-16.1-23.6-31.2-34.3-41.5-66.5-64.3-105.1-249.2-220.6-267.4-60.8-9.5-148.4,68.1-243.1,129.2-44.5,28.7-90.8,56.8-136.2,59.3-331.4,18.2-364.3,102.9-496.6,99.5-155.9-3.9-122.9-220.5-202.4-300-95.9-95.8-188.3-91.5-284.2-50.7S347.3,289.7,272.1,334.5c-65.6,39.1-168.8-3.6-285.9-48.4-121.7-46.5-211-109-296.1-74"/><path class="cls-5" d="M2367,743.8c-51.8,2.5-100.4-38.7-143.4-90.3-31.1-37.3-61.2-78.6-89.5-111.4-13.2-15.3-23.9-29.9-34.7-39.7-68.3-61.1-106-235.5-222.9-253.8-62.1-9.6-147.9,60.6-242.4,119.2-43.9,27.3-90.1,55.8-136,59C1173.9,448.9,1136,531.6,1003,527.4,848.3,522.5,880,308.3,802.4,227c-92.8-97.1-182.8-96.5-278.7-57.8S347,284.9,273.5,332c-64.6,41.5-164.6,4-281.1-38.4-125-45.5-208.5-113-294.7-79.4"/><path class="cls-5" d="M2361,735c-51.8,2.4-100.6-37.4-143.8-87.6-31.1-36.2-61.7-76-90.9-107.5-13.5-14.6-24.1-28.7-35.2-37.8-70.2-58-107-221.9-225.3-240.1-63.4-9.7-147.4,53.1-241.7,109.2-43.3,25.8-89.3,54.9-135.9,58.7-316.9,25.9-359.8,106.9-493.7,101.8C841.2,525.9,871.7,314,795.9,231c-89.7-98.3-177.3-101.4-273.1-65S346.8,280,275,329.4C211.3,373.3,114.4,341.2-1.2,301c-128.3-44.5-206-116.9-293.2-84.8"/><path class="cls-5" d="M2354.8,726.5c-51.8,2.3-100.7-36.2-144.1-85-31.1-35-62.1-73.3-92.3-103.6-13.7-13.8-24.4-27.5-35.6-36-72.1-54.8-108-208.2-227.6-226.5-64.7-9.8-146.9,45.6-241,99.3-42.8,24.4-88.6,53.9-135.7,58.4C1169,462.4,1121.1,541.9,986.4,536c-152.2-6.7-123.1-216.2-196.9-301C702.9,135.5,617.7,128.6,522,162.9s-175.4,112.3-245.5,164C213.7,373.2,120,346.4,5.1,308.4c-131.6-43.5-203.4-120.8-291.8-90.3"/><path class="cls-5" d="M2348.7,717.9c-51.8,2.2-100.9-35-144.5-82.3-31.2-33.9-62.5-70.6-93.7-99.7-14-13-24.7-26.3-36.1-34.2-74.1-51.7-109-194.5-229.9-212.9-66-9.9-146.3,38.1-240.3,89.3-42.1,23-87.8,52.9-135.6,58.1-302.3,32.6-355.2,110.9-490.8,104-151-7.6-123.1-214.8-195-301.3-83.6-100.7-166.3-111.4-262-79.3S346,270.3,277.7,324.2c-61.9,48.8-152.5,27.3-266.5-8.5C-123.8,273.3-189.7,191-279.1,220"/><path class="cls-5" d="M2342.7,709.3c-51.8,2.1-101-33.7-144.8-79.7-31.2-32.8-62.9-68-95-95.8-14.2-12.3-25-25.1-36.5-32.4-76.2-48.5-110-180.9-232.3-199.2-67.3-10-145.7,30.6-239.5,79.4-41.5,21.6-87.1,51.9-135.4,57.8-295,35.7-352.9,112.9-489.3,105.1C820,536,846.6,331.3,776.6,242.8,696.1,141,615.8,126.4,520.2,156.4,422.7,187,346.1,265.5,279.4,321.6c-60.9,51.3-148.6,35.3-261.7,1.5C-120.6,281.8-180.6,194.5-271.1,222"/><path class="cls-5" d="M2336.7,700.8c-51.8,2-101.2-32.5-145.2-77-31.3-31.6-63.2-65.3-96.4-91.9-14.4-11.5-25.3-23.8-37-30.6-78.3-45.3-110.9-167.2-234.6-185.6-68.5-10.1-145.1,23.1-238.8,69.4-40.9,20.2-86.3,50.9-135.2,57.5-287.6,38.6-350.6,114.9-487.8,106.3-148.5-9.4-123.3-211.7-191.3-302C692.9,144,615,125.5,519.5,153.4,421.4,182.1,346,261,281,319.2,221,373,136.4,362.4,24.2,330.6-117.7,290.3-171.7,198-263.3,223.9"/><path class="cls-5" d="M2330.2,692.1c-51.8,1.9-101.3-31.3-145.5-74.3-31.3-30.5-63.5-62.6-97.8-88-14.5-10.7-25.7-22.6-37.4-28.7-80.4-42.1-111.9-153.5-236.9-172-69.8-10.2-144.5,15.7-238.1,59.4-40.2,18.8-85.5,49.9-135.1,57.2C1159.1,487,1091.1,562.7,953,553.1,805.7,542.9,829.6,342.9,763.6,250.8c-74.5-104-150-126.5-245.3-100.7-98.7,26.7-172.8,106-236.1,166.4-59,56.3-140.7,51.3-252,21.4-145.2-39-193.2-136.4-285.9-112"/><path class="cls-5" d="M2324.4,683.5c-51.8,1.8-101.5-30-145.8-71.7-31.3-29.4-63.8-60-99.2-84.1-14.7-10-26-21.3-37.9-26.9-82.7-38.9-112.9-139.9-239.3-158.3-71.1-10.2-143.8,8.2-237.4,49.5-39.6,17.4-84.7,48.8-134.9,56.9-273,43.7-346,119-484.9,108.5C799,546.3,821.4,348.8,757.4,254.7,685.9,149.6,612.9,123.2,517.7,146.9c-99.3,24.7-172.1,104.5-233.8,167-58,58.8-136.8,59.3-247.1,31.4C-112,307.5-153.9,205-247.8,227.8"/><path class="cls-5" d="M2318.2,674.9c-51.9,1.7-101.6-28.8-146.2-69-31.4-28.3-64-57.4-100.6-80.2-14.9-9.3-26.3-20.1-38.3-25.1-84.9-35.6-113.9-126.2-241.6-144.7-72.4-10.3-143,.8-236.6,39.5-38.9,16.1-83.9,47.8-134.8,56.6-265.7,46.1-343.8,121.1-483.5,109.6-144.8-11.9-123.7-207-185.7-303C682.3,152.5,611.8,122,516.7,143.6c-99.9,22.7-171.4,103-231.4,167.6-57.1,61.4-133,67.5-242.3,41.3-152.2-36.3-188-144-283-122.8"/><path class="cls-5" d="M2312.2,666.4c-51.9,1.6-101.7-27.6-146.5-66.3-31.4-27.1-64.3-54.8-102-76.3-15-8.5-26.7-18.8-38.7-23.3-87.3-32.2-114.9-112.5-243.9-131.1-73.7-10.4-142.3-6.6-235.9,29.5-38.2,14.7-83.1,46.7-134.6,56.3-258.4,48.2-341.5,123.2-482,110.7C785,553.2,804.7,360.5,744.7,262.6,678.8,155.5,610.8,121,515.8,140.5,415.3,161.2,345.2,242,286.8,308.7c-56.1,64-129.1,75.7-237.4,51.3-155.7-35-185.5-147.9-281.6-128.4"/><path class="cls-5" d="M2306.1,657.8c-51.9,1.5-101.9-26.4-146.9-63.7-31.4-26-64.5-52.2-103.4-72.4-15.1-7.8-27-17.6-39.2-21.5-89.6-28.8-115.8-98.8-246.3-117.5-75-10.5-141.5-14-235.2,19.6-37.5,13.4-82.4,45.6-134.4,56-251.1,50.2-339.2,125.3-480.6,111.9S796,366.5,738,266.6C675.3,158.4,609.8,119.8,515,137.3,413.8,156,345,237.4,288.2,306.1c-55,66.6-125.3,83.9-232.6,61.3-159.3-33.6-182.9-151.8-280.1-133.8"/><path class="cls-5" d="M2299.8,649.3c-51.9,1.4-102-25.1-147.2-61-31.4-24.9-64.6-49.7-104.8-68.5-15.2-7.1-27.4-16.3-39.6-19.6-92-25.3-116.8-85.2-248.6-103.8-76.3-10.6-140.7-21.3-234.5,9.6-36.7,12.1-81.6,44.4-134.3,55.7-243.8,52-336.9,127.4-479.1,113s-124.3-202.1-180.2-304C671.6,161.6,608.7,118.9,514,134.3c-101.7,16.6-169.2,98.6-224.4,169.4-54,69.2-121.4,92.2-227.7,71.2-162.8-32.1-180.3-155.6-278.6-139.2"/><path class="cls-5" d="M2293.8,640.4c-51.9,1.3-102.1-23.9-147.6-58.4-31.4-23.8-64.8-47.1-106.2-64.6-15.4-6.5-27.8-15-40.1-17.8-94.4-21.7-117.8-71.5-251-90.2-77.5-10.7-139.8-28.6-233.8-.3-36,10.8-80.8,43.3-134.1,55.4C1144.5,518.2,1046.4,594,903.3,578.6,763.5,563.6,778.8,378.2,725,274.3c-57-110.1-117.4-157-211.9-143.5C410.7,145.4,344.7,228,291,300.8S173.4,401.3,68.2,382C-98.2,351.5-109.5,222.6-209,237.3"/><path class="cls-5" d="M2287.5,631.9c-51.9,1.2-102.2-22.7-147.9-55.7-31.4-22.7-64.9-44.7-107.6-60.7-15.5-5.8-28.1-13.7-40.5-16-96.8-18-118.8-57.8-253.3-76.6-78.8-10.8-138.9-35.9-233-10.3-35.3,9.6-80,42.1-134,55.1C1142.1,523,1039.1,599.4,895.2,583,756.6,567.2,770.4,384.2,718.8,278.4c-54.2-111-112-162.1-206.4-150.7-103,12.5-167.6,95.7-219.7,170.6s-113.8,108.9-218,91.2C-95.3,360.6-100.4,226.4-201,239.4"/><path class="cls-5" d="M2281.7,623.3c-51.9,1.1-102.3-21.5-148.3-53-31.4-21.6-65-42.3-109-56.8-15.6-5.1-28.5-12.4-41-14.2-99.3-14.3-119.8-44.2-255.6-62.9-80.1-10.9-138-43.1-232.3-20.3-34.5,8.3-79.2,40.9-133.8,54.8-222.1,56.6-330,133.8-474.8,116.4-137.4-16.5-125.1-197.1-174.6-305C660.9,170.4,605.7,115.1,511.5,124.5,407.8,135,344.7,218.9,294.1,295.7S184.1,413,81,396.9C-92.6,369.7-91.6,230-193.3,241.3"/><path class="cls-5" d="M2275.4,614.9c-51.9,1.1-102.4-20.3-148.6-50.4-31.4-20.5-65.2-39.9-110.4-52.9-15.7-4.5-28.9-11-41.4-12.3-101.7-10.5-120.7-30.5-258-49.3-81.4-11-137.1-50.2-231.6-30.2-33.7,7.1-78.5,39.6-133.6,54.5-215,57.8-327.8,135.9-473.3,117.5C742.4,574.5,753.1,396.4,705.8,286.5,657.2,173.7,604.6,114.1,510.5,121.6c-104.3,8.3-165.9,92.9-215,171.7S189.3,419.1,87.2,404.4c-177.1-25.4-170-170.7-272.8-161"/><path class="cls-5" d="M2269.3,606.1c-51.9,1-102.5-19.1-149-47.7-31.4-19.4-65.3-37.5-111.7-49-15.8-3.9-29.2-9.7-41.9-10.5-104-6.6-121.7-16.8-260.3-35.7-82.7-11.1-136.2-57.3-230.9-40.2-32.9,5.9-77.7,38.4-133.5,54.2-207.8,59-325.5,138.1-471.8,118.6-134.9-18-125.7-193.7-170.9-305.6-45.9-113.8-95.8-177.6-189.7-172.1-104.9,6.2-165.1,91.5-212.7,172.3C248.5,373,194.7,424.8,93.6,411.6-87.1,388.1-73.8,237.3-177.7,245.2"/><path class="cls-5" d="M2263.2,597.6c-51.9.9-102.6-17.9-149.3-45.1-31.4-18.3-65.4-35.2-113.1-45.1-15.9-3.3-29.6-8.4-42.3-8.7-106.4-2.7-122.7-3.2-262.6-22.1-84-11.2-135.2-64.3-230.1-50.1-32.2,4.8-77,37-133.3,53.9-200.7,60-323.2,140.3-470.4,119.7-133.7-18.7-126.1-192-169-305.9S602.6,111.5,508.8,115c-105.5,4-164.2,90.1-210.3,172.9C251.1,373,200,430.7,99.9,419-84.4,397.4-64.8,240.9-170,247.2"/><path class="cls-5" d="M2257.2,589.2c-51.9.8-102.7-16.8-149.7-42.4-31.4-17.2-65.5-33-114.5-41.2-16-2.7-29.9-7-42.8-6.9-108.7,1.3-123.7,10.5-265-8.4-85.3-11.3-134.2-71.2-229.4-60.1-31.4,3.7-76.3,35.7-133.2,53.6-193.7,60.9-320.9,142.5-468.9,120.8C721.2,585.2,727.2,414.4,686.5,298.3s-85-188-178.6-186.3c-106.1,1.9-163.3,88.7-208,173.5-46.2,87.7-94.7,151.3-193.7,141C-81.7,406.8-55.9,244.6-162.2,249.1"/><path class="cls-5" d="M2251.1,580.4c-52,.7-102.8-15.6-150-39.7-31.4-16.1-65.7-30.8-115.9-37.3-16.1-2.1-30.3-5.7-43.2-5.1-111.1,5.4-124.7,24.2-267.3,5.2-86.5-11.4-133.2-78-228.7-70.1-30.6,2.6-75.5,34.3-133,53.3-186.7,61.7-318.7,144.7-467.5,122-131.2-20.1-127-188.5-165.3-306.6-37.8-116.5-79.6-193.2-173-193.5-106.8-.3-162.4,87.3-205.6,174.1-45,90.4-90.9,159.9-188.9,151C-78.9,416.3-47,248.3-154.4,251"/><path class="cls-5" d="M2245,571.9c-52,.6-102.9-14.4-150.4-37.1-31.4-15-65.8-28.6-117.3-33.4-16.2-1.5-30.6-4.3-43.7-3.2C1820.3,507.7,1808,536,1664,517c-87.8-11.5-132.3-84.8-228-80-29.8,1.5-74.9,32.9-132.8,53-179.8,62.4-316.4,146.9-466,123.1-130-20.7-127.4-186.8-163.5-306.9-35.2-117.4-74.2-198.4-167.5-200.6-107.4-2.5-161.5,85.8-203.3,174.7-43.8,93.1-87.1,168.5-184,161C-76.2,425.9-38.1,252-146.6,253"/><path class="cls-5" d="M2238.8,563.2c-52,.5-103-13.3-150.7-34.4-31.4-13.9-66-26.5-118.7-29.5-16.3-.9-30.9-3-44.1-1.4-115.5,13.7-126.6,51.5-272,32.5-89.1-11.6-131.3-91.4-227.2-90-29,.4-74.2,31.4-132.7,52.7-172.9,63.1-314.1,149.2-464.6,124.2C700,595.9,700.9,432.2,667.3,310c-32.6-118.3-68.7-203.7-161.9-207.8-108-4.7-160.5,84.4-201,175.3-42.6,95.7-83.3,177.2-179.2,170.9-198.7-12.8-154.4-192.7-264-193.5"/><path class="cls-5" d="M2232.8,554.6c-52,.4-103.1-12.1-151.1-31.8-31.4-12.9-66.2-24.4-120.1-25.6-16.5-.4-31.3-1.6-44.6.4-117.7,18-127.6,65.2-274.3,46.1-90.4-11.7-130.4-97.9-226.5-100-28.2-.6-73.6,29.8-132.5,52.4-166.1,63.6-311.9,151.4-463.1,125.3C693,599.5,692.1,438.2,660.8,314c-30-119.2-63.3-208.9-156.3-214.9-108.6-7-159.6,83-198.6,175.9-41.4,98.4-79.4,185.8-174.3,180.9C-70.7,445.4-20.3,259.4-131.1,256.8"/><path class="cls-5" d="M2226.7,546c-52,.3-103.1-11-151.4-29.1-31.4-11.8-66.4-22.3-121.5-21.6-16.6.2-31.6-.3-45,2.2-119.8,22.2-128.6,78.8-276.7,59.7-91.7-11.7-129.5-104.3-225.8-109.9-27.5-1.6-73,28.2-132.4,52.1-159.3,64.1-309.6,153.7-461.7,126.4-126.4-22.7-129-181.7-157.9-307.9-27.5-120.2-57.9-214.2-150.8-222C394.4,86.7,345,177.5,307.3,272.4c-40.1,101-75.6,194.5-169.5,190.9C-68,455.3-11.5,263.2-123.4,258.8"/><path class="cls-5" d="M2220.6,537.4c-52,.2-103.2-9.8-151.8-26.4-31.4-10.7-66.6-20.3-122.9-17.7-16.8.7-31.9,1.1-45.5,4-121.9,26.5-129.6,92.5-279,73.4-93-11.8-128.7-110.6-225.1-119.9-26.8-2.6-72.4,26.5-132.2,51.8-152.6,64.5-307.4,156-460.2,127.6-125.2-23.3-129.6-180-156-308.2C623,200.8,595.5,102.4,502.7,92.7,393,81.3,345.1,172.9,308.8,269.8,270,373.5,237.1,473.1,144.2,470.7c-209.4-5.5-146.8-203.8-259.7-210"/><path class="cls-5" d="M2214.4,528.8c-52,.1-103.3-8.7-152.1-23.8-31.4-9.7-66.9-18.2-124.3-13.8-16.9,1.3-32.2,2.5-45.9,5.9-124,30.8-130.6,106.2-281.3,87-94.2-11.9-127.9-116.7-224.4-129.8-26-3.5-71.9,24.8-132,51.5-146,64.9-305.1,158.3-458.7,128.7-124-23.9-130.3-178.3-154.2-308.6-22.4-122-47-224.8-139.7-236.3C391.4,75.9,345.2,168.3,310.2,267.3c-37.5,106.3-67.8,212-159.8,210.8C-62.4,475.3,6.3,270.6-107.7,262.7"/><path class="cls-5" d="M2208.4,520.3c-52,0-103.4-7.6-152.5-21.1-31.4-8.6-67.2-16.2-125.7-9.9-17.1,1.8-32.5,3.8-46.4,7.7-126,35.2-131.5,119.8-283.7,100.6-95.5-12-127.2-122.8-223.6-139.8-25.3-4.5-71.4,22.9-131.9,51.2-139.5,65.2-302.9,160.7-457.3,129.8C664.5,614.3,656.4,462.2,635,329.9,615.2,206.8,593.6,99.7,501,86.3c-110.9-16-155.6,77.3-189.2,178.3-36.3,109-63.9,220.7-154.9,220.8-216.4.1-141.6-211-256.8-220.8"/><path class="cls-5" d="M2202.3,511.6a652.8,652.8,0,0,1-152.8-18.5c-31.4-7.6-67.5-14.3-127.1-6-17.3,2.4-32.8,5.2-46.8,9.5-127.9,39.5-132.5,133.5-286,114.2C1492.8,598.7,1463,482.1,1366.7,461c-24.7-5.4-71,21-131.7,50.9-133.1,65.5-300.7,163-455.8,130.9-121.7-25-131.7-174.8-150.5-309-17.4-124-36.1-235.4-128.6-250.6C388.6,64.8,345.5,159,313.2,262c-34.9,111.6-60,229.5-150,230.7-219.9,3-139.1-214.6-255.3-226.2"/><path class="cls-5" d="M2196,503.1a761,761,0,0,1-153.1-15.8c-31.4-6.6-67.8-12.3-128.4-2.1a308.7,308.7,0,0,0-47.2,11.3c-129.9,43.9-133.5,147.2-288.3,127.9-98.1-12.2-126.1-134.5-222.2-159.7-24-6.3-70.7,19.1-131.6,50.6-126.8,65.7-298.5,165.6-454.4,132C650.4,621.7,638.6,474,622.2,337.7c-15-125-30.6-240.7-123-257.7-112-20.6-153.6,74.4-184.6,179.5C281,373.8,258.5,497.8,169.4,500.2c-223.3,6.1-136.6-218-253.9-231.7"/><path class="cls-5" d="M2036.5,481.5c-31.4-5.5-68.2-10.3-129.8,1.8C1726,518.7,1741.4,659.4,1568.3,638c-99.4-12.3-125.8-140.2-221.5-169.7C1277,446.8,998.4,703.9,762.5,651.8,534.6,601.5,692,116.6,498.3,77.1,262.9,29.1,344.7,501,175.8,507.8-50.9,517,41.8,286.1-76.6,270.7"/></g></g></svg>