<svg id="Layer_1" data-name="Layer 1" xmlns="http://www.w3.org/2000/svg" xmlns:xlink="http://www.w3.org/1999/xlink" viewBox="0 0 1920 690"><defs><style>.cls-1,.cls-5{fill:none;}.cls-2{fill:url(#linear-gradient);}.cls-3{clip-path:url(#clip-path);}.cls-4{opacity:0.2;}.cls-5{stroke:#fff;stroke-miterlimit:10;}</style><linearGradient id="linear-gradient" x1="960" y1="692" x2="960" y2="2" gradientTransform="matrix(1, 0, 0, -1, 0, 692)" gradientUnits="userSpaceOnUse"><stop offset="0" stop-color="#1c2963"/><stop offset="1" stop-color="#00000d"/></linearGradient><clipPath id="clip-path"><rect class="cls-1" width="1920" height="690"/></clipPath></defs><rect class="cls-2" width="1920" height="690"/><g class="cls-3"><g class="cls-4"><path class="cls-5" d="M2073.8,788.5c-103.2,0,17.6-283.9-68.2-330.4-110.3-59.7-386.5,76.8-516.6,97.5S1089.4,668.2,970.6,623C833.6,570.9,747.9,252.2,680,142.6,607.2,25.1,427-88.4,304.5,8.1c-107.7,84.8-5.4,389.9,9.8,526.7,16.2,145.8-66.6,297.3-153,302.2-108,6.1-199-208.9-256.7-283.3"/><path class="cls-5" d="M2066.5,789.1c-93.5,0,27-293.5-64.1-342-111.5-59.3-382.3,76.7-511.5,100.9s-393.2,117.2-512.4,73.6c-23.2-8.5-44.9-24.7-65.6-46.1-101.4-105.3-163.4-340.8-222.3-430C615.7,31.7,437.1-77.4,314.7,18c-23.6,18.3-37.4,46.7-44.5,81.4-25.5,124.7,32.3,330.4,40.3,435.1,10.9,142.2-71.3,289.4-158.4,293.7-17.5.9-34.7-3.9-51.3-12.8-35-19-68.1-56.5-98.7-98.1C-41.5,658-78.1,590.5-106.7,556.1"/><path class="cls-5" d="M2059.1,789.8c-83.9,0,36.4-303.2-59.9-353.7-112.6-59-378,76.5-506.3,104.2-126.6,26.9-387,122-506.3,79.8-23.2-8.2-44.8-24-65.6-44.9C818.2,471.7,762.8,235.9,701.5,148.4,624.3,38.3,447.2-66.5,324.9,27.8,301.2,46,287,74.1,279.5,108.1c-27.2,122.5,23.2,323.6,27.3,426.1,5.6,138.6-76,281.4-163.9,285.3-17.5.8-34.6-3.9-51.2-12.7-34.9-18.6-68.3-55-99.7-95.1-44.5-56.9-81.2-121.1-110-153.2"/><path class="cls-5" d="M2051.8,790.5c-74.2,0,45.9-312.9-55.8-365.4-113.7-58.7-373.7,76.7-501.1,107.6-125.4,30.4-380.7,126.7-500.2,86.1-23.1-7.8-44.7-23.3-65.6-43.7-104.4-101.8-153-337.9-216.9-423.8C633,44.9,457.2-55.5,335.2,37.7c-23.8,18.1-38.4,45.7-46.4,79.1-28.9,120.3,14.1,316.7,14.3,417,.3,134.8-80.7,273.3-169.3,276.9-17.5.7-34.5-3.9-51.1-12.5C47.8,780.1,14.3,744.7-18,706.1c-45.6-54.5-82.3-115.4-111.3-145.3"/><path class="cls-5" d="M2044.5,791.2c-64.6,0,55.3-322.6-51.6-377-114.7-58.4-369.4,76.6-496,110.9-124.3,33.7-374.3,131.4-494.2,92.3-23-7.5-44.6-22.6-65.6-42.4C831.2,475,789.5,238.5,722.9,154.3,641.7,51.4,467.5-44.3,345.4,47.6c-23.9,18-38.9,45.1-47.4,77.9-30.6,118.1,5.1,309.7,1.3,408-5,130.9-85.5,265.4-174.7,268.5-17.5.6-34.5-3.9-51-12.3-34.7-17.8-68.5-52-101.6-89C-74.5,648.5-111.3,591-140.6,563.4"/><path class="cls-5" d="M2037.2,791.8c-55,0,64.7-332.3-47.5-388.7-115.8-58.2-365.1,76.5-490.8,114.3-123.2,37-368,136-488.1,98.5-23-7.2-44.5-21.9-65.6-41.2C837.8,476.5,803,239.7,733.7,157.1,650.6,58,477.6-33.3,355.6,57.4c-24.1,17.9-39.5,44.6-48.4,76.7-32.3,115.8-4,302.6-11.7,399-10.2,126.9-90.2,257.4-180.1,260-17.4.5-34.4-3.9-51-12.1C29.8,763.7-4.2,730.6-38.1,695c-47.4-49.8-84.3-103.9-113.8-129.4"/><path class="cls-5" d="M2029.8,792.5c-45.3,0,74.2-342-43.4-400.4s-360.8,76.5-485.6,117.6c-122,40.2-361.7,140.7-482,104.8-22.9-6.8-44.5-21.2-65.7-40C844.2,478.1,816.4,241,744.4,160,659.5,64.6,487.7-22.3,365.9,67.3c-24.2,17.8-40,44.1-49.4,75.6-34.1,113.6-13,295.3-24.7,389.9-15.2,122.8-94.9,249.4-185.6,251.6-17.4.4-34.4-3.9-50.9-12-34.5-16.9-68.7-48.9-103.5-83-48.3-47.4-85.2-98.2-115-121.4"/><path class="cls-5" d="M2022.5,793.2c-35.7,0,83.7-351.8-39.2-412-117.8-57.8-356.5,76.4-480.5,121-120.9,43.5-355.3,145.4-475.9,111-22.9-6.5-44.4-20.5-65.7-38.7C850.7,479.7,830,242.2,755.1,162.9c-86.6-91.8-257.3-174.1-379-85.7-24.4,17.7-40.5,43.5-50.3,74.4C290,263,303.9,439.6,288.1,532.5,267.9,651,188.5,773.9,97,775.6c-17.4.3-34.3-3.9-50.8-11.8-34.4-16.5-68.8-47.4-104.4-80-49.2-45-86.2-92.4-116.3-113.5"/><path class="cls-5" d="M2015.2,793.8c-26,0,93.2-361.5-35.1-423.7-118.9-57.6-352.2,76.3-475.3,124.3-119.8,46.7-349,150-469.9,117.2-22.8-6.2-44.3-19.7-65.7-37.5C857.1,481.3,843.5,243.4,765.8,165.7,677.6,77.6,507.8-.2,386.3,87c-24.5,17.6-41,43-51.3,73.3-37.5,109.2-30.8,280.5-50.7,371.8C259.3,646.4,180,765.6,87.9,766.9c-17.3.2-34.3-3.9-50.8-11.6-34.3-16-68.8-45.8-105.3-76.9-50.1-42.6-87.2-86.7-117.6-105.5"/><path class="cls-5" d="M2007.9,794.5c-16.4,0,102.6-371.3-30.9-435.4-119.9-57.5-347.9,76.2-470.1,127.7-118.6,50-342.6,154.7-463.8,123.4-22.7-5.9-44.2-19-65.7-36.2-113.7-91-120-329.2-200.7-405.3C686.9,84,518,10.7,396.6,96.8c-24.6,17.5-41.5,42.5-52.3,72.1-39.2,107-39.5,272.9-63.7,362.8C251,641.6,171.6,757.3,78.7,758.1c-17.3.1-34.2-3.9-50.7-11.4-34.2-15.7-68.9-44.4-106.3-74-50.9-40.3-88.1-80.9-118.8-97.6"/><path class="cls-5" d="M2000.6,795.2c-6.7,0,112.1-381.1-26.8-447-120.8-57.3-343.7,76.1-465,131-117.5,53.2-336.3,159.3-457.7,129.7-22.7-5.5-44.1-18.3-65.7-35C870,484.7,871,246,787.3,171.6,696.1,90.5,528,21.7,406.8,106.7c-24.8,17.4-42,41.9-53.2,70.9-40.9,104.7-48.2,265.2-76.7,353.7C242.8,636.8,163.1,749,69.5,749.3A122.2,122.2,0,0,1,18.9,738C-15.2,722.8-50,695.2-88.3,667.1c-51.7-37.9-88.9-75.2-120.1-89.7"/><path class="cls-5" d="M1993.2,795.9c2.9,0,121.6-390.9-22.7-458.7-121.8-57.2-339.4,75.9-459.8,134.3-116.4,56.4-329.9,163.9-451.7,135.9-22.6-5.2-44.1-17.6-65.8-33.8-117-87.3-108.6-326.4-195.3-399.1-92.7-77.7-260-141.8-381.1-57.9-24.9,17.3-42.5,41.4-54.2,69.8C320,288.9,305.9,443.9,272.9,531.1,234.8,632,154.6,740.8,60.3,740.5c-17.2,0-34.1-3.9-50.6-11.1-34-14.8-68.9-41.3-108.2-67.9"/><path class="cls-5" d="M1985.9,796.5c12.5,0,131.1-400.8-18.5-470.4-122.8-57.1-335.1,75.8-454.6,137.7-115.2,59.6-323.6,168.6-445.6,142.1-22.5-4.9-44-16.8-65.8-32.5-118.6-85.5-102.8-325.1-192.6-396-94-74.2-260.7-133.7-381.6-51-25.1,17.1-43,40.9-55.2,68.6-44.3,100.3-65,249.7-102.7,335.6C227.1,627,146.2,732.4,51.1,731.6A130,130,0,0,1,.6,720.7c-33.9-14.4-68.9-39.8-109.1-64.8"/><path class="cls-5" d="M1978.6,797.2c22.2,0,140.7-410.6-14.4-482-123.8-57-330.8,75.7-449.5,141-114.1,62.9-317.2,173.2-439.5,148.4-22.5-4.6-43.9-16.1-65.8-31.3-120.3-83.6-96.9-323.8-189.9-392.9-95.3-70.9-261.3-125.7-382.1-44-25.2,17-43.5,40.3-56.2,67.5-46,98.1-73.3,241.8-115.7,326.6C219.5,622.3,137.7,724.2,42,723A135,135,0,0,1-8.4,712.2c-33.8-14-68.9-38.3-110-61.8"/><path class="cls-5" d="M1971.3,797.9c31.8,0,150.2-420.5-10.2-493.7-124.7-56.9-326.5,75.5-444.3,144.4-113,66-310.8,177.8-433.4,154.6-22.4-4.2-43.9-15.4-65.8-30.1-122-81.7-91-322.5-187.2-389.8s-262-117.6-382.6-37.1c-25.3,16.9-44,39.8-57.1,66.3C343,308.3,309.4,446.5,262,530,212.4,617.4,129.5,715.9,33,714.2a140.3,140.3,0,0,1-50.3-10.6c-33.6-13.6-68.9-36.8-111-58.8"/><path class="cls-5" d="M1963.9,798.5c41.5,0,159.7-430.3-6.1-505.4-125.7-56.9-322.2,75.4-439.2,147.7-111.9,69.2-304.5,182.4-427.4,160.8-22.3-3.9-43.8-14.6-65.8-28.8-123.6-79.7-85-321.2-184.4-386.6C743.4,121.9,578.3,76.6,457.9,156c-25.5,16.8-44.6,39.2-58.1,65.1-49.4,93.6-89.2,226.2-141.7,308.5S120.9,707.6,23.6,705.4A147.3,147.3,0,0,1-26.7,695c-33.5-13.2-68.8-35.3-111.9-55.7"/><path class="cls-5" d="M1956.6,799.2c51.1,0,169.3-440.2-2-517-126.7-56.8-318,75.2-434,151.1-110.7,72.4-298.1,187-421.3,167.1-22.3-3.6-43.8-13.9-65.9-27.6-125.5-77.9-79.1-320.1-181.8-383.6C753,128,588.4,87.6,468.1,165.9a178.9,178.9,0,0,0-59.1,64c-51.1,91.4-96.9,218.5-154.7,299.5C198.1,608,112.4,699.4,14.4,696.7a153.8,153.8,0,0,1-50.2-10.2c-33.4-12.8-68.8-33.9-112.9-52.7"/><path class="cls-5" d="M1949.3,799.9c60.7,0,178.8-450.1,2.2-528.7-127.6-56.8-313.7,75-428.8,154.4-109.6,75.6-291.7,191.6-415.2,173.3-22.2-3.3-43.7-13.1-65.9-26.4-127.2-75.9-73-319-179.1-380.6-99.9-58-264.1-93.4-384.1-16.2a185.2,185.2,0,0,0-60,62.8c-52.9,89.3-104.6,211-167.8,290.5C191.3,603.4,103.9,691.1,5.2,687.9a158.5,158.5,0,0,1-50.1-10.1c-33.3-12.3-68.7-32.4-113.8-49.7"/><path class="cls-5" d="M1942,800.6c70.4,0,188.3-460,6.3-540.4C1819.7,203.5,1638.9,335,1524.6,418c-108.5,78.8-285.3,196.1-409.2,179.5-22.1-3-43.7-12.4-65.9-25.1-129-73.9-67-318-176.4-377.5-100.9-54.9-264.8-85.4-384.7-9.3a193,193,0,0,0-61,61.7c-54.5,87-111.9,203.5-180.8,281.4C184.7,599,95.4,682.9-3.9,679.1A164.5,164.5,0,0,1-54,669.2c-33.2-11.9-68.7-31-114.8-46.7"/><path class="cls-5" d="M1934.7,801.2c80,0,197.9-470,10.5-552-129.5-56.7-305.2,74.7-418.5,161.1-107.4,81.9-279,200.7-403.1,185.7-22.1-2.7-43.6-11.6-65.9-23.9-130.8-71.9-60.9-317-173.7-374.4-102-51.8-265.4-77.4-385.2-2.3a201.5,201.5,0,0,0-62,60.5C380.6,340.6,317.6,452.1,243,528.2c-65,66.4-156.1,146.3-256.2,142a172.4,172.4,0,0,1-50-9.7c-33.1-11.5-68.6-29.6-115.7-43.6"/><path class="cls-5" d="M1927.3,801.9c89.7,0,207.5-479.9,14.6-563.7-130.5-56.7-300.9,74.5-413.3,164.5-106.3,85.1-272.6,205.3-397,192-22-2.3-43.6-10.9-65.9-22.6-132.5-69.9-54.8-316.1-171-371.3-103-48.9-266.1-69.3-385.7,4.6a213.7,213.7,0,0,0-63,59.3c-57.9,82.5-126.4,189-206.8,263.3C171.6,590.5,78.5,666.4-22.3,661.6a182.7,182.7,0,0,1-49.9-9.5c-33-11.1-68.5-28.2-116.6-40.6"/><path class="cls-5" d="M1920,802.6c99.3,0,217-489.9,18.7-575.4C1807.3,170.5,1642,301.5,1530.5,395c-105.2,88.3-266.2,209.8-390.9,198.2-21.9-2-43.5-10.1-66-21.4C939.3,504,1025,256.5,905.3,203.6c-104-46-266.8-61.3-386.2,11.6a222.1,222.1,0,0,0-63.9,58.2c-59.6,80.3-133.5,182.1-219.8,254.2C165,586.4,69.9,658.1-31.6,652.8a190.4,190.4,0,0,1-49.9-9.4c-32.9-10.7-68.5-26.8-117.6-37.6"/><path class="cls-5" d="M1912.7,803.3c108.9,0,226.6-499.9,22.9-587-132.3-56.6-292.4,74.1-403,171.2-104.1,91.4-259.8,214.3-384.9,204.4-21.8-1.7-43.5-9.3-66-20.2C945.5,506,1039.2,257.1,916.1,206.6c-105-43.1-267.5-53.3-386.7,18.5a237.8,237.8,0,0,0-64.9,57C403.2,360.2,324,457.5,231.7,527.3,158.8,582.5,61.6,649.9-40.7,644a207.2,207.2,0,0,1-49.8-9.2c-32.7-10.3-68.4-25.5-118.5-34.6"/><path class="cls-5" d="M1905.4,803.9c118.6,0,236.2-509.8,27-598.7-133.3-56.6-288.2,73.9-397.8,174.5-103,94.6-253.5,218.9-378.8,210.7-21.8-1.4-43.5-8.6-66-18.9-138-63.6-36.4-313.9-162.9-362-106-40.3-268.2-45.2-387.2,25.5a253.2,253.2,0,0,0-65.9,55.9C410.8,366.7,326.3,459.7,228,527,152.3,578.8,53.2,641.7-49.8,635.3a222.8,222.8,0,0,1-49.7-9"/><path class="cls-5" d="M1898.1,804.6c128.2,0,245.8-519.8,31.2-610.4-134.2-56.6-284,73.7-392.7,177.9-102,97.7-247.1,223.4-372.7,216.9-21.7-1.1-43.4-7.8-66-17.7C958.1,509.8,1067.7,258,937.7,212.4,830.6,174.8,668.8,175.2,550,244.8a270.3,270.3,0,0,0-66.9,54.7C418.4,373.1,328.6,462,224.3,526.6,145.9,575.1,44.7,633.5-59,626.5a234.5,234.5,0,0,1-49.7-8.8"/><path class="cls-5" d="M1890.7,805.3c137.9,0,255.3-529.8,35.3-622-135.2-56.6-279.7,73.5-387.5,181.2-100.9,100.9-240.7,227.9-366.7,223.1-21.6-.8-43.4-7-66-16.5-141.6-59.3-24-312.8-157.5-355.8-108.1-34.8-269.7-29.2-388.2,39.4-27,15.6-49.7,33.9-67.8,53.6-66.4,71.4-161.4,156.4-271.8,218-81.2,45.4-184.3,99-288.8,91.5a246.7,246.7,0,0,1-49.6-8.7"/><path class="cls-5" d="M1883.4,805.9c147.5,0,264.9-539.9,39.4-633.7-136.1-56.6-275.5,73.3-382.3,184.5-99.8,104-234.4,232.4-360.6,229.3-21.6-.5-43.4-6.2-66.1-15.2C970.3,513.7,1095.9,258.4,959,218.1,850,186,688.8,197,570.4,264.5c-27.1,15.5-50.2,33.4-68.8,52.4-68.1,69.2-168.4,150.4-284.8,209-84,42.3-189,91.1-294.2,83.1a268.4,268.4,0,0,1-49.5-8.5"/><path class="cls-5" d="M1876.1,806.6c157.1,0,274.5-549.9,43.6-645.4-137-56.6-271.3,73.1-377.2,187.9-98.8,107.2-228,236.9-354.5,235.6-21.5-.2-43.3-5.4-66.1-14-145.3-54.9-11.8-312-152.1-349.6-110.2-29.6-271.1-13.2-389.2,53.3a340.7,340.7,0,0,0-69.8,51.2c-69.8,67-175.5,144.6-297.8,200-86.9,39.3-193.7,83.3-299.6,74.6a294.6,294.6,0,0,1-49.4-8.3"/><path class="cls-5" d="M1868.8,807.3c166.8,0,284.1-560,47.7-657-138-56.7-267.1,72.9-372,191.2-97.7,110.3-221.6,241.3-348.4,241.8-21.4.1-43.3-4.6-66.1-12.8-147.2-52.6-5.6-311.7-149.4-346.5-111.3-27-271.8-5.2-389.7,60.2-27.4,15.2-51.2,32.3-70.7,50.1-71.5,64.7-182.6,139-310.8,190.9-89.9,36.4-198.5,75.4-305.1,66.2a316.1,316.1,0,0,1-49.4-8.1"/><path class="cls-5" d="M1861.4,808c176.4,0,293.7-570,51.9-668.7-138.9-56.7-262.9,72.6-366.8,194.6-96.7,113.4-215.2,245.8-342.4,248-21.4.4-43.2-3.8-66.1-11.5-149-50.3.5-311.4-146.7-343.5-112.4-24.5-272.5,2.8-390.3,67.2A423.3,423.3,0,0,0,529.3,343c-73.2,62.5-189.7,133.4-323.8,181.9C112.6,558.5,2.3,592.5-105,582.7a356.6,356.6,0,0,1-49.3-8"/><path class="cls-5" d="M1854.1,808.6c186.1,0,303.3-580.1,56-680.4-139.8-56.7-258.7,72.4-361.7,197.9-95.6,116.6-208.9,250.2-336.3,254.3-21.3.7-43.2-3-66.1-10.3-150.9-48,6.5-311.3-144-340.4-113.5-21.9-273.2,10.8-390.8,74.1-27.7,15-52.2,31.2-72.7,47.8-74.9,60.3-197,128-336.8,172.8-96.1,30.8-207.9,59.7-315.9,49.3a406.3,406.3,0,0,1-49.2-7.8"/><path class="cls-5" d="M1846.8,809.3c195.7,0,312.9-590.2,60.1-692-140.8-56.7-254.7,72.1-356.5,201.3-94.8,119.6-202.5,254.7-330.2,260.5-21.2,1-43.2-2.2-66.1-9.1-152.7-45.6,12.6-311.2-141.3-337.3-114.7-19.5-274.1,18.5-391.3,81.1a548.7,548.7,0,0,0-73.7,46.6C471.1,418.5,343.5,483.1,198,524.2c-99.3,28.1-212.6,52.1-321.3,40.9a449.3,449.3,0,0,1-49.2-7.6"/><path class="cls-5" d="M1839.5,810c205.4,0,322.7-600.7,64.3-703.7-141.6-57-250.5,71.9-351.3,204.6-93.7,122.8-196.2,259.1-324.1,266.7-21.2,1.3-43.1-1.4-66.2-7.8-154.5-43.2,18.6-311.1-138.6-334.2-115.8-17-274.8,26.5-391.8,88A630.4,630.4,0,0,0,557.2,369c-78.4,56-211.8,117.5-362.9,154.8C91.7,549.2-23,568-132.5,556.3c-16.5-1.7-32.9-4.2-49.1-7.4"/><path class="cls-5" d="M1832.2,810.7c215,0,332.3-610.6,68.4-715.4-142.6-56.9-246.2,71.7-346.2,208-92.6,125.9-189.8,263.4-318.1,273-21.1,1.5-43.1-.6-66.2-6.6-156.4-40.7,24.6-311.1-135.9-331.1-117.1-14.6-275.4,34.6-392.3,95a761.3,761.3,0,0,0-75.6,44.3C486.2,431.5,347.1,490,190.5,523.6c-106,22.7-222,36.3-332.2,24.1-16.5-1.8-32.9-4.2-49-7.3"/><path class="cls-5" d="M1824.8,811.3c224.6,0,341.8-620.5,72.6-727-298-117.9-401.5,562-719.2,485.2-158.2-38.3,30.6-311.1-133.2-328-147-15.1-355.1,73.2-469.4,145.1C430.4,477.8,85.9,582.1-199.8,531.7"/></g></g></svg>