<svg xmlns="http://www.w3.org/2000/svg" xmlns:xlink="http://www.w3.org/1999/xlink" viewBox="0 0 1920 690"><defs><style>.cls-1{fill:none;}.cls-2{isolation:isolate;}.cls-3{fill:url(#linear-gradient);}.cls-4{clip-path:url(#clip-path);}.cls-5{opacity:0.2;mix-blend-mode:overlay;}.cls-6{fill:#fff;}</style><linearGradient id="linear-gradient" x1="960" x2="960" y2="690" gradientUnits="userSpaceOnUse"><stop offset="0.01" stop-color="#4e2353"/><stop offset="1" stop-color="#0f0926"/></linearGradient><clipPath id="clip-path"><rect class="cls-1" width="1920" height="690"/></clipPath></defs><g class="cls-2"><g id="Layer_1" data-name="Layer 1"><rect class="cls-3" width="1920" height="690"/><g class="cls-4"><g class="cls-5"><path class="cls-6" d="M1120.6,662.3c-35.5,0-72.5-54.1-109.8-160.8C936.7,289.7,840.7,167,740.5,155.9c-67.3-7.4-130.6,36.2-178.3,122.9C505.2,382.4,454,434.1,396,446.5S268.3,430,186,357.8C90.8,274.1-5.5,266.9-69.5,275.5c-69.3,9.5-116.7,39.1-117.2,39.4l-.6-1.3c.5-.3,48.1-30,117.7-39.5a305.5,305.5,0,0,1,119.9,7.2c48.3,12.9,94.2,38.2,136.4,75.3,82,72,150.4,101,209.1,88.5S504.4,381.3,561.2,278c23.4-42.5,50.7-74.8,81.1-96.2s64.3-31.1,98.3-27.3c100.6,11.1,197,134.1,271.3,346.5,37.4,106.9,74.3,160.7,109.6,159.8,56.6-1.4,98.9-138.3,129.7-238.2,12-38.9,22.4-72.6,30.6-87.3,36.1-64.3,72.7-97,111.8-99.8s76.6,23.6,116,78.3c107.6,149.3,197.3,197.5,417.1,224.1v1.4c-114.7-13.9-189.3-33.5-249.6-65.7s-111.6-80.2-168.3-158.9c-39.1-54.3-77.8-80.4-115.1-77.8s-74.9,35.3-110.8,99.2c-8.1,14.6-18.5,48.2-30.5,87-30.9,100.3-73.3,237.7-130.8,239.1Z"/><path class="cls-6" d="M1140.6,647.8c-14.7,0-29.6-8.7-44.5-26.1-21.5-25.1-43.3-67.3-64.6-125.3C993.3,392.2,950.1,311,903.1,255.2c-42.9-50.9-87.8-79.7-133.5-85.6-65.5-8.5-128.8,31.5-178.3,112.7-50.5,82.8-97,132.4-146.3,155.9-59.4,28.4-124.6,19.5-199.4-27a400.4,400.4,0,0,1-53.2-39.8C115.8,303.8,50.1,271-14.6,268.2c-99.2-3.8-169.6,49.4-170.3,50l-.7-1.3c.7-.5,71.4-53.9,171.1-50.1,64.9,2.8,130.8,35.6,207.6,103.4a389.4,389.4,0,0,0,53,39.7c169.4,105.5,265.5.6,344.3-128.5,49.7-81.5,113.4-121.8,179.4-113.3,45.9,6,91.1,34.9,134.1,86.1,47.1,56,90.4,137.3,128.7,241.6,21.3,57.9,43,99.9,64.4,124.9,17.6,20.7,35.3,28.9,52.6,24.6,51-12.8,90.6-131.5,119.6-218.2,12.7-38.2,23.7-71.1,32.6-85.6,24.1-39.1,61.8-91.4,111.6-94.3,36-2.1,73.2,22,110.8,71.8,103.4,136.8,190.2,179.9,403.6,200.5V521c-110.4-10.7-182.2-27.3-240.1-55.6-60.3-29.4-109.5-72.9-164.3-145.5-37.4-49.4-74.3-73.4-109.9-71.3-49.2,2.9-86.7,54.9-110.6,93.7-8.8,14.4-19.8,47.3-32.5,85.3-29,87-68.8,206.1-120.5,219.1A35.6,35.6,0,0,1,1140.6,647.8Z"/><path class="cls-6" d="M1160.5,633.5c-14.5,0-29.1-8.2-43.6-24.3-22.2-24.7-44-64.3-64.7-117.9-37.7-97.3-79.8-173.3-125-225.7-41.4-48.1-84.8-75.7-128.9-82.2-63.5-9.4-126.7,26.9-177.9,102.3-54.1,79.7-103.5,128.7-155.5,154.2-64.7,31.8-133.4,26.8-209.9-15.3A306.4,306.4,0,0,1,198.7,385C119.2,314.5,61.9,267.9-8.1,263.8c-103.6-6.2-174.4,57-175.1,57.7l-.7-1.2c.7-.6,71.8-64.1,175.9-58,70.3,4.2,127.8,50.9,207.4,121.6a308.8,308.8,0,0,0,56.1,39.4c173.3,95.2,281.2-16.5,364-138.5,51.4-75.8,115-112.3,179-102.8,44.3,6.5,87.9,34.3,129.5,82.5,45.3,52.6,87.5,128.7,125.3,226.2,20.6,53.4,42.3,92.9,64.4,117.4,17.4,19.4,34.9,27,52,22.8,49.3-12.3,88.7-120.7,117.4-199.8,13.5-37.1,25.1-69.2,34.7-83.4,28.9-42.7,64.8-86.6,111.4-88.9,34.2-1.6,69.7,20.4,105.6,65.4,98,123.1,185.5,162.8,390.2,177v1.4c-107.6-7.5-174.5-20.6-230.7-45.3-59.4-26.1-107.3-65.6-160.3-132.1-35.6-44.7-70.8-66.5-104.6-64.9-46.2,2.2-81.8,45.8-110.5,88.2-9.6,14.1-21.2,46.1-34.6,83.1-28.8,79.5-68.3,188.3-118.2,200.7A38.7,38.7,0,0,1,1160.5,633.5Z"/><path class="cls-6" d="M1180.3,619.1c-14.1,0-28.5-7.5-42.7-22.5-22.7-23.9-44.5-61-64.7-110.4-71.4-174.1-156.3-274-245.6-289-62.7-10.5-124.2,21.3-177.8,92-58.3,76.9-110.7,125.4-164.8,152.6-70.3,35.3-142.3,34.1-220.2-3.7A255.3,255.3,0,0,1,205,398.7c-14.2-12.8-27.6-25.3-40.5-37.3C106.2,307,60.2,264-1.6,259.3c-108-8.2-179.1,64.7-179.8,65.5l-.8-1.1c.7-.8,72.1-74.1,180.6-65.8,62.2,4.7,108.4,47.8,166.8,102.3,13,12.1,26.3,24.6,40.6,37.3a252.5,252.5,0,0,0,59.1,39.3c175.6,85.1,297.3-34.7,383.7-148.6,53.9-71,115.8-103,178.9-92.4,89.6,15,174.9,115.3,246.4,289.8,20.2,49.2,41.9,86.2,64.5,110,17.2,18,34.5,25.1,51.4,20.9,47.6-11.6,85.1-106.1,115.1-181.9,14.3-35.9,26.5-66.8,36.9-80.8,21.3-28.4,60.8-81.4,111.3-83.3,32.6-1.2,66.2,18.6,100.3,58.9,103.5,122.6,199.9,146.4,376.7,153.4v1.5c-103.4-4.1-167.5-14.3-221.2-35.2-57.7-22.3-105.8-58.9-156.3-118.7-33.8-40-67.2-59.6-99.3-58.5-50,1.9-89.3,54.6-110.5,82.9-10.3,13.8-22.5,44.6-36.7,80.4-30.2,76.1-67.7,170.9-115.9,182.7A41.1,41.1,0,0,1,1180.3,619.1Z"/><path class="cls-6" d="M1200.2,604.8c-13.9,0-28-6.9-41.8-20.7-23.3-23.1-45.2-57.8-64.9-102.9-70-160.7-152.1-254-237.2-270.1-61-11.4-122.5,16.7-177.7,81.5C635.1,343.7,575.9,407,504.2,443.9c-75.8,39-151.1,41.5-230.3,7.7a222.5,222.5,0,0,1-62.5-39.3c-22.6-20.3-42.3-40.8-61.3-60.7C103,302.5,62.4,260,4.8,254.8c-112.3-10.2-183.8,72.4-184.5,73.3l-.8-1.1c.7-.8,72.5-83.8,185.4-73.6,58,5.2,98.8,47.8,146,97.2,19,19.8,38.6,40.3,61.2,60.5,18,16.2,38.4,29,62.2,39.2,173.2,74,301.1-38.7,403.4-158.7,55.6-65.1,117.4-93.4,178.8-81.9,41.1,7.7,81.5,33.2,120.2,75.6,41.7,45.8,81.4,111.5,117.9,195.2,19.6,45,41.4,79.5,64.5,102.5,16.9,16.7,34,23.2,50.8,19.2,45.9-11,83-96.2,112.8-164.6,15-34.3,27.9-64,39.1-77.6,20.6-24.9,48.7-59,83.7-72.2,40.2-15.3,80.2.1,122.4,46.8,99.1,109.8,192.2,128.8,363.3,129.9v1.4c-99.2-.6-160.6-7.8-211.8-24.9-56.6-18.9-103.6-51.3-152.3-105.3-41.9-46.4-81.5-61.6-121.3-46.6-34.7,13.2-62.7,47.1-83.1,71.9-11.1,13.4-24,43-38.9,77.3-30,68.7-67.2,154.2-113.7,165.3A41.9,41.9,0,0,1,1200.2,604.8Z"/><path class="cls-6" d="M1220,590.5c-13.7,0-27.4-6.4-40.9-19-23.9-22.2-45.7-54.3-64.9-95.4-69.6-149.4-146.7-233.9-229-251-59.4-12.4-120.7,12.1-177.5,71-54.2,56.2-114,113.2-184,150-81.6,42.9-160.2,49.1-240.4,19-25.5-9.6-46.9-22.4-65.6-39.2-27.4-24.7-49.8-51.1-71.4-76.7-42.2-49.9-78.6-93-135-98.9-60.9-6.3-109.2,16-138.9,35.9-32.2,21.6-50.2,44.9-50.4,45.2l-.8-1c.1-.2,18.2-23.7,50.6-45.4,29.9-20,78.3-42.5,139.6-36.1,56.8,5.9,93.4,49.2,135.7,99.3,21.6,25.5,44,51.9,71.4,76.6,18.5,16.7,39.8,29.4,65.2,38.9,168,63.1,302.7-43.8,423.2-168.7,57-59.1,118.8-83.8,178.5-71.4,39.4,8.3,78.3,32.5,115.6,72,40,42.4,78.4,102.9,114.3,179.8,19.1,40.9,40.8,72.9,64.5,95,16.6,15.5,33.5,21.4,50.1,17.5,44.2-10.2,81-86.5,110.5-147.7,15.8-32.7,29.4-60.9,41.4-74l1.3-1.4c21.9-24,49.2-53.9,82.1-65.7,38.7-14,77-.6,117.3,40.8,94.7,97.2,184.5,111.3,349.8,106.2v1.5c-80.3,2.4-145.4.9-202.3-14.7s-101.3-43.7-148.3-92c-39.9-41-77.9-54.2-116.1-40.5-32.7,11.8-59.8,41.6-81.7,65.5l-1.2,1.3c-11.9,13.1-25.5,41.2-41.2,73.7-29.7,61.5-66.6,138-111.4,148.4A42.9,42.9,0,0,1,1220,590.5Z"/><path class="cls-6" d="M1239.8,576.2c-13.4,0-26.8-5.7-40-17.2-24.7-21.6-46-50.4-64.9-88C1066.6,335,992.3,256.9,914,239c-58.6-13.4-118.2,7-177.3,60.6l-3.6,3.3c-52.9,48-118.8,107.8-192.7,146.9-86.3,45.7-167.4,55.1-247.6,28.8-27-8.9-49.5-21.7-68.7-39-30.8-27.9-54.4-59.4-77.1-89.9-39-52.2-72.6-97.2-129.2-103.8-63.3-7.4-112.6,17.1-142.9,39-32.8,23.7-50.9,49.5-51.1,49.8l-.9-.9c.1-.3,18.3-26.3,51.3-50.1,30.5-22,80.1-46.7,143.7-39.3,57,6.7,90.8,52,130,104.4,22.7,30.4,46.2,61.9,76.9,89.6,19.1,17.3,41.5,30,68.3,38.8,180.7,59.4,330.1-76.3,439.2-175.4l3.7-3.4c59.3-53.8,119.3-74.3,178.2-60.8,78.7,18,153.3,96.3,221.7,232.6,18.9,37.5,40,66.2,64.7,87.6,16.2,14.2,32.8,19.5,49.3,15.9,42.4-9.5,78.9-77.1,108.2-131.4,16.5-30.7,30.8-57.2,43.8-70l3.9-3.9c44.6-43.9,105.5-104,191.3-23.3,91,85.7,173.7,94.5,336.3,82.7v1.4c-76.8,5.6-138.9,7-192.8-4.5s-98.9-35.7-144.4-78.5c-85-80-145.5-20.3-189.7,23.3l-4,3.9c-12.8,12.6-27,39-43.5,69.6-29.4,54.6-66,122.5-109,132.1A51.5,51.5,0,0,1,1239.8,576.2Z"/><path class="cls-6" d="M1259.5,562c-12.5,0-25.4-4.7-38.9-15.6-25.4-20.5-46.6-46.8-65-80.5-66.9-122.9-138.6-194.6-213-213-57-14.2-116.5,2.7-176.8,50.1-11,8.7-22.4,17.9-34.4,27.6C639,405.2,517.9,503.1,380.7,503.1A281.8,281.8,0,0,1,302.2,492c-28.4-8.1-51.9-20.8-71.8-38.8C197.1,423,173.2,386.8,150,351.8c-36.6-55.3-68.2-103-125.7-110.4-65.6-8.4-116.1,18.3-147,42.2-33.4,25.9-51.6,54.1-51.8,54.4l-1-.9c.2-.3,18.5-28.7,52.1-54.7,31.1-24,81.9-50.9,147.8-42.4,58,7.4,89.8,55.4,126.6,110.9,23.1,34.9,47,71.1,80.1,101.1,19.8,17.9,43.1,30.6,71.4,38.7,168.9,48.2,318.8-72.9,428.2-161.3,12.1-9.7,23.4-18.9,34.4-27.6,60.6-47.6,120.4-64.6,177.8-50.3,74.7,18.5,146.6,90.4,213.7,213.6,18.3,33.6,39.4,59.8,64.7,80.2,62.2,50.2,113.3-33.9,154.4-101.5,17.4-28.5,32.3-53.1,46.2-65.3l6.4-5.7c22.4-19.9,47.9-42.4,78.1-51.7,35-10.8,69.5-1.2,105.3,29.2,87,73.9,166.4,78,322.8,59.1v1.5c-75.2,9-132.1,13.2-183.1,5.7-53.3-7.7-96.6-27.8-140.5-65.1-80-67.9-136.5-17.8-182,22.5l-6.4,5.7c-13.7,12-29.4,37.7-45.9,64.9C1344.1,498.2,1305.3,562,1259.5,562Z"/><path class="cls-6" d="M1279.1,547.8c-12.1,0-24.7-4.2-37.8-13.9-26.3-19.6-47-42.8-65-73.1C1058.6,263.6,933.9,213.1,794.9,306.5c-20.1,13.5-41.8,29.6-64.9,46.6-56.7,42-121,89.5-191.6,122.1-81.8,37.8-156,47.8-226.8,30.3-29.8-7.3-54.3-20-74.8-38.7-35.3-32.1-59.3-72.7-82.4-112C119.6,295.9,89.7,245.1,30.7,236.9c-67.8-9.4-119.5,19.5-150.9,45.4-34.1,28-52.4,58.7-52.6,59l-.9-.8c.1-.3,18.5-31.2,52.8-59.4,31.6-26,83.6-55.1,151.8-45.6,59.4,8.2,91,61.8,124.5,118.5,23.1,39.2,47,79.7,82.1,111.7,20.4,18.5,44.7,31.1,74.4,38.4,158.8,39.2,302.3-66.9,417.5-152.2,23-17.1,44.8-33.2,64.9-46.7,66.9-44.9,128.8-56.8,189.1-36.3,67.5,23,130.9,85.5,193.9,191.1,17.9,30.1,38.5,53.2,64.7,72.7s53.4,18.2,82.2-4.7c25.3-19.9,48.6-53.5,69.2-83.2,17.3-25,33.7-48.6,48.5-60.1l8.6-6.8c44.6-35.3,100-79.3,175.7-22.4,90.4,67.9,177.2,58.7,309.4,35.6l.2,1.4c-71.5,12.5-125.4,19.6-173.5,16-52-3.9-94.2-19.8-136.7-51.8-75-56.3-130.1-12.7-174.4,22.4l-8.7,6.8c-14.6,11.4-30.9,34.9-48.2,59.8C1362,492.3,1323.4,547.8,1279.1,547.8Z"/><path class="cls-6" d="M1299.4,533.9c-12,0-24.4-3.8-37.3-12.6-18.4-12.4-42.4-31.2-65.1-65.6C1078.5,276.4,963.4,231.4,823.9,309.9c-28.4,16-60.4,38.3-94.4,61.9C614.8,451.5,472,550.7,321.1,519c-31.3-6.6-56.8-19.2-78-38.5-37-33.8-60.7-78.7-83.5-122.1-31.8-60.1-61.8-117-122.4-125.9-70.1-10.4-123,20.6-155,48.5-34.7,30.2-53.1,63.3-53.2,63.6l-1-.8c.1-.3,18.6-33.6,53.5-64,32.2-28,85.4-59.2,155.9-48.8,61.1,9.1,91.3,66.2,123.2,126.7,22.8,43.2,46.4,88,83.2,121.6,21.1,19.2,46.4,31.8,77.5,38.3,150.5,31.6,293-67.4,407.6-147,34-23.6,66.1-45.9,94.5-62,67-37.7,127.8-46.4,186-26.6,64.5,21.9,126.2,78.4,188.5,172.9a227.2,227.2,0,0,0,64.8,65.2c56.9,38.7,105.5-21.6,148.4-74.8,18-22.5,35.1-43.6,50.8-54.4l10.7-7.5c43.4-30.5,97.4-68.4,168.2-22.7,87,56.2,169.8,42.1,295.9,12l.2,1.4c-126.3,30.1-209.3,44.3-296.7-12.1-70.2-45.4-123.9-7.7-167,22.6l-10.7,7.5c-15.6,10.7-32.6,31.8-50.6,54.2C1378.4,487.9,1341.4,533.9,1299.4,533.9Z"/><path class="cls-6" d="M379.4,536.7a279.3,279.3,0,0,1-48.9-4.2c-32.6-5.8-59.2-18.3-81.1-38.4-38.4-35.3-61.6-84.3-84.1-131.6C134.9,298.4,106.2,237.8,43.7,228c-72.4-11.4-126.4,21.8-159,51.6-35.4,32.4-53.8,68-54,68.3l-1-.7c.1-.4,18.7-36.1,54.2-68.7,32.8-30,87.1-63.4,160-51.9,63,9.9,91.9,70.7,122.4,135.2,22.4,47.2,45.6,96.1,83.9,131.2,21.7,19.9,48,32.3,80.5,38.1,143.5,25.3,285-68.9,398.7-144.5,44.7-29.8,86.9-57.9,123.2-74.5,66.7-30.7,126.5-36.3,182.8-17.2,61.4,20.9,121.3,71.5,183.2,154.8,21.7,29.3,44.9,45.6,64.8,57.8,54.4,33.4,102.8-17.5,145.6-62.4,18.6-19.6,36.3-38.1,52.9-48l12.7-7.8c42.3-26.1,94.9-58.5,160.7-23.4,84.3,45,166.6,24.6,282.5-11.5l.3,1.4c-116.1,36.2-198.6,56.6-283.3,11.4-65.3-34.8-115.4-3.9-159.6,23.4l-12.8,7.7c-16.4,9.9-34,28.4-52.6,47.9-43.1,45.2-91.8,96.4-147,62.6-19.9-12.2-43.3-28.7-65.1-58.1C1099.4,291.4,990.3,250.3,853,313.4c-36.1,16.6-78.3,44.7-123,74.4C629.1,455,506.3,536.7,379.4,536.7Z"/><path class="cls-6" d="M380.1,548.8a280.8,280.8,0,0,1-40.2-2.9c-34-4.9-61.5-17.4-84.1-38.2-39.8-36.6-62.5-89.6-84.4-140.9-29.2-68.2-56.7-132.6-121.2-143.3-74.7-12.4-129.9,23-163.1,54.9-36,34.5-54.5,72.4-54.7,72.8l-1-.7c.1-.4,18.8-38.5,54.9-73.2,33.4-32.1,88.9-67.7,164-55.2,65.2,10.8,92.9,75.5,122.2,144.1,21.8,51.1,44.4,104,84,140.4,22.5,20.6,49.8,33,83.6,37.9,137.8,20,278.2-70.9,391-144,55.1-35.6,107.1-69.3,150.6-85,67.1-24.2,124.2-26.7,179.8-7.8,58.1,19.8,116.2,64.5,177.7,136.9,21,24.6,43.6,38.7,64.9,50.3,51.9,28.4,100.4-13.5,143.2-50.5,19.1-16.6,37.2-32.2,54.6-41.2l15-7.8c43.2-23.1,92.2-49.2,153-24.3,82.8,34.1,163.7,7,269-35l.4,1.3c-105.5,42.1-186.6,69.3-269.8,35.1-60.3-24.8-109.1,1.2-152.1,24.2l-15,7.9c-17.3,8.8-35.3,24.4-54.4,40.9-43.1,37.2-91.8,79.4-144.4,50.7-21.4-11.6-44.1-25.8-65.2-50.6-119-139.8-222.2-177.1-356.3-128.8-43.4,15.7-95.4,49.4-150.4,85-56.9,36.8-121.3,78.5-187.5,107.7C484.5,535.8,430.4,548.8,380.1,548.8Z"/><path class="cls-6" d="M381.4,561.2a286,286,0,0,1-32-1.8c-35.4-4.1-63.9-16.5-87.3-38-41-37.9-63-94.9-84.3-149.9C149.7,299,123.3,230.6,56.7,219c-77-13.3-133.4,24.2-167.2,58.1-36.6,36.7-55.2,77-55.4,77.4l-1-.6c.2-.4,18.9-41,55.6-77.9,34-34,90.7-71.8,168.1-58.4,67.3,11.7,93.9,80.5,122.1,153.3,21.2,54.9,43.2,111.7,84,149.3,23.1,21.4,51.5,33.7,86.6,37.8,133.1,15.4,266.6-69.8,384.4-144.9,65.1-41.6,126.7-80.8,177-94.2,129.9-34.6,227.7-.8,349,120.5,21.3,21.4,44.7,33.4,64.9,43,49.8,23.6,96.4-8.5,141.6-39.4,19.3-13.3,37.6-25.8,55.5-33.6,5.9-2.5,11.8-5.2,18-8,41.8-18.9,89.2-40.4,144.5-25,83.2,23.1,161.6-11.3,255.6-58.7l.4,1.4c-94.1,47.4-172.8,81.9-256.3,58.7-54.9-15.3-102.1,6.1-143.8,25l-18,8c-17.8,7.7-36,20.2-55.3,33.4-45.4,31.2-92.3,63.4-142.7,39.5-20.3-9.6-43.7-21.7-65.2-43.2-120.9-120.9-218.5-154.7-348-120.2-50.1,13.3-111.6,52.5-176.6,94C625.9,483.5,504.1,561.2,381.4,561.2Z"/><path class="cls-6" d="M382.8,573.9c-8,0-16-.3-24-1-36.7-3.2-66.2-15.6-90.3-37.9-42.2-39.1-63.6-99.9-84.2-158.7-26.9-76.7-52.4-149.2-121.2-161.7C-16.1,200.4-73.7,240.1-108,275.9c-37.3,38.8-56,81.5-56.1,82l-1.1-.7c.2-.4,19-43.4,56.3-82.4,34.6-36,92.5-75.9,172.2-61.7,69.5,12.7,95.1,85.6,122.1,162.7C206,434.4,227.3,495,269.2,533.9c23.9,22.1,53.2,34.4,89.7,37.6,129.2,11.3,261.9-72.8,379-147C812.7,377,883.3,332.3,940,322.3c64.7-11.3,119.9-8,173.7,10.4,51.2,17.6,102.6,48.9,166.8,101.6,20.9,17.1,43.5,26.9,65,35.5,48.1,19.3,95.7-5.2,141.7-28.9,19-9.8,36.8-19,54.7-25.3,7.5-2.6,15-5.5,23-8.5,39.8-15,84.8-32.1,134-25.5,77.3,10.3,150-23.8,242.2-82.2l.5,1.3c-92.3,58.5-165.2,92.6-242.8,82.3-48.9-6.5-93.9,10.5-133.6,25.5l-22.9,8.5c-17.9,6.3-35.7,15.5-54.6,25.2-46.2,23.8-94,48.4-142.6,28.9-21.5-8.6-44.3-18.4-65.3-35.6C1152.9,331.3,1064,302,940.2,323.7c-56.5,9.9-127.1,54.7-201.8,102C628.4,495.5,504.6,573.9,382.8,573.9Z"/><path class="cls-6" d="M384.8,586.9c-5.5,0-11-.2-16.6-.5-38-2.4-68.5-14.7-93.4-37.8-43.3-40.2-63.9-104.8-83.8-167.3-25.9-81.1-50.3-157.8-121.4-171.2C-12,194.9-70.7,236.8-105.6,274.6c-37.8,41-56.6,86.1-56.8,86.6l-1.1-.7c.2-.4,19.1-45.8,57.1-87,35.1-38,94.1-80.1,176.2-64.8,71.8,13.5,96.3,90.6,122.3,172.1,19.9,62.3,40.4,126.7,83.5,166.7,24.6,22.9,54.9,35.1,92.7,37.4,126,7.8,258.1-76,374.6-149.9C827,381.7,906.5,331.3,969.2,325.7c126.5-11.2,207.9,24.5,331.9,103.5,20.9,13.2,43.6,21.1,65.1,28,48,15.5,98.1-2.2,146.7-19.3,16.1-5.7,32.8-11.6,49.1-16.1,40.6-11.3,94.6-25.5,151.4-35,82.7-13.8,155.4-47.4,228.7-105.7l.7,1.2c-73.5,58.4-146.4,92.1-229.3,105.9-56.7,9.5-110.6,23.7-151.3,35-16.2,4.5-32.9,10.4-49,16.1-48.7,17.1-99,34.9-147.4,19.3-21.5-7-44.3-14.9-65.2-28.2C1176.7,351.6,1095.5,316,969.2,327.2c-62.4,5.5-141.7,55.8-225.7,109.1C631.9,507,506.1,586.9,384.8,586.9Z"/><path class="cls-6" d="M387.6,600c-3.3,0-6.6,0-9.9-.2-39.4-1.4-70.9-13.7-96.5-37.6C236.8,521,217,452.6,197.8,386.4,173,300.8,149.5,219.9,76.1,205.6c-83.9-16.2-143.8,27.9-179.3,67.7-38.5,43.1-57.3,90.7-57.5,91.2l-1.1-.6c.2-.5,19.1-48.3,57.8-91.7,35.7-40,95.9-84.3,180.3-68C150.4,218.6,174,299.9,198.9,386c19.2,65.9,38.9,134.1,83,175.1,25.4,23.7,56.7,35.8,95.8,37.3,124.8,4.7,257.9-79.7,375.3-154.1,91.5-58,178-112.8,245.3-115.1,111.5-3.9,182.2,29.2,271.7,71,16.5,7.7,33.6,15.7,51.8,23.8,21.1,9.5,43.7,15.5,65,20.6,54.2,13,115,.2,173.8-12.1L1582,428c22.9-4.7,46.2-10.9,70.8-17.5s49.9-13.2,75.1-18.4c73.4-15.2,143.8-57.5,215.3-129.3l.8,1.1c-71.7,71.9-142.3,114.3-215.9,129.6-25.2,5.2-50.5,11.9-75,18.4s-48,12.8-70.9,17.5l-21.4,4.5c-58.9,12.4-119.8,25.2-174.2,12.1-21.4-5.1-44.1-11.2-65.3-20.6-18.1-8.2-35.2-16.1-51.8-23.9-89.3-41.7-160-74.7-271.2-70.9-67,2.3-153.3,57-244.7,115C639.2,518.1,509.9,600,387.6,600Z"/><path class="cls-6" d="M390.7,613.3h-3.6c-124.3-1.7-153.9-113.5-182.4-221.6-23.8-90.2-46.3-175.4-122.1-190.6-86.2-17.2-147.2,29-183.3,70.8-39.1,45.4-58.1,95.4-58.3,95.9l-1.1-.6c.2-.5,19.2-50.7,58.5-96.3,23.1-26.7,48.5-46.6,75.6-59.1,33.9-15.7,70.5-19.7,108.8-12.1,76.5,15.3,99.1,100.9,123,191.5,28.5,107.7,57.8,218.9,181.3,220.7h3.6c120.5,0,250.6-83.7,365.6-157.7C858,388.8,954,327.1,1027.5,332.6c84.9,6.4,142.5,27.6,203.5,50.1,51.3,18.8,104.4,38.4,176.5,49.4,105.1,16,367.7,29.8,536.8-187.6l.9,1c-67.1,86.3-156.6,145-266,174.6-106.9,29-206.8,23.3-271.8,13.4-72.3-11-125.4-30.6-176.8-49.5-60.9-22.4-118.4-43.5-203.2-50-73.1-5.5-169,56.2-270.5,121.4C641.8,529.5,511.5,613.3,390.7,613.3Z"/></g></g></g></g></svg>