<svg id="Layer_1" data-name="Layer 1" xmlns="http://www.w3.org/2000/svg" xmlns:xlink="http://www.w3.org/1999/xlink" viewBox="0 0 1920 690"><defs><style>.cls-1,.cls-5{fill:none;}.cls-2{fill:url(#linear-gradient);}.cls-3{clip-path:url(#clip-path);}.cls-4{opacity:0.2;}.cls-5{stroke:#fff;stroke-miterlimit:10;}</style><linearGradient id="linear-gradient" x1="960" y1="692" x2="960" y2="2" gradientTransform="matrix(1, 0, 0, -1, 0, 692)" gradientUnits="userSpaceOnUse"><stop offset="0" stop-color="#7e2069"/><stop offset="1" stop-color="#1a002a"/></linearGradient><clipPath id="clip-path"><rect class="cls-1" width="1920" height="690"/></clipPath></defs><rect class="cls-2" width="1920" height="690"/><g class="cls-3"><g class="cls-4"><path class="cls-5" d="M2081,175.1c-54.9-83.3-298.2-36.8-388.1,4.1-54.5,24.8-275.7,87.9-355.4,98-112.3,14.3-509.8-22.4-612.8-55.1C545,164.9-55.5,11.7-384.4,252.7c-137,100.4-241-86.9-466.5-142"/><path class="cls-5" d="M2096.6,176.3c-45.9-66.1-212.4-48.4-320.2-17.9-25.4,7.2-47.8,15.1-64.8,22.8-55.2,24.8-272.5,86.1-352.6,96.3-22.4,2.9-55.8,3.8-95.8,3.2-162.9-1.9-426.4-25.8-509-49.5C715.1,220,656.3,203.7,584.4,188,428.7,154,210.6,117.9,9.8,139.3-119.1,153-244,189.9-344.5,262.1c-73.8,53.4-138.3,24.3-217.1-22-66.9-39-144.3-90.6-246.3-115.5"/><path class="cls-5" d="M2113.1,178.1c-47.4-64.7-212-47.1-317.8-17-25.1,7.2-47.3,15-64.2,22.6-56,24.7-269.3,84.2-349.7,94.5-22.4,2.9-55.5,3.7-94.9,3.4-163.2-1.3-419-19.9-501.9-41-38.8-9.9-96.8-25.4-168-40.1-155-31.9-372.9-70.7-569.8-49.9-126.5,13.4-251,50-351.5,121.2-73.5,52-137.3,24.1-215.5-20.4-66.6-38-143.7-88-244.7-112.6"/><path class="cls-5" d="M2129.2,179.3c-48.9-63.3-211.7-45.8-315.3-16.1-24.8,7.2-46.7,15-63.7,22.4-56.6,24.8-266.1,82.4-346.9,92.7-22.4,2.9-55.2,3.7-94.1,3.6-163.6-.4-411.6-13.9-494.7-32.5-38.5-8.6-95.8-23.2-166.2-37.1-153.8-29.8-371.4-71.3-564.5-51-124.1,13-248,49.5-348.7,119.5-73,50.7-136.5,24.1-213.9-18.8-66.4-36.8-143.2-85.4-243.1-109.7"/><path class="cls-5" d="M2145.1,180.6c-50.4-61.9-211.4-44.7-312.8-15.2a547.2,547.2,0,0,0-63.1,22.2c-57.3,24.9-262.9,80.6-344,91-22.4,2.9-54.8,3.8-93.2,3.9-163.9.5-404.1-8-487.6-23.9-38.2-7.3-94.7-21.1-164.4-34-152.6-27.7-370-72-559.2-52.3C-.9,185-124.3,221.4-225.1,290.2c-72.5,49.5-135.7,24-212.3-17.2-66.1-35.6-142.7-82.7-241.5-106.9"/><path class="cls-5" d="M2161,181.7c-51.9-60.5-211-43.4-310.3-14.4a555.8,555.8,0,0,0-62.5,22.1c-58.1,24.9-259.8,78.8-341.2,89.2-22.4,2.9-54.5,3.8-92.4,4.1-164.3,1.4-396.6-2.1-480.4-15.4-37.8-6-93.6-19.1-162.6-30.9-151.4-26-368.5-72.6-553.9-53.4-119.2,12.5-242,48.9-343,116.5-72,48.2-134.9,24-210.7-15.6-65.9-34.4-142.2-80.1-239.9-104-233.4-57-241,280.4-284.9,336.1"/><path class="cls-5" d="M2177.4,183.2c-53.6-59.1-210.7-42.2-307.8-13.5a591.3,591.3,0,0,0-62,21.9c-58.8,24.9-256.6,76.9-338.3,87.4-22.4,2.9-54.2,3.9-91.5,4.4-164.6,2.3-389.1,3.8-473.3-6.9-37.5-4.8-92.5-17-160.8-27.9-150.1-24-367.1-73.2-548.6-54.6C77.9,206.2-44.3,242.4-145.5,308.9c-71.5,47-134,24-209.1-14-65.7-33.2-141.7-77.5-238.4-101.2-229.9-56.1-242.4,266.7-288.1,319.8"/><path class="cls-5" d="M2193.3,184.7c-55.2-57.7-210.4-40.9-305.4-12.6a620.9,620.9,0,0,0-61.4,21.7c-59.5,24.9-253.4,75.1-335.5,85.7-22.4,2.9-53.8,3.9-90.7,4.6-165,3.3-381.5,9.7-466.1,1.7-37.1-3.5-91.4-14.8-159.1-24.8-148.9-21.9-365.6-73.8-543.3-55.8C117.3,216.8-4.4,253-105.7,318.2c-71,45.7-133.2,23.9-207.6-12.4-65.5-32-141.2-74.9-236.8-98.3C-776.5,152.2-793.8,460.6-841.4,511c-15.8,16.8-42.6,21.8-77.8,18"/><path class="cls-5" d="M2209.2,186.2c-56.9-56.3-210-39.6-302.9-11.7-23.2,7-44.1,14.6-60.8,21.5-60.2,24.9-250.2,73.3-332.7,83.9-22.4,2.9-53.5,4-89.8,4.9-165.4,4.2-373.9,15.5-459,10.2-36.7-2.3-90.3-12.7-157.3-21.7-147.7-19.9-364.2-74.5-538-57-112,11.1-233.1,47.3-334.6,111.3-70.5,44.5-132.4,23.9-206-10.8-65.3-30.8-140.7-72.3-235.2-95.4C-729.9,167-752,460.8-801.6,508.6c-16.2,15.6-42.6,20.4-77.2,16.5"/><path class="cls-5" d="M2225.5,187.3c-58.6-55-209.7-38.3-300.4-10.8-22.9,7-43.5,14.5-60.3,21.4-60.9,24.9-247,71.5-329.8,82.2-22.4,2.9-53.2,4-89,5.1-165.7,5.2-366.3,21.3-451.8,18.7-36.3-1.1-89.2-10.6-155.5-18.7C692.2,267.3,476,210.1,305.9,227c-109.8,11.1-230.3,47.1-332,110-70,43.3-131.7,23.9-204.4-9.2-65.1-29.6-140.1-69.7-233.6-92.6-219.3-53.6-246.1,225.7-297.7,270.9-16.5,14.4-42.6,19-76.6,15"/><path class="cls-5" d="M2241.3,188.8c-60.4-53.6-209.4-37.1-297.9-9.9-22.6,6.9-43,14.4-59.7,21.2-61.6,24.9-243.8,69.6-327,80.4-22.4,2.9-52.9,4.1-88.1,5.4-166.1,6.2-358.6,27.1-444.7,27.2-35.9.1-88.1-8.4-153.7-15.6-145.3-15.9-361.3-75.7-527.5-59.4C235.3,248.6,115.4,284.6,13.5,346.2c-69.5,42.1-130.9,23.9-202.8-7.5-64.9-28.4-139.6-67.1-232-89.7-215.8-52.7-247.1,212-300.9,254.6-16.8,13.3-42.6,17.6-76,13.5"/><path class="cls-5" d="M2257.5,190.3c-62.2-52.2-209-35.8-295.4-9-22.3,6.9-42.5,14.4-59.1,21-62.3,24.9-240.7,67.8-324.1,78.6-22.4,2.9-52.5,4.1-87.2,5.6-166.5,7.2-350.9,32.8-437.5,35.8-35.5,1.2-87.1-6.3-151.9-12.5C758.2,296,542.5,233.4,380.1,249.2c-105,10.2-224.3,46.1-326.4,106.5-69,40.8-130.1,23.9-201.2-5.9-64.8-27.2-139.1-64.5-230.4-86.8-212.5-52-248.3,198.2-304.3,238.2-17,12.2-42.5,16.2-75.4,12"/><path class="cls-5" d="M2273.5,191.6c-64-50.7-208.7-34.5-292.9-8.1-22,6.9-41.9,14.3-58.6,20.8-63.1,24.9-237.5,66-321.3,76.9-22.4,2.9-52.2,4.2-86.4,5.9-166.8,8.2-343.2,38.5-430.4,44.3-35.1,2.3-86-4.2-150.1-9.4-142.9-11.8-358.4-77-516.9-61.7C314.3,270,195.6,305.9,93.4,365c-68.5,39.6-129.3,23.9-199.7-4.3-64.6-25.9-138.6-61.9-228.8-84-208.8-51-249,184.6-307.4,222.1-17.2,11-42.5,14.8-74.8,10.5"/><path class="cls-5" d="M2289.6,192.9c-65.9-49.3-208.4-33.2-290.5-7.2-21.7,6.9-41.4,14.2-58,20.7-63.8,24.9-234.3,64.2-318.4,75.1-22.4,2.9-51.9,4.3-85.5,6.1-167.2,9.2-335.5,44.1-423.2,52.8-34.6,3.4-84.9-2-148.4-6.4-141.7-9.7-356.9-77.6-511.6-62.9-100.3,9.5-218.3,45.3-320.8,103.2-68,38.4-128.6,23.9-198.1-2.7-64.4-24.7-138.1-59.3-227.2-81.1-205.3-50.2-249.7,171-310.6,205.8-17.4,9.9-42.5,13.4-74.2,9"/><path class="cls-5" d="M2305.4,194.2c-67.9-47.8-208-31.9-288-6.3-21.4,6.9-40.9,14.1-57.4,20.5-64.5,24.8-231.1,62.3-315.6,73.3-22.4,2.9-51.6,4.3-84.7,6.4-167.6,10.3-327.8,49.7-416.1,61.4-34.2,4.5-83.8.1-146.6-3.3-140.3-7.6-355.2-78.2-506-64.1-97.9,9.1-215.3,44.9-318,101.6-67.4,37.2-127.8,24-196.5-1.1-64.3-23.5-137.6-56.7-225.6-78.2-201.8-49.3-250.4,157.5-313.8,189.5-17.6,8.9-42.5,12.1-73.6,7.5"/><path class="cls-5" d="M2321.7,195.4c-69.8-46.3-207.7-30.6-285.5-5.4-21.1,6.8-40.3,14-56.9,20.3-65.2,24.8-227.9,60.5-312.7,71.6-22.4,2.9-51.3,4.4-83.8,6.6-167.9,11.3-320.1,55.2-408.9,69.9-33.8,5.6-82.7,2.3-144.8-.2-139.3-5.6-354-78.9-501-65.3-95.5,8.7-212.3,44.6-315.2,100-66.9,36-127.1,24-194.9.5-64.1-22.2-137.1-54.1-224.1-75.4-198.2-48.5-251,144-317,173.2-17.7,7.8-42.4,10.7-73,6-110.9-17.4-289-54.7-319.1,33.2"/><path class="cls-5" d="M2337.7,197c-71.8-44.7-207.3-29.3-283-4.5-20.7,6.8-39.8,13.9-56.3,20.1-66,24.8-224.8,58.7-309.9,69.8-22.4,2.9-50.9,4.5-83,6.9-168.3,12.4-312.3,60.7-401.8,78.4-33.3,6.6-81.7,4.4-143,2.8C922.6,367,708.1,291.1,565,304.1c-93.1,8.4-209.3,44.2-312.4,98.4-66.3,34.9-126.3,24.1-193.3,2.1-64-21-136.5-51.5-222.5-72.5C-357.9,284.5-414.7,462.7-483.3,489c-17.9,6.8-42.4,9.3-72.4,4.5-109.1-17.6-281.8-48.6-315,38.9"/><path class="cls-5" d="M2353.7,198.4c-73.9-43.1-207-28-280.5-3.6-20.4,6.8-39.3,13.8-55.7,20-66.7,24.8-221.6,56.9-307.1,68-22.4,2.9-50.6,4.6-82.1,7.1-168.7,13.5-304.6,66.1-394.6,87-32.9,7.6-80.6,6.6-141.2,5.9-136.9-1.5-351.1-80.1-490.4-67.7-90.7,8-206.3,43.8-309.6,96.7-65.8,33.7-125.6,24.1-191.7,3.7-63.8-19.7-136-48.9-220.9-69.7-191.2-46.7-252.1,117.4-323.4,140.6-18,5.8-42.4,7.9-71.8,3-107.2-18-274.6-42.5-310.8,44.6"/><path class="cls-5" d="M2369.9,199.8c-75.9-41.5-206.7-26.7-278-2.7-20.1,6.8-38.8,13.8-55.2,19.8-67.4,24.7-218.4,55-304.2,66.3-22.4,2.9-50.3,4.7-81.3,7.3-169.1,14.6-297,71.4-387.5,95.5-32.5,8.6-79.5,8.7-139.4,9-135.7.6-349.7-80.7-485.1-68.9-88.3,7.7-203.2,43.5-306.8,95.1-65.2,32.5-124.9,24.2-190.2,5.3C78.4,408.1,6.6,380.2-77.2,359.7-264.9,313.8-329.8,464-403.8,484.1c-18.1,4.9-42.4,6.5-71.1,1.5-105.3-18.4-267.3-36.4-306.7,50.3"/><path class="cls-5" d="M2385.8,201.2c-78-39.8-206.3-25.3-275.6-1.8-19.8,6.7-38.2,13.7-54.6,19.6-68.2,24.7-215.2,53.2-301.4,64.5-22.4,2.9-50,4.8-80.4,7.6-169.4,15.7-289.3,76.7-380.4,104-32.1,9.6-78.4,10.9-137.6,12-134.5,2.7-348.2-81.4-479.8-70-86,7.3-200.2,43.2-304,93.5-64.7,31.3-124.2,24.3-188.6,6.9s-135-43.7-217.7-63.9c-184.2-45-253,91.3-329.8,108.1-18.2,4-42.3,5.1-70.5,0-103.4-18.8-259.9-30.2-302.6,56.1"/><path class="cls-5" d="M2401.9,202.6c-80.1-38-206-24-273.1-.9-19.5,6.7-37.7,13.6-54,19.4-68.9,24.7-212,51.4-298.5,62.7-22.4,2.9-49.6,4.9-79.6,7.8-169.8,16.9-281.7,82-373.2,112.5-31.7,10.6-77.4,13-135.9,15.1-133.3,4.7-346.8-82-474.5-71.2-83.6,7-197.1,42.8-301.2,91.8-64.1,30.2-123.4,24.4-187,8.5S90.4,407.2,8.8,387.2c-180.7-44.2-253.5,78.5-333,91.8-18.3,3.1-42.3,3.7-69.9-1.5-101.5-19.3-252.5-24-298.4,61.8"/><path class="cls-5" d="M2418,203.7c-82.2-36.2-205.6-22.7-270.6,0-19.2,6.7-37.2,13.5-53.5,19.2-69.6,24.6-208.8,49.6-295.7,61-22.4,2.9-49.3,5-78.7,8.1-170.2,18.1-274,87.1-366.1,121.1-31.3,11.5-76.3,15.2-134.1,18.2-132.2,6.8-345.3-82.6-469.2-72.4-81.2,6.6-194.1,42.5-298.4,90.2-63.6,29-122.7,24.5-185.4,10.2s-134-38.5-214.5-58.2c-177.1-43.3-254,65.7-336.2,75.5a224.5,224.5,0,0,1-69.3-3c-99.6-19.7-245.1-17.8-294.3,67.5"/><path class="cls-5" d="M2433.9,205.2c-84.4-34.3-205.3-21.4-268.1.9-18.8,6.7-36.7,13.4-52.9,19.1-70.4,24.6-205.7,47.7-292.8,59.2-22.4,2.9-49,5.1-77.9,8.3C1571.7,312,1475.7,385,1383.3,422.3c-30.9,12.5-75.2,17.4-132.3,21.2-131,8.9-343.9-83.2-463.9-73.6-78.8,6.3-191,42.2-295.6,88.6-63,27.9-122,24.6-183.8,11.8S174.2,434.4,94.8,415c-173.6-42.5-254.6,53.1-339.4,59.2a255.2,255.2,0,0,1-68.7-4.5C-411,449.6-551,458.1-603.5,542.9"/><path class="cls-5" d="M2449.7,206.6c-86.5-32.4-204.9-20-265.6,1.8-18.5,6.7-36.1,13.3-52.3,18.9-71.1,24.5-202.5,45.9-290,57.4-22.4,2.9-48.7,5.2-77,8.6-170.9,20.5-258.9,97.4-351.8,138.1-30.5,13.4-74.1,19.5-130.5,24.3-129.8,11-342.4-83.9-458.6-74.8-76.4,5.9-188,42-292.8,86.9-62.4,26.8-121.3,24.8-182.3,13.4-63.1-11.8-133-33.3-211.3-52.5-170.1-41.6-255.2,40.6-342.6,42.9a290.4,290.4,0,0,1-68.1-6c-95.8-20.6-230.2-5.3-286.1,78.9"/><path class="cls-5" d="M2466,208c-88.7-30.4-204.6-18.7-263.2,2.7-18.2,6.7-35.6,13.2-51.8,18.7-71.8,24.5-199.3,44.1-287.2,55.7-22.4,3-48.3,5.3-76.2,8.8-171.2,21.8-251.4,102.5-344.6,146.7-30.2,14.3-73,21.7-128.7,27.4-128.6,13.2-341-84.5-453.3-76-74,5.5-184.9,41.7-290,85.3-61.9,25.7-120.6,25-180.7,15-62.9-10.5-132.4-30.7-209.7-49.6C14.1,402-75.1,470.9-165.1,469.3a336,336,0,0,1-67.5-7.5c-93.9-21-222.7,1-281.9,84.6"/><path class="cls-5" d="M2482,209.3c-90.8-28.3-204.2-17.3-260.7,3.6-17.9,6.7-35.1,13.1-51.2,18.5-72.6,24.4-196.1,42.2-284.3,53.9-22.4,3-48,5.4-75.3,9.1-171.6,23-244,107.5-337.5,155.2-29.8,15.2-72,23.9-126.9,30.5-127.4,15.3-339.5-85.1-448-77.2-71.7,5.2-181.8,41.5-287.2,83.7-61.3,24.6-119.9,25.1-179.1,16.6-62.8-9.1-131.9-28.1-208.2-46.7-163.1-39.9-256.5,15.9-349,10.3-19-1.1-42.2-3.3-66.9-9-92-21.5-215.2,7.3-277.8,90.3C-562.8,671-759,522.8-921.5,504.8"/><path class="cls-5" d="M2497.9,210.8c-93-26.1-203.9-16-258.2,4.5-17.6,6.6-34.6,13-50.6,18.4-73.3,24.4-192.9,40.4-281.5,52.1-22.4,3-47.7,5.5-74.5,9.3-171.9,24.3-236.6,112.5-330.3,163.7-29.5,16.1-70.9,26-125.1,33.5C1251.5,509.7,1039.6,406.5,935,414c-69.3,4.8-178.7,41.2-284.4,82.1-60.7,23.5-119.2,25.3-177.5,18.2-62.7-7.7-131.4-25.5-206.6-43.9-159.6-39-257.3,3.6-352.3-5.9-19.2-1.9-42.1-4.7-66.3-10.5-90.1-21.9-207.7,13.7-273.7,96-96.7,120.6-289-27.7-447.8-44.8"/><path class="cls-5" d="M2514.2,212c-95.1-23.9-203.5-14.6-255.7,5.4-17.3,6.6-34,12.9-50.1,18.2-74,24.3-189.8,38.6-278.6,50.4-22.4,3-47.3,5.6-73.6,9.6C1683.9,321.3,1627,413,1533,467.8c-29.2,17-69.8,28.2-123.4,36.6-125,19.5-336.6-86.4-437.4-79.5-66.9,4.5-175.6,41-281.6,80.4-60.1,22.4-118.5,25.5-175.9,19.8-62.6-6.2-130.9-22.9-205-41C153.6,446,51.5,475.7-45.8,462c-19.4-2.7-42.1-6.1-65.7-12-88.2-22.3-200.1,20.1-269.5,101.8-100.6,118.3-289-30.1-444.2-46.3"/><path class="cls-5" d="M2530.3,213.4c-97.2-21.7-203.1-13.3-253.2,6.3-16.9,6.6-33.5,12.8-49.5,18-74.8,24.2-186.6,36.8-275.8,48.6-22.4,3-47,5.8-72.8,9.8-172.6,27.1-221.9,122.4-316,180.8-28.9,17.9-68.7,30.4-121.6,39.7-123.8,21.7-335.2-87-432.1-80.7-64.5,4.1-172.6,40.8-278.8,78.8-59.6,21.3-117.8,25.8-174.3,21.4-62.5-4.8-130.4-20.3-203.4-38.2C200.1,460.7,93.6,477.4-6,459.5-25.7,456-48.1,452-71.1,446c-86.2-23-192.6,26.6-265.4,107.5-104.6,116.1-289-32.4-440.6-47.8"/><path class="cls-5" d="M2546,215c-99.3-19.3-202.8-11.9-250.7,7.2-16.6,6.6-33,12.7-48.9,17.8-75.5,24.2-183.4,34.9-272.9,46.8-22.4,3-46.7,5.9-71.9,10.1-172.9,28.5-214.6,127.3-308.9,189.3-28.6,18.8-67.6,32.6-119.8,42.7-122.6,23.8-333.8-87.6-426.8-81.9-62.1,3.8-169.5,40.7-276,77.2-59,20.2-117,26-172.8,23-62.3-3.3-129.9-17.7-201.8-35.3-149-36.5-260.1-32.7-361.9-54.8-19.9-4.3-42-8.9-64.5-15-84.3-23.4-185,33.1-261.3,113.2-108.5,113.9-289-34.8-437-49.2"/><path class="cls-5" d="M2562.2,216.5c-101.4-17-202.4-10.5-248.3,8.1-16.3,6.6-32.5,12.6-48.4,17.7-76.3,24.1-180.2,33.1-270.1,45.1-22.4,3-46.3,6-71.1,10.3-173.2,29.9-207.4,132.2-301.7,197.8-28.3,19.7-66.5,34.8-118,45.8-121.3,26-332.3-88.3-421.5-83.1-59.8,3.4-166.4,40.5-273.2,75.5a499.7,499.7,0,0,1-171.2,24.6c-62.2-1.9-129.4-15.1-200.2-32.4C293,490.3,177.4,481.1,73.4,454.8c-20.2-5.1-42-10.3-63.9-16.5C-72.9,414.5-167.9,478-247.6,557.2-360.1,669-536.6,520.1-681,506.5"/><path class="cls-5" d="M2578.1,217.8c-103.5-14.5-202-9.1-245.8,9-16,6.6-31.9,12.5-47.8,17.5-77,24-177,31.3-267.3,43.3-22.4,3-46,6.2-70.2,10.6-173.5,31.4-200.2,137.1-294.6,206.4-28,20.6-65.4,37-116.2,48.9-120.1,28.2-330.9-88.9-416.2-84.3-57.4,3.1-163.3,40.4-270.4,73.9C791.8,561.2,734,569.6,680,569.3c-62.1-.3-128.8-12.5-198.6-29.6-142-34.8-262.3-56.9-368.3-87.4-20.4-5.9-42-11.7-63.3-18-80.5-24.2-169.8,46.2-253,124.6C-319.7,668.6-492.3,519.4-633,506.7"/><path class="cls-5" d="M2594.6,218.8c-105.5-12-201.7-7.7-243.3,9.9-15.6,6.6-31.4,12.4-47.2,17.3-77.8,23.8-173.9,29.5-264.4,41.5-22.4,3-45.7,6.3-69.4,10.8-173.8,32.9-193.1,142-287.4,214.9-27.8,21.5-64.3,39.3-114.4,51.9-118.8,30.6-329.4-89.5-410.9-85.5-55,2.7-160.2,40.3-267.6,72.3-57.2,17-114.8,26.8-168,27.8-61.9,1.2-128.3-9.9-197-26.7-138.5-33.9-263.5-68.9-371.5-103.7-20.7-6.7-42-13.1-62.6-19.5C11.8,405.5-71.8,483-158.4,560.5c-120.4,107.7-289.1-41.8-426.2-53.7"/><path class="cls-5" d="M2610.6,220.1c-107.6-9.4-201.3-6.3-240.8,10.8a421.8,421.8,0,0,1-46.7,17.1c-78.5,23.8-170.7,27.6-261.6,39.8-22.4,3-45.3,6.5-68.5,11-174.1,34.4-186,146.8-280.3,223.4-27.5,22.4-63.2,41.4-112.6,55-117.6,32.6-328-90.1-405.6-86.6-52.6,2.4-157.1,40.2-264.8,70.7-56.7,16-114.1,27.1-166.4,29.5-61.7,2.7-127.8-7.3-195.4-23.8C433,533.9,303.2,486.1,193.2,447.1c-21-7.5-41.9-14.5-62-21C54.5,401-23.4,485.6-113.6,562.1c-124.8,105.9-289.4-44-422.9-55"/><path class="cls-5" d="M2388.2,233.4c-109,48.6-239.1,38.7-372.5,66.3-224.9,46.5-167.3,225.4-384,290-116.4,34.7-326.5-90.8-400.3-87.8-76.3,3-276.1,89.5-426.9,100.1C598,616.5,344.8,481.5,171.2,422.3,96.4,396.7,24.1,488.4-69.4,564c-128.5,103.8-289.1-46.5-418.9-56.7-175.5-13.8-344-16.9-434-125.6"/></g></g></svg>