<svg id="Layer_1" data-name="Layer 1" xmlns="http://www.w3.org/2000/svg" xmlns:xlink="http://www.w3.org/1999/xlink" viewBox="0 0 1920 690"><defs><style>.cls-1,.cls-5{fill:none;}.cls-2{fill:url(#linear-gradient);}.cls-3{clip-path:url(#clip-path);}.cls-4{opacity:0.2;}.cls-5{stroke:#fff;stroke-miterlimit:10;}</style><linearGradient id="linear-gradient" x1="960.01" y1="-126.72" x2="960.01" y2="563.28" gradientTransform="translate(0 126.7)" gradientUnits="userSpaceOnUse"><stop offset="0" stop-color="#2f2f81"/><stop offset="1" stop-color="#111131"/></linearGradient><clipPath id="clip-path"><rect class="cls-1" width="1920" height="690"/></clipPath></defs><rect class="cls-2" width="1920" height="690"/><g class="cls-3"><g class="cls-4"><path class="cls-5" d="M-117.1,530.3C41,595.9,141,599.2,377.3,566.5c255.8-35.4,390.1-339.1,672-406.5C1497.4,52.9,1995,552.2,2252.4,844.3"/><path class="cls-5" d="M-118.1,517.2c170,76.2,272.2,73.3,508.2,43.8C645,529,785.3,242.4,1067.8,171.2c444.1-112,931.3,381.5,1184.9,660.4"/><path class="cls-5" d="M-119,504.1c181.8,86.8,286.2,77.7,521.9,51.5,254-28.8,400.1-298.1,683.4-373.3,440-116.7,916.8,370.9,1166.8,636.5"/><path class="cls-5" d="M-119.9,491.1c193.5,97.3,300.3,82.1,535.7,59.1,253.1-25.4,405.1-277.6,689.1-356.7,436-121.4,902.4,360.3,1148.7,612.6"/><path class="cls-5" d="M-120.8,478c205.3,107.9,314.4,86.5,549.4,66.7,252.1-22.1,410-257.1,694.8-340.1,431.9-126,887.9,349.7,1130.5,588.7"/><path class="cls-5" d="M-121.8,464.9c217.1,118.5,328.5,91.4,563.1,74.4,251.3-18.2,415-236.5,700.5-323.5,427.9-130.5,873.5,339.1,1112.4,564.8"/><path class="cls-5" d="M-122.7,451.8c228.9,129.1,342.5,95.9,576.9,82C704.5,519,874.2,318,1160.4,226.9c423.9-135,859.1,328.4,1094.3,540.9"/><path class="cls-5" d="M-123.6,438.8C117.1,578.4,233,539.1,467,528.4,716.4,517,892,333.3,1178.9,238,1598.7,98.7,2023.5,555.9,2255,755"/><path class="cls-5" d="M-124.5,425.7C128,575.9,246.1,530.5,479.8,522.9c248.5-8.1,429.9-174.4,717.6-273.8,415.8-143.6,830.2,307.2,1058,493.1"/><path class="cls-5" d="M-125.5,412.6C138.8,573.4,259.2,521.9,492.6,517.5c247.6-4.7,434.9-153.7,723.2-257.2,411.8-147.8,815.7,296.6,1039.8,469.2"/><path class="cls-5" d="M-126.4,399.5C149.7,570.9,272.4,513.3,505.4,512c246.6-1.3,439.9-132.9,728.9-240.6,407.8-152,801.3,286,1021.7,445.3"/><path class="cls-5" d="M-127.3,386.5c287.9,182,412.8,118.2,645.6,120.1,245.7,2.1,444.9-112,734.6-224C1656.8,126.5,2039.7,557.9,2256.5,704"/><path class="cls-5" d="M-128.2,373.4C171.5,565.9,298.6,496,531.1,501.1,775.9,506.5,981,410,1271.4,293.7c399.9-160.1,772.4,264.7,985.4,397.6"/><path class="cls-5" d="M-129.1,360.3c311.5,203.1,440.9,127,673,135.4,243.8,8.8,454.9-70.2,746-190.8,396-164,758,254.1,967.3,373.7"/><path class="cls-5" d="M-130.1,347.2c323.3,213.7,455,131.5,686.8,143C799.6,502.3,1016.6,441,1308.4,316c392-167.9,743.5,243.5,949.2,349.8"/><path class="cls-5" d="M-131,334.1C204.1,558.4,338,470,569.5,484.8c242,15.4,464.9-28.2,757.4-157.6C1715.1,155.4,2056,560,2258,653"/><path class="cls-5" d="M-131.9,321.1C215,555.9,351.2,461.4,582.3,479.4c241,18.8,470-7.2,763.1-141.1,384.3-175.5,714.6,222.2,912.9,302"/><path class="cls-5" d="M-132.8,308c358.7,245.4,497.1,144.7,728,165.9C835.3,496,1070.3,487.8,1364,349.4c380.4-179.3,700.2,211.6,894.8,278.1"/><path class="cls-5" d="M-133.8,294.9C236.7,550.9,377.4,444,607.9,468.4c239.2,25.4,480.2,35.1,774.5-107.9,376.6-182.9,685.8,201,876.6,254.2"/><path class="cls-5" d="M-134.7,281.8C247.6,548.4,390.5,435.3,620.8,463c238.2,28.7,485.3,56.2,780.2-91.3,372.8-186.5,671.3,190.4,858.5,230.3"/><path class="cls-5" d="M-135.6,268.8C258.5,545.9,403.7,426.6,633.6,457.6c237.3,32,490.4,77.5,785.9-74.7,369.1-190.1,656.9,179.8,840.4,206.4"/><path class="cls-5" d="M-136.5,255.7C269.4,543.4,416.8,417.9,646.4,452.1,882.7,487.4,1142,550.9,1438,394c365.3-193.6,642.4,169.1,822.2,182.5"/><path class="cls-5" d="M-137.5,242.6C280.2,540.9,429.9,409.2,659.2,446.7c235.4,38.5,500.8,120,797.3-41.5,361.6-197.1,628,158.5,804.1,158.6"/><path class="cls-5" d="M-138.4,229.5C291.1,538.4,443.1,400.4,672,441.2c234.5,41.8,506,141.4,803-24.9,358-200.5,613.5,147.9,785.9,134.7"/><path class="cls-5" d="M-139.3,216.5C301.9,536,456.2,391.7,684.8,435.8c233.6,45.1,511.3,162.8,808.7-8.4,354.3-203.9,599.1,137.3,767.8,110.9"/><path class="cls-5" d="M-140.2,203.4c453,330,609.6,179.6,837.9,227,232.7,48.3,516.6,184.2,814.4,8.2,350.7-207.3,584.7,126.7,749.7,87"/><path class="cls-5" d="M-141.2,190.3C323.6,530.9,482.5,374.2,710.4,424.9c231.7,51.5,521.9,205.7,820.1,24.8,347.2-210.6,570.2,116,731.5,63.1"/><path class="cls-5" d="M-142.1,177.2C334.5,528.4,495.6,365.4,723.2,419.4c230.8,54.8,527.3,227.2,825.7,41.4,343.6-213.9,555.8,105.4,713.4,39.2"/><path class="cls-5" d="M-143,164.2C345.4,525.9,508.8,356.7,736.1,414c229.9,58,532.7,248.7,831.4,58,340.1-217.1,541.3,94.8,695.3,15.3"/><path class="cls-5" d="M-143.9,151.1c500.2,372.3,666,196.4,892.8,257.5C978,469.3,1287,678.8,1586,483.1c336.7-220.3,526.9,84.2,677.1-8.6"/><path class="cls-5" d="M-144.8,138c512,382.9,680.1,200.8,906.5,265.1,228.2,64.1,543.6,291.9,842.8,91.2,333.3-223.5,512.5,73.5,659-32.5"/><path class="cls-5" d="M-145.8,124.9C378,518.4,548.4,330.1,774.5,397.7S1323.6,711.2,1623,505.5c329.9-226.7,498,62.9,640.9-56.4"/><path class="cls-5" d="M-146.7,111.8c535.6,404.1,708.2,209.6,934,280.4S1342,727.4,1641.5,516.5c326.5-229.9,483.6,52.3,622.7-80.3"/><path class="cls-5" d="M-147.6,98.8c547.4,414.6,722.3,214,947.7,288S1360.4,743.7,1660,527.7c323.2-233,469.1,41.7,604.6-104.2"/></g></g></svg>