<svg id="Layer_1" data-name="Layer 1" xmlns="http://www.w3.org/2000/svg" xmlns:xlink="http://www.w3.org/1999/xlink" viewBox="0 0 1920 690"><defs><style>.cls-1,.cls-5{fill:none;}.cls-2{fill:url(#linear-gradient);}.cls-3{clip-path:url(#clip-path);}.cls-4{opacity:0.2;}.cls-5{stroke:#fff;stroke-miterlimit:10;}</style><linearGradient id="linear-gradient" x1="960" y1="692" x2="960" y2="2" gradientTransform="matrix(1, 0, 0, -1, 0, 692)" gradientUnits="userSpaceOnUse"><stop offset="0" stop-color="#1c2963"/><stop offset="1" stop-color="#00000d"/></linearGradient><clipPath id="clip-path"><rect class="cls-1" width="1920" height="690"/></clipPath></defs><rect class="cls-2" width="1920" height="690"/><g class="cls-3"><g class="cls-4"><path class="cls-5" d="M2199.5,568.8c-160.9,0-122.7-225.9-209.9-298.7C1776.7,92.4,1588.2,336,1421.3,407.8,1288.7,464.9,976.1,167.7,814,267.3,532.7,440.1,327.5-19.6,246.2-30.9,157.6-43.2,84.3,151.1,62.6,221.8,37.5,303.5-127,358.1-198.5,378.8-305,409.6-435.4,613.6-467.8,685"/><path class="cls-5" d="M2194.2,571.2c-159.7-.8-123.7-224.2-209.7-298.3-100.3-86.4-195.3-77.2-286.8-35.8-99.4,45-190.2,128.8-274.9,168.4-54,25.3-137.6-8.2-230.3-50.8-132.1-60.8-275-142.2-370.7-85.4-138.3,82.5-251,24.4-348.5-64.6C372.9,113,300.8-8.9,258.4-15.9S174.4,20.2,141.6,74,83.9,194.3,72.3,230C46,310.8-114.9,365.7-187.5,385.3-295.4,414.6-423.9,617.9-459,686.8"/><path class="cls-5" d="M2188.7,573.5c-158.6-1.9-124.7-222.4-209.5-297.8-98.1-87.2-191.5-80.9-283-41.6-100.2,43.2-189.2,127.2-272,169.2-53.1,27-134.6-2.9-226.8-43.7C1065,301,925.8,215.9,829.5,271.2c-138.6,79.7-244,31.7-343.3-54.1C384.8,129.4,314,7.4,270.6-.9S186.8,32.5,153.2,84.6,94.1,202.3,81.8,238.2c-27.3,79.9-184.7,135-258.3,153.6C-285.9,419.6-412.4,622-450.2,688.6"/><path class="cls-5" d="M2183.4,576c-157.4-2.9-125.7-220.6-209.3-297.4-96-88.1-187.6-84.7-279.2-47.4-101.1,41.2-188.5,125.5-269.3,169.9-52.2,28.7-131.6,2.4-223.3-36.6-132.7-56.4-268.1-145.1-365.1-91.3-138.9,77.1-237,39.1-338.1-43.6S327.2,23.7,282.9,14,199.4,44.6,165,95.2,104.5,210.3,91.5,246.4C63.1,325.3-90.7,380.7-165.3,398.3c-110.8,26.3-235.3,227.9-275.9,292"/><path class="cls-5" d="M2178.1,578.3c-156.3-3.8-126.7-218.8-209.1-296.9-93.8-88.9-183.8-88.4-275.4-53.1-102,39.3-187.6,123.9-266.5,170.6-51.3,30.4-128.6,7.6-219.8-29.6-133-54.2-264.6-146.5-362.2-94.2C706,349.6,615.1,321.5,512.2,242S340.5,40.1,295.1,29c-42.6-10.4-83.2,27.9-118.4,76.8s-61.8,112.5-75.5,148.8c-29.5,78-179.8,133.6-255.4,150.3-112.3,24.8-234.6,225.4-278.2,287.3"/><path class="cls-5" d="M2172.7,580.7c-155.1-4.8-127.7-217-208.9-296.5-91.7-89.7-180-92.2-271.6-58.9-102.9,37.3-186.8,122.3-263.7,171.3-50.4,32.1-125.6,12.9-216.4-22.5C1078.8,322.1,951,226.2,852.7,277,713.6,349,630,330.8,525.2,254.4S353.7,56.5,307.3,43.9c-42.2-11.4-83,25.1-118.9,72.4s-63.2,109.9-77.6,146.3c-30.5,77.1-177.3,133-254,148.6-113.8,23.4-233.7,223-280.4,282.7"/><path class="cls-5" d="M2167.3,583.2c-153.9-5.7-128.7-215.2-208.7-296-89.5-90.5-176.2-96-267.8-64.7-103.8,35.4-185.9,120.8-260.9,172-49.5,33.9-122.6,18.2-212.9-15.4C1083.5,329.3,959.6,229.8,860.6,279c-139.5,69.4-215.7,61-322.4-12.1S367,72.9,319.6,58.9C277.7,46.6,236.9,81.3,200.1,127s-64.5,107.3-79.7,143.9C89,347-54.4,403.2-132.1,417.8-247.4,439.6-365,638.2-414.7,695.7"/><path class="cls-5" d="M2162,585.5c-152.8-6.6-129.7-213.4-208.5-295.6-87.4-91.2-172.4-99.8-264-70.5-104.7,33.4-185.1,119.3-258,172.8-48.6,35.6-119.7,23.6-209.4-8.3-134-47.5-254-150.7-353.7-103-139.7,66.8-208.5,68.3-317.2-1.6C445.1,211,380.3,89.3,331.8,73.9c-41.5-13.2-82.5,19.6-120,63.7s-65.9,104.7-81.7,141.5C97.7,354.3-42.2,410.7-121,424.3c-116.8,20.3-231.9,217.8-284.9,273.1"/><path class="cls-5" d="M2156.7,587.8c-151.6-7.5-130.7-211.5-208.3-295.1-85.3-92-168.6-103.6-260.2-76.3C1582.7,247.9,1504,334.3,1433,389.9c-47.7,37.4-116.7,28.9-206-1.2-134.4-45.2-250.5-152-350.8-105.9-139.8,64.3-201.2,75.6-312,8.9C457.3,227.2,393.5,105.8,344,88.8c-41.1-14.1-82.2,16.9-120.5,59.3s-67.2,102.1-83.8,139.1C106.3,361.5-30.2,418.2-110,430.8-228.2,449.7-340.7,646-397,699.2"/><path class="cls-5" d="M2151.5,590.2c-150.5-8.3-131.7-209.6-208.1-294.7-83.2-92.7-164.9-107.4-256.4-82.1-106.5,29.5-183.4,116.4-252.4,174.2-46.9,39.2-113.8,34.2-202.5,5.9-134.8-43-247-153.4-348-108.8-140,61.7-194,82.9-306.7,19.4C469.7,243.4,407,122.2,356.5,103.7c-40.8-14.9-81.9,14.1-121,55S167,258.2,149.7,295.3C115.1,368.8-18,425.7-98.8,437.3-218.6,454.7-328.4,649.9-388.2,701"/><path class="cls-5" d="M2146.1,592.7c-149.3-9.2-132.8-207.8-207.9-294.2-81.1-93.4-161.1-111.3-252.6-87.9-107.5,27.5-182.5,115-249.6,174.9-46,41-110.9,39.6-199,13-135.1-40.7-243.4-154.8-345.2-111.8-140.2,59.2-186.7,90.2-301.5,29.9C481.9,259.7,420.2,138.8,368.6,118.8c-40.4-15.7-81.7,11.4-121.6,50.6s-69.8,96.9-87.9,134.2C123.8,376.1-5.9,433.2-87.8,443.8-209,459.7-316,653.9-379.4,702.8"/><path class="cls-5" d="M2140.5,595c-148.2-10.1-133.8-205.9-207.7-293.8-79.1-94.1-157.3-115.2-248.8-93.7-108.4,25.5-181.6,113.6-246.8,175.6-45.1,42.9-107.9,45-195.6,20.1C1106.3,365,1002,247.3,899.5,288.7,759.2,345.4,720.2,386,603.2,329,494.1,275.8,433.3,155.3,380.7,133.7c-40.1-16.5-81.4,8.7-122.1,46.2s-71.1,94.3-90,131.8C132.5,383.3,6.1,440.7-76.8,450.3c-122.7,14.4-226.8,207.6-293.8,254.2"/><path class="cls-5" d="M2135.4,597.4c-147-10.9-134.9-204-207.5-293.3-77-94.8-153.6-119-245-99.4-109.4,23.4-180.7,112.2-244,176.4-44.1,44.7-105,50.3-192.1,27.2-136-36.1-236.3-157.4-339.5-117.6-140.4,54.2-171.9,104.6-291.1,50.9C506.4,292,446.6,171.9,393,148.7c-39.7-17.2-81.1,5.9-122.6,41.9S198,282.3,178.4,320c-37,70.7-160,128.3-243.9,136.9C-189.8,469.7-290.8,662-361.7,706.3"/><path class="cls-5" d="M2130.1,599.7c-145.8-11.7-135.9-202-207.3-292.9-74.9-95.5-149.9-122.9-241.2-105.2-110.3,21.4-179.8,110.8-241.2,177.1-43.2,46.6-102.1,55.7-188.6,34.3C1115.4,379.3,1019,254.2,915.2,292.5c-140.6,51.7-164.5,111.7-285.8,61.4C519,308.1,460,188.5,405.4,163.6c-39.4-17.9-80.9,3.2-123.1,37.5S208.7,290.3,188.2,328c-38,69.9-157.7,127.7-242.7,135.3-125.7,11.4-223.6,202.9-298.3,244.8"/><path class="cls-5" d="M2124.9,602.2c-144.7-12.6-137-200.1-207.1-292.4-72.9-96.1-146.1-126.9-237.4-111-111.3,19.3-178.8,109.5-238.4,177.8-42.3,48.5-99.2,61.1-185.2,41.4C1120,386.6,1027.6,257.9,923,294.5c-140.7,49.3-157.1,118.8-280.6,71.9-111-42.2-169.2-161.2-224.8-187.8-39.1-18.7-80.6.4-123.7,33.1S219,298.3,197.7,336.2c-38.6,69-155,127-241.1,133.6-127.1,9.9-222,200.7-300.6,240.1"/><path class="cls-5" d="M2119.3,604.5c-143.5-13.4-138.1-198.1-206.9-292-70.9-96.8-142.4-130.8-233.6-116.8C1566.6,213,1501,304,1443.3,374.3c-41.3,50.4-96.3,66.6-181.7,48.5-137.2-29-225.6-161.4-330.9-126.4C789.8,343.2,781,422.3,655.2,378.8c-111.6-38.6-168.9-157-225.6-185.2-38.8-19.3-80.4-2.3-124.2,28.8s-76.2,84-98.2,122.1c-39.3,68-152.5,126.2-239.5,131.8-128.6,8.4-220.3,198.5-302.8,235.3"/><path class="cls-5" d="M2114.1,607c-142.4-14.2-139.2-196.2-206.7-291.5-68.9-97.4-138.7-134.7-229.8-122.6-113.3,15.1-176.9,106.9-232.8,179.2-40.4,52.3-93.4,72-178.2,55.6-137.7-26.6-222-162.7-328.1-129.3-140.9,44.4-142.2,132.9-270.2,92.9C556,356.1,499.5,238.5,441.9,208.5c-38.5-20-80.1-5.1-124.7,24.4s-77.4,81.4-100.3,119.7C176.7,419.8,66.8,478.2-21.3,482.8c-130.1,7-218.5,196.5-305,230.6"/><path class="cls-5" d="M2108.7,609c-141.2-15-140.4-194.2-206.5-291.1s-135-138.7-226-128.4c-114.3,13-175.9,105.6-230,180-39.4,54.2-90.5,77.4-174.8,62.7-138.2-24.1-218.5-164-325.3-132.2-141,41.9-134.7,139.9-265,103.4C568.5,372,512.7,255.2,454.2,223.5c-38.2-20.7-79.8-7.8-125.2,20s-78.7,78.9-102.3,117.2c-41,66.4-147.6,125-236.8,128.6C-141.7,494.8-226.8,684-317.4,715.2"/><path class="cls-5" d="M2103.3,611.5c-140.1-15.7-141.5-192.2-206.3-290.6s-131.3-142.7-222.2-134.2c-115.3,10.8-174.9,104.3-227.2,180.7-38.4,56.1-87.6,82.9-171.3,69.8C1137.7,415.5,1061.4,271.9,953.9,302,812.8,341.8,826.8,449,694.2,416.1,580.9,387.9,525.8,271.9,466.3,238.4c-37.9-21.3-79.6-10.6-125.8,15.7s-79.9,76.3-104.4,114.8C194.5,434.5,91.1,493.2.9,495.8c-133.1,4-214.9,192.9-309.5,221.1"/><path class="cls-5" d="M2097.9,614c-138.9-16.5-142.6-190.2-206.1-290.2s-127.6-146.7-218.4-140c-116.2,8.6-173.9,103.1-224.3,181.4-37.4,58-84.8,88.4-167.8,76.9C1142.2,422.9,1070,275.5,961.7,304,820.4,341.1,842.1,457.7,707.2,428.4,593.4,403.8,539,288.6,478.6,253.4c-37.6-22-79.3-13.3-126.3,11.3s-81.1,73.7-106.5,112.4C203.4,441.8,103.2,500.7,12,502.3c-134.6,2.5-213.2,191.2-311.7,216.4"/><path class="cls-5" d="M2092.5,616.6c-137.8-17.3-143.8-188.2-205.9-289.7-61-99.8-123.8-150.7-214.6-145.7-117.2,6.4-172.8,101.8-221.5,182.1-36.4,60-81.9,93.9-164.4,84-139.5-16.7-207.7-167.8-316.7-141C828.2,340.8,857.4,466.6,720.3,441,605.9,419.6,552.2,305.5,490.9,268.4c-37.4-22.6-79-16.1-126.8,6.9s-82.3,71.2-108.5,110c-43.2,63.9-140.2,123-232.5,123.5-136,1-211.4,189.7-314,211.7"/><path class="cls-5" d="M2087.3,618.9c-136.6-18-145-186.2-205.7-289.3-59.1-100.4-120.1-154.7-210.8-151.5-118.2,4.2-171.8,100.6-218.7,182.8-35.3,61.9-79,99.4-160.9,91.1-140-14.2-204.1-169.1-313.9-143.9C835.9,340.5,872.7,475.4,733.2,453.5,618.3,435.4,565.2,322.3,503,283.4c-37.1-23.2-78.8-18.8-127.3,2.6s-83.5,68.7-110.6,107.5c-43.9,63.1-137.7,122.3-231,121.9-137.5-.5-209.7,188.2-316.2,207"/><path class="cls-5" d="M2082.1,621.1c-135.5-18.7-146.2-184.2-205.5-288.8-57.2-100.9-116.4-158.8-207-157.3-119.2,1.9-170.7,99.3-215.9,183.6-34.3,63.8-76.1,104.9-157.4,98.2-140.5-11.6-200.5-170.3-311-146.9C843.6,340,888,484,746.3,465.8,630.8,451.1,578.4,339,515.3,298.3c-36.9-23.8-78.5-21.5-127.9-1.8s-84.7,66.1-112.7,105.1C230.1,463.9,139.4,523.2,45.1,521.8c-139-2-208,186.9-318.5,202.2"/><path class="cls-5" d="M2076.5,623.8c-134.3-19.5-147.4-182.2-205.3-288.4-55.3-101.5-112.7-162.9-203.2-163.1-120.2-.3-169.6,98.1-213.1,184.3-33.2,65.8-73.2,110.5-154,105.3-140.9-9-197-171.5-308.2-149.8-141.6,27.7-89.6,180.7-233.6,166.4-116-11.5-167.8-122.4-231.7-165-36.6-24.4-78.3-24.3-128.4-6.2S313.1,370.9,284.3,410C239,471.5,151.5,531,56.1,528.5-84.2,524.8-150,713.9-264.4,725.8"/><path class="cls-5" d="M2071.3,626.1c-133.2-20.2-148.7-180.2-205.1-287.9-53.4-102.1-109-166.9-199.4-168.9-121.2-2.6-168.4,96.8-210.3,185-32.1,67.7-70.4,116-150.5,112.4C1164.6,460.3,1112.6,294,1000.6,314c-141.7,25.3-82.1,187.3-228.4,176.9-116.6-8.3-167.8-118-232.5-162.5-36.4-25-78-27-128.9-10.5S323.7,379,294,418.2C248,478.9,163.7,538.5,67.3,535.1c-142-4.9-204.7,184.4-322.9,192.8"/><path class="cls-5" d="M2066.1,628.3c-132-20.9-149.9-178.1-204.9-287.5-51.5-102.6-105.2-171-195.6-174.7-122.1-4.9-167.3,95.6-207.5,185.7-31.1,69.7-67.5,121.6-147,119.5-141.9-3.8-189.8-173.9-302.5-155.6-141.8,23-74.6,193.8-223.2,187.4C668.1,498,617.6,389.6,552,343.2c-36.2-25.6-77.7-29.8-129.4-14.9s-88.3,58.6-118.8,97.8c-46.7,60-127.9,119.6-225.3,115.2C-65,534.9-124.6,724.6-246.7,729.4"/><path class="cls-5" d="M2060.7,630.7c-130.9-21.6-151.2-176.1-204.7-287-49.7-103.2-101.5-175.1-191.8-180.5C1541,156,1498,257.5,1459.4,349.7c-29.9,71.6-64.6,127.2-143.6,126.6-142.3-1.1-186.2-175.1-299.7-158.6-141.9,20.7-67.2,200.4-218,197.9-117.8-1.9-167.7-109.1-234-157.5-36-26.2-77.5-32.5-130-19.3s-89.4,56.1-120.9,95.4C266,493.5,188,553.2,89.6,547.8-55.4,539.9-112,730-237.9,731.1"/><path class="cls-5" d="M2055.4,633c-129.7-22.3-152.5-174-204.5-286.6-47.9-103.7-97.8-179.3-188-186.3-124.1-9.6-165,93-201.9,187.2-28.8,73.5-61.7,132.8-140.1,133.7-142.8,1.6-182.6-176.3-296.8-161.5C882,338.1,964.3,526.5,811.3,528c-118.4,1.2-167.7-104.7-234.8-155-35.8-26.8-77.2-35.3-130.5-23.6s-90.6,53.6-123,93c-48,58.5-122.9,118.3-222.4,111.8C-45.8,544.8-99.4,735.5-229,732.8"/><path class="cls-5" d="M2049.9,635.4c-128.6-23-153.9-172-204.3-286.2-46-104.3-94-183.4-184.2-192-125-12-163.8,91.8-199.1,187.9-27.7,75.5-58.8,138.4-136.6,140.8-143.2,4.4-179-177.5-294-164.4-142.1,16.2-52.3,213.3-207.5,218.9-119,4.3-167.7-100.2-235.5-152.4-35.6-27.4-77-38-131-28s-91.7,51.1-125,90.6c-48.7,57.8-120.4,117.6-221,110.2C-36.2,549.9-86.9,741.1-220.2,734.7"/><path class="cls-5" d="M2044.4,638c-127.5-23.7-155.2-169.9-204-285.7-44.2-104.8-90.2-187.5-180.4-197.8-126-14.4-162.6,90.5-196.3,188.6-26.6,77.4-55.9,144.1-133.2,147.9-143.6,7.1-175.4-178.6-291.1-167.3-142.2,13.9-44.9,219.7-202.3,229.4C717.6,560.3,669.5,457.2,601,403c-35.4-28-76.7-40.8-131.5-32.4s-92.9,48.6-127.1,88.1c-49.4,57-118,117-219.6,108.5C-26.6,554.9-74.4,746.6-211.3,736.4"/><path class="cls-5" d="M2039.2,640.4c-126.3-24.4-156.5-168-203.8-285.4-42.5-105.4-86.5-191.7-176.6-203.6-126.9-16.8-161.4,89.2-193.5,189.3-25.4,79.3-53,149.7-129.7,155-144,9.9-171.8-179.8-288.3-170.3C905,337,1009.7,551.4,850.2,565.3c-120.3,10.5-167.7-91.2-237-147.3-35.2-28.6-76.4-43.5-132.1-36.7s-94,46.2-129.2,85.7c-50,56.3-115.5,116.3-218.1,106.8C-17,559.9-62,752.2-202.5,738.2"/><path class="cls-5" d="M2033.9,642.7c-125.2-25-157.9-165.8-203.6-284.8C1789.6,252,1747.6,162,1657.5,148.5c-127.8-19.2-160.2,87.9-190.6,190-24.2,81.3-50,155.4-126.2,162.1-144.4,12.8-168.3-180.9-285.5-173.2-142.4,9.4-30.2,232.4-191.8,250.4-121.1,13.5-167.9-86.7-237.8-144.9-35-29.1-76.2-46.3-132.6-41.1s-95.2,43.7-131.2,83.3C311,530.7,248.6,590.7,145,580.3-7.4,564.9-49.6,757.8-193.6,740"/><path class="cls-5" d="M2028.6,645c-124.1-25.6-159.4-163.8-203.4-284.4-38.9-106.5-78.9-200-169-215.2-128.7-21.7-159,86.6-187.8,190.7-23.1,83.2-47.1,161-122.8,169.2-144.8,15.6-164.7-182-282.6-176.1-142.7,7.3-23,238.8-186.7,261-121.8,16.5-168-82.2-238.6-142.3-34.9-29.7-75.9-49-133.1-45.5s-96.3,41.3-133.3,80.9C320,538.2,260.7,598.2,156,586.8,2.2,570-37.2,763.5-184.8,741.8"/><path class="cls-5" d="M2023.2,647.6c-123-26.1-160.8-161.7-203.2-283.9-37.2-107.1-75.1-204.2-165.2-221-129.6-24.1-157.7,85.3-185,191.5-21.9,85.1-44.2,166.7-119.3,176.3-145.2,18.5-161.1-183-279.8-179-142.7,5.2-15.7,245-181.4,271.4C766.7,622.2,721.2,525,649.9,462.8c-34.7-30.3-75.6-51.7-133.6-49.8S418.9,451.8,381,491.4c-52,54.3-108.2,114.3-213.9,101.9C11.8,575-24.9,769.1-176,743.5"/><path class="cls-5" d="M2017.9,650c-227.9-50.3-170.8-470.7-364.5-510.2-235.4-48-130.7,350.9-298,375.6-145.5,21.4-157.6-184.3-276.9-182-142.8,2.7-8.4,251.2-176.2,281.9C719.6,648.5,709,422.7,528,423.6c-140.9.7-164.1,199.6-349.8,176.2C21.4,580-12.6,774.8-167.1,745.3"/></g></g></svg>