<svg id="Layer_1" data-name="Layer 1" xmlns="http://www.w3.org/2000/svg" xmlns:xlink="http://www.w3.org/1999/xlink" viewBox="0 0 1920 690"><defs><style>.cls-1,.cls-5{fill:none;}.cls-2{fill:url(#linear-gradient);}.cls-3{clip-path:url(#clip-path);}.cls-4{opacity:0.2;}.cls-5{stroke:#fff;stroke-miterlimit:10;}</style><linearGradient id="linear-gradient" x1="960" y1="692" x2="960" y2="2" gradientTransform="matrix(1, 0, 0, -1, 0, 692)" gradientUnits="userSpaceOnUse"><stop offset="0.01" stop-color="#4e2353"/><stop offset="1" stop-color="#0f0926"/></linearGradient><clipPath id="clip-path"><rect class="cls-1" width="1920" height="690"/></clipPath></defs><rect class="cls-2" width="1920" height="690"/><g class="cls-3"><g class="cls-4"><path class="cls-5" d="M2221.5,79C2075.3.1,1909.8,36.1,1861.7,187.4c-49.1,154.2-319.6,151.4-468,167.5-119.4,13-183.8-118.6-399.9-185.7-93.3-28.9-271.7,10-391.4-108.6-82.7-82-296.6,4.7-394.3,81.9C94.4,232.5-35.1,411.1-97.2,549.9-146.5,660.2-652.7,413.4-813.7,460"/><path class="cls-5" d="M2486.1,408.8c-81.9-135.7-171.3-268.7-255.7-311.9-144.8-74-307.6-45.5-358.5,98.7-31,88.7-140.5,122.7-255.3,140.6-75.2,11.7-152.9,15.8-212.1,22.9-119.5,14.2-185.8-112.8-399.3-175.9-34.4-10.2-79.9-11.3-129.4-14.6-86.7-5.9-185.4-17.2-261.5-89.2C592.1,58.4,560.9,49.3,526,47c-79.4-5.2-180.5,32.3-256.3,75.7a421.6,421.6,0,0,0-47.8,31.6C167.2,195.7,109.2,257.4,56.3,323.8-1.7,396.5-52.6,478.5-87.9,549.3c-44,88.3-383-52-591.8-80-48.5-6.5-90.7-7.7-121.2.7"/><path class="cls-5" d="M2496.1,406.2C2415,277.6,2325,155.5,2239.9,114.5c-143.3-69.1-304-48.2-357.1,88.9-32.7,84.4-141.3,116.5-255.7,135-74.4,11.9-151.6,16.7-211.1,24.5-119.6,15.4-187.9-107-398.8-166.2-34.6-9.7-80-10.4-129.1-13.7-87.1-5.8-185-16.5-261.4-85.3C604.1,77.3,572.8,69,538.6,65.9,459.8,58.7,361.1,93.8,284,135.3a428.6,428.6,0,0,0-48,30.4C180.9,206,122.6,266.2,68.9,329.9,10.6,399.2-40.4,479.7-78.3,548.5c-47.9,87.1-384.6-47.5-589.1-70.6-47.7-5.4-89.7-6.2-120.5,1.8"/><path class="cls-5" d="M2505.8,403.9c-80.6-121.9-170.9-233-256.7-272-141.7-64.4-300.2-50.9-355.8,79.2-34.2,80-142,110.5-256,129.5-73.5,12.2-150.4,17.7-210.1,26.2-119.7,16.6-190-101-398.2-156.5-34.9-9.3-80.1-9.6-128.7-12.8-87.4-5.7-184.6-15.8-261.2-81.5-23-19.7-54.5-27.3-87.9-31.3-78.2-9.3-174.5,23.5-252.9,63a394.5,394.5,0,0,0-48.1,29.2C194.4,216,135.9,274.8,81.5,335.8,22.7,401.9-28.4,480.9-68.9,547.8c-52,85.9-386.3-43.1-586.5-61.2-46.9-4.3-88.7-4.7-119.7,2.9"/><path class="cls-5" d="M2515.3,401.8c-80.1-114.9-170.6-215.1-257.1-252-140-59.7-296.3-53.5-354.5,69.5-35.8,75.7-142.8,104.4-256.4,123.9-72.7,12.5-149.1,18.7-209.2,27.8-119.8,18.1-192.2-95-397.6-146.7-35.1-8.8-80.2-8.7-128.4-11.9-87.7-5.6-184.3-15.1-261-77.6-23.4-19.1-55-25.9-87.7-30.7-77.7-11.4-171.5,19.1-251.1,56.7-18.1,8.5-34.1,18.5-48.2,28-56.3,37.8-115,95.2-170.2,153.5C34.9,404.7-16.5,482.2-59.5,547.1c-56.1,84.7-388-38.6-583.8-51.8-46.2-3.1-87.7-3.2-119,4"/><path class="cls-5" d="M2524.9,399.9c-79.6-108-170.2-197.3-257.6-232.1-138.2-55.1-292.5-56.2-353.1,59.7-37.3,71.4-143.6,98.3-256.8,118.3-71.9,12.7-147.8,19.7-208.2,29.5-119.8,19.4-194.3-89-397.1-137-35.4-8.4-80.4-7.9-128-11C836,221.7,740,212.9,663.2,153.6c-23.9-18.5-55.6-24.6-87.5-30.2-77.2-13.5-168.4,14.7-249.4,50.4-18.2,8-34.2,17.7-48.4,26.8C221,237.1,162.1,293.1,106.2,348.8,47.2,407.5-4.7,483.4-50.1,546.4-110.4,630-439.8,512.3-631.2,504c-45.4-2-86.7-1.7-118.3,5.1"/><path class="cls-5" d="M2534.9,397.3c-79.1-101.1-169.8-179.4-258.1-212.1-136.3-50.6-288.6-58.9-351.8,50-38.8,67-144.4,92.1-257.2,112.7-71.1,13-146.6,20.6-207.2,31.1-119.9,20.7-196.6-82.8-396.5-127.2-35.6-7.9-80.5-7.1-127.7-10.1-88.4-5.5-184-13.6-260.7-69.9-24.3-17.8-56.2-23.3-87.4-29.6-76.7-15.6-165.3,10.4-247.7,44-18.2,7.4-34.2,16.8-48.5,25.6-57.5,35.3-116.4,89.8-173.2,142.9-59.4,55.5-111.8,130-159.6,191-64.6,82.4-391.5-29.5-578.4-33-44.7-.8-85.7-.2-117.5,6.3"/><path class="cls-5" d="M2544.8,395.3c-78.7-94.2-169.3-161.5-258.6-192.2-134.3-46.1-284.7-61.7-350.4,40.3-40.4,62.6-145.2,86-257.5,107.1-70.3,13.2-145.3,21.6-206.2,32.7-120,22-198.8-76.6-396-117.5-35.9-7.4-80.6-6.2-127.4-9.2-88.7-5.4-183.8-12.9-260.6-66-24.8-17.2-56.8-21.9-87.2-29-76.3-17.8-162.2,6-245.9,37.7-18.3,6.9-34.3,16-48.6,24.4-58.1,34-117,87.1-174.8,137.6C71.9,413,18.9,485.9-31.3,545c-68.9,81.3-393.3-24.9-575.7-23.6-43.9.3-84.6,1.4-116.8,7.4"/><path class="cls-5" d="M2553.8,393.2c-78.2-87.4-168.8-143.7-259.1-172.3-132.2-41.8-280.8-64.4-349.1,30.5-41.9,58.3-146,79.9-257.9,101.5-69.5,13.4-144,22.5-205.2,34.4-120.1,23.2-201.1-70.3-395.4-107.7-36.2-7-80.7-5.4-127-8.3-89-5.3-183.8-12-260.4-62.2-25.3-16.5-57.4-20.7-87-28.5-75.8-20.1-159,1.7-244.2,31.3-18.3,6.4-34.4,15.1-48.8,23.1C261,267.8,202.2,319.3,143.4,367.3S30,487.3-22.4,544.5c-73.4,80.1-395.1-20.3-573-14.2-43.2,1.5-83.6,2.9-116.1,8.5-126.2,21.9-227.9-132.3-287.2-239.2"/><path class="cls-5" d="M2563.9,390.6c-77.8-80.5-168.2-125.9-259.6-152.3-130-37.6-276.9-67.2-347.8,20.8-43.4,53.9-146.8,73.7-258.3,95.9-68.7,13.7-142.8,23.5-204.3,36-120.1,24.5-203.5-63.9-394.8-98-36.4-6.5-80.8-4.5-126.7-7.4-89.4-5.2-183.8-11.2-260.2-58.3-25.8-15.9-57.9-19.4-86.8-27.9-75.5-22.3-155.9-2.6-242.4,25-18.4,5.9-34.4,14.3-48.9,21.9-59.3,31.5-118,81.5-177.8,127S42,488.3-12.6,543.6c-77.9,78.9-397-15.6-570.3-4.8-42.5,2.6-82.6,4.4-115.3,9.6-125.1,19.9-228.1-132.2-289.3-236.3"/><path class="cls-5" d="M2573.7,388.6c-77.4-73.7-167.5-108.1-260.1-132.4-127.8-33.5-272.9-70-346.4,11.1-44.8,49.5-147.6,67.6-258.7,90.3-67.9,13.9-141.5,24.4-203.3,37.7-120.2,25.8-205.8-57.5-394.3-88.2-36.7-6-80.9-3.7-126.4-6.5-89.7-5.1-183.9-10.3-260.1-54.4-26.3-15.3-58.5-18.2-86.6-27.4-75.1-24.7-152.7-6.8-240.7,18.7-18.4,5.3-34.5,13.4-49,20.7-59.9,30.2-118.4,78.7-179.3,121.7S53.5,489.9-3.2,543.3c-82.4,77.7-398.9-10.8-567.6,4.6-41.8,3.8-81.6,6-114.6,10.8-124,17.9-228.3-132.2-291.4-233.3"/><path class="cls-5" d="M2583.4,386.2c-77-66.9-166.8-90.4-260.5-112.4-125.5-29.5-268.9-72.8-345.1,1.3-46.3,45.1-148.4,61.4-259,84.7-67.1,14.1-140.3,25.4-202.3,39.3-120.3,27-208.2-51-393.7-78.5-37-5.5-81.1-2.9-126-5.6-90-5.1-184-9.3-259.9-50.6-26.8-14.6-59.1-17-86.4-26.8-74.7-27-149.5-11.1-239,12.3-18.4,4.8-34.6,12.5-49.1,19.5-60.6,29-118.7,76-180.9,116.3C122.2,424.2,65.2,490.6,6.4,542.2c-87.1,76.4-400.9-6-564.9,14-41.1,5-80.5,7.5-113.8,11.9-122.8,16-228.5-132.1-293.4-230.3"/><path class="cls-5" d="M2593.1,384.1c-76.7-60.2-166-72.7-261-92.5C2209,266,2067.2,216,1988.4,283.2c-47.7,40.7-149.1,55.2-259.4,79.1-66.3,14.4-139,26.3-201.3,40.9-120.4,28.3-210.7-44.4-393.1-68.8-37.3-5-81.2-2.1-125.7-4.7-90.3-5.2-184.2-8.3-259.7-46.7-27.4-13.9-59.7-15.8-86.2-26.3-74.4-29.5-146.2-15.3-237.2,6-18.5,4.3-34.6,11.7-49.3,18.3-61.2,27.7-118.9,73.2-182.4,111C135.1,427.2,76.8,491.8,16,541.6c-91.8,75.1-402.9-1.1-562.2,23.4-40.4,6.2-79.5,9.1-113.1,13C-780.9,592.1-888,446-954.8,350.7"/><path class="cls-5" d="M2341.2,309.2c-120.6-21.9-260.8-78.4-342.4-18.1-49.1,36.3-149.9,49.1-259.8,73.5-65.5,14.6-137.7,27.3-200.3,42.6-120.5,29.5-213.1-37.7-392.6-59-37.6-4.5-81.3-1.3-125.3-3.8-90.7-5.1-184.4-7.3-259.6-42.9-28-13.2-60.3-14.6-86-25.7-74-31.9-143-19.4-235.5-.3-18.5,3.8-34.7,10.8-49.4,17.1C328.5,319,271.2,363.1,206.4,398.3,147.7,430.2,88,492.9,25.2,541c-96.5,73.8-404.9,3.9-559.6,32.8-39.8,7.4-78.4,10.7-112.4,14.1C-767.2,600-875.6,455.8-944.3,363.4"/><path class="cls-5" d="M2350.4,326.9c-118.1-18.3-256.7-81.2-341-27.9-50.5,31.9-150.7,42.9-260.1,67.9-64.7,14.8-136.5,28.2-199.3,44.2-120.5,30.7-215.6-31-392-49.3-37.9-3.9-81.4-.5-125-2.8-91-5-184.7-6.2-259.4-39-28.5-12.6-60.9-13.5-85.8-25.1-73.7-34.5-139.7-23.6-233.8-6.7-18.5,3.3-34.8,10-49.5,15.9C342,329.2,285.3,371.9,219.1,404.5,160.8,433.2,99.6,493.9,34.8,540.3c-101.3,72.4-407,8.9-556.9,42.1-39.1,8.7-77.4,12.2-111.6,15.2C-753,608-862.7,465.8-933.4,376.2c-25-31.6-45.9-61.8-60.3-83.9"/><path class="cls-5" d="M2359.7,344.6c-115.5-14.8-252.5-83.9-339.7-37.6-51.8,27.5-151.5,36.7-260.5,62.3-63.9,15-135.2,29.1-198.4,45.9-120.6,32-218-24.2-391.5-39.5-38.2-3.4-81.5.4-124.7-1.9-91.3-4.9-185-5-259.3-35.1-29.1-11.8-61.5-12.4-85.7-24.6-73.3-37.1-136.5-27.7-232-13-18.5,2.8-34.9,9.1-49.7,14.7-63.1,23.8-119.2,65.1-186.9,95.1C173.6,436.1,110.9,494.8,44,539.4-62,610.3-365,553.5-510.1,591c-38.4,9.9-76.4,13.8-110.9,16.4C-739.1,616.1-850.1,475.6-922.7,389c-25.5-30.4-47.1-59.7-62.4-81.6"/><path class="cls-5" d="M2368.7,362.6c-112.9-11.4-248.2-86.6-338.4-47.3-53.1,23.2-152.3,30.6-260.9,56.7-63.1,15.2-133.9,30.1-197.4,47.5-120.7,33.2-220.5-17.3-390.9-29.8-38.5-2.8-81.6,1.2-124.3-1-91.7-4.8-185.4-3.8-259.1-31.3-29.8-11.1-62.1-11.3-85.5-24C639.3,293.6,579,301.6,481.9,314c-18.6,2.4-34.9,8.2-49.8,13.5C368.4,349.9,313,390,243.6,417.2c-57.3,22.5-121.7,79-190.5,122C-57.8,608.5-358,558.5-498.4,600.1c-37.8,11.2-75.3,15.4-110.2,17.5-116.9,6.9-229.2-131.7-303.8-215.4-26-29.2-48.4-57.6-64.4-79.4"/><path class="cls-5" d="M2377.9,379.7c-110.3-8.2-244-89.3-337-57.1-54.4,18.8-153.1,24.4-261.3,51.1-62.3,15.4-132.7,31-196.4,49.1-120.8,34.4-223-10.3-390.3-20-38.8-2.3-81.8,2.1-124-.1-92-4.8-185.7-2.5-258.9-27.4-30.4-10.4-62.6-10.2-85.3-23.5-72.5-42.5-129.9-35.8-228.5-25.7-18.6,1.9-35,7.4-49.9,12.2-64.4,21.1-119,60-190,84.4C199.7,442.5,133.6,496.6,62.9,538c-115.8,67.7-413.1,24.6-548.8,70.3-37.1,12.5-74.3,17-109.4,18.6C-711,632.1-824.6,495.2-901.2,414.4c-26.5-28-49.6-55.5-66.5-77.1"/><path class="cls-5" d="M2387.2,397.5c-107.7-5.1-239.7-91.9-335.7-66.8-55.7,14.6-153.9,18.2-261.6,45.5-61.5,15.6-131.4,31.9-195.4,50.8-120.9,35.6-225.5-3.3-389.8-10.3-39.1-1.7-81.9,2.9-123.7.8-92.3-4.7-186.1-1.1-258.8-23.6-31-9.6-63.2-9.2-85.1-22.9-72-45.3-126.6-39.8-226.8-32-18.6,1.4-35.1,6.5-50.1,11-65,19.8-118.9,57.6-191.5,79.1-56.1,16.6-124,68.3-196.7,108.2C-48.6,603.4-343.2,567.4-474.1,617c-36.5,13.8-73.2,18.6-108.7,19.7-114.5,3.5-229.4-131.6-307.9-209.5-27-26.8-50.7-53.4-68.6-74.9"/><path class="cls-5" d="M2396.6,415.3c-105-2.1-235.4-94.5-334.3-76.5-57,10.3-154.7,12-262,39.9-60.8,15.8-130.2,32.8-194.4,52.4-121,36.9-228.1,3.8-389.2-.6-39.4-1.1-82,3.7-123.3,1.7-92.6-4.6-186.6.3-258.6-19.7-31.6-8.8-63.7-8.1-84.9-22.4-71.5-48.1-123.3-43.8-225.1-38.4-18.6,1-35.2,5.6-50.2,9.8-65.7,18.4-118.7,55.3-193,73.8-55.4,13.8-125.1,63-199.8,101.3C-43.7,601-335.4,572.2-461.6,625.7c-35.8,15.2-72.2,20.3-107.9,20.9-113.3,1.9-229.4-131.6-310-206.5a1010,1010,0,0,1-70.7-72.7"/><path class="cls-5" d="M2405.9,433.2c-102.4.8-231.1-97-333-86.3-58.2,6.1-155.5,5.8-262.4,34.3-60,16-128.9,33.8-193.5,54.1-121.1,38.1-230.6,11-388.6,9.2-39.8-.4-82.1,4.6-123,2.6-93-4.5-187,1.7-258.4-15.8-32.3-7.9-64.3-7.1-84.7-21.8-71-51-120.1-47.7-223.3-44.7-18.6.5-35.3,4.7-50.3,8.6C422.2,390.2,370,426.2,294,441.6,239.2,452.7,167.7,499.2,91.1,536c-130.4,62.6-419.2,41.3-540.7,98.5-35.1,16.6-71.1,21.9-107.2,22-112.1.2-229.5-131.6-312.1-203.5a960.6,960.6,0,0,1-72.7-70.4"/><path class="cls-5" d="M2414.8,451c-99.7,3.6-226.9-99.4-331.7-96-59.5,1.9-156.3-.4-262.8,28.7-59.2,16.2-127.7,34.7-192.5,55.7-120.9,39-232.8,17.9-387.8,18.6-40.1.2-82.2,5.4-122.6,3.5-93.3-4.4-187.4,3.3-258.3-12-32.9-7.1-64.8-6.1-84.5-21.2-70.4-54-116.8-51.6-221.6-51.1-18.7.1-35.3,3.9-50.4,7.4-67,15.7-118.3,51-196.1,63.2C252.4,456.2,179,500,100.6,535.3c-135.3,60.8-421.2,47-538,107.9-34.5,18-70.1,23.5-106.5,23.1-110.9-1.4-229.5-131.6-314.2-200.6a905.3,905.3,0,0,1-74.8-68.2"/><path class="cls-5" d="M2423.7,468.3c-97.1,6.3-222.7-101.8-330.3-105.8-60.8-2.2-157.1-6.6-263.1,23.2-58.4,16.4-126.4,35.6-191.5,57.4-121.2,40.5-235.6,25.5-387.5,28.7-40.4.8-82.3,6.3-122.3,4.4-93.6-4.3-187.9,4.8-258.1-8.1-33.6-6.2-65.3-5.1-84.3-20.7-69.8-57-113.5-55.4-219.9-57.4-18.7-.3-35.4,3-50.6,6.2-67.7,14.3-118,49.1-197.6,57.8-53.4,5.9-128.6,46.8-209,80.6-140.2,58.9-423.1,52.8-535.4,117.3-33.8,19.4-69,25.2-105.7,24.2-109.7-2.9-229.5-131.6-316.2-197.6a894.2,894.2,0,0,1-76.9-65.9"/><path class="cls-5" d="M2433.3,486.2c-94.5,8.9-218.5-104.1-329-115.5-62.2-6.4-157.9-12.9-263.5,17.6-57.6,16.6-125.1,36.5-190.5,59-121.3,41.7-238.1,32.9-387,38.4-40.7,1.5-82.5,7.1-122,5.3-93.9-4.2-188.3,6.5-257.9-4.3-34.2-5.3-65.7-4.1-84.1-20.1-69-60.1-110.3-59.2-218.1-63.7-18.7-.8-35.5,2.1-50.7,5-68.3,13-117.8,47.3-199.1,52.5-52.7,3.4-129.8,41.3-212.1,73.6-145.1,57-424.9,58.7-532.7,126.7-33,20.9-68,26.9-105,25.3-108.5-4.5-229.5-131.7-318.3-194.6a840.2,840.2,0,0,1-79-63.7"/><path class="cls-5" d="M2442.5,503.6c-91.9,11.4-214.3-106.5-327.6-125.2-63.5-10.5-158.7-19.1-263.9,12-56.8,16.8-123.9,37.4-189.5,60.6-121.4,42.9-240.6,40.3-386.4,48.2-41,2.2-82.6,8-121.6,6.2-94.3-4-188.7,8.2-257.8-.4-34.9-4.3-66.2-3.2-83.9-19.6-68.2-63.2-107.1-63-216.4-70.1-18.7-1.2-35.6,1.2-50.8,3.8-69,11.6-117.7,45.7-200.6,47.2-52.1,1-130.9,35.8-215.2,66.7-150,55-426.6,64.6-530,136.1-32.3,22.3-66.9,28.5-104.3,26.5C-612.9,689.6-735,563.8-825.9,504a799.5,799.5,0,0,1-81-61.4"/><path class="cls-5" d="M2451.8,521.4c-89.4,13.8-210.2-108.8-326.3-135-64.9-14.6-159.6-25.3-264.3,6.4-56,17-122.6,38.4-188.6,62.3-121.5,44.1-243,47.8-385.8,57.9-41.3,2.9-82.7,8.9-121.3,7.1-94.6-3.9-189.1,9.9-257.6,3.5-35.5-3.3-66.7-2.2-83.8-19-67.4-66.3-103.8-66.8-214.6-76.4-18.8-1.6-35.7.3-51,2.6-69.6,10.2-117.6,44.1-202.1,41.9-51.5-1.4-132,30.3-218.3,59.8-154.9,53-428.3,70.6-527.3,145.5-31.5,23.9-65.9,30.2-103.5,27.6C-598.9,698.1-722.1,573.7-815.2,517a732.6,732.6,0,0,1-83.1-59.2"/><path class="cls-5" d="M2461.1,538.9c-87,16.2-206.1-111.1-325-144.7-66.3-18.8-160.4-31.6-264.6.8-55.2,17.1-121.4,39.3-187.6,63.9-121.6,45.3-245.5,55.3-385.3,67.7-41.6,3.7-82.8,9.7-121,8-94.9-3.8-189.5,11.7-257.5,7.3-36.1-2.3-67.1-1.2-83.6-18.5-66.4-69.5-100.6-70.5-212.9-82.8-18.8-2.1-35.7-.6-51.1,1.4-70.2,9-117.4,43-203.5,36.8-51-3.7-133.2,24.8-221.4,52.9-159.8,51-429.9,76.8-524.6,155-30.7,25.4-64.9,31.9-102.8,28.7-105-8.9-229.4-132.1-324.5-185.7a700.9,700.9,0,0,1-85.2-56.9"/><path class="cls-5" d="M2470.3,557c-84.6,18.4-202-113.4-323.6-154.4-67.7-22.9-161.2-37.8-265-4.8-54.4,17.3-120.1,40.2-186.6,65.6-121.7,46.5-247.9,62.9-384.7,77.4-41.9,4.4-82.9,10.5-120.6,9-95.3-3.7-189.8,13.5-257.3,11.2-36.8-1.2-67.5-.3-83.4-17.9-65.4-72.7-97.4-74.2-211.2-89.1-18.8-2.5-35.8-1.4-51.2.1-70.9,7.3-117.6,41.5-205.2,31.3-50.5-5.9-134.3,19.3-224.5,46C-7.7,580.2-274.4,614.2-364.9,695.7c-29.9,26.9-63.8,33.6-102,29.8-103.9-10.7-229.4-132.5-326.6-183a649.7,649.7,0,0,1-87.2-54.7"/><path class="cls-5" d="M2479.5,574.8c-82.2,20.7-198-115.7-322.3-164.2-69.1-27-162-44.1-265.4-10.4-53.6,17.5-118.9,41.1-185.6,67.2-121.8,47.7-250.3,70.5-384.1,87.1-42.2,5.2-83.1,11.4-120.3,9.9-95.6-3.6-190.2,15.3-257.1,15-37.4-.2-67.9.7-83.2-17.3-64.3-76-94.3-77.8-209.4-95.4-18.9-2.9-35.9-2.3-51.4-1.1C529.1,471.5,483,506,394,491.5c-50.1-8.1-135.4,13.7-227.6,39.1C-3.1,577.3-266.3,619.5-352.8,704.3c-29,28.5-62.8,35.4-101.3,31-102.7-11.8-229.4-132.4-328.7-179.7a623.2,623.2,0,0,1-89.3-52.4"/><path class="cls-5" d="M2488.7,592.2c-80,22.9-194-118-320.9-173.9-70.6-31.1-162.8-50.3-265.7-16-52.9,17.6-117.6,42-184.6,68.8-121.9,48.8-252.7,78.2-383.6,96.9-42.4,6.1-83.2,12.2-119.9,10.8-95.9-3.5-190.4,17.2-257,18.9-38,1-68.3,1.7-83-16.8-63.1-79.2-91.1-81.5-207.7-101.8-18.9-3.3-36-3.2-51.5-2.3-72.2,4.4-117.9,39.4-208.2,20.6-49.8-10.3-136.5,8.2-230.7,32.2-174.4,44.6-434,95-516.5,183.1-28.1,30-61.8,37.1-100.6,32.1C-542.9,731.7-670.6,612.2-772,568.1a591.3,591.3,0,0,1-91.4-50.2"/><path class="cls-5" d="M2497.9,610c-77.9,25-190.1-120.3-319.6-183.6-72-35.2-163.7-56.6-266.1-21.6-52.1,17.8-116.4,42.8-183.6,70.5-122.1,49.8-255,85.9-383,106.6-42.7,6.9-83.3,13.1-119.6,11.7-96.3-3.5-190.7,19.1-256.8,22.8-38.5,2.1-68.7,2.6-82.8-16.2-61.8-82.5-88-85.1-206-108.1-19-3.7-36-4.1-51.6-3.5-72.9,3-118.3,38.4-209.7,15.3-49.5-12.5-137.6,2.6-233.7,25.3C6,571.3-250,630-328.6,721.5c-27.2,31.6-60.8,38.9-99.8,33.2-100.5-14.5-229.3-132.9-332.8-173.8A567.8,567.8,0,0,1-854.7,533"/><path class="cls-5" d="M2507.3,627.3c-75.8,27.1-186.1-122.6-318.3-193.4-73.5-39.4-164.5-62.9-266.5-27.2-51.3,18-115.2,43.7-182.7,72.1-122.2,51-257.3,93.7-382.5,116.4-42.9,7.8-83.4,13.9-119.3,12.6-96.6-3.4-190.9,21.1-256.6,26.6-39.1,3.3-69,3.6-82.6-15.7-60.4-85.8-84.9-88.7-204.2-114.5a220.6,220.6,0,0,0-51.7-4.7c-73.5,1.5-118.7,37.6-211.3,10-49.3-14.7-138.6-3-236.8,18.4C10.8,568-241.5,635-316.3,729.8c-26.2,33.2-59.7,40.6-99.1,34.3-99.4-15.9-229.3-133.2-334.9-170.8a533.8,533.8,0,0,1-95.5-45.7"/><path class="cls-5" d="M2516.5,645.1c-73.9,29.2-182.2-124.9-316.9-203.1-75-43.5-165.3-69.2-266.9-32.8-50.5,18.1-113.9,44.7-181.7,73.8-122.3,52.3-259.6,101.5-381.9,126.1-43.2,8.7-83.5,14.7-118.9,13.5-96.9-3.3-191,23-256.5,30.5-39.6,4.5-69.4,4.6-82.4-15.1-59-89-81.8-92.2-202.5-120.8a222.6,222.6,0,0,0-51.9-5.9c-74.1.1-119.3,36.7-212.8,4.7-49.2-16.9-139.7-8.6-239.9,11.5-189,38-437.5,113.2-508.6,211.4-25.2,34.7-58.7,42.4-98.4,35.4-98.3-17.2-229.3-133.5-337-167.8-33.9-10.8-66.6-25.8-97.6-43.5"/><path class="cls-5" d="M2525.3,663.1c-72,31.3-178.4-127.1-315.6-212.8-76.5-47.5-166.2-75.6-267.2-38.4-49.8,18.2-112.7,45.6-180.7,75.4-122.4,53.5-261.8,109.4-381.3,135.9-43.4,9.6-83.6,15.6-118.6,14.4-97.2-3.2-191.2,25-256.3,34.3-40.1,5.7-69.7,5.6-82.2-14.6-57.5-92.3-78.7-95.8-200.7-127.1a224.1,224.1,0,0,0-52-7.1c-74.8-1.6-120,35.9-214.3-.7-49.1-19-140.7-14.2-243,4.6C19.8,562.5-224.8,646-292.3,747.6c-24.1,36.3-57.7,44.2-97.6,36.6-97.2-18.6-229.3-133.8-339-164.8-34.4-9.7-67.7-23.9-99.7-41.2"/><path class="cls-5" d="M2534.9,680.8c-109.5,52.1-300.7-372.3-581.9-266.6-169.6,63.7-500.2,243.7-678.7,238-158.6-5.1-306.9,77.7-338.2,24.2-55.9-95.6-75.7-99.3-199-133.5-110.7-30.7-152.9,35.4-268-14.3C326.5,467-182.4,596-280.1,756.4c-78.2,128.4-279.5-84.9-438-124.2"/></g></g></svg>