<svg id="Layer_1" data-name="Layer 1" xmlns="http://www.w3.org/2000/svg" xmlns:xlink="http://www.w3.org/1999/xlink" viewBox="0 0 1920 480"><defs><style>.cls-1,.cls-5{fill:none;}.cls-2{fill:url(#linear-gradient);}.cls-3{clip-path:url(#clip-path);}.cls-4{opacity:0.2;}.cls-5{stroke:#fff;stroke-miterlimit:10;}</style><linearGradient id="linear-gradient" x1="960" y1="482" x2="960" y2="2" gradientTransform="matrix(1, 0, 0, -1, 0, 482)" gradientUnits="userSpaceOnUse"><stop offset="0" stop-color="#0063a0"/><stop offset="1" stop-color="#18386b"/></linearGradient><clipPath id="clip-path"><rect class="cls-1" width="1920" height="480"/></clipPath></defs><rect class="cls-2" width="1920" height="480"/><g class="cls-3"><g class="cls-4"><path class="cls-5" d="M2732.5,338c-42.4,24.9-137.2,91.1-165.3,63.6-60.8-59.3-23.4-646.7-240.7-586.8-200.2,55.1-333.7,238.8-474.3,233.3-375.4-14.8-446.9,179.3-634.8,146.6-153.5-26.7-378.2,28.5-566.1,10.1-185-18.1-737-228.6-1041.4,69.6"/><path class="cls-5" d="M2744.8,331.5c-42.2,24.7-135.1,89-164,63-42.3-38-43.6-303-102.1-459.7-29-78.5-73.3-129.4-145.6-110.1C2135.9-121.8,2002.3,56.5,1862,51.3c-339.2-12.9-430.3,144.9-585.1,147.8a253.3,253.3,0,0,1-44.3-3.2c-135.3-21.3-320.1,20.2-490.7,18.9-23.3-.2-46.2-1.3-68.6-3.5-83.8-8.1-241-56.4-415.6-77.8-169.4-20.6-355.4-16-508.2,66.8A509.4,509.4,0,0,0-359,278.8"/><path class="cls-5" d="M2757.5,325.1c-42.1,24.5-133.1,86.9-162.7,62.4C2550.6,351,2544.6,95,2485.7-57.9c-29.4-76.3-73.7-126.1-145.5-107.3C2145.5-114.3,2012.1,59.1,1872,54.3c-334.2-12.3-427.7,141-580.1,145.3a255.5,255.5,0,0,1-43.8-2.7c-135.5-19-315.1,24-484.6,24-23-.1-45.7-1.1-68-3.2-83.9-8-239.5-57.1-411.6-77.8-167.7-20-351.5-13.2-503.5,67.3-38,20.3-74.6,45.1-108,76"/><path class="cls-5" d="M2770.3,318.9c-42,24.3-131.1,84.8-161.4,61.8-46.1-35-56.6-282.2-116.2-431-29.7-74.1-74-122.7-145.3-104.5C2155.5-106,2022,62.2,1882.2,57.7,1553,46,1457.2,195,1307,200.4a268.5,268.5,0,0,1-43.3-2.2c-135.8-16.8-310,27.8-478.5,29.1a651.9,651.9,0,0,1-67.4-3c-84.1-8-238-57.8-407.7-77.8-166-19.3-347.9-10.8-498.9,67.8-37.7,19.6-74.2,43.5-107.6,73.5"/><path class="cls-5" d="M2783.1,312.4c-41.8,24.1-129.2,82.7-160.1,61.2-48.1-33.5-62.9-271.9-123.2-416.7-29.9-71.9-74.3-119.3-145.2-101.8C2165.3-98,2031.9,65.3,1892.4,60.9,1568.1,50.6,1470,194.5,1322.2,201.1a284.1,284.1,0,0,1-42.8-1.7c-136-14.5-305,32-472.3,34.2a613.6,613.6,0,0,1-66.7-2.7C656.2,223,504,172.4,336.7,153.1c-164.3-18.7-344.1-8.2-494.2,68.3-37.3,19-73.8,42-107.2,70.9"/><path class="cls-5" d="M2795.6,306.2c-41.7,23.8-127.3,80.7-158.7,60.6-50.2-32.1-69.3-261.5-130.2-402.4-30.1-69.7-74.6-115.9-145.1-99C2175.2-89.9,2041.7,68.2,1902.5,64c-319.4-9.5-419.8,129.9-565.3,137.7a288.9,288.9,0,0,1-42.3-1.2c-136.4-12.2-299.9,35.9-466.2,39.2a579,579,0,0,1-66.1-2.5c-84.3-7.8-234.9-59.1-399.7-77.8-162.6-18-340.3-5.6-489.6,68.8-37,18.4-73.4,40.4-106.8,68.4"/><path class="cls-5" d="M2808.3,299.6c-41.6,23.6-125.5,78.7-157.4,60-52.3-30.6-75.6-251.1-137.3-388.1-30.4-67.5-74.8-112.5-145-96.2C2185-82,2051.5,70.9,1912.5,67.1c-314.4-8.8-417.2,126.3-560.3,135.2a326.2,326.2,0,0,1-41.8-.6c-136.7-9.9-294.9,39.8-460,44.3a548.6,548.6,0,0,1-65.5-2.2C700.5,236.1,551.5,184,389.1,166S52.5,163.1-95.8,235.3c-36.6,17.8-72.9,38.9-106.3,65.9"/><path class="cls-5" d="M2820.9,293.1c-41.5,23.4-123.7,76.7-156.1,59.4-54.5-29.1-82-240.8-144.3-373.8-30.6-65.3-75.1-109.1-144.9-93.4C2195-73.8,2061.4,74,1922.7,70.4c-309.4-8-414.6,122.6-555.4,132.7a318,318,0,0,1-41.4-.1c-137.1-7.5-289.8,43.7-453.9,49.4a516.8,516.8,0,0,1-64.8-1.9c-84.5-7.7-231.8-60.5-391.8-77.8s-332.7-.3-480.2,69.7c-36.3,17.2-72.5,37.3-105.9,63.4"/><path class="cls-5" d="M2833.9,286.9c-41.3,23.1-122,74.7-154.8,58.8-56.8-27.5-88.3-230.4-151.3-359.5-30.8-63.1-75.4-105.7-144.8-90.6C2205-65.8,2071.4,76.8,1933,73.5c-304.5-7.3-412,119-550.4,130.2-13.3,1.1-26.8.9-40.9.4-137.5-5.2-284.8,47.6-447.8,54.5a489.9,489.9,0,0,1-64.2-1.7c-84.7-7.6-230.3-61.2-387.8-77.8s-329,2.4-475.6,70.3c-35.9,16.6-72.1,35.8-105.5,60.8-94.1,70.7-105.8-17.4-267.5-56.7"/><path class="cls-5" d="M2846.7,280.6c-41.2,22.9-120.3,72.8-153.4,58.2-59.1-25.9-94.6-220-158.3-345.2-31-60.9-75.7-102.3-144.7-87.9-175.3,36.6-308.8,174-447,171-299.5-6.5-409.4,115.4-545.5,127.7a358.9,358.9,0,0,1-40.4.9c-137.9-2.8-279.7,51.5-441.6,59.6a449.3,449.3,0,0,1-63.6-1.4c-84.8-7.5-228.8-62.2-383.9-77.8s-325.2,5-470.9,70.8c-35.6,16-71.6,34.2-105,58.3-93.2,67.3-107.1-17.7-265.6-56.2"/><path class="cls-5" d="M2859.1,274.2c-41.1,22.7-118.6,70.9-152.1,57.6C2645.6,307.5,2606.1,122.1,2541.6.9c-31.2-58.7-76-98.9-144.6-85.1C2224.6-49.5,2091,82.7,1953.1,80c-294.6-5.8-406.8,111.7-540.5,125.2-13,1.3-26.2,1.4-39.9,1.4-138.3-.3-274.7,55.4-435.5,64.7a425.4,425.4,0,0,1-62.9-1.2c-84.9-7.5-227.2-62.9-379.9-77.8S173,200,28.1,263.6C-7.1,279-43.1,296.3-76.5,319.4c-92.2,63.8-108.3-18-263.7-55.7"/><path class="cls-5" d="M2872,267.8c-40.9,22.5-116.9,69-150.8,57C2657.4,302.2,2614,125.5,2548.8,8.2c-31.4-56.5-76.3-95.4-144.5-82.3C2234.7-41.5,2101,85.5,1963.4,83c-289.6-5.1-404.2,108.1-535.6,122.6-12.9,1.4-25.9,1.7-39.4,1.9-138.7,2.2-269.6,59.3-429.4,69.8a404.7,404.7,0,0,1-62.3-.9c-85-7.4-225.7-63.6-375.9-77.8-152.3-14.4-317.6,10.3-461.6,71.8C24.4,285.3-11.5,301.5-45,323.7c-91.2,60.4-109.6-18.3-261.8-55.1"/><path class="cls-5" d="M2884.3,261.3c-40.8,22.3-115.3,67.2-149.5,56.4-66-20.7-113.2-188.7-179.2-302-31.6-54.3-76.5-92-144.4-79.5C2244.4-33.1,2110.7,88.5,1973.3,86.4c-284.6-4.4-401.6,104.5-530.6,120.1-12.8,1.5-25.7,2-38.9,2.4-139.2,4.7-264.5,63.1-423.2,74.9a385.1,385.1,0,0,1-61.7-.7c-85.1-7.3-224.2-64.3-372-77.8-150.6-13.8-313.8,13-456.9,72.3-34.5,14.3-70.2,29.6-103.8,50.7-90.2,57-110.9-18.5-259.9-54.6"/><path class="cls-5" d="M2897.4,255.1c-40.6,22.1-113.7,65.4-148.2,55.8-68.7-19.1-119.7-178.5-186.5-287.9-31.8-52.1-76.8-88.6-144.3-76.8-164,28.7-297.8,145.1-434.8,143.3-279.7-3.7-399,101-525.7,117.6-12.6,1.7-25.4,2.2-38.4,2.9-139.6,7.3-259.5,67-417.1,80a365.5,365.5,0,0,1-61-.4c-85.3-7.2-222.6-65-368-77.8-148.9-13.1-310,15.7-452.3,72.7-34.1,13.7-69.8,28-103.3,48.2-89.1,53.6-112.2-18.8-258-54.1"/><path class="cls-5" d="M2910,248.7c-40.5,21.9-112,63.7-146.8,55.2-71.2-17.2-125.9-168.1-193.5-273.6-32-49.9-77.1-85.1-144.1-74-161.2,26.8-295,137.9-431.8,136.4-274.7-3-396.5,97.4-520.7,115.1-12.5,1.8-25.1,2.5-37.9,3.4-140.1,9.9-254.4,70.8-411,85a338.5,338.5,0,0,1-60.4-.2c-85.4-7.2-221.1-65.7-364-77.8-147.2-12.5-306.1,18.4-447.6,73.2-33.7,13.1-69.3,26.5-102.9,45.7-88,50.2-113.4-19.1-256-53.6"/><path class="cls-5" d="M2922.8,242.3c-40.4,21.7-110.4,61.9-145.5,54.6-73.7-15.3-132.1-157.7-200.5-259.3-32.1-47.7-77.4-81.7-144-71.2-158.6,25-292.5,130.7-429,129.5-269.7-2.3-393.9,93.8-515.8,112.6-12.4,1.9-24.8,2.8-37.5,3.9-140.6,12.6-249.4,74.7-404.8,90.1a322.8,322.8,0,0,1-59.8.1c-85.5-7.1-219.6-66.3-360.1-77.8-145.5-11.9-302.3,21-443,73.7-33.4,12.5-68.8,25-102.5,43.2-86.9,46.9-114.7-19.4-254.1-53"/><path class="cls-5" d="M2935.2,236c-40.2,21.4-108.8,60.2-144.2,54-76.2-13.3-138.3-147.3-207.6-245-32.3-45.5-77.6-78.2-143.9-68.4C2284-.4,2150,100,2013.8,99.1,1749,97.4,1622.5,189.4,1503,209.2c-12.3,2-24.6,3.1-37,4.5-141,15.3-244.3,78.5-398.7,95.2a307.1,307.1,0,0,1-59.1.3c-85.6-7-218-67-356.1-77.8-143.8-11.2-298.5,23.7-438.3,74.2-33,11.9-68.2,23.5-102,40.6-85.7,43.6-116-19.7-252.2-52.5"/><path class="cls-5" d="M2804.9,283.2c-78.6-11.3-144.5-136.9-214.6-230.7-32.4-43.3-77.9-74.8-143.8-65.7-152.7,21.1-286.7,116.1-422.7,115.6-259.8-1-388.7,86.8-505.9,107.6-12.1,2.2-24.3,3.4-36.5,5-141.5,18-239.3,82.3-392.5,100.3a293.1,293.1,0,0,1-58.5.6c-85.7-6.9-216.5-67.7-352.1-77.8-142.1-10.6-294.7,26.4-433.6,74.7-32.6,11.3-67.7,21.9-101.6,38.1C58.8,391,26,330.8-107,298.7"/><path class="cls-5" d="M2818.7,275.9c-81.1-9.2-150.6-126.6-221.6-216.4-32.5-41.1-78.2-71.3-143.7-62.9-149.9,19.3-284,108.9-419.7,108.7-254.8-.4-386.1,83.3-500.9,105-12,2.3-24,3.7-36,5.5-142,20.9-234.2,86.2-386.4,105.4a279,279,0,0,1-57.8.8c-85.9-6.9-215-68.4-348.2-77.8-140.4-9.9-290.8,29.2-429,75.2-32.3,10.8-67.2,20.5-101.2,35.6-82.8,37.3-118-20-247.9-51.3"/><path class="cls-5" d="M2833.4,269.2c-83.6-7-156.7-116.2-228.7-202.1C2572,28.1,2526.2-.8,2461,6.9c-147,17.5-281.2,101.6-416.6,101.7-249.9.2-383.5,79.8-496,102.5-11.9,2.4-23.7,4-35.5,6-142.4,23.7-229.2,90-380.3,110.5-18.9,2.6-38,2.6-57.2,1.1-86-6.8-213.5-69.1-344.2-77.8-138.7-9.3-287,31.9-424.3,75.7-31.9,10.2-66.6,19-100.8,33.1C124,393.5,86.3,339.2-40.4,308.8-196.8,271.3-286.9,182.1-422.6,174"/><path class="cls-5" d="M2847.4,262.2c-86.1-4.8-162.8-105.8-235.7-187.8C2579,37.7,2533,10,2468.2,17.1c-144.2,15.7-278.4,94.4-413.6,94.8-244.9.8-380.9,76.3-491,100-11.8,2.5-23.4,4.3-35,6.5-142.9,26.7-224.1,93.8-374.1,115.6a248.8,248.8,0,0,1-56.6,1.3c-86.1-6.7-211.9-69.7-340.2-77.8-137-8.6-283.1,34.6-419.7,76.2-31.5,9.6-66.1,17.5-100.3,30.5-81,30.7-121.3-20.8-244.7-50.4C-160.7,277-253,191.8-386.2,183"/><path class="cls-5" d="M2861.2,255.1c-88.5-2.5-168.8-95.5-242.7-173.4-32.8-34.6-78.9-60.9-143.4-54.5-141.3,13.9-275.7,87.1-410.6,87.9-239.9,1.4-378.3,72.8-486.1,97.5-11.6,2.7-23.2,4.7-34.5,7-143.3,29.7-219,97.6-368,120.7a242.7,242.7,0,0,1-55.9,1.6c-86.2-6.6-210.4-70.4-336.3-77.8-135.2-7.9-279.3,37.4-415,76.7-31.1,9-65.5,16.1-99.9,28-79.5,27.6-122.4-21-242.6-49.9C-124.7,282.8-219.2,201.6-350,192.2"/><path class="cls-5" d="M2875.4,248.4c-91-.4-174.9-85.4-249.9-159.4-32.8-32.4-79.2-57.4-143.3-51.8-138.5,12.1-272.9,79.8-407.5,81-235,2-375.7,69.4-481.1,95-11.5,2.8-22.9,5-34,7.5-143.8,32.7-214,101.4-361.9,125.8-18.1,3-36.7,3.3-55.3,1.8-86.3-6.6-208.9-71.1-332.3-77.8-133.5-7.3-275.5,40.1-410.3,77.2-30.8,8.5-64.9,14.6-99.5,25.5-78.2,24.5-123.6-21.3-240.7-49.4C-88.6,288.4-185.2,211.1-313.6,201.2"/><path class="cls-5" d="M2889.4,241.1c-93.4,2.2-180.8-74.9-256.8-144.8-32.9-30.3-79.5-53.9-143.2-49-135.6,10.4-270.1,72.5-404.5,74-230,2.6-373.1,65.9-476.1,92.5-11.4,2.9-22.6,5.3-33.5,8C1431,257.7,1366.2,327,1219.4,352.7c-17.9,3.1-36.2,3.5-54.7,2.1-86.5-6.5-207.4-71.7-328.3-77.8-131.8-6.6-271.6,42.9-405.7,77.7-30.4,7.9-64.3,13.2-99,22.9C254.8,399.1,206.8,356,92.9,328.8-52.6,294.1-151.3,220.7-277.3,210.3c-44.7-3.7-94.9-6.5-139.8-3"/><path class="cls-5" d="M2903.4,234.2c-95.7,4.7-186.7-64.6-263.8-130.5-32.9-28.1-79.7-50.3-143.1-46.2-132.8,8.6-267.4,65.2-401.5,67.1-225.1,3.2-370.4,62.5-471.2,89.9-11.3,3.1-22.3,5.6-33.1,8.5-144.5,39.1-203.9,109-349.6,136-17.7,3.3-35.8,3.7-54,2.3-86.6-6.4-205.8-72.4-324.4-77.8-130.1-5.9-267.8,45.7-401,78.2-30,7.3-63.8,11.9-98.6,20.4-75.6,18.6-126.2-21.9-236.9-48.3C-16.5,299.8-117.4,230.4-241,219.4c-44.9-4-94.3-6.9-138.2-3.6"/><path class="cls-5" d="M2917.4,227.3c-98.1,7.1-192.6-54.4-270.9-116.2-32.9-26-80-46.8-142.9-43.4-129.9,6.9-264.6,57.9-398.4,60.2-220.1,3.7-367.8,59.1-466.2,87.4-11.1,3.2-22,6-32.6,9-144.8,42.3-198.9,112.7-343.5,141a198.2,198.2,0,0,1-53.4,2.6c-86.7-6.4-204.3-73-320.4-77.8-128.4-5.2-263.9,48.5-396.4,78.7-29.6,6.8-63.2,10.5-98.2,17.9-74.3,15.7-127.4-22.1-235-47.8-140-33.3-243-98.8-364.2-110.4-45-4.3-93.7-7.3-136.6-4.2"/><path class="cls-5" d="M2931.4,220.1c-100.4,9.7-198.5-44.2-277.9-101.9-32.9-23.9-80.2-43.3-142.8-40.7-127,5.3-261.9,50.6-395.4,53.3-215.1,4.3-365.2,55.7-461.3,84.9-11,3.3-21.7,6.3-32.1,9.6-145.1,45.6-193.8,116.5-337.3,146.1-17.2,3.6-34.8,4.2-52.8,2.8-86.8-6.3-202.8-73.7-316.4-77.8-126.7-4.6-260,51.3-391.7,79.2-29.3,6.2-62.6,9.2-97.8,15.4-72.9,12.8-128.7-22.4-233-47.3C55.6,311.3-49.5,249.6-168.3,237.6c-45.2-4.6-93.1-7.8-135-4.8"/><path class="cls-5" d="M2660.4,125.6c-32.9-21.8-80.5-39.7-142.7-37.9-124.2,3.6-259.1,43.3-392.4,46.3-210.2,4.8-362.5,52.3-456.3,82.4-10.9,3.5-21.4,6.6-31.6,10.1-145.4,49-188.8,120.2-331.2,151.2-16.9,3.7-34.4,4.4-52.1,3.1-86.9-6.2-201.3-74.3-312.5-77.8-125-3.9-256.2,54.1-387,79.6-28.9,5.6-62,7.9-97.3,12.8-71.6,10-130-22.7-231.1-46.7C91.7,317-15.6,259.2-132,246.7c-45.4-4.9-92.5-8.2-133.4-5.4-62.1,4.3-119.2,43.9-155.1,97.8"/><path class="cls-5" d="M2667.5,132.9c-32.9-19.8-80.8-36.1-142.6-35.1-121.3,2-256.3,36-389.4,39.4-205.2,5.3-359.9,49-451.4,79.9-10.8,3.6-21.2,7-31.1,10.6-145.6,52.5-183.7,123.9-325,156.3-16.7,3.8-33.9,4.6-51.5,3.3-87-6.1-199.7-75-308.5-77.8-123.3-3.2-252.3,56.9-382.4,80.1-28.5,5.1-61.4,6.6-96.9,10.3-70.3,7.3-131.3-23-229.2-46.2C127.7,322.5,18.3,268.6-95.6,255.6c-45.6-5.2-91.9-8.6-131.8-6-60.3,4-115.2,44.3-153.1,97.7"/><path class="cls-5" d="M2674.5,140.2c-32.9-17.8-81-32.5-142.5-32.3-118.5.4-253.6,28.6-386.3,32.5-200.2,5.8-357.2,45.6-446.4,77.4-10.6,3.8-20.9,7.3-30.6,11.1-145.8,56-178.7,127.7-318.9,161.4-16.5,4-33.5,4.8-50.9,3.6-87.2-6.1-198.2-75.6-304.5-77.8-121.6-2.5-248.5,59.8-377.7,80.6-28.1,4.5-60.9,5.4-96.5,7.8-69,4.6-132.5-23.3-227.3-45.7-129-30.5-240.6-80.6-352.1-94.1-45.8-5.5-91.4-9.1-130.2-6.7-58.6,3.7-111.1,44.8-151.1,97.6-13.6,18-29.1,36.5-48.6,52.7"/><path class="cls-5" d="M2681.5,147.7c-32.9-15.8-81.3-28.9-142.4-29.6-115.7-1.2-250.8,21.3-383.3,25.6-195.3,6.3-354.6,42.3-441.5,74.9-10.5,3.9-20.6,7.7-30.1,11.6-145.9,59.6-173.7,131.4-312.8,166.5-16.2,4.1-33,5-50.2,3.8-87.3-6-196.7-76.2-300.5-77.8-119.9-1.8-244.6,62.6-373.1,81.1-27.8,4-60.3,4.2-96,5.3-67.8,1.9-133.8-23.5-225.4-45.2-126.3-29.8-239.9-76.1-349.1-90-46-5.9-90.8-9.5-128.6-7.3-56.9,3.4-106.9,45.3-149,97.5-14.1,17.4-29.8,35.4-49.1,51.4"/><path class="cls-5" d="M2688.2,154.5c-32.9-13.8-81.6-25.3-142.3-26.8-112.8-2.8-248,13.9-380.3,18.6-190.3,6.8-351.9,39-436.5,72.3-10.4,4.1-20.2,8-29.6,12.1-145.9,63.2-168.7,135.1-306.6,171.6-16,4.2-32.6,5.3-49.6,4.1-87.4-5.9-195.1-76.7-296.6-77.8-118.2-.8-240.8,65.5-368.4,81.6-27.4,3.4-59.8,3.1-95.6,2.7-66.6-.6-135.1-23.8-223.5-44.6-123.6-29-239.3-71.5-346.1-85.9-46.1-6.2-90.2-9.9-127-7.9-55.1,3.1-102.8,45.8-147,97.4-14.5,16.9-30.6,34.4-49.7,50.1"/><path class="cls-5" d="M2695.4,162.4c-32.9-11.9-81.8-21.6-142.2-24-110-4.3-245.3,6.3-377.2,11.7-185.4,6.9-349.2,35.7-431.6,69.8q-15.3,6.3-29.1,12.6c-145.9,66.9-163.6,138.8-300.5,176.7-15.7,4.4-32.1,5.5-49,4.3-87.5-5.8-193.6-77.4-292.6-77.8-116.5-.2-236.9,68.4-363.7,82.1-27,2.9-59.2,2-95.2.2-65.4-3.2-136.4-24.1-221.5-44.1-120.8-28.3-238.7-67-343.1-81.8-46.3-6.6-89.6-10.4-125.5-8.5-53.4,2.8-98.6,46.4-145,97.3-15,16.4-31.3,33.3-50.2,48.8"/><path class="cls-5" d="M2702.5,169.7c-32.9-10-82.1-18-142.1-21.2-107.2-5.8-242.5-1-374.2,4.8-180.4,7.6-346.5,32.4-426.6,67.3-10.1,4.4-19.6,8.7-28.7,13.1-145.8,70.7-158.7,142.3-294.4,181.7-15.5,4.5-31.7,5.7-48.3,4.6-87.6-5.8-192.1-78-288.6-77.8-114.8.5-233,71.6-359.1,82.6-26.6,2.4-58.7.9-94.8-2.3-64.3-5.7-137.6-24.4-219.6-43.6C308,351.3,188,316.4,85.9,301.2c-46.5-6.9-89-10.8-123.9-9.1-51.7,2.5-94.5,47-143,97.1-15.4,15.9-32.1,32.3-50.8,47.5"/><path class="cls-5" d="M2709.2,177c-167.6-41.2-765.3-33.4-934.8,44.2-173.3,79.4-173.6,157.3-316.4,200.5-96.5,29.2-220.6-74-332.4-72.9s-229.2,74.3-354.4,83.1C600.1,443.9,183.8,292.4,0,300.6c-65.6,2.9-114.7,80.5-192.4,143.3"/></g></g></svg>