<svg id="Layer_1" data-name="Layer 1" xmlns="http://www.w3.org/2000/svg" xmlns:xlink="http://www.w3.org/1999/xlink" viewBox="0 0 1920 690"><defs><style>.cls-1,.cls-5{fill:none;}.cls-2{fill:url(#linear-gradient);}.cls-3{clip-path:url(#clip-path);}.cls-4{opacity:0.2;}.cls-5{stroke:#fff;stroke-miterlimit:10;}</style><linearGradient id="linear-gradient" x1="960" x2="960" y2="690" gradientUnits="userSpaceOnUse"><stop offset="0.01" stop-color="#4e2353"/><stop offset="1" stop-color="#0f0926"/></linearGradient><clipPath id="clip-path"><rect class="cls-1" width="1920" height="690"/></clipPath></defs><rect class="cls-2" width="1920" height="690"/><g class="cls-3"><g class="cls-4"><path class="cls-5" d="M-126,90.9C32.2,156.5,382.2,567.8,618.5,535.1c255.9-35.4,419.2-60.5,667.9-91.5,225.5-28.1,580.6,384.1,776.5,168.1"/><path class="cls-5" d="M-123.3,109.1c166,59.5,511.8,445.4,747.9,416,254.9-32.1,416.6-43.1,667-79.7,228.4-34.4,577,375.7,771.1,161.8"/><path class="cls-5" d="M-120.6,127.3c173.9,53.3,515.5,414,751.2,387.8,254-28.8,414.3-24.8,666.1-68,231.5-39.7,573.6,367.3,765.7,155.6"/><path class="cls-5" d="M-117.9,145.5C63.8,192.7,401.3,528,636.6,505c253.1-25.4,412-7,665.2-56.1,234.6-45.6,570.1,358.9,760.4,149.3"/><path class="cls-5" d="M-115.2,163.7C74.4,204.8,407.6,514.8,642.7,495c252.1-22.1,409.6,10.7,664.2-44.4,237.6-51.4,566.6,350.6,755.1,143"/><path class="cls-5" d="M-112.5,181.9C84.9,216.9,414,502,648.7,485c251.3-18.3,407.2,28.4,663.3-32.6,240.7-57.4,563.1,342.2,749.8,136.7"/><path class="cls-5" d="M-109.8,200.1C95.4,229,420.4,488.8,654.7,474.9c250.4-14.8,404.9,46.1,662.4-20.8,243.8-63.3,559.6,333.8,744.4,130.5"/><path class="cls-5" d="M-107.1,218.3C106,241.1,426.8,475.7,660.8,464.9c249.4-11.4,402.5,63.6,661.4-9,246.8-69.3,556.1,325.4,739.1,124.2"/><path class="cls-5" d="M-104.5,236.5c221,16.6,537.6,226,771.3,218.4,248.5-8.1,400.1,81.2,660.5,2.7,249.9-75.3,552.6,317.1,733.8,118"/><path class="cls-5" d="M-101.8,254.7c228.9,10.5,541.3,194.6,774.6,190.2,247.6-4.7,397.8,98.7,659.6,14.5,253-81.4,549.1,308.6,728.5,111.7"/><path class="cls-5" d="M-99.1,272.9c236.7,4.4,544.9,163.2,778,161.9,246.6-1.3,395.4,116.2,658.6,26.3,256.1-87.4,545.6,300.3,723.1,105.5"/><path class="cls-5" d="M-96.4,291.1c244.6-1.7,548.6,131.7,781.3,133.7,245.7,2.1,393,133.7,657.7,38.1,259.1-93.6,542.1,291.9,717.8,99.2"/><path class="cls-5" d="M-93.7,309.3c252.4-7.8,552.2,100.3,784.6,105.5,244.8,5.4,390.6,151.1,656.8,49.8,262.2-99.7,538.6,283.6,712.5,93"/><path class="cls-5" d="M-91,327.5c260.2-13.9,555.9,68.9,788,77.3,243.8,8.7,388.2,168.5,655.8,61.6C1618,360.5,1887.9,741.5,2060,553.1"/><path class="cls-5" d="M-88.3,345.7c268.1-20,559.5,37.5,791.3,49,242.9,12.1,385.8,185.9,654.9,73.4s531.6,266.8,701.8,80.5"/><path class="cls-5" d="M-85.6,363.9c275.9-26.2,563.2,6,794.7,20.8C951,400.1,1092.4,587.9,1363,469.9s528.1,258.4,696.5,74.2"/><path class="cls-5" d="M-82.9,382.1c283.8-32.3,566.8-25.4,798-7.4,241,18.7,380.9,220.5,653,96.9,274.3-124.5,524.6,250,691.2,68"/><path class="cls-5" d="M-80.2,400.3c291.6-38.4,570.5-56.9,801.3-35.7,240.1,22.1,378.5,237.9,652.2,108.8,277.2-130.8,521,241.6,685.8,61.7"/><path class="cls-5" d="M-77.5,418.5C222,374,496.6,330.1,727.2,354.6c239.1,25.4,375.9,255.2,651.2,120.5,280.1-137.1,517.5,233.3,680.4,55.5"/><path class="cls-5" d="M-74.9,436.7C232.5,386.1,503,316.9,733.2,344.6c238.2,28.7,373.5,272.5,650.3,132.3,283.1-143.4,514,224.9,675.1,49.2"/><path class="cls-5" d="M-72.2,454.9C243,398.2,509.3,303.6,739.2,334.6c237.3,31.9,371.1,289.7,649.4,144,286.1-149.7,510.5,216.5,669.8,43"/><path class="cls-5" d="M-69.5,473.1c323.1-62.9,585.2-182.8,814.8-148.6,236.3,35.3,368.5,307,648.4,155.9,289-156.1,507,208.1,664.5,36.7"/><path class="cls-5" d="M-66.8,491.3C264.1,422.3,522,277,751.3,314.5c235.4,38.5,366,324.2,647.5,167.6,291.9-162.4,503.5,199.8,659.1,30.5"/><path class="cls-5" d="M-64.1,509.5c338.8-75.1,592.5-245.8,821.4-205,234.5,41.8,363.5,341.4,646.6,179.4,294.8-168.8,500.1,191.3,653.8,24.2"/><path class="cls-5" d="M-61.4,527.7c346.6-81.2,596.2-277.3,824.8-233.2,233.6,45,360.9,358.6,645.6,191.1,297.7-175.1,496.6,183,648.5,18"/><path class="cls-5" d="M-58.7,546c354.5-87.4,599.8-309,828.1-261.6,232.7,48.3,358.4,375.9,644.7,203,300.6-181.5,493.1,174.6,643.2,11.7"/><path class="cls-5" d="M-56,564.2c362.3-93.5,603.5-340.5,831.4-289.8,231.8,51.5,355.9,393,643.8,214.7,303.5-187.9,489.6,166.3,637.8,5.5"/><path class="cls-5" d="M-53.3,582.4c370.1-99.6,607.2-372,834.8-318,230.8,54.7,353.2,410.2,642.8,226.5,306.4-194.4,486.1,157.8,632.5-.8"/><path class="cls-5" d="M-50.6,600.6C327.4,494.8,560.3,197,787.5,254.3c229.9,58,350.7,427.4,641.9,238.3,309.2-200.7,482.6,149.5,627.2-7"/><path class="cls-5" d="M-47.9,618.8C337.9,506.9,566.8,183.2,793.5,244.3c229.2,60.8,348.1,444.6,641,250.1,312.1-207.2,479.1,141.1,621.9-13.3"/><path class="cls-5" d="M-45.3,637C348.5,519,573.1,170,799.6,234.3c228.2,64.1,345.5,461.7,640,261.8,314.9-213.6,475.6,132.7,616.5-19.5"/><path class="cls-5" d="M-42.6,655.2C359,531.1,579.5,156.7,805.6,224.3s342.6,478.4,639.1,273.6c317.4-220.6,472.1,124.3,611.2-25.8"/><path class="cls-5" d="M-39.9,673.4c409.5-130.2,625.8-530,851.5-459.2s340.1,495.9,638.3,285.5c320.2-226.8,468.5,115.9,605.8-32.1"/><path class="cls-5" d="M-37.2,691.6C380.1,555.3,592.2,130.2,817.7,204.2S1155.3,717.4,1455,501.4c323.2-233,465,107.6,600.5-38.3"/></g></g></svg>