<svg id="Layer_1" data-name="Layer 1" xmlns="http://www.w3.org/2000/svg" xmlns:xlink="http://www.w3.org/1999/xlink" viewBox="0 0 1920 480"><defs><style>.cls-1,.cls-5{fill:none;}.cls-2{fill:url(#linear-gradient);}.cls-3{clip-path:url(#clip-path);}.cls-4{opacity:0.2;}.cls-5{stroke:#fff;stroke-miterlimit:10;}</style><linearGradient id="linear-gradient" x1="960" y1="482" x2="960" y2="2" gradientTransform="matrix(1, 0, 0, -1, 0, 482)" gradientUnits="userSpaceOnUse"><stop offset="0" stop-color="#397890"/><stop offset="1" stop-color="#0f2660"/></linearGradient><clipPath id="clip-path"><rect class="cls-1" width="1920" height="480"/></clipPath></defs><rect class="cls-2" width="1920" height="480"/><g class="cls-3"><g class="cls-4"><path class="cls-5" d="M2073.7,585.4c-89.7,5.1-165.2-173.4-213.1-235.2-49.7-64.1-84-252.3-175.4-267.3-68.7-11.2-208.2,190.5-317.9,190.5-298.8,0-310,78.9-417.1,78.9-133.5,0-101.8-187.6-174.2-248C599.2-43.2,412.4,231.3,312.3,264c-113.9,37.2-131.4-10.7-266,72"/><path class="cls-5" d="M2070.3,580.7c-58.1,1.6-110.9-71.2-154.3-139.1-23.1-36.2-43.4-71.2-61.2-91.9-52.6-61.3-85.5-240.6-178.5-255.6-47-7.6-123.3,74.2-202.3,131-38.8,27.9-78.3,50.5-115,51-178.6,2.4-254.9,30.3-311.7,52.3-35.7,13.8-62.8,25.2-104.2,24.5C811.7,350.7,842,165,770.5,103.9,727,66.8,682.8,55.7,639,60.6,505.2,75.4,386.6,237.7,309.6,262.1c-114.1,36.6-130.7-11.6-264.3,68.8-113.7,67.8-207.6,31-292.5-32"/><path class="cls-5" d="M2066.9,576.1c-57.8-.1-111.1-71.3-155.2-137.7-23.4-35.2-43.8-69.3-62.6-89.1-55.6-58.6-87.1-228.8-181.6-244-48.1-7.7-122.9,68.1-201.7,122.8-38.5,26.7-77.7,49.6-114.9,50.6-175.4,4.7-252.6,31.5-311.1,52.4-35.8,12.8-62.8,23.5-103.6,22.1-129.2-4.6-100.5-188.1-171.1-250-42.8-37.3-86.5-49-130.4-44.7C499,72.1,385.9,235.5,307.1,260.1c-114.4,35.7-129.7-11.9-262.6,65.5-113.6,66.2-201.8,36.8-288-23.9"/><path class="cls-5" d="M2063.4,571.4c-57.6-1.8-111.3-71.4-156.2-136.3-23.6-34.1-44.2-67.4-64-86.2-58.5-55.8-88.7-217.1-184.7-232.3-49.2-7.8-122.5,62-201.1,114.5-38.1,25.5-77.2,48.8-114.8,50.3-172.2,6.9-250.2,32.7-310.4,52.6-35.9,11.9-62.9,21.9-103,19.7-127.1-6.8-99.7-188.5-169.5-251-42.1-37.6-85.4-49.9-129.4-46C492.8,68.7,385.2,233.5,304.6,258c-114.7,35-128.9-12.5-260.9,62.3-113.6,64.5-196,42.7-283.6-15.8"/><path class="cls-5" d="M2060.1,566.6c-57.3-3.5-111.5-71.5-157.1-135-23.8-33.1-44.6-65.5-65.4-83.4-61.5-53.1-90.2-205.4-187.8-220.7-50.3-7.8-122.2,55.9-200.6,106.3-37.7,24.3-76.7,48-114.7,50-168.9,9-247.8,33.9-309.7,52.8-36,11-62.9,20.3-102.5,17.4-124.9-9.1-99-188.8-167.9-251.9C712.9,64.2,670,51.3,626,54.7,486.7,65.3,384.5,231.4,302.1,256c-115,34.2-128.2-13.2-259.1,59.1-113.7,62.7-190.1,48.5-279.2-7.8"/><path class="cls-5" d="M2056.8,561.9c-57-5.1-111.6-71.6-158-133.6-24-32-45-63.6-66.8-80.6-64.4-50.3-91.8-193.7-190.9-209.1-51.3-7.9-121.8,49.7-200,98-37.4,23.1-76.2,47.1-114.6,49.7-165.7,11-245.4,35.1-309.1,53-36,10.1-62.9,18.6-101.9,15-122.9-11.2-98.5-189-166.6-252.8-40.7-38.2-83.2-51.7-127.2-48.8C480.5,61.9,383.8,229.4,299.5,253.9c-115.2,33.5-127.3-13.8-257.4,55.8-113.7,60.9-184.3,54.3-274.7.3"/><path class="cls-5" d="M2053.4,557.1c-56.6-6.7-111.7-71.6-159-132.2-24.2-31-45.4-61.7-68.2-77.7-67.4-47.6-93.4-182-194-197.4-52.4-8-121.3,43.6-199.5,89.8-37,21.8-75.6,46.3-114.5,49.4-162.4,12.8-243,36.3-308.4,53.2-36.1,9.3-62.9,17-101.4,12.6C787.8,341.2,810.8,165.5,743.5,101c-40.1-38.4-82.1-52.6-126.1-50.2C474.3,58.5,383.2,227.4,297,251.9c-115.4,32.8-126.5-14.4-255.6,52.6-113.8,59.1-178.3,60.1-270.3,8.3"/><path class="cls-5" d="M2049.9,552.5c-56.3-8.2-111.9-71.7-159.9-130.8-24.3-29.9-45.8-59.8-69.7-74.9C1750,302,1725.4,176.6,1623.2,161c-53.5-8.1-120.9,37.5-198.9,81.6-36.6,20.6-75.1,45.4-114.4,49.1-159.1,14.6-240.5,37.6-307.7,53.4-36.1,8.5-63,15.3-100.8,10.3-118.4-16-96.9-189.8-163.2-255C698.8,61.7,657.3,47,613.1,48.9c-145,6.3-230.6,176.5-318.6,201C178.8,282,168.7,234.8,40.6,299.2c-113.9,57.3-172.4,65.9-265.9,16.4"/><path class="cls-5" d="M2046.7,547.9c-56-9.7-112-71.8-160.8-129.5-24.5-28.9-46.2-57.9-71.1-72.1-73.3-42.1-96.5-158.5-200.2-174.2-54.6-8.2-120.4,31.4-198.4,73.3-36.2,19.4-74.5,44.6-114.4,48.7-155.8,16.3-238,38.8-307.1,53.5-36.1,7.7-63,13.7-100.3,7.9-116.2-18.1-96.1-190-161.6-255.9-38.7-39-79.8-54.4-124-52.9C461.9,51.7,381.9,223.4,292,247.8,176.1,279.3,167,232,39.8,294c-114,55.5-166.4,71.6-261.5,24.5"/><path class="cls-5" d="M2043.3,543.1c-55.6-11.2-112.1-71.9-161.8-128.1-24.6-27.9-46.6-56-72.5-69.3-76.2-39.3-98.1-146.8-203.3-162.5-55.6-8.2-119.9,25.3-197.8,65.1-35.7,18.2-74,43.7-114.3,48.4-152.5,17.9-235.6,40.2-306.4,53.7-36.1,6.9-63,12.1-99.7,5.5-114-20.3-95.4-190.3-160-256.8C689.3,60,648.7,44,604.5,44.9c-148.7,3.3-223.3,176.4-315,200.8-116.1,30.9-124.3-16.4-250.5,43-114.1,53.7-160.3,77.4-257,32.5"/><path class="cls-5" d="M2039.7,538.5c-55.3-12.7-112.1-72-162.7-126.7-24.8-26.8-47-54.1-73.9-66.4-79.2-36.6-99.6-135.1-206.4-150.9-56.7-8.3-119.4,19.3-197.2,56.9-35.3,17-73.4,42.8-114.2,48.1-149.2,19.5-233,41.5-305.8,53.9-36.1,6.2-63,10.5-99.2,3.2C768.7,333.9,785.8,165.9,722,98.6,684.6,59.1,644.4,42.5,600.2,43,449.6,44.7,380.6,219.4,286.9,243.8,170.6,274,163.4,226.6,38.3,283.4-75.9,335.3-116,366.5-214.3,324"/><path class="cls-5" d="M2036.6,533.7c-55-14.1-112.2-72.1-163.6-125.3-24.9-25.8-47.4-52.2-75.3-63.6-82.1-33.8-101.2-123.4-209.5-139.2-57.8-8.4-118.9,13.2-196.7,48.6-34.8,15.9-72.8,41.9-114.1,47.8-145.9,20.9-230.5,42.9-305.1,54.1-36.1,5.4-63,8.8-98.6.8-109.6-24.7-94-190.8-156.9-258.8C679.9,58.3,640.1,41,595.9,41c-152.5.2-216,176.4-311.5,200.7-116.5,29.6-122.8-17.9-246.9,36.5-114.3,50-148.2,88.8-248.2,48.6"/><path class="cls-5" d="M2033.2,529c-54.6-15.5-112.2-72.2-164.6-124-25-24.8-47.8-50.3-76.7-60.8-85.1-31.1-102.8-111.6-212.6-127.6-58.9-8.5-118.3,7.1-196.1,40.4-34.4,14.7-72.3,41-114,47.5-142.6,22.3-228,44.3-304.4,54.3-36.1,4.7-63,7.2-98.1-1.6C759.3,330.3,773.4,166.1,711.4,97.4c-36.1-40-75.4-58-119.7-58.4C437.3,37.6,379.4,215.4,282,239.6c-116.7,29-122.1-18.6-245.2,33.2C-77.7,321-105.4,367.3-207,329.6"/><path class="cls-5" d="M2029.7,524.4c-54.3-16.8-112.2-72.3-165.5-122.6-25.1-23.7-48.2-48.4-78.1-57.9-88-28.3-104.3-99.9-215.7-116-59.9-8.6-117.7,1.1-195.6,32.1-33.9,13.5-71.7,40-113.9,47.2-139.3,23.6-225.5,45.7-303.8,54.4-36.1,4-63.1,5.6-97.5-3.9C754.4,328.6,767,166.3,705.9,96.9,670.5,56.6,631.6,38,587.3,37.1,431,34.2,378.6,213.5,279.4,237.6c-117,28.4-121.4-19.3-243.5,30-114.6,46.3-136,100.1-239.3,64.8"/><path class="cls-5" d="M2026.2,519.7c-54-18.2-112.2-72.4-166.4-121.2-25.2-22.7-48.6-46.5-79.5-55.1-91-25.6-105.9-88.2-218.8-104.3-61-8.6-117.1-5-195,23.9-33.4,12.4-71.2,39.1-113.8,46.8-136,24.8-222.9,47.2-303.1,54.6-36.1,3.3-63.1,4-97-6.3-103-31.3-91.9-191.6-152.2-261.8-34.8-40.5-73.2-59.9-117.5-61.2-158.2-4.5-205,176.4-306.1,200.4-117.1,27.8-120.7-20.1-241.7,26.8C-79.6,306.7-94.7,368-199.8,335.1"/><path class="cls-5" d="M2022.9,514.9c-53.7-19.5-112.1-72.5-167.4-119.8-25.3-21.7-49-44.6-81-52.3-93.9-22.8-107.5-76.5-221.9-92.7-62.1-8.7-116.5-11-194.5,15.7-33,11.3-70.6,38.1-113.7,46.5C1111.7,338.2,1024,361,942,367.1c-36.1,2.7-63.1,2.4-96.4-8.6C744.8,325.1,754.3,166.6,695,95.8,661,55,623,34.9,578.6,33.2,418.5,27.1,377.3,209.6,274.3,233.5c-117.3,27.3-120-20.9-240,23.5C-80.6,299.5-89.3,368.2-196.1,337.9"/><path class="cls-5" d="M2019.6,510.3c-53.3-20.8-112.1-72.7-168.3-118.5-25.4-20.7-49.4-42.7-82.4-49.5-96.9-20.1-109-64.8-225-81.1-63.2-8.8-115.9-16.9-193.9,7.4-32.5,10.1-70,37.1-113.6,46.2-129.4,27-217.8,50.3-301.8,55-36.1,2-63.1.8-95.9-11-98.6-35.6-90.6-192.1-149-263.7-33.5-41-71-61.8-115.4-63.9-162-7.8-197.7,176.4-302.5,200.2-117.5,26.7-119.4-21.7-238.2,20.3-115,40.6-117.5,116.7-226,88.9"/><path class="cls-5" d="M2016.2,505.5c-53-22.1-112-72.8-169.2-117.1-25.5-19.7-49.8-40.9-83.8-46.6-99.8-17.3-110.6-53-228.1-69.4-64.2-8.9-115.2-22.9-193.3-.8-32,9-69.5,36.1-113.6,45.9-126.1,28-215.3,51.9-301.1,55.2-36.1,1.4-63.1-.8-95.3-13.4-96.4-37.7-89.9-192.4-147.4-264.7C651.5,53.3,614.5,31.9,570,29.3,406.1,19.9,376,205.7,269.2,229.4c-117.7,26.2-118.7-22.5-236.5,17.1-115.2,38.7-111.3,122.2-221.6,97"/><path class="cls-5" d="M2012.8,500.9c-52.8-23.4-111.9-73-170.2-115.7-25.5-18.7-50.2-39-85.2-43.8-102.8-14.6-112.1-41.3-231.3-57.8-65.3-9-114.5-28.8-192.8-9.1-31.4,7.9-68.9,35.1-113.5,45.6-122.9,28.9-212.7,53.5-300.4,55.3-36,.8-63.1-2.4-94.8-15.7-94-39.8-89-192.7-145.7-265.7-32.2-41.5-68.8-63.7-113.2-66.6-165.8-11.1-190.3,176.4-299,200C148.9,253,148.7,204,32,241.2S-73.1,368.8-185.2,346.3"/><path class="cls-5" d="M2009.6,496.1c-52.5-24.6-111.8-73.2-171.1-114.3-25.6-17.8-50.6-37.1-86.6-41-105.7-11.8-113.7-29.6-234.4-46.2-66.4-9-113.8-34.7-192.2-17.3-30.9,6.9-68.4,34-113.4,45.3-119.6,29.8-210.2,55.2-299.8,55.5-36,.1-63.2-4-94.2-18.1-92-41.9-88.5-192.9-144.3-266.7-31.5-41.7-67.6-64.6-112.2-68-167.7-12.7-186.7,176.6-297.2,200-118.1,25.1-117.4-24.2-233,10.6S-67.6,368.9-181.5,349"/><path class="cls-5" d="M2006.3,491.5c-52.2-25.9-111.7-73.4-172-112.9-25.6-16.8-51-35.2-88-38.1-108.7-9.1-115.3-17.9-237.5-34.5-67.5-9.1-113.1-40.5-191.7-25.5-30.4,5.8-67.8,33-113.3,44.9C1087.3,355.9,996,382.1,904.5,381c-36-.5-63.2-5.6-93.6-20.5C721,316.5,723,167.3,668.2,92.8c-30.9-42-66.5-65.6-111.1-69.4C387.6,9,374.1,200,261.7,223.3c-118.2,24.5-116.8-25.1-231.3,7.4S-62.2,369-177.9,351.9"/><path class="cls-5" d="M2002.6,486.8c-52-27.1-111.5-73.7-173-111.6-25.7-15.8-51.4-33.3-89.4-35.3-111.6-6.3-116.8-6.2-240.6-22.9-68.5-9.2-112.4-46.3-191.1-33.8-29.9,4.8-67.3,31.9-113.2,44.6-113.2,31.4-205.1,58.6-298.4,55.9-36-1-63.2-7.1-93.1-22.8-87.7-46-87.2-193.4-141.1-268.6-30.3-42.2-65.4-66.6-110-70.8C381.4,5.3,373.4,198.1,259.2,221.3c-118.4,24-116.1-26-229.6,4.1C-86.4,256.2-56.8,369-174.3,354.6"/><path class="cls-5" d="M1999.3,482c-51.7-28.3-111.4-73.9-173.9-110.2-25.7-14.9-51.8-31.4-90.8-32.5-114.6-3.6-118.4,5.6-243.7-11.2-69.6-9.3-111.7-52.1-190.6-42-29.3,3.7-66.7,30.8-113.1,44.3-110,32.1-202.6,60.3-297.8,56.1-36-1.6-63.2-8.7-92.5-25.2-85.5-48.1-86.5-193.6-139.5-269.6-29.6-42.5-64.3-67.5-108.9-72.1C375.2,1.6,372.8,196.2,256.6,219.2c-118.6,23.5-115.5-26.9-227.8.9C-87.3,248.9-51.4,369-170.6,357.4"/><path class="cls-5" d="M1996,477.3c-51.5-29.5-111.2-74.3-174.8-108.8-25.7-14-52.2-29.5-92.3-29.7-117.5-.8-120,17.3-246.8.4-70.7-9.3-110.9-57.8-190-50.2-28.8,2.7-66.2,29.6-113,44C1072.3,365.8,979,395.1,882,389.3c-36-2.2-63.2-10.3-92-27.6-83.3-50.1-85.9-193.9-138-270.6-29-42.7-63.2-68.5-107.9-73.5C368.9-2,372.1,194.3,254.1,217.2S139.2,189.3,28,214.9C-88.4,241.6-46,369-167,360.3"/><path class="cls-5" d="M1992.6,472.6c-51.3-30.7-111-74.6-175.8-107.4-25.7-13.1-52.6-27.6-93.7-26.8-120.5,1.9-121.5,29-249.9,12-71.8-9.4-110.2-63.4-189.4-58.5-28.3,1.8-65.7,28.5-112.9,43.7-103.6,33.4-197.6,64-296.4,56.4-36-2.7-63.3-11.8-91.4-29.9C701.8,309.9,697.8,168,646.6,90.5,618.3,47.6,584.5,21,539.8,15.6,362.8-5.8,371.5,192.4,251.5,215.1s-114.3-28.8-224.3-5.5C-89.3,234.2-40.6,368.8-163.3,363"/><path class="cls-5" d="M1989.3,467.8c-51.1-31.9-110.8-75-176.7-106.1-25.8-12.2-53-25.7-95.1-24-123.4,4.7-123.1,40.7-253,23.7-72.8-9.5-109.5-69-188.9-66.7-27.7.8-65.2,27.3-112.8,43.4-100.5,34-195.1,65.8-295.8,56.6-36-3.3-63.3-13.4-90.9-32.3C697,308.3,691.5,168.2,641.3,89.9c-27.7-43.2-61-70.5-105.7-76.3-179-23.1-164.7,177-286.5,199.5-119.2,22-113.6-29.8-222.6-8.8C-90.3,226.9-35.1,368.6-159.6,365.8"/><path class="cls-5" d="M1985.9,463.4c-50.9-33.1-110.6-75.4-177.6-104.7-25.8-11.3-53.4-23.8-96.5-21.2-126.4,7.4-124.7,52.4-256.1,35.3-73.9-9.6-108.8-74.5-188.3-75-27.2-.2-64.7,26-112.8,43-97.4,34.5-192.6,67.7-295.1,56.8-36-3.8-63.4-15-90.3-34.7C692.3,306.7,685.3,168.3,636,89.3c-27.2-43.4-60-71.4-104.8-77.6-180.8-25-160.9,177-284.7,199.3-119.4,21.5-113-30.8-220.9-12-117,20.4-55.5,169.4-181.7,169.5"/><path class="cls-5" d="M1982.5,458.5c-50.7-34.3-110.4-75.9-178.6-103.3-25.8-10.4-53.8-21.9-97.9-18.3-129.3,10.2-126.2,64.2-259.2,46.9-75-9.7-108.1-80-187.8-83.2-26.7-1.1-64.3,24.8-112.7,42.7-94.3,35-190.2,69.7-294.4,57-36-4.4-63.4-16.5-89.8-37-74.8-58.2-83.3-194.8-131.7-274.5-26.5-43.6-58.8-72.4-103.6-79C344.3-17,369.7,186.9,244,209c-119.5,21-112.4-31.9-219.1-15.2C-92.3,212-24.4,368.2-152.4,371.4"/><path class="cls-5" d="M1979.1,453.9c-50.5-35.5-110.2-76.4-179.5-101.9-25.8-9.5-54.2-20-99.3-15.5C1568,349.3,1572.5,412.3,1438,395c-76.1-9.7-107.4-85.3-187.2-91.4-26.2-2-63.8,23.4-112.6,42.4-91.3,35.5-187.7,71.6-293.8,57.2-36.1-4.9-63.5-18.1-89.2-39.4-72.7-60.2-82.7-195-130.1-275.5C599.3,44.4,567.5,14.9,522.6,7.9,338.1-20.8,369,185.1,241.5,207c-119.7,20.5-111.8-33-217.4-18.5C-93.3,204.6-19.1,367.9-148.7,374.2"/><path class="cls-5" d="M1975.8,449.1c-50.3-36.7-110-76.9-180.4-100.6-25.8-8.7-54.6-18.1-100.7-12.7-135.2,15.7-129.4,87.6-265.4,70.2-77.1-9.8-106.8-90.7-186.7-99.7-25.7-2.9-63.4,22.1-112.5,42.1C1041.9,384.3,944.8,422,837,405.7c-36.1-5.4-63.5-19.6-88.7-41.8-70.7-62.2-82.1-195.3-128.5-276.5C594.6,43.3,563.3,13,518.4,5.6,332-24.6,368.4,183.2,239,204.9c-119.9,20.1-111.1-34-215.7-21.7C-94.3,197.1-13.8,367.5-145.1,376.9"/><path class="cls-5" d="M1972.4,444.4c-50.2-37.9-109.8-77.5-181.4-99.2-25.9-7.8-55-16.2-102.1-9.9-138.2,18.4-130.9,99.3-268.5,81.9-78.2-9.9-106.2-95.9-186.1-107.9-25.2-3.8-63,20.7-112.4,41.8-85.3,36.4-182.8,75.6-292.5,57.5-36.1-6-63.6-21.2-88.1-44.1C672.7,300.3,659.8,169,614.3,87,589.7,42.7,558.9,11.6,514,3.9c-188.2-32.3-146.2,177.5-277.5,199C116.4,222.5,126,167.8,22.6,178c-117.9,11.6-31,189.2-164,201.8"/><path class="cls-5" d="M1968.9,439.7c-50-39-109.6-78.1-182.3-97.8-25.9-7-55.4-14.3-103.6-7-141.1,21.2-132.5,111-271.6,93.5-79.3-10-105.7-101.1-185.5-116.2-24.8-4.7-62.7,19.3-112.3,41.5-82.3,36.8-180.4,77.7-291.8,57.7-36.1-6.5-63.6-22.7-87.6-46.5C667.8,298.8,653.5,169.2,609,86.5,585,41.9,554.7,10,509.7,2,319.7-32.2,367.2,179.7,234,200.9,113.7,220,124.1,164.6,21.8,172.7c-118,9.3-25,194.1-159.6,209.8"/><path class="cls-5" d="M1965.7,435.1c-49.9-40.2-109.4-78.8-183.2-96.4-25.9-6.2-55.8-12.4-105-4.2-144.1,23.9-134.1,122.8-274.7,105.1-80.4-10.1-105.2-106.3-185-124.4-24.3-5.5-62.3,17.8-112.2,41.1-79.4,37.1-178,79.7-291.1,57.9-36.2-7-63.7-24.3-87-48.8-64.7-68.2-80.5-196-123.9-279.5C580.1,41.1,550.4,8.5,505.4,0c-191.8-36.1-138.9,177.8-274,198.8C111,217.5,122.2,161.4,21,167.4c-118.2,7-19,199-155.1,217.9"/><path class="cls-5" d="M1962.3,430.3c-49.8-41.4-109.3-79.5-184.2-95-26-5.4-56.2-10.5-106.4-1.4-147,26.7-135.6,134.5-277.8,116.8-81.4-10.1-104.8-111.4-184.4-132.6-23.9-6.4-62,16.3-112.1,40.8-76.6,37.5-175.7,81.8-290.5,58.1-36.2-7.5-63.8-25.8-86.5-51.2-62.5-70.1-79.7-196.1-122.2-280.4-22.8-45-52-78.5-97.1-87.2-193.6-38.4-135.2,178-272.2,198.5-120.6,18.4-108.5-38.6-208.7-34.6-118.4,4.7-13,203.8-150.7,226"/><path class="cls-5" d="M1773.8,332c-26-4.6-56.6-8.6-107.8,1.5-150,29.4-137.2,146.2-280.9,128.4-82.5-10.2-104.4-116.4-183.9-140.9-58-17.8-206,142-401.8,98.8C610.2,377.9,657.6,28.9,496.7-3.9,301.3-43.8,365.3,174.2,226.4,194.7c-120.8,17.8-107.9-39.8-207-37.9-118.6,2.3-7,208.6-146.3,234"/></g></g></svg>