<svg id="Layer_1" data-name="Layer 1" xmlns="http://www.w3.org/2000/svg" xmlns:xlink="http://www.w3.org/1999/xlink" viewBox="0 0 1920 480"><defs><style>.cls-1,.cls-5{fill:none;}.cls-2{fill:url(#linear-gradient);}.cls-3{clip-path:url(#clip-path);}.cls-4{opacity:0.2;}.cls-5{stroke:#fff;stroke-miterlimit:10;}</style><linearGradient id="linear-gradient" x1="960" y1="482" x2="960" y2="2" gradientTransform="matrix(1, 0, 0, -1, 0, 482)" gradientUnits="userSpaceOnUse"><stop offset="0" stop-color="#397890"/><stop offset="1" stop-color="#0f2660"/></linearGradient><clipPath id="clip-path"><rect class="cls-1" width="1920" height="480"/></clipPath></defs><rect class="cls-2" width="1920" height="480"/><g class="cls-3"><g class="cls-4"><path class="cls-5" d="M1746,181.9c-199.1-18.4-326.3,102.6-527,108.8-160.8,4.9-355.4-110.3-585.2-110.3-264.1,0-347.4,222.7-420.3,117.5C132.4,181,52.4,36.8-317.2,36.8c-137.9,0-176.4-147.2-244.6-34.3"/><path class="cls-5" d="M1956.9,350c-88.8-65.9-156-159.8-204-166.3-52.7-7.1-100.7-2.6-147.3,7.6-123.3,27.3-230.8,93.9-375.8,100.9-45,2.3-92.4-5-142.5-15.9-129.7-28.4-277-85.4-440.6-86.4-75.9-.7-136.8,16.1-186.3,38.2-122.7,54.4-180,142-232.5,68.8C182.6,234,137.5,163.8,45.1,113-31.2,71.2-138.8,40-303.3,38-376.7,36.8-422.2-5.2-459-26.6c-31.5-18.3-57-21.5-88.8,29.8"/><path class="cls-5" d="M1960.4,352.7c-89.3-62.9-153.6-158.8-200.8-167.3-51.2-9.2-98.5-5.7-145.4,4.3-122.2,26.1-230,93.9-373.8,103.9-44.8,3.1-91.8-3.2-141.4-12.8-130-25.1-277.6-79.2-439.7-81.7-75.8-1.2-136.5,13.9-185.4,34.3C352.7,283.8,295.2,367,242.2,295.7c-45.8-61.6-92-129.3-184.9-178.8-77-40.7-184.5-73.2-346.8-77.8-72.8-2.1-118.4-44-155.4-64.9-31.3-17.7-57-20.5-89.2,29.7"/><path class="cls-5" d="M1964,355.7c-89.8-59.9-151.3-157.7-197.7-168.3-49.7-11.3-96.3-8.7-143.4,1.1-121.2,25.1-229.2,94-371.8,106.8-44.5,4-91.2-1.4-140.4-9.6C980.3,263.9,832.5,212.5,672,208.8c-75.8-1.8-136.3,11.7-184.5,30.3-119.9,46.2-177.4,125.3-231,55.7C210.1,234.6,163.1,168.9,69.6,121-8,81.1-115.5,47.2-275.6,40.2-347.7,37-393.5-4.6-430.5-25c-31.2-17.2-57-19.6-89.5,29.7"/><path class="cls-5" d="M1967.6,358.3c-90.2-57-148.8-156.7-194.5-169.3-48.2-13.3-94.1-11.6-141.5-2.1-120.1,24.2-228.4,94.2-369.8,109.7-44.3,4.9-90.6.4-139.3-6.5-130.9-18.5-278.8-67.2-437.8-72.2-75.7-2.4-136,9.5-183.6,26.3-118.5,42-176.1,117-230.2,49.2-47-58.9-95-122.3-189-168.7C3.6,86.1-103.9,50.6-261.7,41.3c-71.5-4.2-117.4-45.6-154.6-65.5-31-16.6-57-18.6-89.8,29.6"/><path class="cls-5" d="M1971.4,361.2C1880.8,307,1825,205.6,1780,190.8c-46.6-15.3-92-14.6-139.6-5.3-119,23.2-227.6,94.4-367.8,112.6-44.1,5.7-90.1,2.2-138.2-3.3-131.4-15.2-279.5-61.3-436.8-67.4-75.6-3-135.8,7.2-182.7,22.4C397.7,287.5,340,358.4,285.3,292.4c-47.7-57.6-96.6-118.7-191.1-163.7C15.2,91.1-92.2,54-247.8,42.4-318.7,37.2-364.7-4-402-23.4c-30.8-16.1-57-17.7-90.1,29.5"/><path class="cls-5" d="M1975.1,363.6c-91-51.2-143.8-154.4-188.2-171.3s-89.8-17.6-137.7-8.5c-117.9,22.3-226.9,94.7-365.8,115.6-43.9,6.6-89.5,4.1-137.1-.2-132-11.8-280.1-55.3-435.9-62.7-75.5-3.6-135.6,5-181.8,18.4C412.8,288.5,355,355.3,299.8,291c-48.3-56.2-98.2-115.1-193.1-158.6C27,95.9-80.3,57.1-233.7,43.3-304,37-350.1-3.9-387.6-22.9c-30.6-15.5-57.1-16.7-90.5,29.4"/><path class="cls-5" d="M1978.8,366.7c-91.3-48.3-141.2-153.2-185.1-172.3s-87.6-20.6-135.7-11.7c-117,21.3-226.3,94.8-364,118.4-43.7,7.5-89,5.9-136.1,3-132.6-8.4-280.7-49.4-434.9-57.9-75.4-4.2-135.3,2.7-181,14.4C427.5,290,369.7,352.7,314,290.2c-49-54.9-99.8-111.5-195.2-153.6C38.3,101.1-68.9,60.8-220,44.7c-69.7-7.4-115.9-48-153.5-66.5-30.5-15-57.1-15.8-90.8,29.3"/><path class="cls-5" d="M1982.3,369.5c-91.6-45.4-138.6-151.9-181.9-173.4s-85.4-23.5-133.8-15c-115.6,20.4-225.3,95.1-361.9,121.4-43.5,8.4-88.5,7.8-135,6.1-133.2-4.9-281.4-43.5-434-53.1-75.4-4.8-135.1.5-180.1,10.5-113.2,25.2-171,83.8-227.3,23C278.7,235.5,227,181.1,131.1,140.5,49.9,106.1-57.3,64.1-206.1,45.8-275.2,37.3-321.5-3-359.2-21c-30.3-14.4-57.1-14.9-91.1,29.3"/><path class="cls-5" d="M1986,372.3c-91.8-42.6-135.9-150.6-178.8-174.4-40.2-22.3-83.2-26.5-131.9-18.2-114.5,19.5-224.6,95.4-359.9,124.4-43.3,9.3-88,9.7-133.9,9.3-133.9-1.4-282-37.6-433-48.4-75.3-5.4-134.9-1.8-179.2,6.5C457.4,292.4,399.5,347,342.7,288c-50.3-52.2-102.9-104.3-199.3-143.5-81.9-33.3-189-77-335.5-97.5C-260.6,37.4-307-2.7-344.8-20.1c-30.2-14-57.3-14-91.6,29.1"/><path class="cls-5" d="M1989.6,375c-92.1-39.8-133.3-149.2-175.7-175.4-38.6-23.9-81-29.4-130-21.4-113.4,18.6-223.8,95.7-357.9,127.3-43.1,10.2-87.5,11.7-132.8,12.4-134.6,2.2-282.6-31.7-432.1-43.6-75.2-6-134.7-4.1-178.3,2.5C472.3,293.6,414.3,344,357,286.8c-50.9-50.9-104.5-100.7-201.4-138.4C73.1,116.2-34,70.8-178.3,48.1-246.2,37.4-292.7-2.4-330.7-19.3c-29.9-13.3-57.2-13-91.8,29.1"/><path class="cls-5" d="M1993.2,377.7c-92.3-37.1-130.7-147.7-172.5-176.4-37-25.4-78.8-32.4-128.1-24.6-112.3,17.8-223,96-355.9,130.2-42.9,11.1-87,13.6-131.8,15.6-135.3,5.8-283.2-25.8-431.1-38.9-75.2-6.7-134.5-6.3-177.4-1.4-109.3,12.5-167.3,58.9-225.1,3.4-51.6-49.6-106.1-97-203.5-133.4-83.2-31-190.2-78.1-332.2-103-67.3-11.8-113.8-51.3-152-67.8-29.7-12.8-57.3-12-92.1,29"/><path class="cls-5" d="M1996.9,380.5c-92.5-34.3-128.1-146.1-169.4-177.4-35.4-26.8-76.7-35.3-126.1-27.8-111.2,16.9-222.3,96.3-353.9,133.1-42.7,12-86.5,15.6-130.7,18.7-136,9.5-283.9-19.9-430.1-34.1-75.1-7.3-134.3-8.6-176.6-5.4C502,295.8,444,338.2,385.7,284.5,333.4,236.3,278,191.1,180.2,156.2c-84-30-190.9-78.9-330.7-105.9C-217.2,37.4-263.8-1.8-302.1-17.8c-29.5-12.3-57.3-11.1-92.4,28.9"/><path class="cls-5" d="M2000.6,383.5C1908,351.9,1875.1,239,1834.4,205.1c-33.9-28.2-74.5-38.3-124.2-31-110.1,16-221.5,96.6-351.9,136.1-42.5,12.9-86,17.6-129.6,21.9-136.8,13.2-284.5-14-429.2-29.3-75-7.9-134.1-10.9-175.7-9.4-106.9,3.9-164.9,42.3-223.6-9.7-53-46.9-109.4-89.8-207.6-123.3C107.7,131.3.9,80.6-136.6,51.4c-66.1-14-112.8-53-151.2-68.4-29.3-11.8-57.4-10.2-92.8,28.9"/><path class="cls-5" d="M2003.9,386.2c-92.8-29-123-142.9-163.1-179.4-32.4-29.5-72.3-41.2-122.3-34.3-108.9,15.2-220.7,96.9-349.9,139-42.3,13.8-85.5,19.7-128.5,25-137.6,17-285.1-8.2-428.2-24.6-74.9-8.6-134-13.2-174.8-13.3-105.7-.4-163.7,34-222.9-16.2-53.6-45.5-111-86.1-209.6-118.2C119.3,136.3,12.5,83.9-122.7,52.6-188.2,37.4-235-1.2-273.6-16.1c-29.1-11.2-57.4-9.2-93.1,28.8"/><path class="cls-5" d="M2007.9,389.1C1915,362.7,1887.4,248,1848,208.6c-30.9-30.8-70.1-44.2-120.4-37.5-107.8,14.3-220,97.2-347.9,141.9-42.1,14.7-85,21.7-127.5,28.2-138.3,20.9-285.8-2.4-427.3-19.8C750,312.1,691,305.8,650.9,304c-104.5-4.7-162.5,25.7-222.1-22.8C374.5,237,316.2,198.7,217.1,168,130.9,141.3,24.2,87.1-108.8,53.7c-64.9-16.3-111.7-54.6-150.5-69-28.9-10.7-57.5-8.3-93.4,28.7"/><path class="cls-5" d="M2011.5,391.5c-93-23.8-118.1-139.4-156.8-181.5-29.5-32-67.9-47.1-118.4-40.7-106.7,13.5-219.2,97.6-345.9,144.9-41.9,15.6-84.5,23.8-126.4,31.3-139.1,24.9-286.4,3.4-426.3-15.1-74.8-9.9-133.6-17.8-173-21.3-103.3-9.1-161.3,17.5-221.4-29.3C388.3,237,329.1,201,229.5,171.7,142.4,146.4,35.8,90.3-94.9,54.8-159.2,37.4-206.1-.7-245-14.5c-28.7-10.2-57.5-7.4-93.7,28.6"/><path class="cls-5" d="M2015,394.5c-93.1-21.3-115.7-137.6-153.6-182.5-28.1-33.3-65.7-50-116.5-43.9-105.5,12.7-218.4,98-344,147.8-41.7,16.6-84,25.9-125.3,34.5-139.8,28.9-287,9.2-425.4-10.3-74.7-10.6-133.5-20.1-172.1-25.2-102-13.5-160,9.1-220.6-35.9-55.7-41.4-115.8-75.2-215.8-103.1C154,151.4,47.4,93.5-81,56-144.7,37.4-191.6-.4-230.7-13.7c-28.5-9.7-57.6-6.5-94.1,28.5"/><path class="cls-5" d="M2018.8,397.4c-93.2-18.8-113.4-135.7-150.5-183.5-26.8-34.5-63.5-52.9-114.6-47.1-104.4,11.9-217.6,98.3-342,150.7-41.5,17.5-83.5,28.1-124.2,37.6-140.6,33-287.6,15-424.4-5.6-74.7-11.2-133.3-22.5-171.3-29.2-100.9-17.9-158.9.9-219.9-42.4-56.5-40.1-117.4-71.5-217.9-98.1C165.6,156.4,59.1,96.6-67,57-130.1,37.2-177.1-.2-216.4-13c-28.3-9.2-57.7-5.5-94.4,28.5"/><path class="cls-5" d="M2022.3,400.2c-93.3-16.3-111.2-133.9-147.4-184.5-25.5-35.6-61.3-55.9-112.7-50.3-103.3,11.1-216.8,98.7-340,153.6-41.3,18.4-83,30.2-123.2,40.8-141.3,37.1-288.3,20.8-423.5-.8-74.6-11.9-133.1-24.8-170.4-33.2-99.7-22.3-157.7-7.3-219.2-48.9-57.2-38.7-119-67.8-220-93C176.8,161.7,70.4,99.9-53.5,58.3-116,37.3-163.1.2-202.5-12c-28.1-8.7-57.7-4.6-94.7,28.4"/><path class="cls-5" d="M2026.1,403.1c-93.4-13.8-109-132-144.2-185.5-24.2-36.8-59.1-58.8-110.7-53.6-102.1,10.3-216.1,99.1-338,156.6-41.1,19.3-82.5,32.4-122.1,43.9-142,41.4-288.9,26.6-422.5,4-74.6-12.8-133-27.4-169.6-37.4-98.5-26.8-156.5-15.6-218.5-55.5-57.9-37.3-120.6-64.2-222-88-89.9-21-196.1-84.7-317.8-128.3-61.9-22.2-109-59-148.6-70.6C-215.8-19.5-245.7-15-283,17"/><path class="cls-5" d="M2029.5,405.6c-93.4-11.4-106.9-130.1-141.1-186.5-23-38-56.9-61.7-108.8-56.8-101,9.6-215.3,99.5-336,159.5-40.9,20.3-82,34.6-121,47.1-142.6,45.7-289.5,32.3-421.6,8.7-74.4-13.3-132.8-29.6-168.6-41.1-97.3-31.3-155.4-23.8-217.7-62-58.6-35.9-122.3-60.5-224.1-82.9C200.2,171.7,94,106-25.4,60.5-86.7,37.1-133.9.7-173.6-10.5c-27.7-7.7-57.9-2.8-95.4,28.2"/><path class="cls-5" d="M2033.2,408.6c-93.5-9.1-104.8-128.2-137.9-187.5-21.8-39.2-54.7-64.6-106.9-60-99.9,8.8-214.4,100-334,162.4-40.6,21.2-81.5,36.8-119.9,50.2-143.3,50.1-290.1,38.1-420.6,13.5-74.3-14-132.6-31.9-167.7-45.1-96.1-35.9-154.2-32-217-68.5-59.3-34.5-123.9-56.8-226.2-77.9-91.4-18.8-197.4-86.5-314.6-134C-72.2,37-119.4.9-159.4-9.7c-27.4-7.3-57.9-1.9-95.7,28.1"/><path class="cls-5" d="M2036.8,411.4c-93.6-6.7-102.9-126.3-134.8-188.6-20.7-40.4-52.5-67.5-105-63.2-98.7,8.1-213.6,100.4-332,165.4-40.4,22.2-81,39-118.9,53.4-143.8,54.6-290.7,43.8-419.6,18.2-74.3-14.7-132.4-34.3-166.9-49-94.9-40.5-153-40.3-216.3-75.1-60.1-33.1-125.5-53.1-228.2-72.8C223,182,117.1,112.3,2.1,62.9-57.7,36.9-105,1.1-145.1-8.9c-27.2-6.8-58-1-96,28.1"/><path class="cls-5" d="M2040.6,414.1c-93.7-4.4-101-124.4-131.6-189.6-19.6-41.6-50.3-70.4-103-66.4-97.6,7.3-212.8,100.8-330,168.3-40.2,23.1-80.4,41.2-117.8,56.5-144.3,59.1-291.4,49.5-418.7,23-74.2-15.4-132.2-36.7-166-53-93.6-45.1-151.9-48.5-215.5-81.6-60.8-31.7-127.1-49.4-230.3-67.8C234.8,187,129.1,115.2,16.3,63.9-43.2,36.8-90.5,1.3-130.8-8.1c-27-6.3-58.1,0-96.4,28"/><path class="cls-5" d="M2044.2,416.9c-93.9-2.1-99.1-122.5-128.5-190.6-18.5-42.8-48.1-73.3-101.1-69.6-96.5,6.6-212,101.3-328.1,171.2-40,24.1-79.8,43.4-116.7,59.6-144.8,63.7-292,55.2-417.7,27.8-74.1-16.2-132-39.1-165.1-57-92.3-49.7-150.7-56.7-214.8-88.2-61.5-30.2-128.7-45.7-232.4-62.7C246.4,192,140.8,118.2,30.2,65-28.6,36.7-76.1,1.5-116.6-7.3c-26.8-5.8-58.2.9-96.7,27.9"/><path class="cls-5" d="M2048,419.8c-94,.1-97.3-120.6-125.3-191.6-17.4-44-45.9-76.1-99.2-72.9-95.3,5.9-211.1,101.7-326.1,174.1a1093.8,1093.8,0,0,1-115.6,62.8c-145.2,68.3-292.6,60.9-416.8,32.5-74-16.9-131.8-41.6-164.2-60.9-91-54.3-149.6-64.9-214-94.7-62.3-28.8-130.4-42-234.4-57.7C258.1,197.2,152.7,121.2,44.2,66.2-14.1,36.6-61.6,1.8-102.3-6.5c-26.6-5.4-58.3,1.8-97,27.8"/><path class="cls-5" d="M2051.6,422.4c-94.1,2.4-95.5-118.7-122.2-192.6-16.3-45.3-43.7-79-97.3-76.1-94.2,5.1-210.3,102.2-324.1,177.1a1113.6,1113.6,0,0,1-114.6,65.9c-145.6,73-293.2,66.6-415.8,37.3-73.9-17.7-131.5-44-163.3-64.9C724.7,310.1,665.9,296,601,267.9c-63-27.4-132-38.3-236.5-52.6-95-13-200.3-91.1-306.5-148C.5,36.4-47.2,2-88-5.6c-26.4-4.9-58.3,2.6-97.3,27.7"/><path class="cls-5" d="M2055,425.2c-94.3,4.6-93.8-116.9-119.1-193.6-15.3-46.5-41.5-81.9-95.3-79.3-93.1,4.4-209.4,102.7-322.1,180A1202.2,1202.2,0,0,1,1405,401.4c-145.8,77.8-293.8,72.2-414.9,42-73.6-18.4-131-46.4-162.2-68.8C739.7,311,680.7,293.4,615.3,266.8c-63.7-25.9-133.6-34.6-238.5-47.6C281,207.4,176,127.1,71.9,68.4,15,36.3-32.7,2.1-73.7-4.8c-26.1-4.5-58.4,3.5-97.7,27.7"/><path class="cls-5" d="M2059.1,428c-94.5,6.8-92.1-115.1-115.9-194.6-14.3-47.8-39.3-84.7-93.4-82.5-91.9,3.7-208.5,103.1-320.1,182.9A1268.6,1268.6,0,0,1,1417.3,406c-146,82.6-294.3,77.9-413.9,46.8-73.7-19.2-131-48.8-161.6-72.8C755,311.7,695.7,290.6,630,265.7s-135.2-30.8-240.6-42.5c-96.5-10.7-201.3-93-303.3-153.7C29.6,36.1-18.3,2.3-59.5-4c-25.9-4-58.5,4.4-98,27.6"/><path class="cls-5" d="M2062.4,430.7c-94.7,8.9-90.4-113.3-112.8-195.7-13.3-49.2-37.1-87.6-91.5-85.7-90.8,3.1-207.7,103.6-318.1,185.9-38.8,28.9-76.8,54.8-111.3,75.4-146.2,87.4-294.9,83.5-413,51.5C942.2,442.3,885,411,855.1,385.4,769.8,312.5,710.2,287.8,644,264.5S507.2,237.4,401.3,227c-97.2-9.5-201.8-94-301.7-156.5C44.2,35.9-3.8,2.5-45.2-3.2c-25.7-3.6-58.6,5.3-98.3,27.5"/><path class="cls-5" d="M2065.9,433.6c-94.9,11.1-88.8-111.5-109.6-196.7-12.3-50.5-35-90.4-89.6-88.9-89.7,2.4-206.8,104.1-316.1,188.8-38.6,29.9-76.2,57-110.3,78.5-146.3,92.3-295.5,89.2-412,56.3C955,450.9,898.1,418,868.8,390.8,784.9,313.2,725,285.1,658.4,263.4S520,240,413.7,231c-98-8.3-202.3-95-300.1-159.3C58.8,35.8,10.6,2.7-30.9-2.4-56.4-5.5-89.6,3.8-129.6,25"/><path class="cls-5" d="M2070,436.4c-95.2,13.2-87.2-109.7-106.5-197.7-11.4-51.8-32.8-93.2-87.6-92.2-88.5,1.7-205.9,104.6-314.1,191.7-38.3,30.8-75.5,59.3-109.2,81.7-146.3,97.2-296.1,94.8-411.1,61.1-73.4-21.5-130.2-56.1-158.9-84.7C800,314,739.8,282.4,672.7,262.3s-140.1-19.5-246.8-27.4c-98.7-7-202.8-96.1-298.5-162.1C73.4,35.6,25,2.8-16.7-1.6c-25.3-2.7-58.8,7.1-99,27.3"/><path class="cls-5" d="M2073.4,439.2c-95.4,15.4-85.6-108-103.3-198.7-10.4-53.2-30.6-95.9-85.7-95.4-87.4,1.2-204.8,105.2-312.1,194.6-38,31.8-74.8,61.6-108.1,84.8-146.2,102.1-296.6,100.2-410.1,65.8-73.2-22.4-129.9-58.5-158-88.7-80.8-86.9-141.5-121.9-208.9-140.5s-141.7-15.8-248.9-22.3C338.8,233,235,141.8,141.3,74,88,35.4,39.5,3-2.4-.8c-25.1-2.3-58.9,7.9-99.3,27.3"/><path class="cls-5" d="M2077,441.9c-151.6,27.7-33.7-299-184-298.3-117,.6-291.9,193.7-417.2,285.6-241.5,177.1-496.6,58.3-566.3-22.1-158.8-183.4-244-154.1-459-164.3C292.9,235.4,127.2,8.5,11.9,0"/></g></g></svg>